<svg id="Layer_1" data-name="Layer 1" xmlns="http://www.w3.org/2000/svg" viewBox="0 0 200 200"><defs><style>.cls-1{fill:#242e37;}</style></defs><title>icon-jointangles-basic</title><path class="cls-1" d="M72.5,191.6a2.48,2.48,0,0,1-2.5-2.5V178.2a2.5,2.5,0,0,1,5,0v10.9A2.48,2.48,0,0,1,72.5,191.6Zm0-21.9a2.48,2.48,0,0,1-2.5-2.5V156.3a2.5,2.5,0,0,1,5,0v10.9A2.48,2.48,0,0,1,72.5,169.7Zm0-21.9a2.48,2.48,0,0,1-2.5-2.5V134.4a2.5,2.5,0,0,1,5,0v10.9A2.48,2.48,0,0,1,72.5,147.8Zm0-21.9a2.48,2.48,0,0,1-2.5-2.5V112.5a2.5,2.5,0,0,1,5,0v10.9A2.48,2.48,0,0,1,72.5,125.9Zm0-21.8a2.48,2.48,0,0,1-2.5-2.5v-11a2.5,2.5,0,0,1,5,0v10.9A2.56,2.56,0,0,1,72.5,104.1Z"/><path class="cls-1" d="M72.5,78.2A2.48,2.48,0,0,1,70,75.7V69.2c0-1.3.7-2.5,2-2.5l5.8-.2a2.45,2.45,0,0,1,2.5,2.4c0,1.4-.7,2.5-2.1,2.5l-3.2.3v4A2.48,2.48,0,0,1,72.5,78.2Z"/><path class="cls-1" d="M90.4,70.5a2.51,2.51,0,0,1-2.5-2.3,2.34,2.34,0,0,1,2.3-2.6l12.7-.9a2.45,2.45,0,1,1,.3,4.9l-12.7.9H90.4Zm25.5-1.8a2.51,2.51,0,0,1-2.5-2.3,2.34,2.34,0,0,1,2.3-2.6l12.7-.9a2.45,2.45,0,1,1,.3,4.9l-12.7.9h-0.1ZM141.4,67a2.51,2.51,0,0,1-2.5-2.3,2.34,2.34,0,0,1,2.3-2.6l12.7-.9a2.45,2.45,0,1,1,.3,4.9l-12.6.9h-0.2Zm25.5-1.7a2.51,2.51,0,0,1-2.5-2.3,2.34,2.34,0,0,1,2.3-2.6l12.7-.9a2.45,2.45,0,1,1,.3,4.9l-12.7.9h-0.1Z"/><path class="cls-1" d="M48,179.5v-78a4.05,4.05,0,0,0-.5-0.9c-0.1-.2-6.6-17.3-6.6-30.9,0-9.9,4.2-16,12.5-18.1,2.1-.5,6.7-2,13-4,13.4-4.3,33.9-10.7,53.7-15.8,9-2.3,23.1-4.6,38.2-6.7-1.9-1.5-3.9-2.9-5.9-4.3-13.3,1.9-25.5,4-33.8,6.2-20,5.2-40.3,11.6-53.8,15.9-6.2,2-10.7,3.4-12.6,3.9-6,1.5-16,6.6-16,22.9,0,13.4,5.7,29.3,6.7,32.2V176C44.6,177.2,46.3,178.4,48,179.5Z"/><path class="cls-1" d="M194.9,96H101.5a2.28,2.28,0,0,0-2.1,1,2,2,0,0,0-.1,2.2c0.1,0.2,10.5,21.2,8.3,42.9-1.1,10.9-6.9,33-12.5,52.7,1.6,0.1,3.2.1,4.9,0.1h0.2c5.6-19.7,11.3-41.5,12.4-52.7,1.8-18-4.2-34.3-7.2-42.3H195C195,98.7,195,97.3,194.9,96Z"/><path class="cls-1" d="M72.4,97a2.89,2.89,0,0,1-2.5-2.7,2.57,2.57,0,0,1,2.4-2.7,20.89,20.89,0,0,0,10.1-3,2.44,2.44,0,0,1,3.4.8,2.91,2.91,0,0,1-.8,3.7A25.24,25.24,0,0,1,72.4,97h0ZM92,84.6a2.66,2.66,0,0,1-1.2-.3,2.47,2.47,0,0,1-.9-3.4,20.22,20.22,0,0,0,2.7-10.2,2.5,2.5,0,0,1,5,0,25.23,25.23,0,0,1-3.3,12.6A2.67,2.67,0,0,1,92,84.6Z"/></svg>