<svg id="Layer_1" data-name="Layer 1" xmlns="http://www.w3.org/2000/svg" viewBox="0 0 200 200"><defs><style>.cls-1{fill:#242e37;}</style></defs><title>icon-feedback-basic</title><path class="cls-1" d="M125.6,155.5H75a10.39,10.39,0,0,1-10.4-10.4V54.9A10.39,10.39,0,0,1,75,44.5h50.6A10.39,10.39,0,0,1,136,54.9V145A10.35,10.35,0,0,1,125.6,155.5ZM75,49.5A5.55,5.55,0,0,0,69.5,55v90.1a5.55,5.55,0,0,0,5.5,5.5h50.6a5.55,5.55,0,0,0,5.5-5.5V54.9a5.55,5.55,0,0,0-5.5-5.5H75v0.1Z"/><path class="cls-1" d="M119.8,136.4h-39a8.49,8.49,0,0,1-8.5-8.5V73.6a8.49,8.49,0,0,1,8.5-8.5h39a8.49,8.49,0,0,1,8.5,8.5v54.3A8.62,8.62,0,0,1,119.8,136.4Zm-39-66.2a3.54,3.54,0,0,0-3.5,3.5V128a3.54,3.54,0,0,0,3.5,3.5h39a3.54,3.54,0,0,0,3.5-3.5V73.6a3.54,3.54,0,0,0-3.5-3.5h-39v0.1Z"/><path class="cls-1" d="M108.1,60H85.2a1.32,1.32,0,0,1-1.3-1.3V57a1.32,1.32,0,0,1,1.3-1.3h22.9a1.32,1.32,0,0,1,1.3,1.3v1.7A1.32,1.32,0,0,1,108.1,60Z"/><path class="cls-1" d="M115.4,60h-1a1.32,1.32,0,0,1-1.3-1.3V57a1.32,1.32,0,0,1,1.3-1.3h1a1.32,1.32,0,0,1,1.3,1.3v1.7A1.21,1.21,0,0,1,115.4,60Z"/><path class="cls-1" d="M91.6,114.5a18,18,0,0,0,2.8.1,12.08,12.08,0,0,0,3.3-1.5l7.2-5.7a0.64,0.64,0,0,1,.6,0l8.4,6.4a2.16,2.16,0,0,0,1.7.5,3,3,0,0,0,1.6-.8,2.36,2.36,0,0,0-.3-3.3l-10.2-8a2.4,2.4,0,0,0-3,0l-7.5,5a0.85,0.85,0,0,1-1,0c-0.8-.5-2.9-6.5-3-6.9a1.09,1.09,0,0,1-.1-0.5,0.42,0.42,0,0,1,.3-0.4l7.5-3.7a1.89,1.89,0,0,0,1.1-1.8,1.84,1.84,0,0,0-1.2-1.7L93,89.5h0l-3-1H89.4l-0.8.2-0.6.4-0.4.6a1.9,1.9,0,0,0,1,2.5L93.3,94a0.57,0.57,0,0,1,0,1,0.2,0.2,0,0,0-.2.1,1.63,1.63,0,0,1-.6.3,0.49,0.49,0,0,1-.6-0.3,0.48,0.48,0,0,1,.1-0.5l-3.7-1.5a2.94,2.94,0,0,1-1.6-1.5,2.8,2.8,0,0,1,0-2.2c0-.1.1-0.1,0.1-0.2a0.31,0.31,0,0,0,.1-0.2l0.1-.2a5590002.41,5590002.41,0,0,1,.2-0.4l0.2-.2,0.1-.1a0.2,0.2,0,0,1,.2-0.1l0.2-.1c0.1,0,.1-0.1.2-0.1l0.2-.1c0.1,0,.1-0.1.2-0.1l0.2-.1h1.5l0.2,0.1,2.1,0.8a5.43,5.43,0,0,0-.9-1.5A5.33,5.33,0,0,0,88,85.4a5.11,5.11,0,0,0-1.5,10,0.57,0.57,0,0,1,0,1c-1.1.4-3.9,1.3-1.3,9C87.6,112.7,89.9,114.1,91.6,114.5Z"/></svg>