<?xml version="1.0" encoding="utf-8"?>
<!-- Generator: Adobe Illustrator 18.1.1, SVG Export Plug-In . SVG Version: 6.00 Build 0)  -->
<svg version="1.1" id="Layer_1" xmlns="http://www.w3.org/2000/svg" xmlns:xlink="http://www.w3.org/1999/xlink" x="0px" y="0px"
	 viewBox="0 0 200 200" enable-background="new 0 0 200 200" xml:space="preserve">
<g>
	<g>
		<path fill="#FFFFFF" d="M141.2,134.6c-0.4,0-0.8-0.1-1.2-0.3c-1.2-0.7-1.6-2.2-0.9-3.4c4.5-7.8,7.3-16.1,8.3-24.7
			c1-8.7-0.2-17.5-3.7-26.4c-1-2.7-2.4-5.4-3.7-7.9c-0.3-0.6-0.7-1.3-1-1.9c-0.6-1.2-0.1-2.7,1.1-3.3c1.2-0.6,2.7-0.1,3.3,1.1
			c0.3,0.6,0.6,1.3,1,1.9c1.4,2.7,2.8,5.5,3.9,8.4c3.7,9.6,5.1,19.3,4,28.7c-1.1,9.2-4.1,18.2-8.9,26.6
			C142.9,134.1,142.1,134.6,141.2,134.6z"/>
		<path fill="#FFFFFF" d="M152.8,145.1c-0.6,0-1.1-0.2-1.6-0.6c-1.1-0.9-1.2-2.5-0.3-3.5c5.1-6,8.7-13.4,11.2-22.4
			c1.5-5.7,2.3-11.8,2.3-19c-0.1-13.3-3.6-25.2-10.3-35.5c-0.9-1.5-2-2.8-3.3-4.4c-0.9-1.1-0.7-2.6,0.4-3.5c1.1-0.9,2.6-0.7,3.5,0.4
			c1.3,1.6,2.5,3.1,3.6,4.8c7.2,11.1,10.9,24,11.1,38.2c0,7.7-0.8,14.2-2.5,20.3c-2.6,9.7-6.6,17.7-12.2,24.3
			C154.2,144.8,153.5,145.1,152.8,145.1z"/>
		<path fill="#FFFFFF" d="M141.2,134.6c-0.4,0-0.8-0.1-1.2-0.3c-1.2-0.7-1.6-2.2-0.9-3.4c4.5-7.8,7.3-16.1,8.3-24.7
			c1-8.7-0.2-17.5-3.7-26.4c-1-2.7-2.4-5.4-3.7-7.9c-0.3-0.6-0.7-1.3-1-1.9c-0.6-1.2-0.1-2.7,1.1-3.3c1.2-0.6,2.7-0.1,3.3,1.1
			c0.3,0.6,0.6,1.3,1,1.9c1.4,2.7,2.8,5.5,3.9,8.4c3.7,9.6,5.1,19.3,4,28.7c-1.1,9.2-4.1,18.2-8.9,26.6
			C142.9,134.1,142.1,134.6,141.2,134.6z"/>
		<path fill="#FFFFFF" d="M130.1,120.7c-0.4,0-0.9-0.1-1.3-0.3c-1.2-0.7-1.6-2.2-0.9-3.4c2.1-3.5,3.5-7.4,4.2-11.5
			c1.3-7.1-0.1-14.1-4.1-21.5c-0.7-1.2-0.2-2.7,1-3.4c1.2-0.7,2.7-0.2,3.4,1c4.6,8.5,6.1,16.6,4.7,24.8c-0.8,4.7-2.5,9.1-4.9,13.2
			C131.8,120.3,130.9,120.7,130.1,120.7z"/>
	</g>
	<path fill="#FFFFFF" d="M100,200C44.9,200,0,155.1,0,100C0,44.9,44.9,0,100,0s100,44.9,100,100C200,155.1,155.1,200,100,200z
		 M100,5C47.6,5,5,47.6,5,100c0,52.4,42.6,95,95,95s95-42.6,95-95C195,47.6,152.4,5,100,5z"/>
	<path fill="#FFFFFF" d="M106,155.9H55.4c-5.8,0-10.4-4.7-10.4-10.4V55.3c0-5.8,4.7-10.4,10.4-10.4H106c5.8,0,10.4,4.7,10.4,10.4
		v90.1C116.5,151.2,111.8,155.9,106,155.9z M55.4,49.8c-3,0-5.5,2.5-5.5,5.5v90.1c0,3,2.5,5.5,5.5,5.5H106c3,0,5.5-2.5,5.5-5.5V55.3
		c0-3-2.5-5.5-5.5-5.5H55.4z"/>
	<path fill="#FFFFFF" d="M100.2,136.8h-39c-4.7,0-8.5-3.8-8.5-8.5V74c0-4.7,3.8-8.5,8.5-8.5h39c4.7,0,8.5,3.8,8.5,8.5v54.3
		C108.6,133,104.8,136.8,100.2,136.8z M61.2,70.5c-1.9,0-3.5,1.6-3.5,3.5v54.3c0,1.9,1.6,3.5,3.5,3.5h39c1.9,0,3.5-1.6,3.5-3.5V74
		c0-1.9-1.6-3.5-3.5-3.5H61.2z"/>
	<g>
		<path fill="#FFFFFF" d="M88.5,60.4H65.6c-0.7,0-1.3-0.6-1.3-1.3v-1.7c0-0.7,0.6-1.3,1.3-1.3h22.9c0.7,0,1.3,0.6,1.3,1.3v1.7
			C89.8,59.8,89.2,60.4,88.5,60.4z"/>
		<path fill="#FFFFFF" d="M95.8,60.4h-1c-0.7,0-1.3-0.6-1.3-1.3v-1.7c0-0.7,0.6-1.3,1.3-1.3h1c0.7,0,1.3,0.6,1.3,1.3v1.7
			C97.2,59.8,96.6,60.4,95.8,60.4z"/>
	</g>
</g>
</svg>
