<?xml version="1.0" encoding="utf-8"?>
<!-- Generator: Adobe Illustrator 18.1.1, SVG Export Plug-In . SVG Version: 6.00 Build 0)  -->
<svg version="1.1" id="Layer_1" xmlns="http://www.w3.org/2000/svg" xmlns:xlink="http://www.w3.org/1999/xlink" x="0px" y="0px"
	 viewBox="0 0 200 200" enable-background="new 0 0 200 200" xml:space="preserve">
<g>
	<path fill="#49434D" d="M152.6,184.7c-0.4,0-0.8-0.1-1.2-0.3c-0.8-0.4-1.3-1.3-1.3-2.2l-0.1-8c0-0.7,0.3-1.3,0.7-1.8l11.1-11.2
		c-2-2-4.3-4.3-6.5-6.5l-4.9-5c-0.5-0.5-0.7-1.1-0.7-1.7l-0.2-13c0-0.1,0-0.1,0-0.2c0-12.3-13.3-22.4-34-26
		c-2.2,6.9-8.4,11.5-15.8,11.5c-7.6,0-13.7-4.3-15.9-11c-19.1,3.6-33.3,14.4-33.3,25.5c0,0.1,0,0.1,0,0.2l-0.6,47.1
		c0,0.9-0.5,1.7-1.3,2.2c-0.8,0.4-1.8,0.4-2.5-0.1c-28.9-18.5-46.1-50-46.1-84.3C-0.1,44.8,44.8-0.1,100-0.1S200.1,44.8,200.1,100
		c0,34.3-17.3,65.8-46.2,84.3C153.5,184.6,153,184.7,152.6,184.7z M155,175.3l0,2.3c25.2-17.9,40.1-46.5,40.1-77.6
		c0-52.4-42.7-95.1-95.1-95.1C47.6,4.9,4.9,47.6,4.9,100c0,31,14.9,59.7,40,77.5l0.5-43.1c0-0.1,0-0.2,0-0.3
		c0.6-13.5,16.1-25.7,37.6-29.7c-0.1-0.8-0.2-1.6-0.2-2.4c-10.3-6.7-16.6-18.6-16.6-31.6c0-20.3,15.4-36.9,34.3-36.9
		c18.9,0,34.3,16.5,34.3,36.9c0,13.7-7.2,26.4-18.5,32.7c0,0.3,0,0.5-0.1,0.8c23.2,4,37.7,15.4,38.2,30.2c0,0.1,0,0.1,0,0.2
		l0.2,12.6l4.2,4.2c2.9,2.9,5.8,5.8,8.2,8.3c1,1,1,2.6,0,3.5L155,175.3z M100.5,38.6c-16.1,0-29.3,14.3-29.3,31.9
		c0,11.8,5.9,22.5,15.4,28.1c0.8,0.5,1.3,1.4,1.2,2.3l0,0.2c0,0.2,0,0.5,0,0.7c0,0.8,0.1,1.7,0.2,2.5c1.1,6,5.9,10.4,11.5,10.4
		c5.6,0,10.5-4.4,11.5-10.5c0.1-0.8,0.2-1.6,0.2-2.4c0-0.1,0-0.1,0-0.2c0-1,0.5-1.9,1.4-2.3c10.4-5.2,17.1-16.6,17.1-28.9
		C129.8,52.9,116.7,38.6,100.5,38.6z"/>
	<path fill="none" d="M113.9,101.6c-1.9,0.9-4.2,1.8-6.3,2.3C109.8,103.4,111.9,102.6,113.9,101.6z"/>
	<path fill="#49434D" d="M99.6,119.7c-8,0-14.9-6.1-16.4-14.5c-0.2-1.1-0.3-2.3-0.3-3.4c0-0.4,0-0.7,0-1.1l0-0.2
		c0.1-0.9,0.6-1.6,1.3-2c0.8-0.4,1.7-0.4,2.4,0c2.2,1.3,4.6,2.3,7.2,2.9c4.5,1.1,8.8,1.1,13,0.1c2-0.5,3.9-1.2,5.8-2.1
		c0.8-0.4,1.7-0.3,2.4,0.1c0.7,0.4,1.2,1.2,1.2,2.1c0,0,0,0.1,0,0.2c0,1.1-0.1,2.2-0.3,3.3C114.6,113.6,107.7,119.7,99.6,119.7z
		 M88.3,104.9c1.3,5.7,6,9.8,11.4,9.8c5.2,0,9.7-3.7,11.2-9.1c-0.9,0.3-1.8,0.6-2.7,0.8c-5,1.3-10.2,1.3-15.5-0.1
		C91.2,106,89.7,105.5,88.3,104.9z"/>
	<path fill="#49434D" d="M100.5,107.3c-2.5,0-5.2-0.3-7.8-1c-3-0.8-5.9-1.9-8.5-3.5C73.2,96.4,66.3,84,66.3,70.5
		c0-20.3,15.4-36.9,34.3-36.9c18.9,0,34.3,16.5,34.3,36.9c0,14.3-7.8,27.4-19.8,33.4c-2.2,1.1-4.7,2-6.8,2.5
		C105.7,107,103.1,107.3,100.5,107.3z M100.5,38.6c-16.1,0-29.3,14.3-29.3,31.9c0,11.8,5.9,22.5,15.4,28.1c2.2,1.3,4.6,2.3,7.2,2.9
		c4.5,1.1,8.8,1.1,13,0.1c1.8-0.4,3.9-1.2,5.8-2.2c10.3-5.2,17-16.5,17-28.9C129.8,52.9,116.7,38.6,100.5,38.6z"/>
	<path fill="#49434D" d="M132,151.8c-0.6,0-1.3-0.2-1.8-0.7l-3.4-3.3c-1-1-1-2.6,0-3.5c1-1,2.6-1,3.5,0c0.8,0.7,1.5,1.5,2.3,2.2
		l1.1,1.1c1,1,1,2.6,0,3.5C133.2,151.6,132.6,151.8,132,151.8z"/>
	<path fill="#49434D" d="M135.9,155.7c-0.6,0-1.3-0.2-1.8-0.7l-3.9-3.9c-1-1-1-2.6,0-3.5c1-1,2.6-1,3.5,0l1.1,1.1
		c0.9,0.9,1.9,1.9,2.8,2.8c1,1,1,2.6,0,3.5C137.2,155.4,136.5,155.7,135.9,155.7z"/>
	<path fill="#49434D" d="M135.9,155.7c-0.6,0-1.3-0.2-1.8-0.7c-1-1-1-2.6,0-3.5l10.7-10.7c1-1,2.6-1,3.5,0c1,1,1,2.6,0,3.5
		L137.7,155C137.2,155.4,136.5,155.7,135.9,155.7z"/>
	<path fill="#49434D" d="M100,200.1c-11.2,0-22.3-1.9-32.9-5.5c-7.4-2.6-14.5-6-21.1-10.2c-0.7-0.5-1.2-1.3-1.2-2.1l0.6-47.8
		c0-0.1,0-0.2,0-0.3c0.6-13.9,17.1-26.5,39.7-30c1.3-0.2,2.6,0.7,2.9,2c1,5.7,5.6,9.3,11.6,9.3c5.9,0,10.5-3.9,11.5-9.8
		c0.2-1.3,1.5-2.2,2.8-2c24.6,3.6,40,15.3,40.5,30.6c0,0.1,0,0.1,0,0.2l0.2,13.7c0,1-0.6,1.9-1.5,2.3s-2,0.2-2.7-0.5
		c-2-2.1-4-4-5.6-5.6l-7.3-7.1c-7.8-7.8-10.5-9.3-16.1-9.3c-4.6,0-6.4,1.1-14.8,6.8c-1.7,1.1-3.6,2.4-5.8,3.9l-1.3-1.9l1.1,2.1
		c-0.9,0.5-1.7,0.9-2.3,1.3c-5.2,4-8.1,8.6-8.8,14.2c-0.8,5.8,0.7,11,4.4,15.4c3.8,4.6,9.4,7.2,15.2,7.2c5.1,0,10-2,13.8-5.6
		c1.9-1.8,3.8-3.8,5.7-5.6l1.6-1.6c0.7-0.7,1.8-0.9,2.7-0.5s1.5,1.3,1.5,2.3v26.6c0,1.1-0.7,2-1.7,2.4
		C122.3,198.2,111.2,200.1,100,200.1z M70.5,190.4c9.5,3.1,19.4,4.7,29.5,4.7c10.1,0,20-1.6,29.5-4.7v-18.8c-1,1-2.1,2-3.1,3
		c-4.7,4.5-10.9,7-17.3,7c-7.3,0-14.3-3.3-19.1-9c-4.6-5.5-6.5-12-5.5-19.3c0.9-7,4.5-12.7,10.8-17.5c0.1,0,0.1-0.1,0.2-0.1
		c0.7-0.4,1.6-1,2.6-1.5c2.2-1.4,4-2.7,5.6-3.8c8.5-5.7,11.3-7.7,17.6-7.7c8.1,0,12.2,3.3,19.7,10.8l7.3,7.1
		c0.4,0.4,0.8,0.8,1.3,1.3l-0.1-6.8c0-0.1,0-0.1,0-0.2c0-12.3-13.3-22.4-34-26c-2.2,6.9-8.4,11.5-15.8,11.5c-7.6,0-13.7-4.3-15.9-11
		c-19.1,3.6-33.3,14.4-33.3,25.5c0,0.1,0,0.1,0,0.2l-0.5,45.7c4.9,3.1,10.1,5.7,15.5,7.8v-42.2c0-1.4,1.1-2.5,2.5-2.5
		s2.5,1.1,2.5,2.5V190.4z M99.4,136.4l-0.5-2.4L99.4,136.4z"/>
	<path fill="#49434D" d="M132,194.7c-0.5,0-1-0.2-1.5-0.5c-0.7-0.5-1-1.2-1-2v-26.6c0-0.7,0.3-1.3,0.7-1.8l0.8-0.8
		c3.3-3.3,7.1-3.3,10.4,0l9.4,9.3c0.7-0.7,1.7-0.8,2.6-0.5c0.9,0.4,1.5,1.3,1.6,2.3l0.1,8c0,0.9-0.4,1.7-1.2,2.1
		c-6.6,4.2-13.7,7.7-21.1,10.3C132.5,194.7,132.2,194.7,132,194.7z M134.5,166.6v22c5.4-2.1,10.6-4.7,15.6-7.8l0-2.5
		c-0.4-0.1-0.7-0.3-1-0.6l-11.1-11.1c-0.7-0.7-1.3-1.1-1.7-1.1C135.8,165.5,135.2,165.9,134.5,166.6L134.5,166.6z"/>
	<path fill="#49434D" d="M101.7,137.8c-1,0-2-0.6-2.3-1.6c-0.5-1.3,0.2-2.7,1.5-3.2c0.3-0.1,0.5-0.2,0.7-0.2c1.3-0.3,2.7,0.6,3,1.9
		c0.3,1.3-0.5,2.6-1.8,2.9l-0.1,0C102.3,137.8,102,137.8,101.7,137.8z"/>
	<path fill="#49434D" d="M154.7,174.5c-0.7,0-1.3-0.3-1.8-0.7l-2.3-2.3l3.5-3.5l0.5,0.5l7.1-7.2c-2-2-4.3-4.3-6.5-6.5l-4.9-5
		l3.5-3.5l4.9,5c2.9,2.9,5.8,5.8,8.2,8.3c1,1,1,2.6,0,3.5l-10.6,10.7C156,174.3,155.3,174.5,154.7,174.5
		C154.7,174.5,154.7,174.5,154.7,174.5z"/>
	<path fill="#49434D" d="M150.6,171.5l-5.8-5.9c-3.6-3.6-7.1-7.1-10.7-10.7c-1-1-1-2.6,0-3.5l10.7-10.7c0.5-0.5,1.1-0.7,1.8-0.7
		c0,0,0,0,0,0c0.7,0,1.3,0.3,1.8,0.7c1.6,1.6,3.5,3.5,5.6,5.6l-3.5,3.5c-1.3-1.3-2.6-2.6-3.8-3.8l-7.1,7.2c3,3,6,6,8.9,9l5.8,5.8
		L150.6,171.5z"/>
	<path fill="#49434D" d="M128.6,148.4c-0.6,0-1.2-0.2-1.7-0.7l0,0c-0.5-0.5-0.7-1.1-0.7-1.8s0.2-1.3,0.7-1.8c1-1,2.6-1,3.5,0
		c0.5,0.5,0.7,1.2,0.7,1.8c0,0.6-0.2,1.3-0.7,1.8C129.8,148.2,129.2,148.4,128.6,148.4z"/>
	<path fill="#49434D" d="M128.5,148.4c-0.6,0-1.3-0.2-1.8-0.7c-1.6-1.6-3.2-3.2-4.8-4.7c-5.2-5.1-11.8-6.9-19.3-5.3c0,0-0.1,0-0.1,0
		c-0.3,0.1-1,0.4-2,0.9c-0.2,0.1-0.5,0.2-0.7,0.2c-1.2,0.2-2.3-0.4-2.8-1.5s-0.1-2.4,0.9-3c2.2-1.5,4.1-2.7,5.7-3.9
		c8.5-5.7,11.3-7.7,17.6-7.7c8.1,0,12.2,3.3,19.7,10.8c0.5,0.5,0.7,1.1,0.7,1.8s-0.3,1.3-0.7,1.8l-10.7,10.6
		C129.8,148.2,129.2,148.4,128.5,148.4z M110.2,132.2c5.8,0.5,10.9,2.9,15.3,7.2c1,1,2.1,2,3.1,3l7.1-7c-6.4-6.2-9.1-7.5-14.3-7.5
		C117.5,127.8,115.6,128.6,110.2,132.2z"/>
	<path fill="#49434D" d="M152.5,176.7c-0.3,0-0.6-0.1-0.9-0.2c-0.9-0.4-1.5-1.3-1.6-2.3l-0.1-4.5c0-1,0.6-1.9,1.5-2.3
		c0.9-0.4,2-0.2,2.7,0.5l2.3,2.3c1,1,1,2.6,0,3.5l-2.2,2.2C153.8,176.5,153.1,176.7,152.5,176.7z"/>
	<path fill="#49434D" d="M99.4,138.9c-0.9,0-1.8-0.5-2.3-1.4c-0.6-1.2-0.1-2.7,1.1-3.3c0.8-0.4,1.9-0.9,2.6-1.2
		c1.3-0.5,2.7,0.2,3.2,1.5c0.5,1.3-0.2,2.7-1.5,3.2c-0.3,0.1-0.8,0.4-1.2,0.6c-0.4,0.2-0.8,0.4-1,0.5
		C100.1,138.9,99.7,138.9,99.4,138.9z"/>
	<path fill="#49434D" d="M135.9,155.7c-0.6,0-1.3-0.2-1.8-0.7l-7.3-7.2c-0.5-0.5-0.7-1.1-0.7-1.8s0.3-1.3,0.7-1.8
		c1.7-1.7,3.5-3.5,5.2-5.2c1.8-1.8,3.6-3.6,5.4-5.4c1-1,2.5-1,3.5,0l7.3,7.1c0.5,0.5,0.8,1.1,0.8,1.8s-0.3,1.3-0.7,1.8L137.7,155
		C137.2,155.4,136.5,155.7,135.9,155.7z M132.1,145.9l3.7,3.7l7.1-7.2l-3.7-3.6c-1.2,1.2-2.5,2.5-3.7,3.7
		C134.4,143.7,133.3,144.8,132.1,145.9z"/>
	<path fill="#49434D" d="M128.6,148.5c-0.7,0-1.3-0.3-1.8-0.7l0,0c-0.5-0.5-0.7-1.1-0.7-1.8s0.3-1.3,0.7-1.8l10.7-10.6
		c1-1,2.6-1,3.5,0c1,1,1,2.6,0,3.5c-1.8,1.8-3.6,3.6-5.5,5.4c-1.7,1.7-3.5,3.4-5.2,5.2C129.9,148.2,129.3,148.5,128.6,148.5
		C128.6,148.5,128.6,148.5,128.6,148.5z"/>
</g>
</svg>
