<?xml version="1.0" encoding="utf-8"?>
<!-- Generator: Adobe Illustrator 18.1.1, SVG Export Plug-In . SVG Version: 6.00 Build 0)  -->
<svg version="1.1" id="Layer_1" xmlns="http://www.w3.org/2000/svg" xmlns:xlink="http://www.w3.org/1999/xlink" x="0px" y="0px"
	 viewBox="0 0 70 70" enable-background="new 0 0 70 70" xml:space="preserve">
<g>
	<path fill="#3BD6B2" d="M41,59.1l-6.1,0l-5.9,0c-1.4,0-2.7,0-4.1,0c-2.9,0-3.5-1.5-3.5-2.8c0-0.9,0.2-1.6,0.7-2.1
		c0.6-0.6,1.5-0.9,2.7-0.9c6.8,0,13.5,0,20.3,0c0.8,0,2.8,0,3.3,2.1c0.3,1.3,0,2.1-0.4,2.6c-0.4,0.5-1.2,1.1-2.7,1.1
		C43.9,59.1,42.5,59.1,41,59.1z M34.9,56.7l6.1,0c1.4,0,2.9,0,4.3,0c0.5,0,0.7-0.1,0.8-0.2c0,0,0.1-0.2,0-0.5c0-0.2-0.1-0.3-1-0.3
		c-6.8,0-13.5,0-20.3,0c-0.8,0-0.9,0.2-0.9,0.2c0,0,0,0.1,0,0.3c0,0.2,0,0.3,0,0.3l0,0c0,0,0.2,0.1,1,0.1c1.4,0,2.7,0,4.1,0
		L34.9,56.7z"/>
	<path fill="#3BD6B2" d="M41,62.9c-1,0-2.1,0-3.1,0c-1,0-2,0-3,0l-10.3,0c-2.9,0-3.2-2-3.2-2.9c0-1.8,1.1-2.9,3.1-2.9
		c1.3,0,2.5,0,3.8,0l3.1,0l6.9,0c2.3,0,4.6,0,6.9,0c0.9,0,2.7,0,3.3,2c0.3,1,0.2,2-0.3,2.7c-0.4,0.5-1.2,1.2-2.7,1.2
		C44,62.9,42.5,62.9,41,62.9z M33.2,60.4h1.7c1,0,2,0,3,0c2.5,0,5,0,7.5,0c0.5,0,0.7-0.1,0.7-0.2c0,0,0.1-0.2,0-0.5
		c0-0.1-0.1-0.1-0.1-0.1c-0.1-0.1-0.7-0.1-0.9-0.1c-2.3,0-4.6,0-6.9,0l-7.1,0l-2.9,0c-1.3,0-2.5,0-3.8,0c-0.4,0-0.6,0.1-0.6,0.1
		c0,0-0.1,0.1-0.1,0.3c0,0.2,0,0.3,0.1,0.3c0,0,0.1,0.1,0.7,0.1L33.2,60.4z"/>
	<path fill="#3BD6B2" d="M35,70c-1.2,0-2.5-0.6-3.6-1.8c-1.2-1.2-2.5-2.3-3.8-3.5c-0.6-0.6-1.3-1.1-1.9-1.7l-2.4-2.1h23.7L43.3,64
		c-0.8,0.7-1.5,1.3-2.2,2c-0.8,0.7-1.8,1.6-2.6,2.4C37.3,69.5,36.2,70,35,70z M29.6,63.3c1.2,1.1,2.3,2.1,3.4,3.2
		c0.7,0.7,1.3,1,1.9,1c0.5,0,1.1-0.3,1.8-0.9c0.9-0.9,1.9-1.8,2.7-2.5c0.3-0.3,0.6-0.5,0.9-0.8H29.6z"/>
	<path fill="#3BD6B2" d="M25.2,55.3c-1.7,0-2.8-0.9-3-2.5c-0.1-0.7-0.2-1.4-0.3-2c-0.1-1-0.2-2-0.4-3l-0.1-0.4
		c-0.3-1.7-0.7-3.4-1.4-4.9c-1.2-2.7-2.6-5.5-4.3-8.3c-3.9-6.6-4.3-14.3-1.2-21.1c3.1-6.8,9.2-11.5,16.7-12.8C32.5,0.1,33.8,0,35,0
		c11.5,0,21.3,9,22.3,20.5c0.5,5-0.8,9.8-4.1,15.5c-1.7,3-3,5.5-3.9,7.9c-0.5,1.2-0.6,2.6-0.8,4c-0.1,0.6-0.2,1.2-0.3,1.9
		c0,0.2-0.1,0.5-0.1,0.8c0,0.3,0,0.6-0.1,0.8c-0.5,3.2-1.4,4-4.5,4l-8.6,0c-0.9,0-1.8,0-2.7,0c-0.9,0-1.8,0-2.7,0c-1.7,0-3,0-4.2,0
		L25.2,55.3z M35,2.5c-1.1,0-2.2,0.1-3.3,0.3C25.1,3.9,19.6,8,16.8,14.1c-2.8,6.1-2.4,13,1.1,18.9c1.7,2.9,3.2,5.7,4.4,8.5
		c0.8,1.7,1.2,3.6,1.5,5.4l0.1,0.4c0.2,1.1,0.3,2.2,0.5,3.2c0.1,0.6,0.1,1.3,0.2,1.9c0.1,0.4,0.1,0.4,0.6,0.4l0.1,0
		c1.2,0,2.6,0,4.3,0c0.9,0,1.8,0,2.7,0c0.9,0,1.8,0,2.7,0l8.6,0c1.8,0,1.8,0,2.1-1.9c0-0.2,0.1-0.4,0.1-0.7c0-0.3,0.1-0.6,0.1-1
		c0.1-0.6,0.2-1.2,0.3-1.8c0.2-1.5,0.4-3.1,1-4.5c1-2.5,2.3-5.2,4-8.3c3-5.2,4.1-9.5,3.7-14C54,10.5,45.3,2.5,35,2.5z"/>
	<path fill="#3BD6B2" d="M41.2,52.4h-2.5V32.6c0-2.1-1.7-3.7-3.7-3.7c-2.1,0-3.7,1.7-3.7,3.7v19.8h-2.5V32.6c0-3.4,2.8-6.2,6.2-6.2
		c3.4,0,6.2,2.8,6.2,6.2V52.4z"/>
</g>
</svg>
