<?xml version="1.0" encoding="utf-8"?>
<!-- Generator: Adobe Illustrator 18.1.1, SVG Export Plug-In . SVG Version: 6.00 Build 0)  -->
<svg version="1.1" id="Layer_1" xmlns="http://www.w3.org/2000/svg" xmlns:xlink="http://www.w3.org/1999/xlink" x="0px" y="0px"
	 viewBox="0 0 200 200" enable-background="new 0 0 200 200" xml:space="preserve">
<path fill="#49434D" d="M100,200C44.9,200,0,155.1,0,100C0,44.9,44.9,0,100,0s100,44.9,100,100C200,155.1,155.1,200,100,200z
	 M100,4.9C47.6,4.9,4.9,47.6,4.9,100c0,52.4,42.7,95.1,95.1,95.1s95.1-42.7,95.1-95.1C195.1,47.6,152.4,4.9,100,4.9z"/>
<g>
	<path fill="#49434D" d="M115,144.5c0,1.4-1.1,2.5-2.5,2.5H87.5c-1.4,0-2.5-1.1-2.5-2.5v-10.1c0-1.4,1.1-2.5,2.5-2.5h25.1
		c1.4,0,2.5,1.1,2.5,2.5V144.5z M90,142h19v-5H90V142z"/>
	<path fill="#49434D" d="M125.8,158H73.6c-1.4,0-2.6-0.8-2.6-2.2v-3.5c0-5.9,5.1-10.4,11-10.4h35.9c5.7,0,10.2,4.4,10.2,10.4v3.5
		C128,157.2,127.1,158,125.8,158z M76,153h47v-0.6c0-3.2-2.2-5.4-5.2-5.4H82c-3.1,0-6,2.2-6,5.4V153z"/>
	<g>
		<path fill="#49434D" d="M108.6,121.4h-2.4c-1.2,0-2.2-1-2.2-2.2V96.6c0-1.2,1-2.2,2.2-2.2h2.4c1.2,0,2.2,1,2.2,2.2v22.7
			C110.7,120.5,109.7,121.4,108.6,121.4z"/>
		<path fill="#49434D" d="M119.8,121.4h-3.1c-1.1,0-2-0.9-2-2v-18.1c0-1.1,0.9-2,2-2h3.1c1.1,0,2,0.9,2,2v18.1
			C121.8,120.5,120.9,121.4,119.8,121.4z"/>
		<path fill="#49434D" d="M129.9,121.4h-1.4c-1.6,0-2.8-1.3-2.8-2.8V80.2c0-1.6,1.3-2.8,2.8-2.8h1.4c1.6,0,2.8,1.3,2.8,2.8v38.4
			C132.7,120.2,131.4,121.4,129.9,121.4z"/>
		<path fill="#49434D" d="M141,121.4h-1.9c-1.4,0-2.6-1.2-2.6-2.6V87.3c0-1.4,1.2-2.6,2.6-2.6h1.9c1.4,0,2.6,1.2,2.6,2.6v31.6
			C143.6,120.3,142.4,121.4,141,121.4z"/>
	</g>
	<g>
		<path fill="#49434D" d="M96,94.6c-2.1-8.9-10-15.7-19-16.5v18.8L96,94.6z"/>
		<path fill="#49434D" d="M71,100V78.3C61,80,53.4,88.8,53.4,99.4c0,7.7,4.3,14.5,10.4,18.3l7.4-17.2C71.2,100.3,71,100.1,71,100z"
			/>
		<path fill="#49434D" d="M90.3,105.7c-2.3,5.7-7.7,9.7-14.2,10.1l3.9-8.9L90.3,105.7 M96.5,100L96.5,100L96.5,100z M96.5,100
			l-19.8,2.4L69,119.9c1.9,0.6,4,0.9,6.1,0.9C86.7,120.8,96.2,111.6,96.5,100L96.5,100z"/>
	</g>
	<path fill="#49434D" d="M144.1,136.6H55.7c-8.2,0-14.9-6.7-14.9-14.9V68.5c0-8.2,6.7-14.9,14.9-14.9h88.4c8.2,0,14.9,6.7,14.9,14.9
		v53.2C158.9,129.9,152.3,136.6,144.1,136.6z M55.7,58.5c-5.5,0-10,4.5-10,10v53.2c0,5.5,4.5,10,10,10h88.4c5.5,0,10-4.5,10-10V68.5
		c0-5.5-4.5-10-10-10H55.7z"/>
</g>
</svg>
