<svg id="Layer_1" data-name="Layer 1" xmlns="http://www.w3.org/2000/svg" viewBox="0 0 80 80"><defs><style>.cls-1{fill:#fff;}.cls-2{fill:#49434d;}</style></defs><title>icon-heddokoapp-basic</title><path class="cls-1" d="M51.1,64H28.7a4.23,4.23,0,0,1-4.2-4.2V20.2A4.23,4.23,0,0,1,28.7,16H51.2a4.23,4.23,0,0,1,4.2,4.2V59.8A4.38,4.38,0,0,1,51.1,64Z"/><path class="cls-2" d="M51.1,64H28.7a4.23,4.23,0,0,1-4.2-4.2V20.2A4.23,4.23,0,0,1,28.7,16H51.2a4.23,4.23,0,0,1,4.2,4.2V59.8A4.38,4.38,0,0,1,51.1,64ZM28.7,18a2.22,2.22,0,0,0-2.2,2.2V59.8A2.22,2.22,0,0,0,28.7,62H51.2a2.22,2.22,0,0,0,2.2-2.2V20.2A2.22,2.22,0,0,0,51.2,18H28.7Z"/><path class="cls-2" d="M48.5,55.7H31.3a3.37,3.37,0,0,1-3.4-3.4V28.4A3.37,3.37,0,0,1,31.3,25H48.6A3.37,3.37,0,0,1,52,28.4V52.3A3.52,3.52,0,0,1,48.5,55.7ZM31.3,27a1.37,1.37,0,0,0-1.4,1.4V52.3a1.37,1.37,0,0,0,1.4,1.4H48.6A1.37,1.37,0,0,0,50,52.3V28.4A1.37,1.37,0,0,0,48.6,27H31.3Z"/><path class="cls-2" d="M41.4,59.4h-3a0.9,0.9,0,0,1-.9-0.9h0a0.9,0.9,0,0,1,.9-0.9h3a0.9,0.9,0,0,1,.9.9h0A0.9,0.9,0,0,1,41.4,59.4Z"/><path class="cls-2" d="M42.9,22.7H33.7a0.9,0.9,0,0,1-.9-0.9h0a0.9,0.9,0,0,1,.9-0.9h9.2a0.9,0.9,0,0,1,.9.9h0A0.89,0.89,0,0,1,42.9,22.7Z"/><path class="cls-2" d="M46.2,22.7h0a0.86,0.86,0,0,1-.8-0.8V21.6a0.86,0.86,0,0,1,.8-0.8h0a0.86,0.86,0,0,1,.8.8v0.3A0.79,0.79,0,0,1,46.2,22.7Z"/></svg>