<svg id="Layer_1" data-name="Layer 1" xmlns="http://www.w3.org/2000/svg" viewBox="0 0 80 80"><defs><style>.cls-1{fill:#fff;}.cls-2{fill:#49434d;}</style></defs><title>icon-heddokoapp-tablet-basic</title><path class="cls-1" d="M55.1,66H24.7a4.23,4.23,0,0,1-4.2-4.2V20.2A4.23,4.23,0,0,1,24.7,16H55.2a4.23,4.23,0,0,1,4.2,4.2V61.8A4.38,4.38,0,0,1,55.1,66Z"/><path class="cls-2" d="M55.1,66H24.7a4.23,4.23,0,0,1-4.2-4.2V20.2A4.23,4.23,0,0,1,24.7,16H55.2a4.23,4.23,0,0,1,4.2,4.2V61.8A4.38,4.38,0,0,1,55.1,66ZM24.7,18a2.22,2.22,0,0,0-2.2,2.2V61.8A2.22,2.22,0,0,0,24.7,64H55.2a2.22,2.22,0,0,0,2.2-2.2V20.2A2.22,2.22,0,0,0,55.2,18H24.7Z"/><path class="cls-2" d="M52.5,55.7H27.3a3.37,3.37,0,0,1-3.4-3.34s0,0,0-.06V26.4A3.37,3.37,0,0,1,27.24,23H52.6A3.37,3.37,0,0,1,56,26.34s0,0,0,.06V52.3A3.52,3.52,0,0,1,52.5,55.7ZM27.3,25a1.37,1.37,0,0,0-1.4,1.34s0,0,0,.06V52.3a1.37,1.37,0,0,0,1.34,1.4H52.6A1.37,1.37,0,0,0,54,52.36s0,0,0-.06V26.4A1.37,1.37,0,0,0,52.66,25H27.3Z"/><circle class="cls-2" cx="40" cy="20.67" r="1"/><circle class="cls-2" cx="40" cy="60.04" r="2.5"/></svg>