<?xml version="1.0" encoding="utf-8"?>
<!-- Generator: Adobe Illustrator 18.1.1, SVG Export Plug-In . SVG Version: 6.00 Build 0)  -->
<svg version="1.1" id="Layer_1" xmlns="http://www.w3.org/2000/svg" xmlns:xlink="http://www.w3.org/1999/xlink" x="0px" y="0px"
	 viewBox="0 0 200 200" enable-background="new 0 0 200 200" xml:space="preserve">
<g>
	<g>
		<path fill="#FFFFFF" d="M99.6,113.1c-8,0-14.8-6.1-16.3-14.4c-0.2-1.1-0.3-2.3-0.3-3.4c0-0.4,0-0.7,0-1.1l0-0.2
			c0.1-0.9,0.6-1.6,1.3-2c0.8-0.4,1.7-0.4,2.4,0c2.2,1.3,4.6,2.3,7.2,2.9c2.3,0.6,4.4,0.9,6.6,0.9c2.1,0,4.3-0.3,6.4-0.8
			c1.8-0.5,3.6-1.1,5.3-1.9c0.8-0.4,1.7-0.3,2.4,0.1l0.5,0.3c0.7,0.5,1.2,1.3,1.2,2.2c0,0.9-0.1,1.9-0.3,2.8
			C114.5,107,107.7,113.1,99.6,113.1z M88.3,98.4c1.3,5.7,6,9.8,11.3,9.8c5.2,0,9.7-3.7,11.1-9c-0.9,0.3-1.8,0.6-2.6,0.8
			c-5,1.2-10.1,1.3-15.4-0.1C91.2,99.4,89.7,98.9,88.3,98.4z"/>
		<path fill="#FFFFFF" d="M100.5,100.8c-2.5,0-5.1-0.3-7.8-1c-3-0.8-5.9-1.9-8.5-3.4c-11-6.4-17.8-18.8-17.8-32.3
			c0-20.2,15.3-36.7,34.1-36.7s34.1,16.5,34.1,36.7c0,14.2-7.7,27.2-19.7,33.2c-2.2,1.1-4.7,2-6.8,2.5
			C105.6,100.5,103.1,100.8,100.5,100.8z M100.5,32.4c-16.1,0-29.1,14.2-29.1,31.7c0,11.7,5.9,22.4,15.4,28c2.2,1.3,4.6,2.3,7.2,2.9
			c2.3,0.6,4.4,0.9,6.6,0.9c2.1,0,4.3-0.3,6.4-0.8c1.8-0.4,3.9-1.2,5.8-2.1c10.3-5.2,16.9-16.5,16.9-28.8
			C129.7,46.6,116.6,32.4,100.5,32.4z"/>
		<g>
			<path fill="#FFFFFF" d="M99.5,180.8h-4.5c-1.1,0-2.1-0.8-2.4-1.9l-4.6-18.5c-0.2-0.7-0.1-1.6,0.4-2.2c0.5-0.6,1.2-1,2-1h9.1
				c6.5,0,11.8,5.3,11.8,11.8C111.2,175.5,106,180.8,99.5,180.8z M96.9,175.8h2.6c3.8,0,6.8-3.1,6.8-6.8c0-3.8-3.1-6.8-6.8-6.8h-5.9
				L96.9,175.8z"/>
			<path fill="#FFFFFF" d="M59.8,180.8h-3.3c-6.5,0-11.8-5.3-11.8-11.8c0-0.2,0-0.5,0.1-0.7c0-5.4-0.1-7-0.1-7.4c0,0,0-0.2,0-0.2
				l1-33c0-0.1,0-0.2,0-0.2c0.5-10.2,9.6-20,24.2-25.8c1.3-0.5,2.7,0.1,3.2,1.4c0.5,1.3-0.1,2.7-1.4,3.2c0,0,0,0,0,0l0,0
				c0,0,0,0,0,0c-2.7,1.1-5.3,2.4-7.8,3.8l-1.7,68.2C62.3,179.7,61.2,180.8,59.8,180.8z M49.8,169.6c0.3,3.5,3.2,6.2,6.8,6.2h0.8
				l1.6-62.1c-5.3,4.4-8.2,9.5-8.2,14.6c0,0.1,0,0.2,0,0.3l-1,32.2c0,1.2,0.1,5.1,0.1,8.2C49.9,169.2,49.8,169.4,49.8,169.6z"/>
			<path fill="#FFFFFF" d="M71.4,106.3c-1,0-2-0.6-2.3-1.6c0,0,0,0,0,0l0,0c-0.2-0.5-0.2-1-0.1-1.4l0,0c0,0,0,0,0,0l0,0c0,0,0,0,0,0
				l0,0c0,0,0,0,0,0l0,0c0,0,0,0,0,0l0,0c0,0,0,0,0,0c0,0,0,0,0,0l0,0c0,0,0,0,0,0v0c0,0,0,0,0,0v0c0,0,0,0,0,0v0c0,0,0,0,0,0
				c0,0,0,0,0,0v0c0,0,0,0,0,0c0,0,0,0,0,0v0c0,0,0,0,0,0c0,0,0,0,0,0c0,0,0,0,0,0c0,0,0,0,0,0c0,0,0,0,0,0c0,0,0,0,0,0c0,0,0,0,0,0
				c0,0,0,0,0,0c0,0,0,0,0,0c0,0,0,0,0,0c0,0,0,0,0,0c0,0,0,0,0,0c0,0,0,0,0,0c0,0,0,0,0,0c0,0,0,0,0,0c0,0,0,0,0,0c0,0,0,0,0,0
				c0,0,0,0,0,0c0,0,0,0,0,0c0,0,0,0,0,0c0,0,0,0,0,0c0,0,0,0,0,0l0,0c0,0,0,0,0,0c0,0,0,0,0,0c0,0,0,0,0,0c0,0,0,0,0,0c0,0,0,0,0,0
				c0,0,0,0,0,0c0,0,0,0,0,0c0,0,0,0,0,0c0,0,0,0,0,0c0,0,0,0,0,0c0,0,0,0,0,0c0,0,0,0,0,0c0,0,0,0,0,0c0,0,0,0,0,0c0,0,0,0,0,0
				c0,0,0,0,0,0c0,0,0,0,0,0c0,0,0,0,0,0c0,0,0,0,0,0c0,0,0,0,0,0c0,0,0,0,0,0v0c0,0,0,0,0,0c0,0,0,0,0,0c0,0,0,0,0,0c0,0,0,0,0,0
				l0,0c0,0,0,0,0,0l0,0c0,0,0,0,0,0l0,0c0,0,0,0,0,0c0,0,0,0,0,0l0,0c0,0,0,0,0,0l0,0c0,0,0,0,0,0l0,0c0.1-0.3,0.2-0.5,0.4-0.8l0,0
				c0,0,0,0,0,0l0,0c0,0,0,0,0,0c0,0,0,0,0,0c0,0,0,0,0,0c0,0,0,0,0,0c0,0,0,0,0,0l0,0c0,0,0,0,0,0l0,0c0,0,0,0,0,0c0,0,0,0,0,0v0
				c0,0,0,0,0,0l0,0c0,0,0,0,0,0c0,0,0,0,0,0c0,0,0,0,0,0c0,0,0,0,0,0c0,0,0,0,0,0c0,0,0,0,0,0c0,0,0,0,0,0c0,0,0,0,0,0c0,0,0,0,0,0
				c0,0,0,0,0,0v0c0,0,0,0,0,0c0,0,0,0,0,0c0,0,0,0,0,0c0,0,0,0,0,0c0,0,0,0,0,0c0,0,0,0,0,0c0,0,0,0,0,0c0,0,0,0,0,0c0,0,0,0,0,0
				c0,0,0,0,0,0c0,0,0,0,0,0c0,0,0,0,0,0c0,0,0,0,0,0c0,0,0,0,0,0c0,0,0,0,0,0c0,0,0,0,0,0c0,0,0,0,0,0c0,0,0,0,0,0c0,0,0,0,0,0
				c0,0,0,0,0,0c0,0,0,0,0,0c0,0,0,0,0,0c0,0,0,0,0,0l0,0c0,0,0,0,0,0c0,0,0,0,0,0c0,0,0,0,0,0c0,0,0,0,0,0l0,0c0,0,0,0,0,0
				c0,0,0,0,0,0c0,0,0,0,0,0l0,0c0,0,0,0,0,0c0,0,0,0,0,0l0,0c0,0,0,0,0,0l0,0c0,0,0,0,0,0l0,0c0,0,0,0,0,0l0,0
				c0.2-0.3,0.5-0.5,0.9-0.6h0c0,0,0,0,0,0c0,0,0,0,0,0c0.5-0.2,1-0.4,1.5-0.5c1.3-0.5,2.7,0.2,3.2,1.5c0.5,1.3-0.2,2.7-1.5,3.2
				c-0.5,0.2-0.9,0.3-1.4,0.5c0,0,0,0,0,0c0,0,0,0,0,0c0,0,0,0,0,0c0,0,0,0,0,0c0,0,0,0,0,0c0,0,0,0,0,0c0,0,0,0,0,0c0,0,0,0,0,0
				c0,0,0,0,0,0c0,0,0,0,0,0c0,0,0,0,0,0c0,0,0,0,0,0c0,0,0,0,0,0l0,0c0,0,0,0,0,0c0,0,0,0,0,0c0,0,0,0,0,0c0,0,0,0,0,0h0
				c0,0,0,0,0,0c0,0,0,0,0,0c0,0,0,0,0,0c0,0,0,0,0,0C72,106.2,71.7,106.3,71.4,106.3z"/>
			<path fill="#FFFFFF" d="M70.9,106.5c-1,0-1.9-0.6-2.3-1.6c-0.1-0.3-0.2-0.6-0.2-0.9c0-1,0.6-1.9,1.6-2.3l0.5-0.2
				c1.3-0.5,2.7,0.1,3.2,1.4c0.1,0.3,0.2,0.6,0.2,0.9c0,1-0.6,1.9-1.6,2.3l-0.5,0.2C71.5,106.4,71.2,106.5,70.9,106.5z"/>
			<path fill="#FFFFFF" d="M95.1,181.6H59.8c-0.7,0-1.3-0.3-1.8-0.8c-0.5-0.5-0.7-1.1-0.7-1.8l0-0.8c0-1.3,1.1-2.4,2.5-2.4h35.1
				c1.1,0,2.1,0.8,2.4,1.9l0.2,0.8c0.2,0.7,0,1.5-0.5,2.1C96.6,181.2,95.9,181.6,95.1,181.6z"/>
			<path fill="#FFFFFF" d="M72.8,105.8c-1,0-1.9-0.6-2.3-1.5c-0.5-1.3,0.1-2.7,1.3-3.2c0.2-0.1,0.3-0.1,0.5-0.1
				c1.3-0.3,2.5,0.5,2.9,1.7c0.4,1.2-0.3,2.5-1.5,3c0,0-0.1,0-0.1,0C73.4,105.7,73.1,105.8,72.8,105.8z"/>
			<path fill="#FFFFFF" d="M154.2,127.7c0-0.1,0-0.1,0-0.2c-0.5-15.1-15.7-26.7-40-30.4c-0.1,0-0.3,0-0.4,0c-1.3,0-2.5,1-2.8,2.3
				c-1.1,5.6-5.7,9.4-11.4,9.4c-5.9,0-10.4-3.5-11.5-9c-0.3-1.3-1.4-2.3-2.8-2.3c-0.1,0-0.3,0-0.5,0c-4.5,0.7-8.9,1.8-13,3.3
				c-1.3,0.5-2,1.9-1.5,3.2c0.4,1,1.4,1.7,2.4,1.7l15,54.6c0.3,1.1,1.3,1.8,2.4,1.8h9.1c3.8,0,6.8,3.1,6.8,6.8
				c0,3.8-3.1,6.8-6.8,6.8h-4.5c-0.7,0-1.4,0.3-1.9,0.8H68.2c-1.4,0-2.5,1.1-2.5,2.5v9.5c1.6,0.6,3.3,1.2,5,1.8v-8.8h24.5
				c0.7,0,1.4-0.3,1.9-0.8h2.5c6.5,0,11.8-5.3,11.8-11.8c0-6.5-5.3-11.8-11.8-11.8h-7.2l-14.6-52.9c2-0.6,4.1-1.1,6.2-1.5
				c2.2,6.6,8.3,10.9,15.8,10.9c7.3,0,13.6-4.6,15.8-11.4c20.6,3.6,33.8,13.6,33.8,25.9c0,0.1,0,0.2,0,0.3l1,37.1
				c0,0.6-0.1,3.4-0.1,15c1.7-1.1,3.4-2.2,5-3.3c0.1-8.7,0.1-10.9,0.1-11.5c0,0,0-0.2,0-0.2L154.2,127.7z"/>
		</g>
		<path fill="#FFFFFF" d="M131.8,133.2c-1.4,0-2.5,1.1-2.5,2.5v54.7c1.7-0.5,3.3-1.1,5-1.8v-52.9
			C134.3,134.3,133.2,133.2,131.8,133.2z"/>
	</g>
</g>
<path fill="#FFFFFF" d="M100,200C44.9,200,0,155.1,0,100S44.9,0,100,0s100,44.9,100,100S155.1,200,100,200z M100,5
	C47.6,5,5,47.6,5,100s42.6,95,95,95s95-42.6,95-95S152.4,5,100,5z"/>
</svg>
