<?xml version="1.0" encoding="utf-8"?>
<!-- Generator: Adobe Illustrator 18.1.1, SVG Export Plug-In . SVG Version: 6.00 Build 0)  -->
<svg version="1.1" id="Layer_1" xmlns="http://www.w3.org/2000/svg" xmlns:xlink="http://www.w3.org/1999/xlink" x="0px" y="0px"
	 viewBox="0 0 80 80" enable-background="new 0 0 80 80" xml:space="preserve">
<g>
	<path fill="#FFFFFF" d="M52.8,35.5c-1.2,0-2.5-0.2-3.7-0.5c-0.5-0.1-1-0.3-1.6-0.5c-0.4-0.1-0.7-0.5-0.8-0.9
		c-0.1-0.4-0.1-0.8,0.2-1.2c2-3,3-6.5,3-10.2c0-6.2-3.1-11.9-8-15c-0.3-0.2-0.6-0.6-0.6-1c0-0.4,0.1-0.8,0.4-1.1
		c3-3.1,7-4.8,11.2-4.8c9,0,16.3,7.9,16.3,17.6c0,6.8-3.7,13-9.4,15.9c-0.4,0.2-0.9,0.4-1.3,0.6c-0.2,0.1-0.4,0.2-0.6,0.2
		c-0.4,0.1-0.9,0.3-1.4,0.4C55.3,35.3,54.1,35.5,52.8,35.5z M50,32.4c2,0.5,3.9,0.4,5.8,0c0.4-0.1,0.8-0.2,1.1-0.4
		c0.2-0.1,0.3-0.1,0.5-0.2c0.3-0.1,0.7-0.3,1-0.5c4.8-2.4,7.9-7.7,7.9-13.5c0-8.2-6.1-14.8-13.6-14.8c-2.9,0-5.7,1-8,2.9
		c4.8,3.8,7.8,9.9,7.8,16.3C52.6,25.9,51.7,29.4,50,32.4z"/>
	<path fill="#FFFFFF" d="M37.7,42c-0.6,0-1.2-0.4-1.3-1c-0.2-0.7,0.3-1.5,1-1.7l0,0c0,0,0,0,0,0c1-0.2,2.1-0.7,3.2-1.2
		c0.7-0.3,1.5-0.1,1.8,0.6c0.3,0.7,0.1,1.5-0.6,1.8c-1.2,0.6-2.4,1.1-3.7,1.4C38,41.9,37.9,42,37.7,42z"/>
	<path fill="#FFFFFF" d="M33.8,41.9c-0.7,0-1.5-0.1-2.3-0.2c-0.7-0.1-1.3-0.2-2-0.4c-1.7-0.4-3.2-1.1-4.6-1.9
		c-6-3.5-9.8-10.3-9.8-17.7c0-11.1,8.4-20.1,18.7-20.1c3.3,0,6.6,1,9.5,2.8C49,8,52.5,14.6,52.5,21.7c0,4.2-1.2,8.2-3.5,11.7
		c-0.6,0.9-1.2,1.7-1.9,2.4l-0.3,0.3c0,0-0.1,0.1-0.1,0.1c-1.5,1.5-3.2,2.8-5,3.7c-0.1,0-0.2,0.1-0.3,0.1l-0.1,0
		c-1.1,0.5-2.3,1-3.3,1.2C36.6,41.7,35.2,41.9,33.8,41.9z M33.8,4.4c-8.8,0-16,7.8-16,17.4c0,6.4,3.2,12.3,8.4,15.3
		c1.2,0.7,2.5,1.2,3.9,1.6c0.5,0.1,1.1,0.2,1.7,0.3c0.7,0.1,1.3,0.1,1.9,0.1c1.2,0,2.3-0.1,3.5-0.4c0.9-0.2,1.9-0.6,2.9-1l0.3-0.1
		c1.5-0.8,3-1.8,4.3-3.2c0,0,0.1-0.1,0.1-0.1l0.3-0.3c0.6-0.6,1.1-1.3,1.6-2.1c2-3,3-6.5,3-10.2c0-6.2-3.1-11.9-8-15
		C39.4,5.2,36.6,4.4,33.8,4.4z"/>
	<path fill="#FFFFFF" d="M4.1,58.3c-0.8,0-1.4-0.6-1.4-1.4v-0.3c0-0.7,0.6-1.4,1.3-1.4c0.7,0,1.4,0.6,1.4,1.3l0,0.2c0,0,0,0.1,0,0.2
		c0,0,0,0,0,0C5.5,57.7,4.9,58.3,4.1,58.3z"/>
	<path fill="#FFFFFF" d="M62.4,79.8H2.6c-0.4,0-0.7-0.2-1-0.4c-0.3-0.3-0.4-0.7-0.4-1c0-0.2,1.3-16.3,1.5-21.6
		c0.3-7.7,9.6-14.7,22.1-16.7c0.3,0,0.6-0.1,0.9-0.1c0.7-0.1,1.3,0.3,1.4,1c0.4,1.3,1.1,2.4,2,3.3c1.2,1.1,2.6,1.7,4.1,1.7
		c2.8,0,5.3-2.1,6.1-5c0.2-0.7,0.8-1.1,1.5-1c13.1,2,21.1,8.4,21.3,17c0.2,5.3,1.5,21.3,1.5,21.5c0,0.4-0.1,0.8-0.4,1
		C63.2,79.6,62.8,79.8,62.4,79.8z M4,77.1h56.9c-0.3-4.1-1.2-15.7-1.4-20.1c-0.2-7-6.9-12.2-17.9-14.2c-1.4,3.5-4.7,5.9-8.4,5.9
		c-2.2,0-4.3-0.8-6-2.4c-1-0.9-1.8-2.1-2.4-3.4c-10.9,1.8-19.3,7.8-19.5,14C5.3,61.3,4.4,72.9,4,77.1z"/>
	<path fill="none" stroke="#FFFFFF" stroke-width="3.5" stroke-linecap="round" stroke-linejoin="round" stroke-miterlimit="10" d="
		M36.7,45.2"/>
	<path fill="none" stroke="#FFFFFF" stroke-width="3.5" stroke-linecap="round" stroke-linejoin="round" stroke-miterlimit="10" d="
		M31.7,47.2"/>
	<path fill="none" stroke="#FFFFFF" stroke-width="3.5" stroke-linecap="round" stroke-linejoin="round" stroke-miterlimit="10" d="
		M24.2,41.2"/>
	<path fill="#FFFFFF" d="M77.4,68.1H61.5c-0.7,0-1.3-0.6-1.4-1.3l-0.6-9.7c0-0.1,0-0.2,0-0.3c0-7-7.3-12.5-19-14.3
		c-0.4-0.1-0.7-0.3-0.9-0.6c-0.2-0.3-0.3-0.7-0.2-1.1c0.1-0.2,0.1-0.5,0.2-0.7c0.1-0.5,0.1-0.9,0.1-1.3l0,0c0-0.5,0.3-1,0.8-1.3
		c1.6-0.8,3-1.8,4.3-3.2c0.3-0.3,0.8-0.5,1.3-0.4c0.5,0.1,0.8,0.4,1,0.9c0.7,2.2,2.6,3.5,5,3.5c2.6,0,4.5-1.7,4.9-4.4
		c0.1-0.7,0.8-1.2,1.5-1.1c11.3,1.7,18.4,7.2,18.6,14.6c0,0,0,0,0,0l1.7,19.3c0,0.4-0.1,0.8-0.4,1C78.2,68,77.8,68.1,77.4,68.1z
		 M67.7,65.4H76l-1.5-17.3c0-0.1,0-0.2,0-0.4c0-5.8-5.7-10.4-15.1-12c-1.1,3.3-3.8,5.4-7.3,5.4c-2.9,0-5.3-1.3-6.7-3.5
		c-0.9,0.8-1.9,1.4-2.9,2c0,0.2,0,0.3-0.1,0.5c12.1,2.2,19.7,8.4,19.9,16.4c0,0,0,0,0,0l0.5,8.9h2.2c0-0.1,0-0.1,0-0.2V52
		c0-0.8,0.6-1.4,1.4-1.4s1.4,0.6,1.4,1.4v13.2C67.8,65.3,67.8,65.3,67.7,65.4z"/>
	<path fill="#FFFFFF" d="M40.7,40.3c-0.3,0-0.5-0.1-0.7-0.2c-0.4-0.2-0.6-0.7-0.6-1.2c0-0.1,0-0.2,0-0.2c0.1-0.4,0.4-0.8,0.8-1
		l0.3-0.1c0.7-0.3,1.5-0.1,1.8,0.6c0.3,0.7,0.1,1.5-0.6,1.8c-0.1,0-0.2,0.1-0.3,0.1l-0.1,0C41.1,40.2,40.9,40.3,40.7,40.3z"/>
	<path fill="#FFFFFF" d="M33.3,48.6c-2.2,0-4.3-0.8-6-2.4c-1.3-1.2-2.2-2.8-2.7-4.5c-0.1-0.4-0.2-0.7-0.2-1
		c-0.1-0.6-0.2-1.3-0.2-1.9c0-0.2,0-0.4,0-0.6c0-0.5,0.3-0.9,0.7-1.2c0.4-0.2,0.9-0.2,1.3,0c1.2,0.7,2.5,1.2,3.9,1.6
		c0.5,0.1,1.1,0.2,1.7,0.3c0.7,0.1,1.3,0.1,1.9,0.1c1.2,0,2.3-0.1,3.5-0.4c1-0.2,1.9-0.6,2.8-1l0.3-0.1c0.4-0.2,0.9-0.2,1.3,0
		c0.4,0.2,0.7,0.7,0.7,1.1c0,0,0,0.1,0,0.1c0,0.6-0.1,1.2-0.2,1.8c-0.1,0.3-0.1,0.6-0.2,0.9C40.9,45.7,37.3,48.6,33.3,48.6z
		 M27.1,40.5c0,0.1,0.1,0.3,0.1,0.4c0.4,1.3,1.1,2.4,2,3.3c1.2,1.1,2.6,1.7,4.1,1.7c2.8,0,5.3-2,6.1-5c-0.5,0.2-1,0.3-1.4,0.4
		c-1.4,0.3-2.8,0.5-4.2,0.5c-0.7,0-1.5-0.1-2.3-0.2c-0.7-0.1-1.3-0.2-2-0.4C28.7,41.1,27.9,40.8,27.1,40.5z"/>
	<path fill="#FFFFFF" d="M15.5,79.8c-0.9,0-1.5-0.7-1.5-1.6V61.9c0-0.9,0.6-1.6,1.5-1.6S17,61,17,61.9v16.4
		C17,79.1,16.4,79.8,15.5,79.8z"/>
	<path fill="#FFFFFF" d="M50.5,79.8c-0.9,0-1.5-0.7-1.5-1.6V61.9c0-0.9,0.6-1.6,1.5-1.6S52,61,52,61.9v16.4
		C52,79.1,51.4,79.8,50.5,79.8z"/>
</g>
</svg>
