<?xml version="1.0" encoding="utf-8"?>
<!-- Generator: Adobe Illustrator 18.1.1, SVG Export Plug-In . SVG Version: 6.00 Build 0)  -->
<svg version="1.1" id="Layer_1" xmlns="http://www.w3.org/2000/svg" xmlns:xlink="http://www.w3.org/1999/xlink" x="0px" y="0px"
	 viewBox="0 0 200 200" enable-background="new 0 0 200 200" xml:space="preserve">
<path fill="#49434D" d="M100,200C44.9,200,0,155.1,0,100C0,44.9,44.9,0,100,0c55.1,0,100,44.9,100,100C200,155.1,155.1,200,100,200z
	 M100,5C47.6,5,5,47.6,5,100c0,52.4,42.6,95,95,95c52.4,0,95-42.6,95-95C195,47.6,152.4,5,100,5z"/>
<g>
	<defs>
		<path id="SVGID_1_" d="M2.5,100c0,53.9,43.7,97.5,97.5,97.5c53.9,0,97.5-43.7,97.5-97.5c0-53.9-43.7-97.5-97.5-97.5
			C46.1,2.5,2.5,46.1,2.5,100"/>
	</defs>
	<clipPath id="SVGID_2_">
		<use xlink:href="#SVGID_1_"  overflow="visible"/>
	</clipPath>
	<path clip-path="url(#SVGID_2_)" fill="#49434D" d="M58.8,176.2L58.8,176.2l-28,0c-2.7,0.1-5.4-0.9-7.4-2.7c-2-1.9-3.2-4.4-3.4-7.2
		c-0.3-5.7,4.2-10.6,9.9-10.8L69,155l15-5c1.3-0.4,2.7,0.3,3.1,1.6c0.4,1.3-0.3,2.7-1.6,3.1L69.8,160l-39.7,0.5
		c-2.9,0.1-5.2,2.6-5.1,5.6c0.1,1.4,0.7,2.8,1.7,3.7c1.1,1,2.4,1.5,3.9,1.4l0.1,0l28,0c1.4,0,2.5,1.1,2.5,2.5
		C61.3,175.1,60.2,176.2,58.8,176.2z"/>
	<path clip-path="url(#SVGID_2_)" fill="#49434D" d="M56.8,176.2c-7.6,0-129.1-0.1-131.9-0.1c-0.1,0-0.2,0-0.3,0
		c-4.9,0-10.5-5-10.8-11.8c-0.3-6.9,5.2-12.5,10.2-12.7c3-0.3,128-11.1,162.4-11.1c7.4,0,11.3,0.2,11.3,3.4c0,3.9,2.8,7.6,6.2,8.2
		c2,0.4,2.1,2.3,2.2,3.5c0.1,1.4,0,1.6,0,1.8c-2.5,16.6-11.1,18.1-22.1,18.1l-26.6,0.7C57.3,176.2,57.2,176.2,56.8,176.2z
		 M-75.2,171.2C-75.2,171.2-75.1,171.2-75.2,171.2c0,0,124.3,0.1,132,0.1h0.4l26-0.7c0.1,0,0.2,0,0.3,0c10.2,0,15.6-0.6,17.6-13.7
		c0-0.1,0-0.2,0-0.3c-4.3-1.7-7.6-6-8.3-10.8c-1-0.1-2.9-0.2-6.4-0.2c-34.5,0-160.8,11-162,11.1c0,0-0.1,0-0.1,0
		c-3.1,0.1-5.6,4.3-5.5,7.6c0.1,3.2,2.9,7,5.8,7l0.2,0C-75.2,171.2-75.2,171.2-75.2,171.2z"/>
	<path clip-path="url(#SVGID_2_)" fill="#49434D" d="M64,101.8C64,101.8,64,101.8,64,101.8c-1.4,0-2.5-1.1-2.5-2.5l0-13.1
		c-0.1-2.7,0.9-5.4,2.7-7.4c1.9-2,4.4-3.2,7.2-3.4c5.7-0.3,10.5,4.2,10.8,9.9l0,2.4c0,1.4-1.1,2.5-2.5,2.5c-1.4,0-2.5-1.1-2.5-2.5
		l0-2.3c-0.1-2.9-2.7-5.2-5.6-5.1c-1.4,0.1-2.8,0.7-3.7,1.7c-1,1.1-1.5,2.4-1.4,3.9l0,0.1l0,13.2C66.5,100.7,65.4,101.8,64,101.8z"
		/>
	<path clip-path="url(#SVGID_2_)" fill="#49434D" d="M98.3,182.5c-3,0-21.1,0-131.9-0.1c-1.4,0-2.5-1.1-2.5-2.5
		c0-1.4,1.1-2.5,2.5-2.5c0,0,0,0,0,0c1.3,0,124.6,0.1,132,0.1c3.6-1,31.9-9.2,42.1-10.6c17.5-2.4,41.8,4,42.8,4.3
		c1.3,0.4,2.1,1.7,1.8,3c-0.4,1.3-1.7,2.1-3,1.8c-0.2-0.1-24.3-6.4-40.8-4.1c-10.3,1.4-41.4,10.4-41.7,10.5
		c-0.2,0.1-0.4,0.1-0.6,0.1C98.9,182.5,98.9,182.5,98.3,182.5z"/>
	<path clip-path="url(#SVGID_2_)" fill="#49434D" d="M103.6,148.6c-0.2,0-0.4,0-0.6-0.1l-8.4-2.1c-1.3-0.3-2.1-1.7-1.8-3
		c0.3-1.3,1.7-2.1,3-1.8l8.4,2.1c1.3,0.3,2.1,1.7,1.8,3C105.7,147.8,104.7,148.6,103.6,148.6z"/>
	<path clip-path="url(#SVGID_2_)" fill="#49434D" d="M100.2,70.7c-1.8,0-3.6-0.2-5.4-0.7c-2.1-0.5-4.1-1.3-5.9-2.4
		c-7.6-4.5-12.4-13-12.4-22.3c0-14,10.6-25.4,23.7-25.4c13.1,0,23.7,11.4,23.7,25.4c0,9.8-5.4,18.9-13.7,23
		c-1.5,0.7-3.2,1.4-4.7,1.7C103.7,70.4,101.9,70.7,100.2,70.7z M100.2,24.8c-10.3,0-18.7,9.2-18.7,20.5c0,7.6,3.8,14.5,9.9,18
		c1.4,0.8,2.9,1.4,4.6,1.9c2.9,0.7,5.6,0.7,8.3,0c1.1-0.3,2.5-0.8,3.7-1.4c6.6-3.3,10.9-10.6,10.9-18.6
		C118.9,34,110.5,24.8,100.2,24.8z"/>
	<path clip-path="url(#SVGID_2_)" fill="#49434D" d="M54.7,112c-0.3,0-0.7-0.1-1-0.2c-1.3-0.6-1.8-2-1.2-3.3l9.3-20.6
		c0.6-1.3,2-1.8,3.3-1.2c1.3,0.6,1.8,2,1.2,3.3L57,110.6C56.6,111.5,55.7,112,54.7,112z"/>
	<path clip-path="url(#SVGID_2_)" fill="#49434D" d="M134.8,132c-1.4,0-2.5-1.1-2.5-2.5c-0.2-16.5-0.3-38.1-0.3-41.3c0,0,0,0,0-0.1
		c0-7.7-8.3-14-21.3-16.4c-1.6,4.6-5.7,8.9-11.1,8.9c-4.8,0-9.4-3.5-11.2-8.5C81.1,73.8,76,77,72.9,79.6c-1,0.9-2.6,0.8-3.5-0.3
		c-0.9-1-0.8-2.6,0.3-3.5c3.8-3.2,10.3-7.3,19.8-8.9c1.5-0.2,2.8,0.7,3.1,2.2c0.7,3.7,3.9,6.7,7,6.7c3.4,0,6.1-3.6,6.8-7
		c0.3-1.4,1.6-2.3,3-2.2c16.8,2.5,27.2,10.6,27.6,21.1c0,0.1,0,0.1,0,0.2c0,0.2,0.1,23.9,0.3,41.6C137.3,130.9,136.2,132,134.8,132
		C134.8,132,134.8,132,134.8,132z"/>
	<path clip-path="url(#SVGID_2_)" fill="none" stroke="#49434D" stroke-width="5" stroke-miterlimit="10" d="M80.2,135.7"/>
	<path clip-path="url(#SVGID_2_)" fill="none" stroke="#49434D" stroke-width="5" stroke-miterlimit="10" d="M73.7,120.7"/>
	<path clip-path="url(#SVGID_2_)" fill="#49434D" d="M125,169.5c-9.2,0-17.7-5-21.7-12.9c-0.7-1.4-1.3-3.1-1.6-4.4
		c-0.4-1.7-0.6-3.3-0.6-5c0-1.7,0.2-3.4,0.7-5.1c0.5-2,1.3-3.9,2.3-5.6c4.2-7.2,12.3-11.6,21-11.6c13.2,0,23.9,10,23.9,22.3
		C148.9,159.5,138.2,169.5,125,169.5z M125,129.9c-7,0-13.4,3.5-16.7,9.2c-0.8,1.3-1.3,2.7-1.7,4.3c-0.3,1.3-0.5,2.6-0.5,3.9
		c0,1.3,0.2,2.5,0.5,3.8c0.3,1,0.7,2.3,1.3,3.4c3.1,6.1,9.8,10.1,17.2,10.1c10.4,0,18.9-7.8,18.9-17.3S135.5,129.9,125,129.9z"/>
	<path clip-path="url(#SVGID_2_)" fill="#49434D" d="M71.3,141c-4.1,0-9.6-0.9-11.1-6.8c-0.7-2.8-0.4-5.4,0.9-7.6
		c1.6-2.5,4.4-4.3,8.4-5.2l29.9-5.5l8.3-15.4c0.7-1.2,2.2-1.7,3.4-1c1.2,0.7,1.7,2.2,1,3.4l-8.9,16.5c-0.4,0.7-1,1.1-1.7,1.3
		l-31,5.7c-2.5,0.5-4.3,1.5-5.1,2.9c-0.6,1-0.7,2.2-0.3,3.7c0.8,2.9,3.5,3.3,8.6,3l36.2-5.5c1.4-0.2,2.6,0.7,2.8,2.1
		c0.2,1.4-0.7,2.6-2.1,2.8l-36.3,5.5c-0.1,0-0.2,0-0.2,0C73.2,141,72.3,141,71.3,141z"/>
	<path clip-path="url(#SVGID_2_)" fill="#49434D" d="M119.4,130.6c-0.4,0-0.9-0.1-1.3-0.3c-1.2-0.7-1.6-2.2-0.9-3.4
		c4.3-7.2,12.3-25,14.9-31.9c0.5-1.3,1.9-1.9,3.2-1.4c1.3,0.5,1.9,1.9,1.4,3.2c-2.7,7.2-10.9,25.1-15.3,32.7
		C121.1,130.1,120.3,130.6,119.4,130.6z"/>
	<path clip-path="url(#SVGID_2_)" fill="#49434D" d="M62.3,123.7C62.3,123.7,62.3,123.7,62.3,123.7c-2.9,0-5.5-1.1-7.9-3.1
		c-2.9-2.6-3.5-5.3-3.4-7.2c0.1-4.9,4.3-8.7,4.8-9.1c0,0,0.1-0.1,0.1-0.1l24-17.8c1.8-1.3,3.9-1.9,6-1.9c3.4,0,6.5,1.6,8.5,4.4
		c3.3,4.6,2.2,11.1-2.4,14.4l-21.1,17.4C70.7,120.8,67,123.7,62.3,123.7z M59,108.2c-0.9,0.8-2.9,3.1-3,5.3c0,1.2,0.6,2.3,1.8,3.4
		c1.4,1.3,2.9,1.9,4.5,1.9l0,0c2.9,0,5.3-1.9,5.3-1.9l21.2-17.4c0,0,0.1-0.1,0.2-0.1c2.4-1.7,3-5.1,1.3-7.5c-1-1.4-2.7-2.3-4.4-2.3
		c-1.1,0-2.2,0.3-3.1,1L59,108.2z"/>
	<path clip-path="url(#SVGID_2_)" fill="#49434D" d="M66.8,143c-1.1,0-2.1-0.8-2.4-1.9l-0.7-2.8c-0.3-1.3,0.5-2.7,1.8-3
		c1.3-0.3,2.7,0.5,3,1.8l0.7,2.8c0.3,1.3-0.5,2.7-1.8,3C67.2,143,67,143,66.8,143z"/>
	<path clip-path="url(#SVGID_2_)" fill="#49434D" d="M64,129.3c-1.4,0-2.5-1.1-2.5-2.5v-5.8c0-1.4,1.1-2.5,2.5-2.5s2.5,1.1,2.5,2.5
		v5.8C66.5,128.2,65.4,129.3,64,129.3z"/>
	<path clip-path="url(#SVGID_2_)" fill="#49434D" d="M79.7,124.6C79.7,124.6,79.7,124.6,79.7,124.6c-1.4,0-2.5-1.2-2.5-2.5l0.2-12.2
		c0-1.4,1.2-2.4,2.5-2.4c1.4,0,2.5,1.2,2.4,2.5l-0.2,12.2C82.2,123.5,81.1,124.6,79.7,124.6z"/>
	<path clip-path="url(#SVGID_2_)" fill="#49434D" d="M91.5,145.6c-0.8,0-1.6-0.4-2.1-1.1l-4.6-6.7c-0.8-1.1-0.5-2.7,0.6-3.5
		c1.1-0.8,2.7-0.5,3.5,0.6l4.6,6.7c0.8,1.1,0.5,2.7-0.6,3.5C92.5,145.5,92,145.6,91.5,145.6z"/>
</g>
</svg>
