<svg id="Layer_1" data-name="Layer 1" xmlns="http://www.w3.org/2000/svg" viewBox="0 0 200 200"><defs><style>.cls-1{fill:#49434d;}</style></defs><title>icon-dark-bluetooth-basic</title><path class="cls-1" d="M70.5,154.8a3.55,3.55,0,0,1-1-.2,2.5,2.5,0,0,1-1.5-2.2V105.3L44.9,127.2a2.48,2.48,0,0,1-3.4-3.6L66.7,99.8,41.3,74.7a2.47,2.47,0,0,1,3.5-3.5L68,94.2V47.6a2.4,2.4,0,0,1,1.4-2.2,2.44,2.44,0,0,1,2.6.3l29.7,23.8a2.14,2.14,0,0,1,.9,1.8,2.73,2.73,0,0,1-.8,1.9L73.7,99.8l26.3,26a2.41,2.41,0,0,1,.7,1.8,2.5,2.5,0,0,1-.8,1.8L72.1,154.2A2.66,2.66,0,0,1,70.5,154.8ZM73,106v40.9l21.7-19.4Zm0-53.2V93.9L96.5,71.6Z"/><path class="cls-1" d="M132.1,133.8a2.66,2.66,0,0,1-1.2-.3,2.47,2.47,0,0,1-.9-3.4,63,63,0,0,0,8.2-24.4,54.21,54.21,0,0,0-3.6-26.1c-1-2.6-2.4-5.3-3.7-7.9a17.38,17.38,0,0,0-1-1.9,2.46,2.46,0,0,1,4.4-2.2,17.38,17.38,0,0,0,1,1.9c1.3,2.7,2.7,5.4,3.8,8.3a58.79,58.79,0,0,1,3.9,28.4,68.83,68.83,0,0,1-8.8,26.3A2.26,2.26,0,0,1,132.1,133.8Z"/><path class="cls-1" d="M143.5,144.2a2.45,2.45,0,0,1-1.6-.6,2.51,2.51,0,0,1-.3-3.5c5-6,8.6-13.2,11-22.1a72.23,72.23,0,0,0,2.3-18.8c-0.1-13.1-3.5-25-10.1-35.1a52.88,52.88,0,0,0-3.2-4.3,2.49,2.49,0,1,1,3.9-3.1,47.59,47.59,0,0,1,3.5,4.7,69.41,69.41,0,0,1,10.9,37.8,73.24,73.24,0,0,1-2.5,20.1c-2.6,9.6-6.5,17.5-12,24A2.46,2.46,0,0,1,143.5,144.2Z"/><path class="cls-1" d="M132.1,133.8a2.66,2.66,0,0,1-1.2-.3,2.47,2.47,0,0,1-.9-3.4,63,63,0,0,0,8.2-24.4,54.21,54.21,0,0,0-3.6-26.1c-1-2.6-2.4-5.3-3.7-7.9a17.38,17.38,0,0,0-1-1.9,2.46,2.46,0,0,1,4.4-2.2,17.38,17.38,0,0,0,1,1.9c1.3,2.7,2.7,5.4,3.8,8.3a58.79,58.79,0,0,1,3.9,28.4,68.83,68.83,0,0,1-8.8,26.3A2.26,2.26,0,0,1,132.1,133.8Z"/><path class="cls-1" d="M121.1,120.1a2.38,2.38,0,0,1-1.2-.3,2.47,2.47,0,0,1-.9-3.4,32.63,32.63,0,0,0,4.2-11.4c1.2-7-.1-13.9-4.1-21.3a2.44,2.44,0,1,1,4.3-2.3c4.5,8.4,6,16.4,4.6,24.5a37.78,37.78,0,0,1-4.8,13A2.47,2.47,0,0,1,121.1,120.1Z"/></svg>