<?xml version="1.0" encoding="utf-8"?>
<!-- Generator: Adobe Illustrator 18.1.1, SVG Export Plug-In . SVG Version: 6.00 Build 0)  -->
<svg version="1.1" id="Layer_1" xmlns="http://www.w3.org/2000/svg" xmlns:xlink="http://www.w3.org/1999/xlink" x="0px" y="0px"
	 viewBox="0 0 200 200" enable-background="new 0 0 200 200" xml:space="preserve">
<g>
	<g>
		<path fill="#3BD6B2" d="M99.5,120c-8,0-14.9-6.1-16.4-14.5c-0.2-1.1-0.3-2.3-0.3-3.4c0-0.4,0-0.7,0-1.1l0.3-4.2l3.5,2
			c2.2,1.3,4.6,2.3,7.2,2.9c2.3,0.6,4.4,0.9,6.6,0.9c2.1,0,4.3-0.3,6.4-0.8c2-0.5,3.9-1.2,5.8-2.1l3.6-1.8v4l0,0c0,0,0,0.1,0,0.2
			c0,1.1-0.1,2.2-0.3,3.3C114.5,113.8,107.5,120,99.5,120z M88.1,105.2c1.3,5.7,6,9.8,11.4,9.8c5.2,0,9.7-3.7,11.2-9.1
			c-0.9,0.3-1.8,0.6-2.7,0.8c-5,1.3-10.1,1.3-15.4-0.1C91,106.3,89.5,105.8,88.1,105.2z"/>
		<path fill="#3BD6B2" d="M100.4,107.6c-2.5,0-5.2-0.3-7.8-1c-3-0.8-5.9-1.9-8.5-3.5c-11-6.5-17.9-18.9-17.9-32.4
			c0-20.3,15.4-36.9,34.2-36.9c18.9,0,34.2,16.5,34.2,36.9c0,14.2-7.8,27.3-19.8,33.4c-2.2,1.1-4.7,2-6.8,2.5
			C105.5,107.3,102.9,107.6,100.4,107.6z M100.4,38.9c-16.1,0-29.2,14.3-29.2,31.9c0,11.8,5.9,22.5,15.4,28.1
			c2.2,1.3,4.6,2.3,7.2,2.9c2.3,0.6,4.4,0.9,6.6,0.9c2.1,0,4.3-0.3,6.4-0.8c1.8-0.4,3.9-1.2,5.8-2.2c10.3-5.2,17-16.5,17-28.9
			C129.6,53.2,116.5,38.9,100.4,38.9z"/>
		<path fill="#3BD6B2" d="M154.5,174.8c-0.7,0-1.3-0.3-1.8-0.7l-8-8c-3.6-3.6-7.2-7.2-10.7-10.8c-1-1-1-2.6,0-3.5l10.7-10.7
			c0.5-0.5,1.1-0.7,1.8-0.7l0,0c0.7,0,1.3,0.3,1.8,0.7c1.6,1.6,3.5,3.5,5.6,5.6l4.1,4.1c3.2,3.2,6.4,6.4,9.1,9.1c1,1,1,2.5,0,3.5
			L156.2,174C155.8,174.5,155.1,174.8,154.5,174.8L154.5,174.8z M139.2,153.4c3,3,6,6,9,9l6.2,6.3l7.1-7.2c-2.3-2.3-4.8-4.8-7.3-7.4
			l-4.1-4.1c-1.3-1.3-2.6-2.6-3.8-3.8L139.2,153.4z"/>
		<path fill="#3BD6B2" d="M128.4,149.7l-1.9-1.8c-1.6-1.5-3.1-3.1-4.7-4.6c-5.2-5.1-11.8-6.9-19.4-5.3c-0.1,0.1-0.7,0.3-2,1
			l-0.2,0.1L77.9,148l20-13.3c2.2-1.5,4.1-2.7,5.7-3.9c8.4-5.7,11.3-7.7,17.5-7.7c8.1,0,12.2,3.3,19.7,10.8l1.8,1.8L128.4,149.7z
			 M110,132.5c5.8,0.5,10.9,2.9,15.3,7.2c1,1,2.1,2,3.1,3l7.1-7c-6.4-6.2-9.1-7.5-14.3-7.5C117.3,128.1,115.5,128.9,110,132.5z"/>
		<path fill="#3BD6B2" d="M108.9,182c-7.3,0-14.3-3.3-19.1-9c-4.6-5.5-6.5-12-5.5-19.3c0.9-7,4.5-12.7,10.8-17.5
			c0.1,0,0.1-0.1,0.2-0.1c0.7-0.4,1.7-1,2.8-1.6c0.1,0,0.1-0.1,0.2-0.1c0.2-0.1,0.4-0.2,0.7-0.3c0.5-0.3,1.2-0.6,1.7-0.8
			c0.3-0.1,0.5-0.2,0.7-0.2c2.1-0.5,4.2-0.7,6.3-0.7c6.7,0,12.7,2.4,17.6,7.3c1.6,1.5,3.2,3.1,4.7,4.6l0.1,0.1
			c0.8,0.8,1.6,1.5,2.3,2.3l2.2,2.2c1,0.9,1.9,1.9,2.9,2.8c3.6,3.6,7.2,7.2,10.8,10.8l8,8c1,1,1,2.6,0,3.5l-3.9,3.9
			c-0.5,0.5-1.1,0.7-1.8,0.7l0,0c-0.7,0-1.3-0.3-1.8-0.7l-11.1-11.1c-0.7-0.7-1.3-1.1-1.7-1.1s-1,0.4-1.7,1l-2.4,2.4
			c-1.9,1.9-3.8,3.8-5.8,5.7C121.5,179.5,115.3,182,108.9,182z M98.1,140.2c-5.2,4-8.1,8.6-8.8,14.1c-0.8,5.8,0.7,11,4.4,15.4
			c3.8,4.6,9.4,7.2,15.2,7.2c5.1,0,10-2,13.8-5.6c1.9-1.8,3.8-3.8,5.7-5.6l2.4-2.4c3.3-3.3,7.1-3.3,10.4,0l9.4,9.3l0.4-0.4l-6.3-6.3
			c-3.6-3.6-7.2-7.2-10.8-10.8c-0.9-0.9-1.9-1.9-2.8-2.8l-2.2-2.2c-0.7-0.7-1.5-1.5-2.2-2.2l-0.2-0.2c-1.6-1.5-3.1-3.1-4.7-4.6
			c-5.2-5.1-11.8-6.9-19.3-5.3h-0.1c-0.3,0.1-0.8,0.3-1.2,0.6c-0.3,0.2-0.7,0.3-0.9,0.4C99.5,139.4,98.7,139.9,98.1,140.2z"/>
		<path fill="#3BD6B2" d="M135.7,157l-10.8-10.7l1.8-1.8c1.7-1.8,3.5-3.5,5.2-5.2c1.8-1.8,3.6-3.6,5.4-5.4l1.7-1.8l10.9,10.6
			L135.7,157z M132,146.2l3.7,3.7l7.1-7.1l-3.7-3.6c-1.2,1.2-2.5,2.4-3.7,3.7C134.2,143.9,133.1,145.1,132,146.2z"/>
		<g>
			<path fill="#3BD6B2" d="M154.8,174.4c0-1-0.6-1.9-1.6-2.3c-0.9-0.4-1.9-0.2-2.6,0.5l-9.4-9.3c-3.3-3.3-7.1-3.3-10.4,0l-0.8,0.8
				l0,0l-1.6,1.6c-1.9,1.9-3.8,3.8-5.7,5.6c-3.8,3.6-8.7,5.6-13.8,5.6c-5.8,0-11.4-2.6-15.2-7.2c-3.7-4.4-5.2-9.6-4.4-15.4
				c0.7-5.5,3.6-10.2,8.8-14.1c0.6-0.4,1.4-0.8,2.3-1.3c0.1-0.1,0.2-0.1,0.3-0.2c2.2-1.4,4-2.7,5.7-3.8c8.4-5.7,10.2-6.8,14.8-6.8
				c5.6,0,8.3,1.6,16.1,9.3l7.3,7.1c1.6,1.6,3.5,3.5,5.6,5.6c0.5,0.5,1.1,0.7,1.8,0.7l0,0c1.4,0,2.5-1.1,2.5-2.5c0-0.1,0-0.2,0-0.3
				l-0.2-13.3c0-0.1,0-0.1,0-0.2c-0.5-15.2-15.9-26.9-40.4-30.5c-1.3-0.2-2.6,0.7-2.8,2c-1,5.8-5.6,9.8-11.5,9.8
				c-6,0-10.6-3.6-11.6-9.3c-0.2-1.3-1.5-2.2-2.8-2c-22.6,3.6-39.1,16.1-39.7,30c0,0.1,0,0.2,0,0.3L45,177.4c1.6,1.2,3.3,2.3,5,3.3
				l0.5-45.2c0-0.1,0-0.1,0-0.2c0-11.1,14.1-21.8,33.2-25.5c2.2,6.7,8.3,11,15.9,11c7.4,0,13.6-4.6,15.8-11.5
				c20.7,3.6,34,13.7,34,26c0,0.1,0,0.1,0,0.2l0.1,6.8c-0.4-0.4-0.9-0.9-1.3-1.3l-7.3-7.1c-7.5-7.5-11.6-10.8-19.7-10.8
				c-6.3,0-9.1,1.9-17.5,7.7c-1.6,1.1-3.5,2.4-5.6,3.8c-1,0.5-2,1.1-2.6,1.5c-0.1,0-0.1,0.1-0.2,0.1c-6.4,4.8-9.9,10.6-10.8,17.5
				c-1,7.3,0.9,13.8,5.5,19.3c4.8,5.7,11.7,9,19.1,9c6.4,0,12.6-2.5,17.3-7c1-1,2.1-2,3.1-3v18.5c1.7-0.5,3.4-1.1,5-1.8V167l0.1-0.1
				c0.7-0.7,1.3-1,1.7-1s1,0.4,1.7,1.1l11.1,11.1c0.3,0.3,0.6,0.5,1,0.6v2.3c1.7-1,3.3-2.1,5-3.3L154.8,174.4z"/>
			<path fill="#3BD6B2" d="M67.8,144.2c-1.4,0-2.5,1.1-2.5,2.5v41.8c1.6,0.6,3.3,1.2,5,1.8v-43.6C70.3,145.3,69.2,144.2,67.8,144.2z
				"/>
		</g>
	</g>
</g>
<path fill="#3BD6B2" d="M100,200C44.9,200,0,155.1,0,100S44.9,0,100,0s100,44.9,100,100S155.1,200,100,200z M100,5
	C47.6,5,5,47.6,5,100s42.6,95,95,95s95-42.6,95-95S152.4,5,100,5z"/>
</svg>
