<?xml version="1.0" encoding="utf-8"?>
<!-- Generator: Adobe Illustrator 18.1.1, SVG Export Plug-In . SVG Version: 6.00 Build 0)  -->
<svg version="1.1" id="Layer_1" xmlns="http://www.w3.org/2000/svg" xmlns:xlink="http://www.w3.org/1999/xlink" x="0px" y="0px"
	 viewBox="0 0 200 200" enable-background="new 0 0 200 200" xml:space="preserve">
<g>
	<path fill="#49434D" d="M99.8,199.8c-55.1,0-100-44.9-100-100c0-55.1,44.9-100,100-100s100,44.9,100,100
		C199.8,154.9,155,199.8,99.8,199.8z M99.8,4.7C47.4,4.7,4.8,47.4,4.8,99.8c0,52.4,42.7,95.1,95.1,95.1s95.1-42.7,95.1-95.1
		C194.9,47.4,152.3,4.7,99.8,4.7z"/>
	<g>
		<g>
			<path fill="#49434D" d="M49.9,160.5c-0.6,0-1.2-0.2-1.6-0.6c-1-0.9-1.1-2.5-0.2-3.5c1.5-1.7,3-3.5,4.3-5.2
				c0.8-1.1,2.4-1.2,3.5-0.4c1.1,0.8,1.2,2.4,0.4,3.5c-1.4,1.8-2.9,3.6-4.5,5.4C51.2,160.2,50.5,160.5,49.9,160.5z"/>
			<path fill="#49434D" d="M63.1,142.3c-0.4,0-0.8-0.1-1.2-0.3c-1.2-0.7-1.6-2.2-0.9-3.4c2.6-4.4,4.7-8.9,6.6-13.7
				c0.5-1.3,1.9-1.9,3.2-1.4c1.3,0.5,1.9,1.9,1.4,3.2c-1.9,5-4.2,9.8-6.9,14.4C64.7,141.9,63.9,142.3,63.1,142.3z M74.4,113.4
				c-0.2,0-0.4,0-0.6-0.1c-1.3-0.3-2.1-1.6-1.8-3c1.1-4.7,2-9.7,2.6-15.1c0.2-1.3,1.4-2.3,2.7-2.1c1.3,0.2,2.3,1.4,2.1,2.7
				c-0.7,5.6-1.6,10.7-2.7,15.6C76.5,112.6,75.5,113.4,74.4,113.4z M78.3,82.5c0,0-0.1,0-0.1,0c-1.4-0.1-2.4-1.2-2.3-2.6
				c0.2-4.6,0.4-9.6,0.5-15.5c0-1.4,1.2-2.4,2.5-2.4c1.4,0,2.4,1.1,2.4,2.5c-0.1,5.9-0.3,11-0.5,15.7C80.7,81.5,79.6,82.5,78.3,82.5
				z"/>
			<path fill="#49434D" d="M78.9,52C78.9,52,78.9,52,78.9,52c-1.4,0-2.5-1.5-2.5-2.8l0-7.1c0-1.4,1.1-2.5,2.5-2.5
				c1.4,0,2.5,1.1,2.5,2.4l0,7.2C81.4,50.6,80.3,52,78.9,52z"/>
			<g>
				<polygon fill="#49434D" points="88.1,48.9 78.9,45 69.8,48.9 78.9,27.3 				"/>
			</g>
		</g>
		<g>
			<path fill="#49434D" d="M149.8,160.5c-0.7,0-1.4-0.3-1.8-0.8c-1.6-1.8-3.1-3.6-4.5-5.4c-0.8-1.1-0.7-2.6,0.4-3.5
				c1.1-0.8,2.6-0.7,3.5,0.4c1.4,1.7,2.8,3.5,4.3,5.2c0.9,1,0.8,2.6-0.2,3.5C151,160.3,150.4,160.5,149.8,160.5z"/>
			<path fill="#49434D" d="M136.6,142.3c-0.8,0-1.7-0.4-2.1-1.2c-2.7-4.6-5-9.4-6.9-14.4c-0.5-1.3,0.1-2.7,1.4-3.2
				c1.3-0.5,2.7,0.1,3.2,1.4c1.9,4.8,4,9.3,6.6,13.7c0.7,1.2,0.3,2.7-0.9,3.4C137.4,142.2,137,142.3,136.6,142.3z M125.3,113.4
				c-1.1,0-2.1-0.8-2.4-1.9c-1.1-4.9-2-10-2.7-15.6c-0.2-1.3,0.8-2.6,2.1-2.7c1.4-0.2,2.6,0.8,2.7,2.1c0.7,5.4,1.5,10.4,2.6,15.1
				c0.3,1.3-0.5,2.6-1.8,3C125.7,113.4,125.5,113.4,125.3,113.4z M121.3,82.5c-1.3,0-2.4-1-2.5-2.3c-0.2-4.6-0.4-9.8-0.5-15.7
				c0-1.4,1.1-2.5,2.4-2.5c1.4,0,2.5,1.1,2.5,2.4c0.1,5.8,0.3,10.9,0.5,15.5c0.1,1.4-1,2.5-2.3,2.6
				C121.4,82.5,121.4,82.5,121.3,82.5z"/>
			<path fill="#49434D" d="M120.7,52c-1.4,0-2.5-1.4-2.5-2.8l0-7.1c0-1.4,1.1-2.5,2.5-2.5c1.4,0,2.5,1.1,2.5,2.4l0,7.2
				C123.2,50.6,122.1,52,120.7,52C120.7,52,120.7,52,120.7,52z"/>
			<g>
				<polygon fill="#49434D" points="129.8,48.9 120.7,45 111.6,48.9 120.7,27.3 				"/>
			</g>
		</g>
		<path fill="#49434D" d="M150,97.5c-0.4,0-0.8-0.1-1.1-0.3c-0.2-0.1-17.6-8.6-50.3-8.6c-32.6,0-47.4,8.4-47.5,8.5
			c-1.2,0.7-2.7,0.3-3.4-0.9c-0.7-1.2-0.3-2.7,0.9-3.4c0.6-0.4,15.9-9.2,50-9.2c34,0,51.8,8.7,52.5,9.1c1.2,0.6,1.7,2.1,1.1,3.3
			C151.8,97,150.9,97.5,150,97.5z"/>
		<g>
			<path fill="#49434D" d="M99.5,160.5c-1.4,0-2.5-1.1-2.5-2.5v-13.8c0-1.4,1.1-2.5,2.5-2.5s2.5,1.1,2.5,2.5V158
				C102,159.4,100.9,160.5,99.5,160.5z M99.5,133c-1.4,0-2.5-1.1-2.5-2.5v-13.8c0-1.4,1.1-2.5,2.5-2.5s2.5,1.1,2.5,2.5v13.8
				C102,131.9,100.9,133,99.5,133z"/>
			<g>
				<polygon fill="#49434D" points="108.6,114.8 99.5,110.9 90.4,114.8 99.5,93.2 				"/>
			</g>
		</g>
	</g>
</g>
</svg>
