<?xml version="1.0" encoding="utf-8"?>
<!-- Generator: Adobe Illustrator 18.1.1, SVG Export Plug-In . SVG Version: 6.00 Build 0)  -->
<svg version="1.1" id="Layer_1" xmlns="http://www.w3.org/2000/svg" xmlns:xlink="http://www.w3.org/1999/xlink" x="0px" y="0px"
	 viewBox="0 0 200 200" enable-background="new 0 0 200 200" xml:space="preserve">
<path fill="#FFFFFF" d="M100,200C44.9,200,0,155.1,0,100S44.9,0,100,0s100,44.9,100,100S155.1,200,100,200z M100,5
	C47.6,5,5,47.6,5,100s42.6,95,95,95c52.4,0,95-42.6,95-95S152.4,5,100,5z"/>
<g>
	<path fill="#FFFFFF" d="M48,179.5v-78c0-0.3-0.4-0.6-0.5-0.9c-0.1-0.2-6.6-17.3-6.6-30.9c0-9.9,4.2-16,12.5-18.1
		c2.1-0.5,6.7-2,13-4c13.4-4.3,33.9-10.7,53.7-15.8c9-2.3,23.1-4.6,38.2-6.7c-1.9-1.5-3.9-2.9-5.9-4.3c-13.3,1.9-25.5,4-33.8,6.2
		c-20,5.2-40.3,11.6-53.8,15.9c-6.2,2-10.7,3.4-12.6,3.9c-6,1.5-16,6.6-16,22.9c0,13.4,5.7,29.3,6.7,32.2V176
		C44.6,177.2,46.3,178.4,48,179.5z"/>
	<path fill="#FFFFFF" d="M194.9,96h-93.4c-0.9,0-1.7,0.3-2.1,1c-0.5,0.7-0.5,1.5-0.1,2.2c0.1,0.2,10.5,21.2,8.3,42.9
		c-1.1,10.9-6.9,33-12.5,52.7c1.6,0.1,3.2,0.1,4.9,0.1c0.1,0,0.1,0,0.2,0c5.6-19.7,11.3-41.5,12.4-52.7c1.8-18-4.2-34.3-7.2-42.3
		H195C195,98.7,195,97.3,194.9,96z"/>
</g>
<g>
	<path fill="#FFFFFF" d="M73.8,132C73.8,132,73.8,132,73.8,132c-1.4,0-2.5-1.1-2.5-2.4l0.2-54.2c0-1.2,0.9-2.2,2-2.4l61.5-11.1
		c1.4-0.2,2.6,0.7,2.9,2c0.2,1.4-0.7,2.6-2,2.9L76.5,77.5l-0.2,52.1C76.3,131,75.2,132,73.8,132z"/>
	<g>
		<polygon fill="#FFFFFF" points="152.8,61.2 126.7,55.6 134.2,64.5 130.3,75.5 		"/>
	</g>
	<g>
		<polygon fill="#FFFFFF" points="73.8,147.2 63.7,122.4 73.8,128.3 84,122.5 		"/>
	</g>
</g>
<path fill="#FFFFFF" d="M74.4,83.6c-3.8,0-6.8-3.1-6.8-6.8s3.1-6.8,6.8-6.8c3.8,0,6.8,3.1,6.8,6.8S78.1,83.6,74.4,83.6z M74.4,74.9
	c-1,0-1.9,0.8-1.9,1.9c0,1,0.8,1.9,1.9,1.9c1,0,1.9-0.8,1.9-1.9C76.2,75.7,75.4,74.9,74.4,74.9z"/>
<g>
	<path fill="#FFFFFF" d="M143.8,132.2c-0.5,0-1.1-0.2-1.5-0.5l-69.5-53c-1.1-0.8-1.3-2.4-0.5-3.5c0.8-1.1,2.4-1.3,3.5-0.5l69.5,53
		c1.1,0.8,1.3,2.4,0.5,3.5C145.3,131.9,144.6,132.2,143.8,132.2z"/>
	<g>
		<polygon fill="#FFFFFF" points="157.8,140.4 132,133.4 142.8,128.9 144.2,117.3 		"/>
	</g>
</g>
</svg>
