<?xml version="1.0" encoding="utf-8"?>
<!-- Generator: Adobe Illustrator 18.1.1, SVG Export Plug-In . SVG Version: 6.00 Build 0)  -->
<svg version="1.1" id="Layer_1" xmlns="http://www.w3.org/2000/svg" xmlns:xlink="http://www.w3.org/1999/xlink" x="0px" y="0px"
	 viewBox="0 0 200 200" enable-background="new 0 0 200 200" xml:space="preserve">
<g>
	<path fill="#FFFFFF" d="M100,200C44.9,200,0,155.1,0,100C0,44.9,44.9,0,100,0c55.1,0,100,44.9,100,100C200,155.1,155.1,200,100,200
		z M100,5C47.6,5,5,47.6,5,100c0,52.4,42.6,95,95,95c52.4,0,95-42.6,95-95C195,47.6,152.4,5,100,5z"/>
	<g>
		<g>
			<path fill="#FFFFFF" d="M83.6,144.9l-4.4-9.7H76v9.7h-4.2v-25.6h8.8c4.5,0,7.5,3.2,7.5,7.9c0,4.5-2.5,6.7-4.8,7.3l5,10.4H83.6z
				 M83.8,127.2c0-2.5-1.5-4.2-3.8-4.2h-4v8.5h4C82.3,131.4,83.8,129.7,83.8,127.2z"/>
			<path fill="#FFFFFF" d="M92.3,144.9v-25.6h14.1v3.7h-9.8v7h9.6v3.7h-9.6v7.5h9.8v3.7H92.3z"/>
			<path fill="#FFFFFF" d="M109.5,132.1c0-7.7,4-13.3,10.5-13.3c4.5,0,6.8,2.8,8.1,5.6l-3.5,1.6c-0.9-2-2.5-3.5-4.6-3.5
				c-3.8,0-6.1,4-6.1,9.5c0,5.5,2.4,9.5,6.1,9.5c2.2,0,3.8-1.6,4.6-3.8l3.5,1.5c-1.3,3-3.6,6-8.2,6
				C113.6,145.3,109.5,139.8,109.5,132.1z"/>
		</g>
		<circle fill="#FFFFFF" cx="100" cy="79.1" r="20.5"/>
	</g>
	<path fill="#FFFFFF" d="M138,165.2H62c-8,0-14.4-6.5-14.4-14.4V53.2c0-8,6.5-14.4,14.4-14.4H138c8,0,14.4,6.5,14.4,14.4v97.6
		C152.5,158.7,146,165.2,138,165.2z M62,43.8c-5.2,0-9.5,4.2-9.5,9.5v97.6c0,5.2,4.2,9.5,9.5,9.5H138c5.2,0,9.5-4.2,9.5-9.5V53.2
		c0-5.2-4.2-9.5-9.5-9.5H62z"/>
</g>
</svg>
