<svg id="Layer_1" data-name="Layer 1" xmlns="http://www.w3.org/2000/svg" viewBox="0 0 200 200"><defs><style>.cls-1{fill:#49434d;}</style></defs><title>icon-injury-basic</title><path class="cls-1" d="M100.49,63.64a13.88,13.88,0,0,1-3.06-.4,11,11,0,0,1-3.3-1.37,14.38,14.38,0,0,1-7-12.55c0-7.88,6-14.32,13.35-14.32s13.35,6.44,13.35,14.32a14.46,14.46,0,0,1-7.72,13,13.36,13.36,0,0,1-2.65,1A12.08,12.08,0,0,1,100.49,63.64Zm0-24.62c-5.15,0-9.33,4.59-9.33,10.3a10.51,10.51,0,0,0,5,9.09,10.14,10.14,0,0,0,2.33,1,7.88,7.88,0,0,0,4.1,0,8.81,8.81,0,0,0,1.85-.72,10.44,10.44,0,0,0,5.47-9.33C109.9,43.61,105.72,39,100.49,39Z"/><path class="cls-1" d="M93.49,165a8.74,8.74,0,0,1-1.45-.08,7.1,7.1,0,0,1-6.44-6,29,29,0,0,1-.32-5.23V86.08c-1.53,2.25-3,4.42-4.42,6.6-2.09,3.14-4.26,6.27-6.52,9.57-1.53,2.17-3.54,3.46-5.63,3.46a6.39,6.39,0,0,1-4.34-1.85c-2.57-2.41-2.82-5.39-.64-8.77,5.47-8.77,15.61-23.33,16.81-25a14.44,14.44,0,0,1,5.63-5.31,21.09,21.09,0,0,1,8.45-3h0.32A2.15,2.15,0,0,1,97,63.48a0.88,0.88,0,0,1,0,.64A3,3,0,0,0,99.93,66,3,3,0,0,0,103,63.48a2.14,2.14,0,0,1,2.41-1.69,20.15,20.15,0,0,1,14.64,9,0.08,0.08,0,0,0,.08.08c2.74,4.18,5.23,7.88,7.72,11.34,2.74,3.86,5.47,7.88,8.53,12.63,2.17,3.46,1.93,6.44-.64,8.77a6.39,6.39,0,0,1-4.34,1.85h0c-2.09,0-4.1-1.21-5.63-3.46-1.93-2.9-3.86-5.63-5.71-8.37s-3.62-5.23-5.39-7.88c-0.08,11.83,0,23.81,0,35.48,0,10.62.08,21.56,0,32.1v1c0,1.21,0,2.65-.08,3.46a7.48,7.48,0,0,1-7.8,6.84h-0.16a8.81,8.81,0,0,1-6.11-2.74A8.68,8.68,0,0,1,93.49,165ZM87.3,77.56a1.37,1.37,0,0,1,.56.08,2,2,0,0,1,1.37,1.93V153.5a27.23,27.23,0,0,0,.24,4.59,3.13,3.13,0,0,0,3.06,2.82,3.61,3.61,0,0,0,.88.08c2.33,0,4.83-1.21,4.91-3.94v-43.2c0-2.25,1.69-2.33,2-2.33,1.45,0,1.85.56,2,2.17h0a6.09,6.09,0,0,1,.08,1.21V157a4,4,0,0,0,4.18,3.86h0.08a3.53,3.53,0,0,0,3.78-3.22,19.27,19.27,0,0,0,0-3.06v-1.13c0.08-10.62,0-21.56,0-32.1-0.08-13.84-.08-28.08,0-41.91a2,2,0,0,1,3.7-1.13c3.14,4.5,6,8.69,9,13.11,1.85,2.74,3.78,5.55,5.71,8.37a3.24,3.24,0,0,0,2.33,1.69,2.59,2.59,0,0,0,1.69-.8c0.88-.8,1.37-1.53-0.08-3.7-3-4.67-5.55-8.45-8.37-12.47-2.49-3.54-5-7.24-7.72-11.42a15.81,15.81,0,0,0-10.38-7,7.16,7.16,0,0,1-12.79,0,17,17,0,0,0-5.23,2.09,0.08,0.08,0,0,0-.08.08,10.94,10.94,0,0,0-4.18,3.86c-0.08.08-.08,0.16-0.16,0.24-0.48.56-11.26,16-16.73,24.7-1.37,2.17-.88,3-0.08,3.7a2.42,2.42,0,0,0,1.69.8,3.24,3.24,0,0,0,2.33-1.69c2.25-3.3,4.42-6.44,6.44-9.57,2.57-3.86,5.23-7.88,8.12-11.91A2,2,0,0,1,87.3,77.56Z"/><path class="cls-1" d="M123.26,98.23A12.63,12.63,0,1,1,135.89,85.6,12.65,12.65,0,0,1,123.26,98.23Zm0-22.85A10.22,10.22,0,1,0,133.48,85.6,10.23,10.23,0,0,0,123.26,75.38Z"/></svg>