<?xml version="1.0" encoding="utf-8"?>
<!-- Generator: Adobe Illustrator 18.1.1, SVG Export Plug-In . SVG Version: 6.00 Build 0)  -->
<svg version="1.1" id="Layer_1" xmlns="http://www.w3.org/2000/svg" xmlns:xlink="http://www.w3.org/1999/xlink" x="0px" y="0px"
	 viewBox="0 0 200 200" enable-background="new 0 0 200 200" xml:space="preserve">
<g>
	<path fill="#49434D" d="M100,200.5C44.5,200.5-0.5,155.4-0.5,100C-0.5,44.6,44.5-0.5,100-0.5c55.4,0,100.5,45.1,100.5,100.5
		C200.5,155.4,155.4,200.5,100,200.5z M100,4.5C47.3,4.5,4.5,47.3,4.5,100c0,52.7,42.8,95.5,95.5,95.5c52.7,0,95.5-42.8,95.5-95.5
		C195.5,47.3,152.6,4.5,100,4.5z"/>
	<g>
		<path fill="#49434D" d="M73.5,144.1c-1.4,0-2.5-1.1-2.5-2.5v-57c0-1.4,1.1-2.5,2.5-2.5s2.5,1.1,2.5,2.5v57
			C76,143,74.9,144.1,73.5,144.1z"/>
		<g>
			<path fill="#49434D" d="M57,86c2.1,0,3.8,1.7,3.8,3.8s-1.7,3.8-3.8,3.8s-3.8-1.7-3.8-3.8S54.9,86,57,86 M57,81
				c-4.9,0-8.8,4-8.8,8.8s4,8.8,8.8,8.8s8.8-4,8.8-8.8S61.9,81,57,81L57,81z"/>
		</g>
		<g>
			<path fill="#49434D" d="M57,112c2.1,0,3.8,1.7,3.8,3.8s-1.7,3.8-3.8,3.8s-3.8-1.7-3.8-3.8S54.9,112,57,112 M57,107
				c-4.9,0-8.8,4-8.8,8.8s4,8.8,8.8,8.8s8.8-4,8.8-8.8S61.9,107,57,107L57,107z"/>
		</g>
		<g>
			<path fill="#49434D" d="M100,79c2.1,0,3.8,1.7,3.8,3.8s-1.7,3.8-3.8,3.8s-3.8-1.7-3.8-3.8S97.9,79,100,79 M100,74
				c-4.9,0-8.8,4-8.8,8.8s4,8.8,8.8,8.8s8.8-4,8.8-8.8S104.9,74,100,74L100,74z"/>
		</g>
		<path fill="#49434D" d="M54.2,92.4L54,113.5c0.7-0.9,1.8-1.6,3.1-1.6c0.7,0,1.4,0.2,1.9,0.6L59.2,93c-0.6,0.4-1.4,0.7-2.2,0.7
			C55.9,93.7,54.9,93.2,54.2,92.4z"/>
		<g>
			<path fill="#49434D" d="M100.1,139.9H76.4v-2.8c0-1.4-1.1-2.2-2.5-2.2H58.7l0.2-15.7c-0.6,0.3-1.2,0.5-1.9,0.5
				c-1.3,0-2.4-0.6-3.1-1.6l-0.2,19.1c0,0.7,0.3,1.4,0.7,1.9c0.5,0.5,1.1,0.9,1.8,0.9h15.2v2.2c0,1.4,1.1,2.8,2.5,2.8h26.3V139.9z"
				/>
			<path fill="#49434D" d="M59.3,86.8l0.1-9.3c0-0.1,0-0.3,0-0.3c0-9,11.5-17.6,27-20.7c2,5.5,7.2,9.1,13.6,9.1c0,0,0.1,0,0.1,0v-5
				c0,0-0.1,0-0.1,0c-4.8,0-8.5-3-9.3-7.4c-0.2-1.3-1.5-2.2-2.9-2c-19,3-32.9,13.6-33.4,25.3c0,0.1,0,0.2,0,0.3l-0.1,10.5
				C55,86.5,55.9,86,57,86C57.9,86,58.6,86.3,59.3,86.8z"/>
		</g>
		<path fill="#49434D" d="M125.5,144.1c1.4,0,2.5-1.1,2.5-2.5v-57c0-1.4-1.1-2.5-2.5-2.5s-2.5,1.1-2.5,2.5v57
			C123,143,124.1,144.1,125.5,144.1z"/>
		<g>
			<path fill="#49434D" d="M143,86c2.1,0,3.8,1.7,3.8,3.8s-1.7,3.8-3.8,3.8c-2.1,0-3.8-1.7-3.8-3.8S140.9,86,143,86 M143,81
				c-4.9,0-8.8,4-8.8,8.8s4,8.8,8.8,8.8s8.8-4,8.8-8.8S147.9,81,143,81L143,81z"/>
		</g>
		<g>
			<path fill="#49434D" d="M143,112c2.1,0,3.8,1.7,3.8,3.8s-1.7,3.8-3.8,3.8s-3.8-1.7-3.8-3.8S140.9,112,143,112 M143,107
				c-4.9,0-8.8,4-8.8,8.8s4,8.8,8.8,8.8s8.8-4,8.8-8.8S147.9,107,143,107L143,107z"/>
		</g>
		<path fill="#49434D" d="M145.9,92.4l0.3,21.1c-0.7-0.9-1.8-1.6-3.1-1.6c-0.7,0-1.4,0.2-1.9,0.6L140.9,93c0.6,0.4,1.4,0.7,2.2,0.7
			C144.2,93.7,145.2,93.2,145.9,92.4z"/>
		<g>
			<path fill="#49434D" d="M99.9,139.9h23.8v-2.8c0-1.4,1.1-2.2,2.5-2.2h15.2l-0.2-15.7c0.6,0.3,1.2,0.5,1.9,0.5
				c1.3,0,2.4-0.6,3.1-1.6l0.2,19.1c0,0.7-0.3,1.4-0.7,1.9c-0.5,0.5-1.1,0.9-1.8,0.9h-15.2v2.2c0,1.4-1.1,2.8-2.5,2.8H99.9V139.9z"
				/>
			<path fill="#49434D" d="M140.8,86.8l-0.1-9.3c0-0.1,0-0.3,0-0.3c0-9-11.5-17.6-27-20.7c-2,5.5-7.2,9.1-13.6,9.1c0,0-0.1,0-0.1,0
				v-5c0,0,0.1,0,0.1,0c4.8,0,8.5-3,9.3-7.4c0.2-1.3,1.5-2.2,2.9-2c19,3,32.9,13.6,33.4,25.3c0,0.1,0,0.2,0,0.3l0.1,10.5
				c-0.7-0.7-1.7-1.2-2.8-1.2C142.2,86,141.4,86.3,140.8,86.8z"/>
		</g>
	</g>
</g>
</svg>
