<?xml version="1.0" encoding="utf-8"?>
<!-- Generator: Adobe Illustrator 18.1.1, SVG Export Plug-In . SVG Version: 6.00 Build 0)  -->
<svg version="1.1" id="Layer_1" xmlns="http://www.w3.org/2000/svg" xmlns:xlink="http://www.w3.org/1999/xlink" x="0px" y="0px"
	 viewBox="0 0 200 200" enable-background="new 0 0 200 200" xml:space="preserve">
<g>
	<path fill="#49434D" d="M100,200.5C44.5,200.5-0.5,155.4-0.5,100C-0.5,44.6,44.5-0.5,100-0.5c55.4,0,100.5,45.1,100.5,100.5
		C200.5,155.4,155.4,200.5,100,200.5z M100,4.5C47.3,4.5,4.5,47.3,4.5,100c0,52.7,42.8,95.5,95.5,95.5c52.7,0,95.5-42.8,95.5-95.5
		C195.5,47.3,152.6,4.5,100,4.5z"/>
	<path fill="#49434D" d="M106.8,126.1H73.1c-0.9,0-1.7-0.8-1.7-1.7v-1c0-0.9,0.8-1.7,1.7-1.7h33.7c0.9,0,1.7,0.8,1.7,1.7v1
		C108.5,125.3,107.8,126.1,106.8,126.1z"/>
	<path fill="#49434D" d="M97.9,95.3c-0.6,0-1.2-0.2-1.7-0.7L54.9,55.9c-1-0.9-1.1-2.5-0.1-3.5c0.9-1,2.5-1.1,3.5-0.1L99.6,91
		c1,0.9,1.1,2.5,0.1,3.5C99.3,95,98.6,95.3,97.9,95.3z"/>
	<g>
		<path fill="#49434D" d="M92.5,75.9c-0.6,0-1.2-0.2-1.7-0.7L70.2,55.9c-1-0.9-1.1-2.5-0.1-3.5c0.9-1,2.5-1.1,3.5-0.1l20.6,19.4
			c1,0.9,1.1,2.5,0.1,3.5C93.9,75.7,93.2,75.9,92.5,75.9z"/>
	</g>
	<g>
		<path fill="#49434D" d="M151.4,160h-35c-5.8,0-10.5-4.7-10.5-10.5V84.3c0-5.8,4.7-10.5,10.5-10.5h35c5.8,0,10.5,4.7,10.5,10.5
			v65.3C161.9,155.3,157.2,160,151.4,160z M116.4,78.8c-3,0-5.5,2.5-5.5,5.5v65.3c0,3,2.5,5.5,5.5,5.5h35c3,0,5.5-2.5,5.5-5.5V84.3
			c0-3-2.5-5.5-5.5-5.5H116.4z"/>
	</g>
	<g>
		<path fill="#49434D" d="M147.4,145.4h-27c-4.7,0-8.5-3.8-8.5-8.5V98.1c0-4.7,3.8-8.5,8.5-8.5h27c4.7,0,8.5,3.8,8.5,8.5v38.8
			C155.9,141.6,152.1,145.4,147.4,145.4z M120.4,94.6c-1.9,0-3.5,1.6-3.5,3.5v38.8c0,1.9,1.6,3.5,3.5,3.5h27c1.9,0,3.5-1.6,3.5-3.5
			V98.1c0-1.9-1.6-3.5-3.5-3.5H120.4z"/>
	</g>
	<path fill="#49434D" d="M139.8,86.2h-16.9c-0.7,0-1.3-0.6-1.3-1.3v-0.6c0-0.7,0.6-1.3,1.3-1.3h16.9c0.7,0,1.3,0.6,1.3,1.3v0.6
		C141.2,85.6,140.6,86.2,139.8,86.2z"/>
	<path fill="#49434D" d="M135.7,151.3h-5.9c-0.7,0-1.3-0.6-1.3-1.3v-0.6c0-0.7,0.6-1.3,1.3-1.3h5.9c0.7,0,1.3,0.6,1.3,1.3v0.6
		C137,150.7,136.4,151.3,135.7,151.3z"/>
	<path fill="#49434D" d="M145.5,86.2h-0.1c-0.7,0-1.3-0.6-1.3-1.3v-0.6c0-0.7,0.6-1.3,1.3-1.3h0.1c0.7,0,1.3,0.6,1.3,1.3v0.6
		C146.8,85.6,146.2,86.2,145.5,86.2z"/>
	<path fill="#49434D" d="M110.9,128.3H39.4l-7.5-7.5v-1.3h79v-5H31.4c-2.5,0-4.5,2-4.5,4.5v2.9c0,0.7,0.3,1.3,0.7,1.8l9,9
		c0.5,0.5,1.1,0.7,1.8,0.7h72.5V128.3z"/>
	<g>
		<rect x="108.5" y="122.9" fill="#49434D" width="2.4" height="5"/>
		<path fill="#49434D" d="M128.1,51.6H51.9c-6.9,0-12.5,5.6-12.5,12.5v51.3c0,1.4,0.2,2.7,0.7,4h5.5c-0.7-1.2-1.2-2.5-1.2-4V64.1
			c0-4.1,3.4-7.5,7.5-7.5h76.3c4.1,0,7.5,3.4,7.5,7.5v14.7h5V64.1C140.6,57.2,135,51.6,128.1,51.6z"/>
	</g>
</g>
</svg>
