<svg id="Layer_1" data-name="Layer 1" xmlns="http://www.w3.org/2000/svg" viewBox="0 0 80 80"><defs><style>.cls-1{fill:#fff;}.cls-2{fill:#49434d;}</style></defs><title>icon-suit-basic</title><path class="cls-1" d="M55,58.1V30.6a1.08,1.08,0,0,0-1-1,1,1,0,0,0-1,1V60.1H27V30.6a1.08,1.08,0,0,0-1-1,1,1,0,0,0-1,1V58.2H18.7L19,28.9V28.8c0-4.7,6-9.2,14.2-10.8a6.77,6.77,0,0,0,6.7,4.6h0.2A6.9,6.9,0,0,0,46.8,18C55,19.5,61,24.1,61,28.8v0.1l0.3,29.3H55V58.1Z"/><path class="cls-2" d="M63,59.8a1.08,1.08,0,0,0,.3-0.7L62.9,28.6V28.5c-0.3-5.8-7.2-11.1-16.7-12.6a1,1,0,0,0-1.1.8,4.81,4.81,0,0,1-5,4H39.9a4.81,4.81,0,0,1-5-4,1,1,0,0,0-1.1-.8c-9.5,1.5-16.5,6.8-16.7,12.6v0.1L16.8,59.1a1,1,0,0,0,1,1H25v1.7a0.25,0.25,0,0,0,.2.3H54.8a0.25,0.25,0,0,0,.2-0.3V60.1h1.9m-1.9-2V30.6a1.08,1.08,0,0,0-1-1,1,1,0,0,0-1,1V60.1H27V30.6a1.08,1.08,0,0,0-1-1,1,1,0,0,0-1,1V58.2H18.7L19,28.9V28.8c0-4.7,6-9.2,14.2-10.8a6.77,6.77,0,0,0,6.7,4.6h0.2A6.9,6.9,0,0,0,46.8,18C55,19.5,61,24.1,61,28.8v0.1l0.3,29.3H55V58.1Z"/></svg>