<?xml version="1.0" encoding="utf-8"?>
<!-- Generator: Adobe Illustrator 18.1.1, SVG Export Plug-In . SVG Version: 6.00 Build 0)  -->
<svg version="1.1" id="Layer_1" xmlns="http://www.w3.org/2000/svg" xmlns:xlink="http://www.w3.org/1999/xlink" x="0px" y="0px"
	 viewBox="0 0 200 200" enable-background="new 0 0 200 200" xml:space="preserve">
<g>
	<g>
		<path fill="#3BD6B2" d="M100.5,107.3c-2.5,0-5.2-0.3-7.8-1c-3-0.8-5.9-1.9-8.5-3.5c-11-6.5-17.9-18.9-17.9-32.4
			c0-20.3,15.4-36.9,34.2-36.9s34.2,16.5,34.2,36.9c0,14.2-7.8,27.3-19.8,33.4c-2.2,1.1-4.7,2-6.8,2.5
			C105.7,107,103.1,107.3,100.5,107.3z M100.5,38.6c-16.1,0-29.2,14.3-29.2,31.9c0,11.8,5.9,22.5,15.4,28.1c2.2,1.3,4.6,2.3,7.2,2.9
			c4.5,1.1,8.8,1.1,13,0.1c1.8-0.4,3.9-1.2,5.8-2.2c10.3-5.2,17-16.5,17-28.9C129.8,52.9,116.7,38.6,100.5,38.6z"/>
		<path fill="#3BD6B2" d="M125.9,129c-0.6,6.2,0.1,16.2,4.1,19v42.1c1.7-0.6,3.4-1.2,5-1.8v-41.9c0-1.1-1-2.1-2.1-2.4l-0.5-0.1
			c-0.1,0-0.1,0-0.2-0.1c-0.8-0.9-2.4-5.9-1.6-14.4c0.8-8.8,3.3-13.5,4.3-14c0,0-0.1,0.1-0.3,0l0.5-5
			C129.1,110,126.5,121.9,125.9,129z"/>
		<path fill="#3BD6B2" d="M99.4,128.8c-10.1,0-17.5-15.8-19.6-20.6l2.3-1l-0.5-2.5l2.8,1.5c3.6,8.4,9.8,17.5,15,17.5
			s11.4-9.1,15-17.5c0.5-1.1,1.7-1.8,2.8-1.5l-0.5,2.4l2.3,1C116.9,113,109.5,128.8,99.4,128.8z"/>
		<path fill="#3BD6B2" d="M154.4,134.4c0-0.1,0-0.1,0-0.2c-0.5-14.5-15-25.7-38.2-29.7c0.1-1.4,0.2-2.2,0.2-2.7c0-0.1,0-0.2,0-0.2
			c0-0.9-0.5-1.6-1.2-2.1c-0.7-0.4-1.6-0.5-2.4-0.1c-1.8,0.9-3.8,1.6-5.8,2.1c-4.2,1.1-8.5,1.1-13-0.1c-2.6-0.7-5-1.6-7.2-2.9
			c-0.7-0.4-1.7-0.5-2.4,0c-0.8,0.4-1.3,1.2-1.3,2.1c0,0.2,0,0.5,0,2.5c0,0.4,0,0.9,0,1.4c-21.5,4-37,16.2-37.5,29.7
			c0,0.1,0,0.2,0,0.3l-0.5,43c1.6,1.2,3.3,2.2,5,3.3l0.5-45.1c0-0.1,0-0.2,0-0.3c0-11.5,15-22.4,35.1-25.4l0,0
			c0.7,0,1.3-0.7,1.8-1.2c0.6-0.7,0.7-1.2,0.7-4c1.5,0.6,3,1.1,4.7,1.5c5.3,1.3,10.4,1.3,15.5,0.1c1-0.2,2-0.5,2.9-0.9
			c0,0.2,0,0.4-0.1,0.6c0,0.4-0.1,1.4,0.7,2.3c0.4,0.4,0.9,0.6,1.4,0.7c17.5,2.6,36.3,10.8,36.3,25.9c0,0.1,0,0.3,0,0.4l0.6,45.3
			c1.7-1,3.3-2.1,5-3.3L154.4,134.4z"/>
		<path fill="#3BD6B2" d="M64.7,110.6l0.5,5c-0.2,0-0.3,0-0.3,0c0.9,0.5,3.5,5.2,4.3,14c0.8,8.5-0.7,13.5-1.5,14.4
			c-0.9,0.2-1.5,0.8-1.8,1.7c-0.1,0.5,0.2,0.9,0.2,1.4v41.7c1.6,0.6,3.3,1.2,5,1.8V148c4-3.1,3.8-12.8,3.3-18.8
			C73.6,121.9,70.7,110,64.7,110.6z"/>
	</g>
</g>
<path fill="#3BD6B2" d="M100,200C44.9,200,0,155.1,0,100S44.9,0,100,0s100,44.9,100,100S155.1,200,100,200z M100,5
	C47.6,5,5,47.6,5,100s42.6,95,95,95s95-42.6,95-95S152.4,5,100,5z"/>
</svg>
