<?xml version="1.0" encoding="utf-8"?>
<!-- Generator: Adobe Illustrator 18.1.1, SVG Export Plug-In . SVG Version: 6.00 Build 0)  -->
<svg version="1.1" id="Layer_1" xmlns="http://www.w3.org/2000/svg" xmlns:xlink="http://www.w3.org/1999/xlink" x="0px" y="0px"
	 viewBox="0 0 186 186" enable-background="new 0 0 186 186" xml:space="preserve">
<path fill="#FFFFFF" d="M93,0C41.6,0,0,41.6,0,93s41.6,93,93,93s93-41.6,93-93S144.4,0,93,0z M145,102.6
	c-23.1,13.6-46.1,27.2-69.1,40.8c-3.7,2.2-7.4,3.9-11.6,1.3c-4-2.5-4.2-6.4-4.2-10.6c0.1-13.5,0-27,0-40.5c0-13.7,0-27.3,0-41
	c0-10,6.5-13.7,15.2-8.6c23.2,13.6,46.4,27.3,69.6,41C153.9,90.4,153.9,97.4,145,102.6z"/>
</svg>
