<?xml version="1.0" encoding="utf-8"?>
<!-- Generator: Adobe Illustrator 18.1.1, SVG Export Plug-In . SVG Version: 6.00 Build 0)  -->
<svg version="1.1" id="Layer_1" xmlns="http://www.w3.org/2000/svg" xmlns:xlink="http://www.w3.org/1999/xlink" x="0px" y="0px"
	 viewBox="0 0 200 200" enable-background="new 0 0 200 200" xml:space="preserve">
<g>
	<path fill="#FFFFFF" d="M100,200C44.9,200,0,155.1,0,100S44.9,0,100,0c55.1,0,100,44.9,100,100S155.1,200,100,200z M100,4.9
		C47.6,4.9,4.9,47.6,4.9,100s42.7,95.1,95.1,95.1c52.4,0,95.1-42.7,95.1-95.1S152.4,4.9,100,4.9z"/>
	<path fill="#FFFFFF" d="M65.7,136.3C55.9,126.1,49.9,71.2,49.2,65c-0.1-1.1,0.6-2.2,1.6-2.6l48.2-16.6c0.5-0.2,1.1-0.2,1.6,0
		l48.4,16.6c1.1,0.4,1.8,1.4,1.6,2.6c-0.7,6.2-6.7,61.1-16.5,71.4c-9.4,9.8-25.7,19.1-34.2,19.1C91.3,155.4,75.2,146.1,65.7,136.3z
		 M54.3,66.4c2,17.7,7.9,59.1,14.9,66.5c9.4,9.8,24.2,17.5,30.7,17.5c6.5-0.1,21.3-7.7,30.7-17.5c7.1-7.4,13-48.8,14.9-66.5
		L99.9,50.7L54.3,66.4z"/>
	<path fill="#FFFFFF" d="M100.8,142h-0.1c0,0-0.1,0-0.1,0c-6.2,0-18.5-7-25.9-14.7C67,119.4,62.2,74.4,62,72.5
		c-0.1-0.7,0.3-1.3,1-1.5l37.3-12.9c0.3-0.1,0.6-0.1,1,0l37.2,12.7c0.7,0.2,1.1,0.9,1,1.6c-0.2,1.9-5,47-12.6,54.9
		C119.4,135,107.1,142,100.8,142C100.8,142,100.8,142,100.8,142z M65.1,73.4c1.5,13.6,6.1,46.3,11.7,52.1c7.6,7.9,19.1,14,24,14.1
		c4.9,0,16.4-6.2,24-14.1c5.6-5.8,10.2-38.6,11.7-52.3l-35.6-12.1L65.1,73.4z"/>
</g>
</svg>
