<?xml version="1.0" encoding="utf-8"?>
<!-- Generator: Adobe Illustrator 18.1.1, SVG Export Plug-In . SVG Version: 6.00 Build 0)  -->
<svg version="1.1" id="Layer_1" xmlns="http://www.w3.org/2000/svg" xmlns:xlink="http://www.w3.org/1999/xlink" x="0px" y="0px"
	 viewBox="0 0 82 70" enable-background="new 0 0 82 70" xml:space="preserve">
<path fill="#3BD6B2" d="M81.1,13.6c-0.8-4.3-3.5-8-8.1-10.9C70.1,0.9,67.2,0,64.3,0c-9.8,0-16.7,10.1-22,17.5
	c-0.4,0.6-0.9,1.2-1.3,1.7c-0.4-0.6-0.8-1.1-1.3-1.7C34.4,10.1,27.5,0,17.7,0C14.8,0,11.9,0.9,9,2.7C4.4,5.6,1.7,9.3,0.9,13.6
	C-0.5,21.2,4.6,28,4.8,28.2c0,0,0,0,0,0l35.4,41.3c0.2,0.2,0.5,0.3,0.7,0.4c0.3,0,0.6-0.1,0.7-0.4l35.4-41.3c0,0,0,0,0,0
	C77.4,28,82.5,21.2,81.1,13.6z M75.3,26.8L41,66.7l-34.3-40c-0.3-0.4-4.6-6.4-3.4-12.7c0.7-3.6,3-6.7,7-9.2c2.5-1.6,5-2.4,7.4-2.4
	c8.6,0,15.4,9.5,20.4,16.4c0.8,1.1,1.2,2.2,2,3.1c0.2,0.3,0.6,0.5,1,0.5c0.4,0,0.7-0.2,1-0.5c0.7-0.9,1.1-2,2-3.1
	c5-6.9,11.8-16.4,20.4-16.4c2.4,0,4.9,0.8,7.4,2.4c4,2.5,6.3,5.6,7,9.2C79.8,20.4,75.6,26.3,75.3,26.8z"/>
</svg>
