<?xml version="1.0" encoding="utf-8"?>
<!-- Generator: Adobe Illustrator 18.1.1, SVG Export Plug-In . SVG Version: 6.00 Build 0)  -->
<svg version="1.1" id="Layer_1" xmlns="http://www.w3.org/2000/svg" xmlns:xlink="http://www.w3.org/1999/xlink" x="0px" y="0px"
	 viewBox="0 0 80 80" enable-background="new 0 0 80 80" xml:space="preserve">
<g>
	<path fill="#FFFFFF" d="M63.4,71.2H41.6c-0.7,0-1.3-0.6-1.3-1.3V42.6c0-0.7,0.6-1.3,1.3-1.3h21.8c0.7,0,1.3,0.6,1.3,1.3v27.2
		C64.8,70.6,64.2,71.2,63.4,71.2z M43,68.5h19.1V43.9H43V68.5z"/>
	<path fill="#FFFFFF" d="M39.9,80c-8.9,0-17.7,0-26.6,0c-4.4,0-7.6-3.2-7.6-7.6c0-7.8,0-15.6,0-23.3l0-41.3C5.8,3,8.8,0,13.6,0
		l23.8,0l29.1,0c4.5,0,7.7,3.1,7.7,7.6c0,21.5,0,43.1,0,64.6c0,4.5-3.2,7.7-7.7,7.7C57.7,80,48.8,80,39.9,80z M37.4,2.7l-23.8,0
		c-3.2,0-5.1,1.8-5.1,5.1l0,41.3c0,7.8,0,15.6,0,23.3c0,2.9,2,4.9,4.9,4.9c17.7,0,35.4,0,53.1,0c3,0,5-2,5-5c0-21.5,0-43.1,0-64.6
		c0-3-2-5-5-5L37.4,2.7z"/>
	<path fill="#FFFFFF" d="M27.7,13.9H18c-0.7,0-1.3-0.6-1.3-1.3c0-0.7,0.6-1.3,1.3-1.3h9.7c0.7,0,1.3,0.6,1.3,1.3
		C29,13.3,28.4,13.9,27.7,13.9z"/>
	<path fill="#FFFFFF" d="M44.9,13.9h-9.7c-0.7,0-1.3-0.6-1.3-1.3c0-0.7,0.6-1.3,1.3-1.3h9.7c0.7,0,1.3,0.6,1.3,1.3
		C46.2,13.3,45.6,13.9,44.9,13.9z"/>
	<path fill="#FFFFFF" d="M62,13.9h-9.7c-0.7,0-1.3-0.6-1.3-1.3c0-0.7,0.6-1.3,1.3-1.3H62c0.7,0,1.3,0.6,1.3,1.3
		C63.4,13.3,62.8,13.9,62,13.9z"/>
	<path fill="#FFFFFF" d="M62,23.9H18c-0.7,0-1.3-0.6-1.3-1.3s0.6-1.3,1.3-1.3h44c0.7,0,1.3,0.6,1.3,1.3S62.8,23.9,62,23.9z"/>
	<path fill="#FFFFFF" d="M62,33.9H18c-0.7,0-1.3-0.6-1.3-1.3c0-0.7,0.6-1.3,1.3-1.3h44c0.7,0,1.3,0.6,1.3,1.3
		C63.3,33.3,62.7,33.9,62,33.9z"/>
	<path fill="#FFFFFF" d="M33,43.9H18c-0.7,0-1.3-0.6-1.3-1.3c0-0.7,0.6-1.3,1.3-1.3H33c0.7,0,1.3,0.6,1.3,1.3
		C34.4,43.3,33.8,43.9,33,43.9z"/>
	<path fill="#FFFFFF" d="M33,54H18c-0.7,0-1.3-0.6-1.3-1.3s0.6-1.3,1.3-1.3H33c0.7,0,1.3,0.6,1.3,1.3S33.8,54,33,54z"/>
	<path fill="#FFFFFF" d="M27.7,64H18c-0.7,0-1.3-0.6-1.3-1.3c0-0.7,0.6-1.3,1.3-1.3h9.7c0.7,0,1.3,0.6,1.3,1.3
		C29,63.4,28.4,64,27.7,64z"/>
</g>
</svg>
