<?xml version="1.0" encoding="utf-8"?>
<!-- Generator: Adobe Illustrator 18.1.1, SVG Export Plug-In . SVG Version: 6.00 Build 0)  -->
<svg version="1.1" id="Layer_1" xmlns="http://www.w3.org/2000/svg" xmlns:xlink="http://www.w3.org/1999/xlink" x="0px" y="0px"
	 viewBox="0 0 70 70" enable-background="new 0 0 70 70" xml:space="preserve">
<g>
	<g>
		<path fill="#49434D" d="M30.8,33.7c0.2-0.2,0.3-0.4,0.5-0.5c-2.8-4.5-5.7-9.2-6.7-10.8c-0.7-1.2-1.7-1.8-3.1-1.9l-0.2,0
			c-0.6,0-1.3-0.1-2-0.1c-1.6,0-2.8-0.5-3.9-1.4c-3.1-2.9-4.2-8.3-0.8-12.7c0.2,0.4,0.4,0.8,0.6,1.4c0.2,0.5,0.3,0.9,0.4,1.4
			c0.2,0.6,0.4,1.2,0.6,1.8c0.6,1.6,1.8,2.7,3.2,2.9c2.6,0.4,4.8-0.3,6.6-2c0.9-0.9,1.2-2,1-3.1c-0.2-1.4-0.5-2.4-0.8-3.4
			c-0.2-0.8-0.5-1.5-0.8-2.2c0-0.1-0.1-0.2-0.1-0.3c0.1,0,0.2,0.1,0.3,0.1c2.9,1.3,4.9,3.1,6,5.6c0.7,1.5,0.7,3-0.2,4.4
			c-0.3,0.6-0.6,1.2-0.9,1.8c-0.7,1.5-0.6,2.9,0.2,4.1c0.6,1,3,4.7,5.5,8.8c0.6-0.6,1.1-1.3,1.7-1.9c-2.4-3.8-4.5-7.3-5.1-8.2
			c-0.4-0.6-0.4-1.1-0.1-1.8c0.3-0.6,0.5-1.1,0.9-1.7c1.2-2.1,1.3-4.4,0.2-6.7c-1.4-3-3.9-5.3-7.3-6.8C26.1,0.3,25.5,0.1,25,0
			c-0.9-0.2-1.7,0.1-2.1,0.7c-0.2,0.3-0.5,1-0.1,2c0.1,0.4,0.3,0.8,0.5,1.2c0.3,0.7,0.6,1.3,0.8,2c0.3,0.9,0.5,1.8,0.7,3.1
			c0.1,0.4-0.1,0.7-0.4,1c-1.2,1.2-2.7,1.7-4.5,1.4c-0.2,0-0.9-0.2-1.4-1.4c-0.2-0.5-0.4-1-0.5-1.6c-0.2-0.5-0.3-1-0.5-1.5
			c-0.3-0.9-0.7-1.7-1.1-2.3c-0.6-0.9-1.3-1.1-1.7-1.1c-0.6,0-1.1,0.3-1.6,0.8c-1.9,2.2-3,5.2-3,8.1c0,3.2,1.3,6.2,3.7,8.3
			c1.5,1.4,3.3,2.1,5.5,2.1c0.6,0,1.2,0,1.8,0.1l0.2,0c0.6,0,0.9,0.3,1.2,0.7c1,1.6,4.2,6.7,7.1,11.4C30,34.6,30.4,34.1,30.8,33.7z"
			/>
		<path fill="#49434D" d="M63.1,56.4c-0.4-3.3-2-6-4.6-7.8c-1.7-1.2-3.6-1.3-5.1-1.3c-0.5,0-1,0-1.5-0.1c-0.5-0.1-0.8-0.3-1.1-0.7
			c-0.8-1.3-1.6-2.6-2.4-3.9c-0.8-1.3-1.6-2.6-2.5-4c-0.2-0.4-0.7-1.1-1.4-2.2c-0.4,0.7-0.8,1.5-1.2,2.2c0,0.1-0.1,0.2-0.1,0.3
			c0.3,0.4,0.5,0.8,0.6,1c0.8,1.3,1.6,2.6,2.4,4c0.8,1.3,1.6,2.6,2.4,3.9c0.6,1,1.6,1.6,2.8,1.8c0.6,0.1,1.2,0.1,1.8,0.1
			c1.7,0,2.8,0.3,3.7,0.9c2,1.4,3.3,3.6,3.6,6.1c0.3,2.5-0.4,5.1-2,7.1c-0.2-0.4-0.4-0.8-0.6-1.3c-0.2-0.5-0.3-1-0.5-1.5
			c-0.2-0.5-0.3-1.1-0.5-1.6c-0.5-1.3-1.3-2.3-2.4-2.8c-0.6-0.3-1.4-0.4-2.2-0.4c-2,0-4.7,1-5.7,2.8c-0.4,0.7-0.6,1.7-0.6,2.5
			c0.1,0.9,0.2,1.8,0.6,2.9c0.2,0.7,0.5,1.5,0.8,2.2c0.1,0.3,0.2,0.5,0.3,0.8c-0.3-0.1-0.6-0.2-0.9-0.4c-2.6-1.3-4.4-3.1-5.5-5.4
			c-0.7-1.5-0.6-2.9,0.2-4.4c0.3-0.5,0.7-1.2,1-1.9c0.7-1.5,0.6-2.9-0.3-4.2c-0.6-0.9-1.1-1.7-1.7-2.7c-0.2-0.4-0.5-0.8-0.7-1.2
			l-0.9-1.5c-0.5,0.7-1.1,1.3-1.6,1.9l0.5,0.8c0.2,0.4,0.5,0.8,0.7,1.2c0.6,0.9,1.1,1.9,1.8,2.8c0.4,0.6,0.4,1,0.1,1.8
			c-0.3,0.6-0.6,1.2-0.9,1.7c-1.1,2.1-1.2,4.3-0.3,6.5c1.3,2.8,3.4,5,6.6,6.6c0.6,0.3,1.4,0.6,2.2,0.8c0.2,0,0.3,0.1,0.5,0.1
			c0.6,0,1.2-0.2,1.6-0.6c0.7-0.8,0.3-2,0.3-2.1c-0.2-0.5-0.4-1.1-0.6-1.6c-0.3-0.7-0.5-1.4-0.8-2.1c-0.3-0.9-0.5-1.6-0.5-2.3
			c0-0.4,0.1-0.9,0.3-1.2c0.5-0.9,2.2-1.6,3.7-1.6c0.5,0,0.9,0.1,1.2,0.2c0.5,0.2,0.9,0.7,1.2,1.4c0.2,0.5,0.3,0.9,0.5,1.5
			c0.2,0.5,0.3,1.1,0.5,1.7c0.3,0.8,0.7,1.5,1.1,2.3c0.4,0.6,0.9,0.9,1.6,0.9c0,0,0,0,0,0c0.5,0,1.1-0.2,1.5-0.7
			C62.4,63.3,63.5,59.9,63.1,56.4z"/>
	</g>
	<g>
		<g>
			<path fill="#49434D" d="M30.2,55c-0.4,0-1.2-0.2-1.8-1.3c-0.9-1.8-2.4-2.7-4.6-3c-0.5-0.1-1.4-0.1-1.9-0.9
				c-0.5-0.7-0.2-1.6,0-2.1c0.1-0.3,0.2-0.5,0.3-0.8c0.2-0.6,0.4-1.2,0.6-1.7c1-4.2,3.2-8.2,7-12.4c7.1-8,14.4-16.1,21.5-23.9
				c2.1-2.4,4.3-4.7,6.4-7.1c0.3-0.3,0.6-0.5,0.9-0.8C58.8,1,58.9,0.9,59,0.8c0.2-0.1,0.3-0.2,0.5-0.3l1.9-0.4
				c0.7-0.1,1.3,0.3,1.4,1l0.4,1.9c0.1,0.3,0,0.5-0.1,0.8L60.4,9c-5.3,10.1-10.6,20.1-15.8,30.2l-0.2,0.4c-0.5,0.9-1,1.9-1.5,2.8
				c-2.1,3.8-4.4,6.6-7.1,8.6c-1,0.7-1.9,1.6-2.8,2.4c-0.3,0.3-0.7,0.6-1,0.9C31.3,54.8,30.8,55,30.2,55z M24.4,48.4
				c2.7,0.3,4.8,1.7,6,3.9c0.3-0.2,0.6-0.5,0.9-0.8c1-0.8,1.9-1.7,3-2.5c2.5-1.9,4.5-4.4,6.5-7.9c0.5-0.9,1-1.8,1.5-2.7l0.2-0.4
				C47.7,28,53,18,58.2,7.9l2.5-4.8l-0.1-0.3l-0.4,0.1c0,0-0.1,0.1-0.1,0.1c-0.2,0.2-0.4,0.3-0.5,0.5c-2.1,2.4-4.3,4.7-6.4,7.1
				c-7.1,7.8-14.4,15.9-21.5,23.9c-3.5,3.9-5.5,7.5-6.5,11.4c-0.2,0.7-0.4,1.4-0.7,2C24.5,48,24.4,48.2,24.4,48.4z"/>
		</g>
		<g>
			<path fill="#49434D" d="M9.6,70c-0.2,0-0.5,0-0.7,0c-0.5,0-0.9-0.3-1.2-0.4c-0.1,0-0.2-0.1-0.2-0.1C7.2,69.3,7,69,6.8,68.7
				c-0.1-0.3-0.1-0.7,0.1-1C7,67.7,7,67.6,7,67.5c0.1-0.3,0.4-0.9,0.9-1.2c3.3-1.9,5.2-4.8,5.9-9c0.2-1.1,0.5-2.2,0.9-3.2
				c0.8-2.1,2.2-3.7,4.4-4.9c1.3-0.7,2.7-1,4.2-1c2.2,0,4.3,0.8,5.8,2.1c2.8,2.5,3.7,6.4,2.3,9.7c-0.7,1.7-2,3.2-3.8,4.6
				c-2.5,1.9-5.4,2.9-7.7,3.5c-0.1,0-0.3,0.1-0.5,0.2c-0.1,0.1-0.2,0.1-0.3,0.1c-0.1,0-0.2,0.1-0.3,0.1l-7.4,1.4c-0.1,0-0.1,0-0.2,0
				c-0.2,0-0.4,0-0.6,0C10.3,70,10,70,9.6,70z M23.3,50.6c-1.1,0-2.2,0.3-3.1,0.8c-1.6,0.9-2.7,2.1-3.3,3.6
				c-0.3,0.9-0.6,1.8-0.7,2.8c-0.7,4.3-2.6,7.6-5.7,9.8c0.2,0,0.4,0,0.5,0l7.2-1.4c0,0,0.1,0,0.1-0.1c0.2-0.1,0.5-0.2,0.8-0.3
				c2.2-0.7,4.7-1.5,6.9-3.2c1.5-1.1,2.5-2.3,3-3.6c1-2.4,0.3-5.3-1.7-7C26.4,51.1,24.9,50.6,23.3,50.6z"/>
		</g>
	</g>
</g>
</svg>
