<svg id="Layer_1" data-name="Layer 1" xmlns="http://www.w3.org/2000/svg" viewBox="0 0 200 200"><defs><style>.cls-1{fill:#242e37;}</style></defs><title>icon-precision-basic</title><path class="cls-1" d="M130.8,102.1V102H130v-1.5L127.4,97h2.1A29.72,29.72,0,0,0,99.8,70.1a2.66,2.66,0,0,0,2.3-2.1H97V51.4c0-1.5,1.6-2.5,2.9-2.5A51.09,51.09,0,0,1,151,99.8v2.5h-4.9l-0.1-.1Zm3.7-5.1h11.2A45.82,45.82,0,0,0,102,53.8V65.1C120,66.3,133.3,80,134.5,97Z"/><path class="cls-1" d="M50.4,102.1V102H49v-1.1L44.4,97h4.5c1.3-26,23.5-48.1,50.7-48.2l2.4,0.1V70H99.6A29.75,29.75,0,0,0,70,99.7v2.5H66.6l-0.1-.1H50.4ZM53.8,97H65.1A34.54,34.54,0,0,1,97,65.2V53.9C74,55.3,55.1,74,53.8,97Z"/><path class="cls-1" d="M97,158.6v-27l0.4-.5a2.79,2.79,0,0,1,2.4-1.5,30,30,0,0,0,29.8-30V97h21.1v2.6a51.26,51.26,0,0,1-49.5,51Zm5-24.2v11.3c24-1.2,42.4-19.7,43.7-43.7H134.4C133.2,120,120,133.3,102,134.4Z"/><path class="cls-1" d="M102,150.8H99.6c-28-.1-50.8-23.2-50.8-51.2V97H69.9v2.6c0.1,16.5,13.4,30,29.7,30.1l2.4,0.1v21ZM53.8,102A46.07,46.07,0,0,0,97,145.8V134.5A34.56,34.56,0,0,1,65,102H53.8Z"/><path class="cls-1" d="M99.7,67.5H99.5A32.24,32.24,0,0,0,67.4,99.8v0.1a32.35,32.35,0,0,0,32.1,32.2h0.2A32.26,32.26,0,0,0,132,99.9V99.8A32.22,32.22,0,0,0,99.7,67.5ZM112,102.2h-9.8V112a2.5,2.5,0,1,1-5,0v-9.8H87.3a2.5,2.5,0,1,1,0-5h9.9V87.4a2.5,2.5,0,1,1,5,0v9.8H112a2.48,2.48,0,0,1,2.5,2.5A2.54,2.54,0,0,1,112,102.2Z"/><path class="cls-1" d="M99.5,67.5h0.2a17.7,17.7,0,0,1,2.3.1V36.2a2.48,2.48,0,0,0-2.5-2.5A2.54,2.54,0,0,0,97,36.2V67.6A20.9,20.9,0,0,0,99.5,67.5Z"/><path class="cls-1" d="M99.7,132.2H99.5c-0.8,0-1.7-.1-2.5-0.1v31.1a2.5,2.5,0,0,0,5,0V132.1A17,17,0,0,1,99.7,132.2Z"/><path class="cls-1" d="M67.4,100V99.9c0-1,.1-1.9.1-2.9H36.2a2.5,2.5,0,1,0,0,5H67.5A13.4,13.4,0,0,1,67.4,100Z"/><path class="cls-1" d="M163.1,97H131.9a27.15,27.15,0,0,1,.1,2.9V100a13.4,13.4,0,0,1-.1,2H163a2.48,2.48,0,0,0,2.5-2.5A2.34,2.34,0,0,0,163.1,97Z"/></svg>