<?xml version="1.0" encoding="utf-8"?>
<!-- Generator: Adobe Illustrator 18.1.1, SVG Export Plug-In . SVG Version: 6.00 Build 0)  -->
<svg version="1.1" id="Layer_1" xmlns="http://www.w3.org/2000/svg" xmlns:xlink="http://www.w3.org/1999/xlink" x="0px" y="0px"
	 viewBox="0 0 200 200" enable-background="new 0 0 200 200" xml:space="preserve">
<path fill="#49434D" d="M100,200C44.9,200,0,155.1,0,100C0,44.9,44.9,0,100,0s100,44.9,100,100C200,155.1,155.1,200,100,200z M100,5
	C47.6,5,5,47.6,5,100c0,52.4,42.6,95,95,95s95-42.6,95-95C195,47.6,152.4,5,100,5z"/>
<g>
	<path fill="#49434D" d="M139.3,166.9H60.7c-8,0-14.4-6.5-14.4-14.4V57.1c0-8,6.5-14.4,14.4-14.4h78.6c8,0,14.4,6.5,14.4,14.4v95.4
		C153.7,160.4,147.2,166.9,139.3,166.9z M60.7,47.6c-5.2,0-9.5,4.2-9.5,9.5v95.4c0,5.2,4.2,9.5,9.5,9.5h78.6c5.2,0,9.5-4.2,9.5-9.5
		V57.1c0-5.2-4.2-9.5-9.5-9.5H60.7z"/>
	<g>
		<path fill="#49434D" d="M83.2,108H68.3c-1.4,0-2.5-1.1-2.5-2.5s1.1-2.5,2.5-2.5h14.9c1.4,0,2.5,1.1,2.5,2.5S84.6,108,83.2,108z"/>
		<path fill="#49434D" d="M133,108H93.2c-1.4,0-2.5-1.1-2.5-2.5s1.1-2.5,2.5-2.5H133c1.4,0,2.5,1.1,2.5,2.5S134.4,108,133,108z"/>
	</g>
	<g>
		<path fill="#49434D" d="M83.2,94H68.3c-1.4,0-2.5-1.1-2.5-2.5s1.1-2.5,2.5-2.5h14.9c1.4,0,2.5,1.1,2.5,2.5S84.6,94,83.2,94z"/>
		<path fill="#49434D" d="M133,94H93.2c-1.4,0-2.5-1.1-2.5-2.5s1.1-2.5,2.5-2.5H133c1.4,0,2.5,1.1,2.5,2.5S134.4,94,133,94z"/>
	</g>
	<g>
		<path fill="#49434D" d="M83.2,79H68.3c-1.4,0-2.5-1.1-2.5-2.5s1.1-2.5,2.5-2.5h14.9c1.4,0,2.5,1.1,2.5,2.5S84.6,79,83.2,79z"/>
		<path fill="#49434D" d="M133,79H93.2c-1.4,0-2.5-1.1-2.5-2.5s1.1-2.5,2.5-2.5H133c1.4,0,2.5,1.1,2.5,2.5S134.4,79,133,79z"/>
	</g>
	<g>
		<path fill="#49434D" d="M83.2,123H68.3c-1.4,0-2.5-1.1-2.5-2.5s1.1-2.5,2.5-2.5h14.9c1.4,0,2.5,1.1,2.5,2.5S84.6,123,83.2,123z"/>
	</g>
	<g>
		<g>
			<path fill="#FFFFFF" d="M111.4,37c0,0,0-0.9,0-1c0-6.5-5.2-12-11.7-12c-6.5,0-11.7,5.7-11.7,12.2c0,0.1,0,0.8,0,0.8H79v18h42V37
				H111.4z"/>
			<path fill="#49434D" d="M121.6,57H78.8c-1.4,0-1.8-1.4-1.8-2.7V36.3c0-1.4,0.4-2.3,1.8-2.3h6.9c0.9-7,6.9-12.6,14.1-12.6
				c7.2,0,13.2,5.6,14.1,12.6h7.7c1.4,0,2.4,1,2.4,2.3v17.9C124,55.6,122.9,57,121.6,57z M82,52h37V39h-7.6c-1.4,0-2.5-1.2-2.5-2.6
				c0-0.1,0-0.1,0-0.2c0-0.1,0-0.5,0-0.6c0-5.2-4.1-9.4-9.2-9.4c-5,0-9.2,4.3-9.2,9.5c0,0.1,0,0.3,0,0.4c0,0.1,0,0.2,0,0.3
				c0,1.4-1.1,2.6-2.5,2.6H82V52z"/>
		</g>
		<g>
			<circle fill="#FFFFFF" cx="100" cy="35" r="5.9"/>
			<path fill="#49434D" d="M100,34.1c0.5,0,0.9,0.4,0.9,0.9s-0.4,0.9-0.9,0.9c-0.5,0-0.9-0.4-0.9-0.9S99.5,34.1,100,34.1 M100,29.1
				c-3.2,0-5.9,2.6-5.9,5.9s2.6,5.9,5.9,5.9c3.2,0,5.9-2.6,5.9-5.9S103.3,29.1,100,29.1L100,29.1z"/>
		</g>
	</g>
	<path fill="#49434D" d="M118.4,153.3c-0.7,0-1.4,0-2-0.1c-4.5-0.6-8.7-3.1-11.3-6.7c-2.5-3.5-3.5-7.6-2.8-11.7
		c0.8-4.7,3.3-8.7,6.9-11.2c3.6-2.5,8.1-3.3,12.7-2.4c1.3,0.3,2.2,1.6,2,2.9c-0.3,1.3-1.6,2.2-2.9,2c-3.3-0.7-6.5-0.1-8.9,1.6
		c-2.5,1.7-4.2,4.6-4.8,7.9c-0.5,2.7,0.2,5.5,2,7.9c1.9,2.6,4.8,4.3,8,4.8c3,0.4,6-0.5,8.5-2.6c2.4-2,3.8-4.8,3.9-7.8
		c0-1.4,1.2-2.4,2.6-2.4c1.4,0,2.4,1.2,2.4,2.6c-0.2,4.3-2.2,8.5-5.7,11.4C125.8,151.9,122.1,153.3,118.4,153.3z"/>
	<path fill="#49434D" d="M118.1,142.6c-0.7,0-1.4-0.3-1.9-0.8c-0.7-0.8-1.4-1.6-2-2.3c-1.3-1.5-2.6-3-3.9-4.4
		c-0.9-1-0.9-2.6,0.1-3.5c1-0.9,2.6-0.9,3.5,0.1c1.4,1.5,2.7,3,4.1,4.5c0,0,0.1,0.1,0.1,0.1l3.1-3.7c4.1-4.8,8.1-9.6,12.1-14.3
		l0.8-1c0.9-1,1.8-2.1,2.7-3.1c1-1,2.5-1,3.5-0.1c1,0.9,1,2.5,0.1,3.5c-0.9,0.9-1.7,1.9-2.5,2.9l-0.9,1c-4,4.7-8,9.5-12.1,14.3
		l-5,5.9C119.5,142.3,118.9,142.6,118.1,142.6C118.1,142.6,118.1,142.6,118.1,142.6z"/>
</g>
</svg>
