<?xml version="1.0" encoding="utf-8"?>
<!-- Generator: Adobe Illustrator 19.2.0, SVG Export Plug-In . SVG Version: 6.00 Build 0)  -->
<svg version="1.1" id="Layer_1" xmlns="http://www.w3.org/2000/svg" xmlns:xlink="http://www.w3.org/1999/xlink" x="0px" y="0px"
	 viewBox="0 0 200 200" style="enable-background:new 0 0 200 200;" xml:space="preserve">
<style type="text/css">
	.st0{fill:#49434D;}
	.st1{opacity:0.4;}
	.st2{clip-path:url(#SVGID_2_);}
	.st3{clip-path:url(#SVGID_5_);}
	.st4{clip-path:url(#SVGID_6_);fill:#49434D;}
</style>
<g>
	<path class="st0" d="M142.9,75.8c-0.7,0-1.4-0.3-1.8-0.8c-1.7-1.9-3.3-3.8-4.9-5.6c-3.3-3.8-6.5-7.4-9.7-10.8
		c-0.9-1-0.9-2.5,0.1-3.5c1-0.9,2.5-0.9,3.5,0.1c3.3,3.5,6.5,7.1,9.9,11c1,1.1,2,2.3,3,3.4l7.6-9C161.5,47.7,172.3,35,183,22.4
		c0.7-0.8,1.4-1.6,2.1-2.5c2.1-2.5,4.2-5,6.5-7.4c0.9-1,2.5-1,3.5-0.1s1,2.5,0.1,3.5c-2.2,2.3-4.3,4.8-6.3,7.2
		c-0.7,0.8-1.4,1.7-2.1,2.5c-10.7,12.6-21.4,25.3-32.4,38.2L145,74.9C144.3,75.4,143.6,75.7,142.9,75.8L142.9,75.8z"/>
	<path class="st0" d="M83.8,154.8c-5.2,0-6.5-0.2-6.9-0.4c-10.3-2.5-18.1-13.1-25.3-34.6c-5.8-17.4-5.1-28.6,2.3-34
		c-6.4-3.9-10.4-10.9-10.4-18.7c0-12.1,9.9-22,22-22c5.5,0,11.4,2.5,15.4,6.5c2.6,2.7,4.2,5.8,4.6,9.1l22.2,8.8
		c4,1.6,6.6,5.3,6.8,9.6c0.2,4.3-2.2,8.2-6,10.1L84,101.1c2.6,8.4,6.4,19.8,8.2,23.6l24.7-19.9c4.5-3.9,11.2-4,15.9-0.2l35.5,27.6
		c5.3,4.4,6.1,12.2,1.7,17.4c-4.3,5.3-12.1,6-17.4,1.7l-27.5-21.1l-22.4,18.2c-6,4.9-14.5,6.4-17.6,6.4
		C84.7,154.8,84.2,154.8,83.8,154.8z M78.2,149.7c0.8,0.1,4.2,0.2,7,0.2c2.1,0,9.5-1.3,14.5-5.3l23.9-19.4c0.9-0.7,2.1-0.7,3,0
		l29.1,22.4c3.2,2.7,7.9,2.2,10.5-1s2.1-7.9-1-10.5l-35.5-27.6c-2.9-2.4-6.9-2.3-9.6,0.1l-25.9,20.9c-0.1,0.1-0.3,0.2-0.5,0.3
		c-2,1-3.4,0.3-4.1-0.1c-0.6-0.5-2.6-1.8-10.6-27.9c-0.2-0.7-0.3-1.4-0.3-2.1c0.1-0.9,0.6-1.7,1.4-2.1l26.1-12.7
		c2.1-1,3.4-3.2,3.3-5.5s-1.5-4.4-3.7-5.2l-23.6-9.4h-0.1l-9.9-3.9c-0.1,0-0.2-0.1-0.3-0.1h-0.1h-0.1h-0.2h-0.2h-0.1L71,60.4
		c0,0-0.1,0-0.2,0c0,0-0.1,0-0.2,0h-0.4H70c-0.2,0-0.3,0-0.4,0h-0.1c-0.1,0-0.2,0-0.3,0c-0.2,0-0.3,0.1-0.5,0.1
		c-0.1,0-0.3,0.1-0.4,0.1h-0.1c-0.1,0-0.2,0.1-0.3,0.1c-0.2,0.1-0.3,0.1-0.4,0.2c-0.2,0.1-0.3,0.1-0.4,0.2c0,0,0,0-0.1,0
		c-0.1,0.1-0.2,0.1-0.3,0.2c-0.2,0.1-0.3,0.2-0.4,0.3c0,0-0.1,0-0.1,0.1l0,0c0,0-0.1,0.1-0.2,0.2L65.9,62c0.1-0.1,0.1,0,0,0.1
		l-0.1,0.1c-0.1,0.1-0.1,0.1-0.2,0.2c-0.1,0.1-0.2,0.2-0.3,0.3c0,0-0.1,0.1-0.1,0.2c0,0-0.1,0.1-0.1,0.2c0,0,0,0.1-0.1,0.1
		c0,0-0.1,0.2-0.1,0.3c-0.1,0.2-0.2,0.3-0.2,0.5c-1.2,3,0.3,6.4,3.3,7.6L84.1,78c1,0.4,1.6,1.3,1.6,2.4c0,1-0.7,1.9-1.7,2.3
		c-0.1,0-0.2,0.1-0.4,0.2c-0.4,0.3-1,0.7-2.2,1.1c-1.3,0.4-2.7-0.3-3.1-1.6c-0.2-0.5-0.2-1,0-1.5l-12-4.8c-5.5-2.2-8.2-8.5-6-14
		c0.1-0.2,0.2-0.4,0.3-0.7l0.1-0.2c0.1-0.2,0.2-0.4,0.3-0.6c0,0,0-0.1,0.1-0.1c0.1-0.2,0.2-0.4,0.4-0.5l0.1-0.1
		c0.1-0.2,0.3-0.4,0.5-0.6c0.2-0.2,0.3-0.4,0.5-0.5l0.1-0.1c0.2-0.2,0.3-0.3,0.5-0.5l0.1-0.1c0.1-0.1,0.3-0.3,0.5-0.4
		c0.1,0,0.1-0.1,0.1-0.1c0.2-0.1,0.4-0.3,0.5-0.4l0.2-0.1c0.1-0.1,0.3-0.2,0.5-0.3h0.1c0.2-0.1,0.4-0.2,0.6-0.3c0,0,0.1,0,0.1-0.1
		c0.2-0.1,0.4-0.2,0.6-0.3c0.1,0,0.1,0,0.2-0.1s0.4-0.1,0.6-0.2c0,0,0.1,0,0.2-0.1c0.2-0.1,0.4-0.1,0.6-0.1h0.1
		c0.2,0,0.5-0.1,0.7-0.1h0.2c0.2,0,0.4-0.1,0.6-0.1c0,0,0,0,0.1,0l0,0c0.2,0,0.5,0,0.7,0l1.2,0.1c0.1,0,0.2,0,0.3,0
		c0.1,0,0.2,0,0.3,0h0.2h0.2h0.1H73c0.1,0,0.2,0.1,0.3,0.1c0.1,0,0.2,0,0.2,0.1c0,0,0.1,0,0.3,0.1l0.3,0.1c0.1,0,0.3,0.1,0.5,0.2
		l5.7,2.3c-0.7-1.4-1.6-2.5-2.4-3.3c-3-3-7.7-5-11.9-5c-9.4,0-17.1,7.7-17.1,17.1c0,7.4,4.8,14,11.8,16.2c1,0.3,1.7,1.3,1.7,2.3
		s-0.7,2-1.7,2.3c-3.5,1.2-12.7,4.3-4.1,30.2c8.4,25.2,16.1,30,21.9,31.4C78.1,149.7,78.2,149.7,78.2,149.7z"/>
	<g>
		<g>
			<g class="st1">
				<defs>
					<rect id="SVGID_1_" x="23.4" y="50.9" class="st1" width="72.9" height="104"/>
				</defs>
				<clipPath id="SVGID_2_">
					<use xlink:href="#SVGID_1_"  style="overflow:visible;"/>
				</clipPath>
				<g class="st2">
					<g>
						<defs>
							<rect id="SVGID_3_" x="23.4" y="50.9" width="72.9" height="104"/>
						</defs>
						<defs>
							<rect id="SVGID_4_" x="23.4" y="50.9" width="72.9" height="104"/>
						</defs>
						<clipPath id="SVGID_5_">
							<use xlink:href="#SVGID_3_"  style="overflow:visible;"/>
						</clipPath>
						<clipPath id="SVGID_6_" class="st3">
							<use xlink:href="#SVGID_4_"  style="overflow:visible;"/>
						</clipPath>
						<path class="st4" d="M85.1,127.9c-0.5,0-1-0.1-1.3-0.2c-0.7-0.3-2.9-1.2-17-24.6c-0.4-0.6-0.6-1.3-0.7-2
							c-0.2-0.9,0.2-1.8,0.8-2.3l22.3-18.6c1.8-1.5,2.5-3.9,1.9-6.1s-2.5-3.9-4.8-4.2L50.5,65c-0.1,0-0.2,0-0.3,0h-0.3h-0.1h-0.2
							h-0.1h-0.8h-0.1h-0.1h-0.1c0,0,0,0-0.1,0l0,0h-0.1h-0.1c0,0-0.2,0-0.3,0.1c-0.2,0.1-0.3,0.1-0.4,0.1h-0.1
							c-0.1,0-0.2,0.1-0.3,0.1l0,0c-0.1,0.1-0.2,0.1-0.3,0.2l-0.1,0.1c-0.1,0.1-0.2,0.1-0.3,0.2l0,0l0,0l0,0
							c-0.1,0.1-0.2,0.1-0.3,0.2c-0.2,0.1-0.2,0.2-0.3,0.3l-0.1,0.1c0,0-0.1,0.1-0.2,0.2c-0.1,0.1-0.2,0.2-0.3,0.3
							c-0.1,0.1-0.2,0.2-0.2,0.3c0,0,0,0,0,0.1c-0.1,0.1-0.1,0.2-0.2,0.3c-0.1,0.2-0.2,0.3-0.2,0.4c0,0,0,0,0,0.1s-0.1,0.2-0.1,0.3
							v0.1c0,0.1-0.1,0.2-0.1,0.4l0,0c0,0,0,0,0,0.1s-0.1,0.2-0.1,0.3v0.1c0,0.1-0.1,0.3-0.1,0.4c-0.2,1.5,0.2,3.1,1.1,4.3
							c0.9,1.2,2.3,2,3.9,2.3l17.2,2.4c1,0.1,1.9,0.9,2.1,1.9s-0.2,2.1-1.1,2.6c-0.1,0.1-0.2,0.1-0.4,0.3c-0.3,0.4-0.8,0.9-1.9,1.6
							s-2.7,0.4-3.4-0.8c-0.3-0.4-0.4-1-0.4-1.4l-12.8-1.8c-2.8-0.4-5.4-1.9-7.1-4.2c-1.7-2.3-2.5-5.1-2.1-8c0-0.2,0.1-0.5,0.1-0.7
							c0-0.1,0-0.2,0.1-0.2c0.1-0.2,0.1-0.5,0.2-0.7v-0.1c0.1-0.2,0.1-0.4,0.2-0.6v-0.1c0.1-0.3,0.2-0.5,0.3-0.7v-0.1
							c0.1-0.2,0.2-0.4,0.3-0.6v-0.1c0.1-0.2,0.3-0.4,0.4-0.6c0,0,0-0.1,0.1-0.1c0.1-0.2,0.2-0.3,0.4-0.5l0.1-0.2
							c0.1-0.1,0.3-0.3,0.4-0.5l0.1-0.1c0.2-0.2,0.3-0.3,0.4-0.5l0.1-0.1c0.2-0.2,0.4-0.3,0.5-0.5c0,0,0,0,0.1-0.1
							c0.2-0.2,0.4-0.3,0.5-0.4l0,0l0,0l0,0c0.2-0.1,0.4-0.3,0.6-0.4l0.1-0.1c0.2-0.1,0.3-0.2,0.5-0.3c0,0,0.1,0,0.1-0.1
							c0.2-0.1,0.4-0.2,0.6-0.3l0.2-0.1c0.2-0.1,0.4-0.2,0.6-0.2h0.1c0.1,0,0.3-0.1,0.6-0.2H47h0.1c0.1,0,0.2,0,0.3-0.1
							c0,0,0.1,0,0.2,0c0,0,0.1,0,0.2,0l0.5-0.1c0.1,0,0.2,0,0.3,0h0.2c0.1,0,0.2,0,0.3,0s0.2,0,0.2,0h0.5c0.1,0,0.2,0,0.3,0
							s0.2,0,0.2,0c0.1,0,0.3,0,0.5,0.1L87,65c4.2,0.6,7.7,3.6,8.9,7.7c1.2,4.1-0.2,8.5-3.5,11.2l-20.9,17.4
							c5.3,8.8,11.5,18.5,13.8,21.3c1-0.4,2.1-0.1,2.8,0.7c0.9,1.1,0.7,2.6-0.3,3.5C86.8,127.6,85.9,127.9,85.1,127.9z"/>
						<path class="st4" d="M77.2,154.8c-10.6,0-20.7-8.5-32.7-27.5c-9.8-15.5-11.7-26.5-5.8-33.6C31.6,91.4,26,85.6,24.1,78
							c-1.4-5.7-0.5-11.6,2.5-16.6s7.9-8.6,13.6-10c5.4-1.3,11.7-0.3,16.5,2.6c3.8,2.3,6.2,5.5,7.1,9.4c0.3,1.3-0.5,2.6-1.8,3
							c-1.3,0.3-2.6-0.5-3-1.8c-0.8-3.2-3.1-5.2-4.9-6.3c-3.7-2.2-8.6-3-12.7-2c-4.4,1.1-8.2,3.8-10.5,7.7c-2.4,3.9-3.1,8.5-2,12.9
							c1.8,7.2,8,12.4,15.4,13c1.1,0.1,2,0.8,2.2,1.8c0.3,1-0.2,2.1-1.1,2.7c-3.1,2-11.3,7.2,3.3,30.3C62.8,147,71.3,150,77.2,150
							c0.1,0,0.1,0,0.2,0c1.3,0,2.4,1.1,2.5,2.4c0,1.4-1.1,2.5-2.4,2.5C77.4,154.8,77.3,154.8,77.2,154.8z"/>
					</g>
				</g>
			</g>
		</g>
	</g>
</g>
</svg>
