<?xml version="1.0" encoding="utf-8"?>
<!-- Generator: Adobe Illustrator 18.1.1, SVG Export Plug-In . SVG Version: 6.00 Build 0)  -->
<svg version="1.1" id="Layer_1" xmlns="http://www.w3.org/2000/svg" xmlns:xlink="http://www.w3.org/1999/xlink" x="0px" y="0px"
	 viewBox="0 0 80 80" enable-background="new 0 0 80 80" xml:space="preserve">
<g>
	<g>
		<g>
			<path fill="#49434D" d="M51.1,64H28.7c-2.3,0-4.2-1.9-4.2-4.2V20.2c0-2.3,1.9-4.2,4.2-4.2h22.5c2.3,0,4.2,1.9,4.2,4.2v39.6
				C55.3,62.1,53.4,64,51.1,64z M28.7,18c-1.2,0-2.2,1-2.2,2.2v39.6c0,1.2,1,2.2,2.2,2.2h22.5c1.2,0,2.2-1,2.2-2.2V20.2
				c0-1.2-1-2.2-2.2-2.2H28.7z"/>
		</g>
		<g>
			<path fill="#49434D" d="M48.5,55.7H31.3c-1.9,0-3.4-1.5-3.4-3.4V28.4c0-1.9,1.5-3.4,3.4-3.4h17.3c1.9,0,3.4,1.5,3.4,3.4v23.9
				C51.9,54.2,50.4,55.7,48.5,55.7z M31.3,27c-0.8,0-1.4,0.6-1.4,1.4v23.9c0,0.8,0.6,1.4,1.4,1.4h17.3c0.8,0,1.4-0.6,1.4-1.4V28.4
				c0-0.8-0.6-1.4-1.4-1.4H31.3z"/>
		</g>
		<path fill="#49434D" d="M41.4,59.4h-3c-0.5,0-0.9-0.4-0.9-0.9v0c0-0.5,0.4-0.9,0.9-0.9h3c0.5,0,0.9,0.4,0.9,0.9l0,0
			C42.3,59,41.9,59.4,41.4,59.4z"/>
		<g>
			<path fill="#49434D" d="M42.9,22.7h-9.2c-0.5,0-0.9-0.4-0.9-0.9v0c0-0.5,0.4-0.9,0.9-0.9h9.2c0.5,0,0.9,0.4,0.9,0.9v0
				C43.9,22.2,43.4,22.7,42.9,22.7z"/>
			<path fill="#49434D" d="M46.2,22.7L46.2,22.7c-0.4,0-0.8-0.4-0.8-0.8v-0.3c0-0.4,0.4-0.8,0.8-0.8l0,0c0.4,0,0.8,0.4,0.8,0.8v0.3
				C47,22.3,46.7,22.7,46.2,22.7z"/>
		</g>
	</g>
</g>
<path fill="#49434D" d="M40,80C17.9,80,0,62.1,0,40S17.9,0,40,0c22.1,0,40,17.9,40,40S62.1,80,40,80z M40,2C19,2,2,19,2,40
	S19,78,40,78C61,78,78,61,78,40S61,2,40,2z"/>
</svg>
