<?xml version="1.0" encoding="utf-8"?>
<!-- Generator: Adobe Illustrator 18.1.1, SVG Export Plug-In . SVG Version: 6.00 Build 0)  -->
<svg version="1.1" id="Layer_1" xmlns="http://www.w3.org/2000/svg" xmlns:xlink="http://www.w3.org/1999/xlink" x="0px" y="0px"
	 viewBox="0 0 200 200" enable-background="new 0 0 200 200" xml:space="preserve">
<g>
	<path fill="#49434D" d="M100,200C44.9,200,0,155.1,0,100S44.9,0,100,0c55.1,0,100,44.9,100,100S155.1,200,100,200z M100,4.9
		C47.6,4.9,4.9,47.6,4.9,100s42.7,95.1,95.1,95.1c52.4,0,95.1-42.7,95.1-95.1S152.4,4.9,100,4.9z"/>
	<g>
		<path fill="#49434D" d="M70.5,154.8c-0.3,0-0.7-0.1-1-0.2c-0.9-0.4-1.5-1.3-1.5-2.2v-47.1l-23.1,21.9c-1,0.9-2.5,0.9-3.5-0.1
			c-0.9-1-0.9-2.5,0.1-3.5l25.2-23.8L41.3,74.7c-1-1-1-2.5,0-3.5c1-1,2.5-1,3.5,0l23.2,23V47.6c0-0.9,0.5-1.8,1.4-2.2
			c0.9-0.4,1.9-0.3,2.6,0.3l29.7,23.8c0.6,0.4,0.9,1.1,0.9,1.8c0,0.7-0.3,1.4-0.8,1.9L73.7,99.8l26.3,26c0.5,0.5,0.7,1.1,0.7,1.8
			c0,0.7-0.3,1.3-0.8,1.8l-27.8,24.8C71.6,154.6,71,154.8,70.5,154.8z M73,106v40.9l21.7-19.4L73,106z M73,52.8v41.1l23.5-22.3
			L73,52.8z"/>
		<g>
			<path fill="#49434D" d="M132.1,133.8c-0.4,0-0.8-0.1-1.2-0.3c-1.2-0.7-1.6-2.2-0.9-3.4c4.5-7.7,7.2-16,8.2-24.4
				c1-8.6-0.2-17.3-3.6-26.1c-1-2.6-2.4-5.3-3.7-7.9c-0.3-0.6-0.6-1.3-1-1.9c-0.6-1.2-0.1-2.7,1.1-3.3c1.2-0.6,2.7-0.1,3.3,1.1
				c0.3,0.6,0.6,1.3,1,1.9c1.3,2.7,2.7,5.4,3.8,8.3c3.7,9.5,5,19.1,3.9,28.4c-1.1,9.1-4,18-8.8,26.3
				C133.8,133.4,132.9,133.8,132.1,133.8z"/>
			<path fill="#49434D" d="M143.5,144.2c-0.6,0-1.1-0.2-1.6-0.6c-1-0.9-1.2-2.4-0.3-3.5c5-6,8.6-13.2,11-22.1
				c1.5-5.7,2.3-11.7,2.3-18.8c-0.1-13.1-3.5-25-10.1-35.1c-0.9-1.4-2-2.8-3.2-4.3c-0.9-1.1-0.7-2.6,0.4-3.5
				c1.1-0.9,2.6-0.7,3.5,0.4c1.3,1.6,2.5,3.1,3.5,4.7c7.1,11,10.8,23.7,10.9,37.8c0,7.6-0.8,14-2.5,20.1c-2.6,9.6-6.5,17.5-12,24
				C144.9,143.9,144.2,144.2,143.5,144.2z"/>
			<path fill="#49434D" d="M132.1,133.8c-0.4,0-0.8-0.1-1.2-0.3c-1.2-0.7-1.6-2.2-0.9-3.4c4.5-7.7,7.2-16,8.2-24.4
				c1-8.6-0.2-17.3-3.6-26.1c-1-2.6-2.4-5.3-3.7-7.9c-0.3-0.6-0.6-1.3-1-1.9c-0.6-1.2-0.1-2.7,1.1-3.3c1.2-0.6,2.7-0.1,3.3,1.1
				c0.3,0.6,0.6,1.3,1,1.9c1.3,2.7,2.7,5.4,3.8,8.3c3.7,9.5,5,19.1,3.9,28.4c-1.1,9.1-4,18-8.8,26.3
				C133.8,133.4,132.9,133.8,132.1,133.8z"/>
			<path fill="#49434D" d="M121.1,120.1c-0.4,0-0.9-0.1-1.2-0.3c-1.2-0.7-1.6-2.2-0.9-3.4c2.1-3.5,3.5-7.3,4.2-11.4
				c1.2-7-0.1-13.9-4.1-21.3c-0.6-1.2-0.2-2.7,1-3.3c1.2-0.6,2.7-0.2,3.3,1c4.5,8.4,6,16.4,4.6,24.5c-0.8,4.6-2.4,9-4.8,13
				C122.7,119.7,121.9,120.1,121.1,120.1z"/>
		</g>
	</g>
</g>
</svg>
