<svg id="Layer_1" data-name="Layer 1" xmlns="http://www.w3.org/2000/svg" viewBox="0 0 80 80"><defs><style>.cls-1{fill:#fff;}.cls-2{fill:#49434d;}.cls-3{opacity:0.4;}</style></defs><title>icon-3dmovement-basic</title><path class="cls-1" d="M31.3,59.9c0.4,0.1,2.9.1,5.2,0.1a2.27,2.27,0,0,0,1.6-.6l11.4-9.3a0.91,0.91,0,0,1,1.2,0L62.3,59a2.93,2.93,0,0,0,2.2.7,3.09,3.09,0,0,0,2-1.1,3.41,3.41,0,0,0,.7-2.2,3.09,3.09,0,0,0-1.1-2l-14.2-11a3.15,3.15,0,0,0-3.9,0L37.7,51.7c-0.1,0-.1.1-0.2,0.1a1.39,1.39,0,0,1-1.6-.1c-0.3-.2-1-0.7-4.2-11.2a2.49,2.49,0,0,1-.1-0.8,0.76,0.76,0,0,1,.6-0.8l10.4-5.1a2.48,2.48,0,0,0,1.3-2.2,2.36,2.36,0,0,0-1.5-2.1l-9.5-3.7h0l-4-1.6H27.6a0.2,0.2,0,0,0-.2.1c-0.1,0-.1,0-0.1.1s-0.1.1-.2,0.1a7961344843652.61,7961344843652.61,0,0,0-.3.3l-0.1.1L26,24.3,26.7,25l-0.1.1h0a0.1,0.1,0,0,1-.1.1,0.2,0.2,0,0,0-.1.2h0a0.1,0.1,0,0,1-.1.1c0,0.1-.1.1-0.1,0.2a2.25,2.25,0,0,0,1.3,3L34,31.3a1,1,0,0,1-.1,1.8,0.2,0.2,0,0,0-.2.1,2.56,2.56,0,0,1-.9.4,0.9,0.9,0,0,1-1.2-.6,0.64,0.64,0,0,1,0-.6l-4.8-1.9a4.31,4.31,0,0,1-2.4-5.6c0-.1.1-0.2,0.1-0.3V24.5a0.35,0.35,0,0,1,.1-0.2h0a0.35,0.35,0,0,1,.1-0.2h0a0.38,0.38,0,0,1,.2-0.2h0l0.2-.2h0l0.2-.2h0l0.2-.2h0.1a0.38,0.38,0,0,0,.2-0.2h0c0.1,0,.1-0.1.2-0.1l0.5,0.8L26,22.9c0.1,0,.2-0.1.3-0.1h0a0.35,0.35,0,0,0,.2-0.1h0c0.1,0,.2-0.1.3-0.1h0.1a0.2,0.2,0,0,0,.2-0.1h0a0.37,0.37,0,0,0,.3-0.1h2.1a0.2,0.2,0,0,1,.2.1L32,23.4a3.45,3.45,0,0,0-1-1.3,7.13,7.13,0,0,0-4.7-2,6.82,6.82,0,0,0-2.1,13.3,0.93,0.93,0,0,1,0,1.8c-1.4.5-5.1,1.7-1.6,12.1,3.3,10.1,6.3,12,8.7,12.6h0Z"/><path class="cls-2" d="M35.7,61.9c-4.1,0-4.8-.1-5-0.2-4.1-1-7.3-5.3-10.1-13.8-2.3-6.9-2-11.4.9-13.6A8.76,8.76,0,1,1,32.2,20.6,5.66,5.66,0,0,1,34,24.2l8.9,3.5a4.09,4.09,0,0,1,2.7,3.8,4.2,4.2,0,0,1-2.4,4l-9.8,4.8c1,3.4,2.6,7.9,3.3,9.5l9.9-8a4.85,4.85,0,0,1,6.3-.1L67.1,52.8a5,5,0,0,1,1.8,3.4,4.9,4.9,0,0,1-8,4.3L49.9,52,39.1,60.7a3.91,3.91,0,0,1-2.9,1.1C36.2,61.9,36,61.9,35.7,61.9Zm-4.4-2c0.4,0.1,2.9.1,5.2,0.1a2.27,2.27,0,0,0,1.6-.6l11.4-9.3a0.91,0.91,0,0,1,1.2,0L62.3,59a2.93,2.93,0,0,0,2.2.7,3.09,3.09,0,0,0,2-1.1,3.41,3.41,0,0,0,.7-2.2,3.09,3.09,0,0,0-1.1-2l-14.2-11a3.15,3.15,0,0,0-3.9,0L37.7,51.7c-0.1,0-.1.1-0.2,0.1a1.39,1.39,0,0,1-1.6-.1c-0.3-.2-1-0.7-4.2-11.2a2.49,2.49,0,0,1-.1-0.8,0.76,0.76,0,0,1,.6-0.8l10.4-5.1a2.48,2.48,0,0,0,1.3-2.2,2.36,2.36,0,0,0-1.5-2.1l-9.5-3.7h0l-4-1.6H27.6a0.2,0.2,0,0,0-.2.1c-0.1,0-.1,0-0.1.1s-0.1.1-.2,0.1a7961344843652.61,7961344843652.61,0,0,0-.3.3l-0.1.1L26,24.3,26.7,25l-0.1.1h0a0.1,0.1,0,0,1-.1.1,0.2,0.2,0,0,0-.1.2h0a0.1,0.1,0,0,1-.1.1c0,0.1-.1.1-0.1,0.2a2.25,2.25,0,0,0,1.3,3L34,31.3a1,1,0,0,1-.1,1.8,0.2,0.2,0,0,0-.2.1,2.56,2.56,0,0,1-.9.4,0.9,0.9,0,0,1-1.2-.6,0.64,0.64,0,0,1,0-.6l-4.8-1.9a4.31,4.31,0,0,1-2.4-5.6c0-.1.1-0.2,0.1-0.3V24.5a0.35,0.35,0,0,1,.1-0.2h0a0.35,0.35,0,0,1,.1-0.2h0a0.38,0.38,0,0,1,.2-0.2h0l0.2-.2h0l0.2-.2h0l0.2-.2h0.1a0.38,0.38,0,0,0,.2-0.2h0c0.1,0,.1-0.1.2-0.1l0.5,0.8L26,22.9c0.1,0,.2-0.1.3-0.1h0a0.35,0.35,0,0,0,.2-0.1h0c0.1,0,.2-0.1.3-0.1h0.1a0.2,0.2,0,0,0,.2-0.1h0a0.37,0.37,0,0,0,.3-0.1h2.1a0.2,0.2,0,0,1,.2.1L32,23.4a3.45,3.45,0,0,0-1-1.3,7.13,7.13,0,0,0-4.7-2,6.82,6.82,0,0,0-2.1,13.3,0.93,0.93,0,0,1,0,1.8c-1.4.5-5.1,1.7-1.6,12.1,3.3,10.1,6.3,12,8.7,12.6h0Z"/><g class="cls-3"><path class="cls-2" d="M34,51.1a0.75,0.75,0,0,1-.5-0.1c-0.3-.1-1.2-0.5-6.8-9.8a6.89,6.89,0,0,1-.3-0.8,1,1,0,0,1,.3-0.9l8.9-7.4a2.43,2.43,0,0,0,.8-2.4A2.52,2.52,0,0,0,34.5,28L20.2,26H19.7l-0.2-1,0.1,1-0.2-1,0.2,1H19.3c-0.1,0-.1,0-0.1.1h0a2828448.62,2828448.62,0,0,1-.2.2c-0.1,0-.1.1-0.2,0.1a0.1,0.1,0,0,0-.1.1l-0.1.1h0l-0.1.1-0.1.1a0.1,0.1,0,0,1-.1.1h0a0.1,0.1,0,0,1-.1.1L17,26.7l0.9,0.5a0.1,0.1,0,0,1-.1.1h0v0.1a0.2,0.2,0,0,1-.1.2h0v0.3a2.16,2.16,0,0,0,.5,1.7,2.37,2.37,0,0,0,1.5.9l6.9,0.9a1.09,1.09,0,0,1,.8.8,1,1,0,0,1-.4,1c-0.1,0-.1,0-0.1.1a1.36,1.36,0,0,1-.8.6,1,1,0,0,1-1.4-.3,1.42,1.42,0,0,1-.2-0.6l-5.1-.7a4.18,4.18,0,0,1-2.8-1.7,4,4,0,0,1-.8-3.2,0.37,0.37,0,0,1,.1-0.3V27a0.37,0.37,0,0,1,.1-0.3h0a0.35,0.35,0,0,1,.1-0.2h0c0-.1.1-0.2,0.1-0.3h0c0-.1.1-0.1,0.1-0.2V25.9a0.35,0.35,0,0,1,.1-0.2h0c0-.1.1-0.1,0.1-0.2V25.4l0.2-.2h0a0.38,0.38,0,0,1,.2-0.2l0.7,0.7L16.9,25l0.2-.2h0l0.2-.2h0c0.1,0,.1-0.1.2-0.1h0.1a0.35,0.35,0,0,1,.2-0.1h0c0.1,0,.2-0.1.3-0.1h0.1a0.35,0.35,0,0,0,.2-0.1h0c0.1,0,.2-0.1.3-0.1h1.5l14.3,2a4.31,4.31,0,0,1,2.2,7.6l-8.3,6.9c1.9,3.1,4.6,7.3,5.5,8.5a1.13,1.13,0,0,1,1.1.3,1.07,1.07,0,0,1-.1,1.4A1.4,1.4,0,0,1,34,51.1Z"/><path class="cls-2" d="M30.9,61.9c-4.2,0-8.3-3.4-13.1-11-3.9-6.2-4.7-10.6-2.3-13.4a8.61,8.61,0,0,1-5.8-6.3,8.82,8.82,0,0,1,6.4-10.7,9.52,9.52,0,0,1,6.6,1,6.19,6.19,0,0,1,2.9,3.7,1,1,0,1,1-1.9.5,3.74,3.74,0,0,0-2-2.5,7.08,7.08,0,0,0-5.1-.8,6.34,6.34,0,0,0-4.2,3.1,7.26,7.26,0,0,0-.8,5.2,6.82,6.82,0,0,0,6.2,5.2,1,1,0,0,1,.9.7,1.19,1.19,0,0,1-.4,1.1c-1.2.8-4.5,2.9,1.3,12.1C25.2,58.9,28.6,60,31,60a1,1,0,0,1,1,1,1,1,0,0,1-1.1.9h0Z"/></g></svg>