<?xml version="1.0" encoding="utf-8"?>
<!-- Generator: Adobe Illustrator 18.1.1, SVG Export Plug-In . SVG Version: 6.00 Build 0)  -->
<svg version="1.1" id="Layer_1" xmlns="http://www.w3.org/2000/svg" xmlns:xlink="http://www.w3.org/1999/xlink" x="0px" y="0px"
	 viewBox="0 0 200 200" enable-background="new 0 0 200 200" xml:space="preserve">
<path fill="#FFFFFF" d="M100,200C44.9,200,0,155.1,0,100C0,44.9,44.9,0,100,0s100,44.9,100,100C200,155.1,155.1,200,100,200z
	 M100,4.9C47.6,4.9,4.9,47.6,4.9,100c0,52.4,42.7,95.1,95.1,95.1s95.1-42.7,95.1-95.1C195.1,47.6,152.4,4.9,100,4.9z"/>
<g>
	<path fill="#FFFFFF" d="M81.5,137.6H75c-1.2,0-2.2-1-2.2-2.2v-39c0-1.2,1-2.2,2.2-2.2h6.5c1.2,0,2.2,1,2.2,2.2v39
		C83.6,136.6,82.6,137.6,81.5,137.6z"/>
	<path fill="#FFFFFF" d="M99.4,137.6H92c-1.1,0-2-0.9-2-2v-31.5c0-1.1,0.9-2,2-2h7.4c1.1,0,2,0.9,2,2v31.5
		C101.4,136.7,100.5,137.6,99.4,137.6z"/>
	<path fill="#FFFFFF" d="M116,137.6h-5.7c-1.6,0-2.8-1.3-2.8-2.8v-65c0-1.6,1.3-2.8,2.8-2.8h5.7c1.6,0,2.8,1.3,2.8,2.8v65
		C118.8,136.3,117.5,137.6,116,137.6z"/>
	<path fill="#FFFFFF" d="M133.7,137.6h-6.2c-1.4,0-2.6-1.2-2.6-2.6V81.3c0-1.4,1.2-2.6,2.6-2.6h6.2c1.4,0,2.6,1.2,2.6,2.6V135
		C136.3,136.4,135.1,137.6,133.7,137.6z"/>
</g>
<path fill="#FFFFFF" d="M147.9,149h-91c-1.4,0-2.9-1.6-2.9-3V68.8c0-1.4,1.1-2.5,2.5-2.5s2.5,1.1,2.5,2.5V144h88.9
	c1.4,0,2.5,1.1,2.5,2.5S149.3,149,147.9,149z"/>
</svg>
