<svg id="Layer_1" data-name="Layer 1" xmlns="http://www.w3.org/2000/svg" viewBox="0 0 200 200"><defs><style>.cls-1{fill:#49434d;}</style></defs><title>icon-dark-sensors-basic</title><path class="cls-1" d="M153.6,156H96.5a2.24,2.24,0,0,1-2.5-2.2V113.9c0-.9-0.2-2.1.6-2.8l16.6-16.2a3,3,0,0,1,1.7-.8h40.7a2.64,2.64,0,0,1,2.4,2.7v57.1A2.14,2.14,0,0,1,153.6,156ZM99,152h53V99H113.9L99,113.7V152Z"/><path class="cls-1" d="M133.3,136H116.5a2.48,2.48,0,0,1-2.5-2.5V116.7a2.48,2.48,0,0,1,2.5-2.5h16.8a2.48,2.48,0,0,1,2.5,2.5v16.8A2.48,2.48,0,0,1,133.3,136ZM119,131.1h11.9V119.2H119v11.9Z"/><path class="cls-1" d="M90.1,128.7H90a36.93,36.93,0,1,1,38.9-37.8,2.45,2.45,0,1,1-4.9.1,32,32,0,1,0-33.8,32.8,2.4,2.4,0,0,1,2.3,2.6A2.35,2.35,0,0,1,90.1,128.7Z"/><path class="cls-1" d="M90.1,139.6H90A47.77,47.77,0,1,1,139.8,91a2.45,2.45,0,1,1-4.9.1,42.9,42.9,0,1,0-44.7,43.6,2.54,2.54,0,0,1,2.4,2.6A2.51,2.51,0,0,1,90.1,139.6Z"/><path class="cls-1" d="M90.1,116H89.9a24.53,24.53,0,1,1,26.3-25.1,2.45,2.45,0,1,1-4.9.1,19.61,19.61,0,1,0-21,20.2,2.45,2.45,0,0,1,2.3,2.6A2.5,2.5,0,0,1,90.1,116Z"/><path class="cls-1" d="M90.1,128.7H90a36.93,36.93,0,1,1,38.9-37.8,2.45,2.45,0,1,1-4.9.1,32,32,0,1,0-33.8,32.8,2.4,2.4,0,0,1,2.3,2.6A2.35,2.35,0,0,1,90.1,128.7Z"/></svg>