<svg id="Layer_1" data-name="Layer 1" xmlns="http://www.w3.org/2000/svg" viewBox="0 0 200 200"><defs><style>.cls-1{fill:#49434d;}</style></defs><title>icon-rec-basic</title><path class="cls-1" d="M83.6,144.9l-4.4-9.7H76v9.7H71.8V119.3h8.8c4.5,0,7.5,3.2,7.5,7.9,0,4.5-2.5,6.7-4.8,7.3l5,10.4H83.6Zm0.2-17.7c0-2.5-1.5-4.2-3.8-4.2H76v8.5h4C82.3,131.4,83.8,129.7,83.8,127.2Z"/><path class="cls-1" d="M92.3,144.9V119.3h14.1V123H96.6v7h9.6v3.7H96.6v7.5h9.8v3.7H92.3Z"/><path class="cls-1" d="M109.5,132.1c0-7.7,4-13.3,10.5-13.3,4.5,0,6.8,2.8,8.1,5.6l-3.5,1.6c-0.9-2-2.5-3.5-4.6-3.5-3.8,0-6.1,4-6.1,9.5s2.4,9.5,6.1,9.5c2.2,0,3.8-1.6,4.6-3.8l3.5,1.5c-1.3,3-3.6,6-8.2,6C113.6,145.3,109.5,139.8,109.5,132.1Z"/><circle class="cls-1" cx="100" cy="79.1" r="20.5"/><path class="cls-1" d="M138,165.2H62a14.4,14.4,0,0,1-14.4-14.4V53.2A14.4,14.4,0,0,1,62,38.8h76a14.4,14.4,0,0,1,14.4,14.4v97.6A14.34,14.34,0,0,1,138,165.2ZM62,43.8a9.5,9.5,0,0,0-9.5,9.5v97.6a9.5,9.5,0,0,0,9.5,9.5h76a9.5,9.5,0,0,0,9.5-9.5V53.2a9.5,9.5,0,0,0-9.5-9.5H62v0.1Z"/></svg>