<?xml version="1.0" encoding="utf-8"?>
<!-- Generator: Adobe Illustrator 18.1.1, SVG Export Plug-In . SVG Version: 6.00 Build 0)  -->
<svg version="1.1" id="Layer_1" xmlns="http://www.w3.org/2000/svg" xmlns:xlink="http://www.w3.org/1999/xlink" x="0px" y="0px"
	 viewBox="0 0 200 200" enable-background="new 0 0 200 200" xml:space="preserve">
<path fill="#FFFFFF" d="M100,200C44.9,200,0,155.1,0,100C0,44.9,44.9,0,100,0c55.1,0,100,44.9,100,100C200,155.1,155.1,200,100,200z
	 M100,4.9C47.6,4.9,4.9,47.6,4.9,100c0,52.4,42.7,95.1,95.1,95.1c52.4,0,95.1-42.7,95.1-95.1C195.1,47.6,152.4,4.9,100,4.9z"/>
<path fill="#FFFFFF" d="M100,153.1c-29.7,0-53.9-24.2-53.9-53.9c0-29.7,24.2-53.9,53.9-53.9s53.9,24.2,53.9,53.9
	C153.9,128.9,129.7,153.1,100,153.1z M100,50.2c-27,0-49,22-49,49c0,27,22,49,49,49s49-22,49-49C149,72.2,127,50.2,100,50.2z"/>
<g>
	<g>
		<circle fill="#FFFFFF" cx="100.3" cy="100" r="7.8"/>
		<path fill="#FFFFFF" d="M100.3,108.2c-1.9,0-3.8-0.7-5.3-1.9c-1.7-1.4-2.7-3.4-2.9-5.6c-0.2-2.2,0.5-4.3,1.9-6
			c1.6-1.9,3.9-3,6.3-3c1.9,0,3.8,0.7,5.3,1.9c1.7,1.4,2.7,3.4,2.9,5.6c0.2,2.2-0.5,4.3-1.9,6C105.1,107.1,102.8,108.2,100.3,108.2z
			 M100.3,92.7c-2.2,0-4.2,0.9-5.6,2.6c-1.2,1.5-1.8,3.4-1.7,5.3c0.2,1.9,1.1,3.7,2.6,4.9c1.3,1.1,3,1.7,4.7,1.7
			c2.2,0,4.2-0.9,5.6-2.6c1.2-1.5,1.8-3.4,1.7-5.3c-0.2-1.9-1.1-3.7-2.6-4.9C103.7,93.3,102,92.7,100.3,92.7z"/>
	</g>
	<g>
		<polygon fill="#FFFFFF" points="128.8,66.4 102.9,102.5 97.8,98.2 		"/>
		<path fill="#FFFFFF" d="M102.9,105c-0.6,0-1.1-0.2-1.6-0.6l-5.1-4.3c-0.5-0.4-0.8-1.1-0.9-1.8c0-0.7,0.2-1.4,0.7-1.8l31.1-31.8
			c0.9-0.9,2.4-1,3.3-0.2c1,0.8,1.2,2.3,0.4,3.3l-26,36.1c-0.4,0.6-1,0.9-1.7,1C103.1,105,103,105,102.9,105z M101.4,98.1l1,0.9
			l5.3-7.3L101.4,98.1z"/>
	</g>
</g>
<g>
	<path fill="#FFFFFF" d="M70.3,124.8c-0.7,0-1.4-0.3-1.9-0.9c-5.6-7.1-8.6-15.6-8.6-24.7c0-22,17.9-39.9,39.9-39.9
		s39.9,17.9,39.9,39.9c0,9-3,17.6-8.6,24.7c-0.8,1.1-2.4,1.3-3.5,0.4c-1.1-0.8-1.3-2.4-0.4-3.5c4.9-6.2,7.5-13.7,7.5-21.6
		c0-19.3-15.7-35-35-35c-19.3,0-35,15.7-35,35c0,7.9,2.6,15.4,7.5,21.6c0.8,1.1,0.7,2.6-0.4,3.5C71.4,124.6,70.9,124.8,70.3,124.8z"
		/>
</g>
</svg>
