<?xml version="1.0" encoding="utf-8"?>
<!-- Generator: Adobe Illustrator 18.1.1, SVG Export Plug-In . SVG Version: 6.00 Build 0)  -->
<svg version="1.1" id="Layer_1" xmlns="http://www.w3.org/2000/svg" xmlns:xlink="http://www.w3.org/1999/xlink" x="0px" y="0px"
	 viewBox="0 0 200 200" enable-background="new 0 0 200 200" xml:space="preserve">
<path fill="#49434D" d="M100.1,199.8c-55.1,0-100-44.9-100-100c0-55.1,44.9-100,100-100c55.1,0,100,44.9,100,100
	C200.1,154.9,155.2,199.8,100.1,199.8z M100.1,4.7C47.7,4.7,5,47.3,5,99.8c0,52.4,42.7,95.1,95.1,95.1c52.4,0,95.1-42.7,95.1-95.1
	C195.2,47.3,152.5,4.7,100.1,4.7z"/>
<path fill="#49434D" d="M100.1,155H100c0,0-0.1,0-0.1,0c-8.5-0.2-24.6-9.2-34-19C56,125.8,50,70.9,49.3,64.7
	c-0.1-1.1,0.6-2.2,1.6-2.6l47.7-16.4c0.4-0.3,1-0.4,1.5-0.4l0.1,0c0.3,0,0.7,0.1,0.9,0.3l47.8,16.4c1.1,0.4,1.8,1.4,1.6,2.6
	c-0.7,6.2-6.7,61.1-16.5,71.4c-9.4,9.8-25.6,18.8-34,19C100.2,155,100.2,155,100.1,155z M54.4,66.1c2,17.7,7.9,59.1,14.9,66.5
	c9.4,9.8,24.2,17.5,30.7,17.5c6.5-0.1,21.3-7.7,30.7-17.5c7.1-7.4,13-48.8,14.9-66.5l-45.6-15.6L54.4,66.1z"/>
<path fill="#49434D" d="M100.1,142h-0.1c0,0-0.1,0.2-0.1,0.2c-6.2-0.1-18.5-7.2-25.9-14.9c-7.6-7.9-12.4-53-12.6-54.9
	c-0.1-0.7,0.3-1.3,1-1.5l36.6-12.7c0.4-0.4,1-0.5,1.5-0.4l37.3,12.8c0.7,0.2,1.1,0.9,1,1.6c-0.2,1.9-5,47.3-12.6,55.2
	c-7.4,7.7-19.7,14.7-25.9,14.8C100.1,142.2,100.1,142,100.1,142z M64.4,73.2c1.5,13.6,6.1,46.3,11.7,52.1c7.6,7.9,19.1,14,24,14.1
	c4.9,0,16.4-6.2,24-14.1c5.6-5.8,10.2-38.7,11.7-52.3l-35.5-12.2L64.4,73.2z"/>
</svg>
