<?xml version="1.0" encoding="utf-8"?>
<!-- Generator: Adobe Illustrator 18.1.1, SVG Export Plug-In . SVG Version: 6.00 Build 0)  -->
<svg version="1.1" id="Layer_6" xmlns="http://www.w3.org/2000/svg" xmlns:xlink="http://www.w3.org/1999/xlink" x="0px" y="0px"
	 viewBox="0 0 200 200" enable-background="new 0 0 200 200" xml:space="preserve">
<path fill="#FFFFFF" d="M100.5,200.9C45.1,200.9,0,155.8,0,100.4S45.1-0.1,100.5-0.1C155.9-0.1,201,45,201,100.4
	S155.9,200.9,100.5,200.9z M100.5,4.8c-52.7,0-95.6,42.9-95.6,95.6S47.8,196,100.5,196s95.6-42.9,95.6-95.6S153.2,4.8,100.5,4.8z"/>
<path fill="#FFFFFF" stroke="#49434D" stroke-width="5" stroke-miterlimit="10" d="M96.8,113"/>
<path fill="#FFFFFF" d="M154.4,157H97c-1.4,0-3-1.2-3-2.5v-40.1c0-0.9,0-2.1,0.8-2.8L111.6,95c0.5-0.4,1.2-1,1.9-1h40.9
	c1.4,0,2.6,1.8,2.6,3.1v57.4C157,155.8,155.7,157,154.4,157z M99,152h53V99h-37.5L99,114.1V152z"/>
<path fill="#FFFFFF" d="M134,136.7h-16.9c-1.4,0-2.5-1.1-2.5-2.5v-16.9c0-1.4,1.1-2.5,2.5-2.5H134c1.4,0,2.5,1.1,2.5,2.5v16.9
	C136.5,135.6,135.4,136.7,134,136.7z M119.6,131.7h12v-12h-12V131.7z"/>
<g>
	<path fill="#FFFFFF" d="M90.6,129.3c0,0-0.1,0-0.1,0c-19.7-1.1-35-17.4-35-37.1c0-20.5,16.6-37.1,37.1-37.1
		c20,0,36.6,16.2,37.1,36.2c0,1.4-1,2.5-2.4,2.5c-1.4,0-2.5-1-2.5-2.4C124.2,74.1,109.8,60,92.5,60c-17.7,0-32.2,14.4-32.2,32.2
		c0,17.1,13.3,31.2,30.4,32.1c1.4,0.1,2.4,1.2,2.3,2.6C93,128.2,91.9,129.3,90.6,129.3z"/>
	<path fill="#FFFFFF" d="M90.6,140.2c0,0-0.1,0-0.1,0c-25.8-1.1-46-22.2-46-48c0-26.5,21.5-48,48-48c26,0,47.5,21.1,48,47.1
		c0,1.4-1.1,2.5-2.4,2.5c-1.3,0-2.5-1.1-2.5-2.4c-0.4-23.3-19.8-42.3-43.1-42.3c-23.8,0-43.1,19.3-43.1,43.1
		c0,23.2,18.1,42.1,41.3,43c1.4,0.1,2.4,1.2,2.4,2.6C93,139.2,91.9,140.2,90.6,140.2z"/>
	<path fill="#FFFFFF" d="M90.6,116.5c-0.1,0-0.1,0-0.2,0c-12.8-0.8-22.9-11.6-22.9-24.6c0-13.6,11.1-24.6,24.7-24.6
		c13.4,0,24.2,10.5,24.7,24c0,1.4-1,2.5-2.4,2.5c0,0-0.1,0-0.1,0c-1.3,0-2.4-1.1-2.5-2.4c-0.3-10.6-9.2-19.2-19.7-19.2
		c-10.9,0-19.7,8.8-19.7,19.7c0,10.4,8,19,18.3,19.7c1.4,0.1,2.4,1.3,2.3,2.6C93,115.5,91.9,116.5,90.6,116.5z"/>
	<path fill="#FFFFFF" d="M90.6,129.3c0,0-0.1,0-0.1,0c-19.7-1.1-35-17.4-35-37.1c0-20.5,16.6-37.1,37.1-37.1
		c20,0,36.6,16.2,37.1,36.2c0,1.4-1,2.5-2.4,2.5c-1.4,0-2.5-1-2.5-2.4C124.2,74.1,109.8,60,92.5,60c-17.7,0-32.2,14.4-32.2,32.2
		c0,17.1,13.3,31.2,30.4,32.1c1.4,0.1,2.4,1.2,2.3,2.6C93,128.2,91.9,129.3,90.6,129.3z"/>
</g>
</svg>
