<svg id="Layer_1" data-name="Layer 1" xmlns="http://www.w3.org/2000/svg" viewBox="0 0 200 200"><defs><style>.cls-1{fill:#49434d;}</style></defs><title>icon-dark-forceapplied-basic</title><path class="cls-1" d="M130,40c-1.6.08-3.19,0.24-4.78,0.35l-0.37.07a63.37,63.37,0,0,1,28.44,52.81c0.39,0,3.33-.06,3.33-0.06A66.9,66.9,0,0,0,130,40Z"/><path class="cls-1" d="M89.75,157.65a0.89,0.89,0,0,1,0-.21,4.41,4.41,0,0,1,.16-0.52c0-.09.08-0.16,0.11-0.24H89.92a63.07,63.07,0,0,1-38.1-12.76,13.47,13.47,0,0,1-.07,2.54c0,0.36,0,.73,0,1.09,0,0.14,0,.27,0,0.41a66.32,66.32,0,0,0,36.94,12c0-.11.08-0.22,0.14-0.33s0.27-.48.41-0.72A13,13,0,0,1,89.75,157.65Z"/><path class="cls-1" d="M124.89,40.43a217.09,217.09,0,0,0-22.56,4.14C89,48,75.44,52.31,66.43,55.18c-4.14,1.33-7.14,2.27-8.41,2.6-4,1-10.68,4.4-10.68,15.28,0,8.94,3.8,19.55,4.47,21.49v49.33s0,0.09,0,.13c1.13,0.8,2.26,1.59,3.39,2.33V94.28a2.71,2.71,0,0,0-.33-0.6c-0.07-.13-4.4-11.54-4.4-20.62,0-6.61,2.8-10.68,8.34-12.08,1.4-.33,4.47-1.33,8.68-2.67,8.94-2.87,22.62-7.14,35.84-10.54,6-1.53,15.59-3.09,25.67-4.5C127.74,42.27,126.23,41.37,124.89,40.43Z"/><path class="cls-1" d="M153.25,90.61H90.92a1.52,1.52,0,0,0-1.4.67,1.31,1.31,0,0,0-.07,1.47c0.07,0.13,7,14.15,5.54,28.63-0.73,7.27-4.7,22.26-8.43,35.4,1.11,0.07,2.22.07,3.4,0.07,3.74-13.15,7.63-27.93,8.37-35.4,1.2-12-2.8-22.89-4.8-28.23h59.79C153.32,92.42,153.32,91.48,153.25,90.61Z"/><path class="cls-1" d="M72.44,114.64h0a1.64,1.64,0,0,1-1.67-1.6L70.9,76.87a1.65,1.65,0,0,1,1.33-1.6l41-7.41a1.66,1.66,0,0,1,.6,3.27L74.24,78.27,74.11,113A1.6,1.6,0,0,1,72.44,114.64Z"/><polygon class="cls-1" points="125.16 67.39 107.74 63.65 112.75 69.59 110.14 76.93 125.16 67.39"/><polygon class="cls-1" points="72.44 124.78 65.7 108.23 72.44 112.17 79.25 108.3 72.44 124.78"/><path class="cls-1" d="M72.84,82.34a4.54,4.54,0,1,1,4.54-4.54A4.54,4.54,0,0,1,72.84,82.34Zm0-5.81a1.27,1.27,0,1,0,1.27,1.27A1.31,1.31,0,0,0,72.84,76.53Z"/><path class="cls-1" d="M119.15,114.77a1.8,1.8,0,0,1-1-.33L71.77,79.07a1.67,1.67,0,0,1,2-2.67l46.38,35.37a1.69,1.69,0,0,1,.33,2.34A1.56,1.56,0,0,1,119.15,114.77Z"/><polygon class="cls-1" points="128.49 120.24 111.28 115.57 118.48 112.57 119.42 104.83 128.49 120.24"/></svg>