<svg id="Layer_1" data-name="Layer 1" xmlns="http://www.w3.org/2000/svg" xmlns:xlink="http://www.w3.org/1999/xlink" viewBox="0 0 200 200"><defs><style>.cls-1{fill:#2c2c2c;}.cls-2{clip-path:url(#clip-path);}.cls-3{clip-path:url(#clip-path-3);}.cls-4{clip-path:url(#clip-path-5);}.cls-5{clip-path:url(#clip-path-7);}.cls-6{clip-path:url(#clip-path-9);}</style><clipPath id="clip-path"><path class="cls-1" d="M72,123.2H61.6a5,5,0,0,1-5-5v-14a5,5,0,0,1,5-5H72a5,5,0,0,1,5,5v14A5,5,0,0,1,72,123.2Z"/></clipPath><clipPath id="clip-path-3"><path class="cls-1" d="M136,123.2H125.6a5,5,0,0,1-5-5v-14a5,5,0,0,1,5-5H136a5,5,0,0,1,5,5v14A5.08,5.08,0,0,1,136,123.2Z"/></clipPath><clipPath id="clip-path-5"><path class="cls-1" d="M136,91.7H125.6a5,5,0,0,1-5-5v-14a5,5,0,0,1,5-5H136a5,5,0,0,1,5,5v14A5,5,0,0,1,136,91.7Z"/></clipPath><clipPath id="clip-path-7"><path class="cls-1" d="M104.5,123.2H94a5,5,0,0,1-5-5v-14a5,5,0,0,1,5-5h10.4a5,5,0,0,1,5,5v14A4.93,4.93,0,0,1,104.5,123.2Z"/></clipPath><clipPath id="clip-path-9"><path class="cls-1" d="M104.5,91.7H94a5,5,0,0,1-5-5v-14a5,5,0,0,1,5-5h10.4a5,5,0,0,1,5,5v14A4.87,4.87,0,0,1,104.5,91.7Z"/></clipPath></defs><title>icon-dashboard-basic</title><path class="cls-1" d="M63.9,88.5H62.2a0.79,0.79,0,0,1-.8-0.8V81a0.79,0.79,0,0,1,.8-0.8h1.7a0.79,0.79,0,0,1,.8.8v6.6A0.77,0.77,0,0,1,63.9,88.5Z"/><path class="cls-1" d="M68.9,88.5h-1a1.16,1.16,0,0,1-1.2-1.2V74.6a1.16,1.16,0,0,1,1.2-1.2h1a1.16,1.16,0,0,1,1.2,1.2V87.3A1.22,1.22,0,0,1,68.9,88.5Z"/><path class="cls-1" d="M74.3,88.5H73.1A1.11,1.11,0,0,1,72,87.4V71.2a1.11,1.11,0,0,1,1.1-1.1h1.2a1.11,1.11,0,0,1,1.1,1.1V87.4A1.11,1.11,0,0,1,74.3,88.5Z"/><path class="cls-1" d="M115,144.5a2.48,2.48,0,0,1-2.5,2.5h-25a2.48,2.48,0,0,1-2.5-2.5V134.4a2.48,2.48,0,0,1,2.5-2.5h25.1a2.48,2.48,0,0,1,2.5,2.5v10.1H115ZM90,142h19v-5H90v5Z"/><path class="cls-1" d="M125.8,158H73.6a2.33,2.33,0,0,1-2.6-2.2v-3.5c0-5.9,5.1-10.4,11-10.4h35.9a10.1,10.1,0,0,1,10.2,10.4v3.5A2.18,2.18,0,0,1,125.8,158ZM76,153h47v-0.6a5.1,5.1,0,0,0-5.2-5.4H82c-3.1,0-6,2.2-6,5.4V153Z"/><path class="cls-1" d="M144.1,136.6H55.7a14.94,14.94,0,0,1-14.9-14.9V68.5A14.94,14.94,0,0,1,55.7,53.6h88.4A14.94,14.94,0,0,1,159,68.5v53.2A15,15,0,0,1,144.1,136.6ZM55.7,58.5a10,10,0,0,0-10,10v53.2a10,10,0,0,0,10,10h88.4a10,10,0,0,0,10-10V68.5a10,10,0,0,0-10-10H55.7Z"/><path class="cls-1" d="M72,123.2H61.6a5,5,0,0,1-5-5v-14a5,5,0,0,1,5-5H72a5,5,0,0,1,5,5v14A5,5,0,0,1,72,123.2Z"/><g class="cls-2"><path class="cls-1" d="M67.2,102.9a4.32,4.32,0,0,0-4.1,4.4,4.68,4.68,0,0,0,2.1,3.9,4.18,4.18,0,0,0,1,.4,4.1,4.1,0,0,0,1.8,0,6.89,6.89,0,0,0,.8-0.3,4.43,4.43,0,0,0,2.4-4A4.24,4.24,0,0,0,67.2,102.9Z"/></g><path class="cls-1" d="M72,123.2H61.6a5,5,0,0,1-5-5v-14a5,5,0,0,1,5-5H72a5,5,0,0,1,5,5v14A5,5,0,0,1,72,123.2Z"/><g class="cls-2"><path class="cls-1" d="M73,115.5h0c0-1.9-1.7-3.1-4.5-3.6a4.17,4.17,0,0,0,.2-0.6h0.1c-0.3.1-.5,0.2-0.8,0.3a4.1,4.1,0,0,1-1.8,0,3,3,0,0,1-1-.4v0.7c-0.1,0-.3.1-0.4,0.1h0a9.17,9.17,0,0,0-2.5.8H62c-1,.7-2,1.7-2,2.8v-0.1L60.3,126H73.8Z"/></g><path class="cls-1" d="M72.1,124.7H61.5a6.44,6.44,0,0,1-6.4-6.4V104.2a6.44,6.44,0,0,1,6.4-6.4H72.1a6.44,6.44,0,0,1,6.4,6.4v14.1A6.44,6.44,0,0,1,72.1,124.7Zm-10.6-24a3.54,3.54,0,0,0-3.5,3.5v14.1a3.54,3.54,0,0,0,3.5,3.5H72.1a3.54,3.54,0,0,0,3.5-3.5V104.2a3.54,3.54,0,0,0-3.5-3.5H61.5Z"/><path class="cls-1" d="M136,123.2H125.6a5,5,0,0,1-5-5v-14a5,5,0,0,1,5-5H136a5,5,0,0,1,5,5v14A5.08,5.08,0,0,1,136,123.2Z"/><g class="cls-3"><path class="cls-1" d="M131.1,102.9a4.32,4.32,0,0,0-4.1,4.4,4.68,4.68,0,0,0,2.1,3.9,4.18,4.18,0,0,0,1,.4,4.1,4.1,0,0,0,1.8,0,6.89,6.89,0,0,0,.8-0.3,4.43,4.43,0,0,0,2.4-4A4.11,4.11,0,0,0,131.1,102.9Z"/></g><path class="cls-1" d="M136,123.2H125.6a5,5,0,0,1-5-5v-14a5,5,0,0,1,5-5H136a5,5,0,0,1,5,5v14A5.08,5.08,0,0,1,136,123.2Z"/><g class="cls-3"><path class="cls-1" d="M137,115.5h0c0-1.9-1.7-3.1-4.6-3.6a4.17,4.17,0,0,0,.2-0.6h0.1c-0.3.1-.5,0.2-0.8,0.3a4.1,4.1,0,0,1-1.8,0,3,3,0,0,1-1-.4v0.7c-0.1,0-.3.1-0.4,0.1h0a10.43,10.43,0,0,0-2.5.8h-0.3c-1,.7-2,1.7-2,2.8v-0.1l0.3,10.5h13.5Z"/></g><path class="cls-1" d="M136,124.7H125.4a6.44,6.44,0,0,1-6.4-6.4V104.2a6.44,6.44,0,0,1,6.4-6.4H136a6.44,6.44,0,0,1,6.4,6.4v14.1A6.32,6.32,0,0,1,136,124.7Zm-10.6-24a3.54,3.54,0,0,0-3.5,3.5v14.1a3.54,3.54,0,0,0,3.5,3.5H136a3.54,3.54,0,0,0,3.5-3.5V104.2a3.54,3.54,0,0,0-3.5-3.5H125.4Z"/><path class="cls-1" d="M136,91.7H125.6a5,5,0,0,1-5-5v-14a5,5,0,0,1,5-5H136a5,5,0,0,1,5,5v14A5,5,0,0,1,136,91.7Z"/><g class="cls-4"><path class="cls-1" d="M131.1,71.4a4.32,4.32,0,0,0-4.1,4.4,4.68,4.68,0,0,0,2.1,3.9,4.18,4.18,0,0,0,1,.4,4.1,4.1,0,0,0,1.8,0,6.89,6.89,0,0,0,.8-0.3,4.43,4.43,0,0,0,2.4-4A4.11,4.11,0,0,0,131.1,71.4Z"/></g><path class="cls-1" d="M136,91.7H125.6a5,5,0,0,1-5-5v-14a5,5,0,0,1,5-5H136a5,5,0,0,1,5,5v14A5,5,0,0,1,136,91.7Z"/><g class="cls-4"><path class="cls-1" d="M137,84h0c0-1.9-1.7-3.1-4.6-3.6a4.17,4.17,0,0,0,.2-0.6h0.1c-0.3.1-.5,0.2-0.8,0.3a4.1,4.1,0,0,1-1.8,0,3,3,0,0,1-1-.4v1c-0.1,0-.3.3-0.4,0.3h0V80.8a18.29,18.29,0,0,0-2.5.6l-0.3-.1h0c-1,.7-2,1.7-2,2.8V84l0.3,10h13.5Z"/></g><path class="cls-1" d="M136,93.2H125.4a6.44,6.44,0,0,1-6.4-6.4V72.6a6.44,6.44,0,0,1,6.4-6.4H136a6.44,6.44,0,0,1,6.4,6.4V86.7A6.34,6.34,0,0,1,136,93.2Zm-10.6-24a3.54,3.54,0,0,0-3.5,3.5V86.8a3.54,3.54,0,0,0,3.5,3.5H136a3.54,3.54,0,0,0,3.5-3.5V72.6a3.54,3.54,0,0,0-3.5-3.5H125.4v0.1Z"/><path class="cls-1" d="M104.5,123.2H94a5,5,0,0,1-5-5v-14a5,5,0,0,1,5-5h10.4a5,5,0,0,1,5,5v14A4.93,4.93,0,0,1,104.5,123.2Z"/><g class="cls-5"><path class="cls-1" d="M99.7,102.9a4.32,4.32,0,0,0-4.1,4.4,4.68,4.68,0,0,0,2.1,3.9,4.18,4.18,0,0,0,1,.4,4.1,4.1,0,0,0,1.8,0,6.89,6.89,0,0,0,.8-0.3,4.43,4.43,0,0,0,2.4-4A4.24,4.24,0,0,0,99.7,102.9Z"/></g><path class="cls-1" d="M104.5,123.2H94a5,5,0,0,1-5-5v-14a5,5,0,0,1,5-5h10.4a5,5,0,0,1,5,5v14A4.93,4.93,0,0,1,104.5,123.2Z"/><g class="cls-5"><path class="cls-1" d="M105,115.5h0c0-1.9-1.5-3.1-4.3-3.6a3.11,3.11,0,0,0,.4-0.6h0.2c-0.3.1-.4,0.2-0.7,0.3a4.1,4.1,0,0,1-1.8,0,3,3,0,0,1-1-.4v0.7c-0.1,0-.3.1-0.4,0.1h0a10.67,10.67,0,0,0-2.7.8H94.1c-1,.7-2,1.7-2,2.8v-0.1L92.9,126h13.5Z"/></g><path class="cls-1" d="M104.6,124.7H93.9a6.44,6.44,0,0,1-6.4-6.4V104.2a6.44,6.44,0,0,1,6.4-6.4h10.6a6.44,6.44,0,0,1,6.4,6.4v14.1A6.3,6.3,0,0,1,104.6,124.7Zm-10.7-24a3.54,3.54,0,0,0-3.5,3.5v14.1a3.54,3.54,0,0,0,3.5,3.5h10.6a3.54,3.54,0,0,0,3.5-3.5V104.2a3.54,3.54,0,0,0-3.5-3.5H93.9Z"/><path class="cls-1" d="M104.5,91.7H94a5,5,0,0,1-5-5v-14a5,5,0,0,1,5-5h10.4a5,5,0,0,1,5,5v14A4.87,4.87,0,0,1,104.5,91.7Z"/><g class="cls-6"><path class="cls-1" d="M99.7,71.4a4.32,4.32,0,0,0-4.1,4.4,4.68,4.68,0,0,0,2.1,3.9,4.18,4.18,0,0,0,1,.4,4.1,4.1,0,0,0,1.8,0,6.89,6.89,0,0,0,.8-0.3,4.43,4.43,0,0,0,2.4-4A4.24,4.24,0,0,0,99.7,71.4Z"/></g><path class="cls-1" d="M104.5,91.7H94a5,5,0,0,1-5-5v-14a5,5,0,0,1,5-5h10.4a5,5,0,0,1,5,5v14A4.87,4.87,0,0,1,104.5,91.7Z"/><g class="cls-6"><path class="cls-1" d="M105,84h0c0-1.9-1.5-3.1-4.3-3.6a3.11,3.11,0,0,0,.4-0.6h0.2c-0.3.1-.4,0.2-0.7,0.3a4.1,4.1,0,0,1-1.8,0,3,3,0,0,1-1-.4v1c-0.1,0-.3.3-0.4,0.3h0V80.8a18.07,18.07,0,0,0-2.7.6l-0.6-.1h0c-1,.7-2,1.7-2,2.8V84l0.8,10h13.5Z"/></g><path class="cls-1" d="M104.6,93.2H93.9a6.44,6.44,0,0,1-6.4-6.4V72.6a6.44,6.44,0,0,1,6.4-6.4h10.6a6.44,6.44,0,0,1,6.4,6.4V86.7A6.32,6.32,0,0,1,104.6,93.2Zm-10.7-24a3.54,3.54,0,0,0-3.5,3.5V86.8a3.54,3.54,0,0,0,3.5,3.5h10.6a3.54,3.54,0,0,0,3.5-3.5V72.6a3.54,3.54,0,0,0-3.5-3.5H93.9v0.1Z"/><polygon class="cls-1" points="78 93 55 93 55 71 58 71 58 91 78 91 78 93"/></svg>