<?xml version="1.0" encoding="utf-8"?>
<!-- Generator: Adobe Illustrator 18.1.1, SVG Export Plug-In . SVG Version: 6.00 Build 0)  -->
<svg version="1.1" id="Layer_1" xmlns="http://www.w3.org/2000/svg" xmlns:xlink="http://www.w3.org/1999/xlink" x="0px" y="0px"
	 viewBox="0 0 80 80" enable-background="new 0 0 80 80" xml:space="preserve">
<g>
	<path fill="#FFFFFF" d="M61.1,74C61.1,74,61.1,74,61.1,74l-38.7-0.9c-0.8,0-1.4-0.5-1.4-1.4V39.6c0-0.2,0-0.5,0.1-0.7
		c2.9-5.5,6.3-9.7,9.2-13.1c2.3-2.7,4.2-5,4.3-6.3c0.1-1.6-0.1-4.1-0.3-6c-0.1-1.2-0.2-2.3-0.2-3C34,7.1,36,5.8,41,5.8
		c8.1,0,9.2,6.1,10.1,11c0.1,0.4,0.2,0.8,0.2,1.3c0.8,4.4-0.5,12-1.2,16h22.6c2.6,0,7.5,1.3,7.5,6c0,3.1-1.7,4.8-3.6,5.6
		c0.7,0.9,1.1,2.2,1,3.8c-0.1,2.7-2.1,4.3-4.2,5.2c0.9,1.3,1.5,3.1,0.7,5.1c-1,2.5-2.7,3.9-4.4,4.5c0.2,1,0.3,2.2,0,4
		c-0.8,5.2-8.2,6-8.5,6C61.2,74.2,61.1,74,61.1,74z M24,70.3l37,1c0.7-0.1,5.3-1,5.7-3.6c0.4-2.5-0.2-3.3-0.3-3.5
		c-0.5-0.4-0.7-1.1-0.5-1.7c0.2-0.7,0.9-1.1,1.6-1c0.6,0,2.6-0.2,3.7-2.9c0.8-1.9-1.5-3.3-1.5-3.3c-0.6-0.3-0.8-1-0.7-1.6
		c0.1-0.6,0.6-1.1,1.3-1.2c0,0,4.2-0.7,4.3-3.1c0.1-2.2-1.8-2.9-1.8-2.9c-0.7-0.2-1.1-1-1-1.7c0.1-0.7,0.8-1.3,1.5-1.3
		c3.7-0.1,3.9-2.8,3.9-3.4c0-2.7-4.2-2.9-4.4-2.9H48.3c-0.5,0-0.9-0.1-1.2-0.5c-0.3-0.4-0.4-0.8-0.3-1.3c0-0.1,2.5-11.6,1.5-16.6
		c-0.1-0.4-0.2-0.9-0.2-1.3c-1-5.4-1.7-8.4-7-8.4c-3.9,0-3.9,0.6-3.9,1.5c0,0.6,0.1,1.6,0.2,2.7c0.2,2.1,0.4,4.7,0.3,6.6
		c-0.2,2.3-2.2,4.7-5,8C30,31,27,35,24,40V70.3z"/>
	<path fill="#FFFFFF" d="M16.8,74.1H5.6c-3.2,0-5.7-2.6-5.7-5.7V42.7c0-3.2,2.6-5.7,5.7-5.7h11.2c0.7,0,1.3,0.6,1.3,1.3v34.5
		C18.1,73.5,17.5,74.1,16.8,74.1z M5.6,39.6c-1.7,0-3,1.4-3,3v25.7c0,1.7,1.4,3,3,3h9.8V39.6H5.6z"/>
</g>
</svg>
