<?xml version="1.0" encoding="utf-8"?>
<!-- Generator: Adobe Illustrator 19.0.0, SVG Export Plug-In . SVG Version: 6.00 Build 0)  -->
<svg version="1.1" id="Layer_1" xmlns="http://www.w3.org/2000/svg" xmlns:xlink="http://www.w3.org/1999/xlink" x="0px" y="0px"
	 viewBox="0 0 136.2 38.2" style="enable-background:new 0 0 136.2 38.2;" xml:space="preserve">
<style type="text/css">
	.st0{display:none;fill:#010101;}
	.st1{fill:#FFFFFF;}
</style>
<rect x="-133.2" y="-69.5" class="st0" width="612" height="792"/>
<g>
	<g>
		<path class="st1" d="M19.6,1.6C9.8,1.6,1.9,9.5,1.9,19.2c0,9.7,7.9,17.6,17.6,17.6c9.7,0,17.6-7.9,17.6-17.6
			C37.2,9.5,29.3,1.6,19.6,1.6z M19.6,7.1c1.6,0,3,1.3,3,3c0,1.6-1.3,3-3,3c-1.6,0-3-1.3-3-3C16.6,8.4,17.9,7.1,19.6,7.1z
			 M24.8,28.5l-0.9-7.8c-0.1-0.6-0.1-1.2-0.2-1.7c-0.1,0.6-0.2,1.1-0.4,1.6l-2.1,7.9h-3.6l-2.1-7.8c-0.1-0.5-0.3-1.1-0.4-1.7
			c0,0.6-0.1,1.4-0.2,1.9l-0.9,7.6H11l1.9-14.4h4l2.2,8.4c0.2,0.7,0.3,1.5,0.5,2.2c0.1-0.6,0.3-1.5,0.4-2.1l2.2-8.4h4l1.9,14.4H24.8
			z"/>
		<g>
			<path class="st1" d="M43.3,17.4V7h6.8v1.7h-4.5v2.5h4.2V13h-4.2v4.5H43.3z"/>
			<path class="st1" d="M55,17.6c-2.4,0-3.8-1.6-3.8-3.9s1.4-3.9,3.8-3.9c2.4,0,3.8,1.6,3.8,3.9S57.3,17.6,55,17.6z M55,16.2
				c1.3,0,1.6-1.2,1.6-2.4c0-1.2-0.2-2.4-1.6-2.4c-1.3,0-1.6,1.2-1.6,2.4C53.4,15,53.6,16.2,55,16.2z"/>
			<path class="st1" d="M62.6,11L62.6,11c0.5-0.6,1.2-1.1,2.3-1.1c0.7,0,2.1,0.5,2.4,1.6c0.1,0.4,0.1,0.9,0.1,1.2v4.7h-2.2v-4.4
				c0-0.8-0.2-1.7-1.3-1.7c-0.7,0-1.3,0.6-1.3,1.7v4.4h-2.2v-7.3h2.2V11z"/>
			<path class="st1" d="M74.5,7h2.2v9c0,0.5,0,1,0.1,1.5h-2.2c0-0.3-0.1-0.7-0.1-1h0c-0.5,0.9-1.3,1.2-2.2,1.2c-2.1,0-3.1-2-3.1-3.9
				c0-2,1.1-3.9,3.4-3.9c0.8,0,1.5,0.4,1.9,1.1h0V7z M72.9,16.2c1.2,0,1.6-1.4,1.6-2.4c0-1-0.4-2.4-1.6-2.4c-1.4,0-1.6,1.3-1.6,2.4
				C71.4,14.9,71.5,16.2,72.9,16.2z"/>
			<path class="st1" d="M78.5,12.2c0-0.9,0.4-1.5,1-1.8c0.6-0.3,1.4-0.5,2.1-0.5c1.5,0,3.1,0.5,3.1,2.7v4c0,0.4,0.1,0.6,0.1,0.8h-2
				c0-0.3-0.1-0.7-0.1-1h0c-0.5,0.8-1.2,1.2-2.2,1.2c-1.4,0-2.4-0.8-2.4-2.2c0-0.5,0.2-1.7,1.6-2.3c0.9-0.4,2-0.4,2.8-0.4v-0.7
				c0-0.3-0.2-0.9-1-0.9c-0.8,0-1,0.7-1,1H78.5z M80.2,15.2c0,0.6,0.5,1,1.1,1c1.2,0,1.2-1.3,1.2-2.2C81.8,14,80.2,14,80.2,15.2z"/>
			<path class="st1" d="M87.2,10.2V8.7l2.2-0.8v2.2H91v1.5h-1.6V15c0,1,0.1,1.2,0.9,1.2c0.2,0,0.5,0,0.7,0v1.3
				c-0.2,0.1-1.4,0.2-1.7,0.2c-1.7,0-2.1-0.9-2.1-2.5v-3.6h-1.5v-1.5H87.2z"/>
			<path class="st1" d="M94.7,7v1.9h-2.3V7H94.7z M94.6,10.2v7.3h-2.2v-7.3H94.6z"/>
			<path class="st1" d="M100.1,17.6c-2.4,0-3.8-1.6-3.8-3.9s1.4-3.9,3.8-3.9c2.4,0,3.8,1.6,3.8,3.9S102.5,17.6,100.1,17.6z
				 M100.1,16.2c1.3,0,1.6-1.2,1.6-2.4c0-1.2-0.2-2.4-1.6-2.4s-1.6,1.2-1.6,2.4C98.6,15,98.8,16.2,100.1,16.2z"/>
			<path class="st1" d="M107.8,11L107.8,11c0.5-0.6,1.2-1.1,2.3-1.1c0.7,0,2.1,0.5,2.4,1.6c0.1,0.4,0.1,0.9,0.1,1.2v4.7h-2.2v-4.4
				c0-0.8-0.2-1.7-1.3-1.7c-0.7,0-1.3,0.6-1.3,1.7v4.4h-2.2v-7.3h2.2V11z"/>
		</g>
	</g>
	<g>
		<path class="st1" d="M48.7,30.4h-1.5L45,23.2l0,0v7.2h-1.7V22h2.9l1.8,6.1h0l1.9-6.1h2.8v8.4h-1.7v-7.2l0,0L48.7,30.4z"/>
		<path class="st1" d="M54.1,26.2c0-2.5,1.3-4.4,4-4.4c2.8,0,4,1.9,4,4.4c0,2.5-1.3,4.4-4,4.4C55.4,30.6,54.1,28.7,54.1,26.2z
			 M56,26.2c0,1.4,0.3,3.1,2.1,3.1s2.1-1.6,2.1-3.1c0-1.4-0.3-3.1-2.1-3.1S56,24.8,56,26.2z"/>
		<path class="st1" d="M68.5,30.4l-3.3-7l0,0v6.9h-1.7V22h2.7l3.2,6.6l0,0V22h1.7v8.4H68.5z"/>
		<path class="st1" d="M72,22h6.8v1.4h-2.5v7h-1.8v-7H72V22z"/>
		<path class="st1" d="M81.5,30.4h-1.8V22h3.6c1.4,0,2.9,0.5,2.9,2.2c0,1.1-0.7,1.8-1.7,2v0c1.4,0.2,1.4,1,1.5,2.2
			c0.1,0.5,0.2,1.5,0.5,2h-2c-0.2-0.7-0.2-1.5-0.3-2.2c0-0.5-0.2-1.1-0.8-1.1h-1.9V30.4z M81.5,25.6H83c0.8,0,1.3-0.4,1.3-1.1
			c0-0.7-0.5-1.1-1.3-1.1h-1.5V25.6z"/>
		<path class="st1" d="M87.5,22h5.6v1.4h-3.8v2h3.6v1.4h-3.6V29h3.9v1.4h-5.7V22z M92.2,19.8l-1.6,1.7h-0.9l1-1.7H92.2z"/>
		<path class="st1" d="M94.2,30.4l3-8.4h2.1l2.9,8.4h-1.8l-0.6-1.8h-3.3l-0.6,1.8H94.2z M99.4,27.2l-1.1-3.6h0L97,27.2H99.4z"/>
		<path class="st1" d="M103.3,30.4V22h1.8v7h3.6v1.4H103.3z"/>
		<path class="st1" d="M114.8,30.4H113V22h1.8V30.4z"/>
		<path class="st1" d="M121.4,30.4l-3.3-7l0,0v6.9h-1.7V22h2.7l3.2,6.6l0,0V22h1.7v8.4H121.4z"/>
		<path class="st1" d="M130.2,24.8c0-0.9-0.5-1.6-1.6-1.6c-1.3,0-1.6,1.9-1.6,3.1s0.3,3.1,1.6,3.1c1.1,0,1.6-0.7,1.6-1.6h1.9
			c-0.1,2.1-1.6,2.9-3.5,2.9c-2.4,0-3.5-1.9-3.5-4.4s1.1-4.4,3.5-4.4c1.9,0,3.4,0.8,3.5,2.9H130.2z"/>
		<path class="st1" d="M133.4,30.4v-1.5h1.5v1.5H133.4z"/>
	</g>
</g>
</svg>
