<?xml version="1.0" encoding="utf-8"?>
<!-- Generator: Adobe Illustrator 19.0.0, SVG Export Plug-In . SVG Version: 6.00 Build 0)  -->
<svg version="1.1" xmlns="http://www.w3.org/2000/svg" xmlns:xlink="http://www.w3.org/1999/xlink" x="0px" y="0px"
	 viewBox="0 0 221 72" style="enable-background:new 0 0 221 72;" xml:space="preserve">
<style type="text/css">
	.st0{display:none;}
	.st1{display:inline;}
	.st2{fill:#FFFFFF;}
	.st3{fill-rule:evenodd;clip-rule:evenodd;fill:#FFFFFF;}
</style>
<g class="st0">
	<rect x="-197.8" y="-361" class="st1" width="612" height="792"/>
</g>
<g>
	<g>
		<g>
			<g>
				<g>
					<path class="st2" d="M87.6,58.6V45.5h-0.1C87,45.9,85.3,46,84.5,46h-1.3v0.1c1.5,0.9,1.3,2.2,1.3,3.9l0,5.5
						c0,2.8-2.7,4.7-4.9,4.7c-2.9,0-4.1-2.1-4.1-5.4v-9.3h-0.1C75,45.9,73.2,46,72.5,46h-1.3v0.1c1.5,0.9,1.3,2.2,1.3,3.9v5.5
						c0,5.1,2.2,7.5,6.1,7.5c2.3,0,4.7-0.8,5.9-2.8v2.4h4.3v-0.1C87.4,61.6,87.6,60.3,87.6,58.6z"/>
					<path class="st2" d="M94.2,51.6c0.4-2.3,2.1-3.7,4.3-3.7c2.4,0,3.9,1.2,4.3,3.7H94.2z M106.3,53.7c0.1-4.6-3-8.1-7.5-8.1
						c-5,0-8.3,3.6-8.3,8.6c0,5,3.9,8.9,9.5,8.9c1.6,0,3.2-0.2,4.6-0.9l1.7-3.4h-0.1c-1.5,1.3-3.5,1.9-5.5,1.9c-3.8,0-6.6-2.6-6.7-7
						H106.3z"/>
					<path class="st2" d="M108.9,37.9c0.8,0,2.4,0,2.9-0.5h0.1v22.7c0.9,0.2,1.8,0.4,2.7,0.4c3.6,0,5.7-2.5,5.7-6.1
						c0-3.5-1.6-6.2-5-6.2c-1.1,0-1.9,0.3-2.8,0.8l1.8-3.1c0.8-0.3,1.6-0.4,2.3-0.4c3.8,0,7,3.3,7,8.2c0,5.6-3.8,9.3-9.8,9.3
						c-2.2,0-4.4-0.4-6-0.6v-0.1c1.1-0.5,1-1.7,1-2.9V42.9c0-1.7,0.2-4-1.2-4.9v-0.1H108.9z"/>
					<path class="st2" d="M129.7,51.6c0.4-2.3,2.1-3.7,4.3-3.7c2.4,0,3.9,1.2,4.3,3.7H129.7z M141.8,53.7c0.1-4.6-3-8.1-7.5-8.1
						c-5,0-8.3,3.6-8.3,8.6c0,5,3.9,8.9,9.5,8.9c1.6,0,3.2-0.2,4.6-0.9l1.7-3.4h-0.1c-1.5,1.3-3.5,1.9-5.5,1.9c-3.8,0-6.6-2.6-6.7-7
						H141.8z"/>
					<path class="st2" d="M156.7,49.7L156.7,49.7c-1.1-1.2-2.7-1.8-4.2-1.8c-3.2,0-5.6,2.4-5.6,5.9c0,4.1,3.2,6.9,6.9,6.9
						c1.7,0,3.6-0.7,4.9-1.8h0.1l-1.7,3.4c-1.4,0.6-2.9,0.7-4.4,0.7c-5.1,0-9.1-3.6-9.1-8.3c0-6.2,4.5-9.2,9.5-9.2
						c1.2,0,2.4,0.1,3.6,0.4V49.7z"/>
					<path class="st3" d="M102.1,42.6c0-1.7,0-3.6,0-3.6c-2.2,1-4.2,2.8-5.6,4.6V45C99.8,42.8,102.1,42.7,102.1,42.6z"/>
					<path class="st2" d="M57.6,60.5c-5,0-8.5-5.7-8.5-10.5c0,0,0-0.5,0-0.5c0.1-4.7,3.1-9,8.4-9c5.5,0,8.4,5.2,8.5,10.2
						c0,0,0,0.5,0,0.5C65.8,56.5,62.5,60.5,57.6,60.5z M74.8,66.1c-3.7,0.6-7.3-0.6-11.1-4.9c3.7-1.8,5.9-6.4,5.9-10.7
						c0,0,0-0.5,0-0.5c-0.1-7.3-5.5-12.1-12-12.1c-6.5,0-12.3,5-12.3,12.3c0,0,0,0.5,0,0.5c0,7.1,5.3,12.4,11.8,12.4
						c0.9,0,1.8-0.1,2.7-0.4c4.2,4,8,5.7,11.3,5.3c1.6-0.2,3.2-0.8,4.2-2.1L74.8,66.1z"/>
				</g>
			</g>
			<g>
				<path class="st2" d="M13.2,8.1l-0.4,1.8H8.5l-0.4,2h4l-0.4,1.8h-4L7.2,16h4.4l-0.4,1.8h-7l2.1-9.8H13.2z M9.5,5h2.6v0.3L9.8,7.1
					H8.2V6.9L9.5,5z"/>
				<path class="st2" d="M19.5,12.6c-0.5-0.3-1.1-0.4-1.5-0.4c-1.4,0-2.2,0.8-2.2,2.1c0,1.1,0.7,1.8,1.9,1.8c0.5,0,0.9-0.1,1.4-0.3
					l-0.3,1.9C18,17.9,17.3,18,16.6,18c-2.2,0-3.6-1.4-3.6-3.4c0-2.5,1.8-4.2,4.6-4.2c0.8,0,1.6,0.2,2.4,0.5L19.5,12.6z"/>
				<path class="st2" d="M28.6,13.8c0,2.5-1.8,4.2-4.7,4.2c-2.3,0-3.7-1.3-3.7-3.3c0-2.6,1.7-4.3,4.6-4.3
					C27.2,10.4,28.6,11.7,28.6,13.8z M24.7,12.1c-1,0-1.9,1.1-1.9,2.6c0,1,0.6,1.6,1.4,1.6c1,0,1.9-1.1,1.9-2.6
					C26,12.7,25.5,12.1,24.7,12.1z"/>
				<path class="st2" d="M36.9,17.8h-2.5l0.8-3.6c0.1-0.3,0.1-0.5,0.1-0.7c0-0.7-0.4-1.1-0.9-1.1c-1,0-1.7,0.8-2,2.4l-0.6,3.1h-2.5
					l1.5-7.3H33l-0.3,1.3c0.8-0.9,1.7-1.4,2.8-1.4c1.5,0,2.4,0.9,2.4,2.5c0,0.5-0.1,1.1-0.3,2L36.9,17.8z"/>
				<path class="st2" d="M47.4,13.8c0,2.5-1.8,4.2-4.7,4.2c-2.3,0-3.7-1.3-3.7-3.3c0-2.6,1.7-4.3,4.6-4.3
					C46,10.4,47.4,11.7,47.4,13.8z M43.5,12.1c-1,0-1.9,1.1-1.9,2.6c0,1,0.6,1.6,1.4,1.6c1,0,1.9-1.1,1.9-2.6
					C44.9,12.7,44.3,12.1,43.5,12.1z"/>
				<path class="st2" d="M59.7,17.8h-2.4l0.8-3.6c0.1-0.4,0.1-0.7,0.1-0.9c0-0.5-0.3-0.9-0.8-0.9c-0.4,0-0.7,0.2-1,0.5
					c-0.4,0.5-0.5,1.2-0.6,1.8l-0.6,3.1h-2.6l0.8-3.6c0.1-0.4,0.1-0.7,0.1-1c0-0.5-0.3-0.8-0.8-0.8c-0.8,0-1.2,0.6-1.5,1.8l-0.8,3.6
					h-2.6l1.5-7.3h2.2l-0.3,1.3c0.8-1,1.6-1.4,2.5-1.4c1,0,1.7,0.5,2,1.4c0.8-1,1.5-1.4,2.6-1.4c1.4,0,2.2,0.9,2.2,2.3
					c0,0.4-0.1,0.8-0.1,1L59.7,17.8z"/>
				<path class="st2" d="M65.8,10.6l-1.6,7.3h-2.5l1.6-7.3H65.8z M66.3,8.1L66,9.4h-2.5l0.2-1.3H66.3z"/>
				<path class="st2" d="M68.8,14.9c0.1,1.1,0.7,1.6,1.9,1.6c0.8,0,1.6-0.2,2.5-0.5l-0.3,1.8c-0.9,0.3-1.8,0.4-2.7,0.4
					c-2.3,0-3.6-1.3-3.6-3.4c0-1.2,0.5-2.4,1.3-3.2c0.8-0.7,1.9-1.1,3.2-1.1c2,0,3.1,1.1,3.1,3.1c0,0.4-0.1,0.9-0.2,1.4H68.8z
					 M72.1,13.1c0-0.8-0.5-1.3-1.3-1.3c-0.8,0-1.4,0.6-1.7,1.6H72C72.1,13.4,72.1,13.3,72.1,13.1z"/>
				<path class="st2" d="M78.1,15.6l-2.1,3.7h-2l1.6-3.7H78.1z"/>
				<path class="st2" d="M91.3,10.2c-0.7-0.3-1.5-0.5-2.2-0.5c-1.2,0-1.8,0.4-1.8,1c0,0.7,0.7,0.8,1.7,1.3c1.4,0.7,2.1,1.3,2.1,2.6
					c0,2.1-1.6,3.5-4.5,3.5c-1.2,0-2.2-0.2-3.3-0.5l0.6-2c0.8,0.4,1.5,0.6,2.3,0.6c1.4,0,2.2-0.5,2.2-1.2c0-0.8-0.8-1-2.1-1.6
					c-1.1-0.5-1.6-1.2-1.6-2.3c0-1.8,1.6-3.2,4.1-3.2c1.4,0,2.5,0.2,3.3,0.4L91.3,10.2z"/>
				<path class="st2" d="M98.7,12.6c-0.5-0.3-1.1-0.4-1.5-0.4c-1.4,0-2.2,0.8-2.2,2.1c0,1.1,0.7,1.8,1.9,1.8c0.5,0,0.9-0.1,1.4-0.3
					l-0.3,1.9c-0.8,0.2-1.4,0.3-2.1,0.3c-2.2,0-3.6-1.4-3.6-3.4c0-2.5,1.8-4.2,4.6-4.2c0.8,0,1.6,0.2,2.4,0.5L98.7,12.6z"/>
				<path class="st2" d="M103.3,10.6l-1.6,7.3h-2.5l1.6-7.3H103.3z M103.8,8.1l-0.3,1.3h-2.5l0.2-1.3H103.8z"/>
				<path class="st2" d="M106.3,14.9c0.1,1.1,0.7,1.6,1.9,1.6c0.8,0,1.6-0.2,2.5-0.5l-0.3,1.8c-0.9,0.3-1.8,0.4-2.7,0.4
					c-2.3,0-3.6-1.3-3.6-3.4c0-1.2,0.5-2.4,1.3-3.2c0.8-0.7,1.9-1.1,3.2-1.1c2,0,3.1,1.1,3.1,3.1c0,0.4-0.1,0.9-0.2,1.4H106.3z
					 M109.6,13.1c0-0.8-0.5-1.3-1.3-1.3c-0.8,0-1.4,0.6-1.7,1.6h2.9C109.6,13.4,109.6,13.3,109.6,13.1z"/>
				<path class="st2" d="M120,17.8h-2.5l0.8-3.6c0.1-0.3,0.1-0.5,0.1-0.7c0-0.7-0.4-1.1-0.9-1.1c-1,0-1.7,0.8-2,2.4l-0.6,3.1h-2.5
					l1.5-7.3h2.3l-0.3,1.3c0.8-0.9,1.7-1.4,2.8-1.4c1.5,0,2.4,0.9,2.4,2.5c0,0.5-0.1,1.1-0.3,2L120,17.8z"/>
				<path class="st2" d="M128.4,12.6c-0.5-0.3-1.1-0.4-1.5-0.4c-1.4,0-2.2,0.8-2.2,2.1c0,1.1,0.7,1.8,1.9,1.8c0.5,0,0.9-0.1,1.4-0.3
					l-0.3,1.9c-0.8,0.2-1.4,0.3-2.1,0.3c-2.2,0-3.6-1.4-3.6-3.4c0-2.5,1.8-4.2,4.6-4.2c0.8,0,1.6,0.2,2.4,0.5L128.4,12.6z"/>
				<path class="st2" d="M131.4,14.9c0.1,1.1,0.7,1.6,1.9,1.6c0.8,0,1.6-0.2,2.5-0.5l-0.3,1.8c-0.9,0.3-1.8,0.4-2.7,0.4
					c-2.3,0-3.6-1.3-3.6-3.4c0-1.2,0.5-2.4,1.3-3.2c0.8-0.7,1.9-1.1,3.2-1.1c2,0,3.1,1.1,3.1,3.1c0,0.4-0.1,0.9-0.2,1.4H131.4z
					 M134.7,13.1c0-0.8-0.5-1.3-1.3-1.3c-0.8,0-1.4,0.6-1.7,1.6h2.9C134.6,13.4,134.7,13.3,134.7,13.1z"/>
				<path class="st2" d="M6.9,29C7,30,7.6,30.5,8.8,30.5c0.8,0,1.6-0.2,2.5-0.5L11,31.8c-0.9,0.3-1.8,0.4-2.7,0.4
					c-2.3,0-3.6-1.3-3.6-3.4c0-1.2,0.5-2.4,1.3-3.2c0.8-0.7,1.9-1.1,3.2-1.1c2,0,3.1,1.1,3.1,3.1c0,0.4-0.1,0.9-0.2,1.4H6.9z
					 M10.2,27.2c0-0.8-0.5-1.3-1.3-1.3c-0.8,0-1.4,0.6-1.7,1.6h2.9C10.2,27.4,10.2,27.3,10.2,27.2z"/>
				<path class="st2" d="M17.5,24.7h1.8l-0.4,1.7h-1.8l-0.5,2.5c-0.1,0.3-0.1,0.5-0.1,0.6c0,0.5,0.2,0.7,0.8,0.7
					c0.2,0,0.5,0,0.8-0.1l-0.4,1.7c-0.6,0.1-1,0.2-1.4,0.2c-1.5,0-2.4-0.8-2.4-2.2c0-0.3,0-0.5,0.1-0.7l0.6-2.7h-1.5l0.4-1.7H15
					l0.4-1.7l2.6-0.7L17.5,24.7z"/>
				<path class="st2" d="M28.2,22.2l-2.1,9.8h-2.6l2.1-9.8H28.2z"/>
				<path class="st2" d="M35.8,31.9h-2.5l0.8-3.6c0.1-0.3,0.1-0.5,0.1-0.7c0-0.7-0.4-1.1-0.9-1.1c-1,0-1.7,0.8-2,2.4l-0.6,3.1h-2.5
					l1.5-7.3h2.3l-0.3,1.3c0.8-0.9,1.7-1.4,2.8-1.4c1.5,0,2.4,0.9,2.4,2.5c0,0.5-0.1,1.1-0.3,2L35.8,31.9z"/>
				<path class="st2" d="M45.3,31.9h-2.5l0.8-3.6c0.1-0.3,0.1-0.5,0.1-0.7c0-0.7-0.4-1.1-0.9-1.1c-1,0-1.7,0.8-2,2.4l-0.6,3.1h-2.5
					l1.5-7.3h2.3l-0.3,1.3c0.8-0.9,1.7-1.4,2.8-1.4c1.5,0,2.4,0.9,2.4,2.5c0,0.5-0.1,1.1-0.3,2L45.3,31.9z"/>
				<path class="st2" d="M55.8,27.9c0,2.5-1.8,4.2-4.7,4.2c-2.3,0-3.7-1.3-3.7-3.3c0-2.6,1.7-4.3,4.6-4.3
					C54.4,24.5,55.8,25.8,55.8,27.9z M51.9,26.2c-1,0-1.9,1.1-1.9,2.6c0,1,0.6,1.6,1.4,1.6c1,0,1.9-1.1,1.9-2.6
					C53.2,26.8,52.7,26.2,51.9,26.2z"/>
				<path class="st2" d="M59.5,24.7l0.6,5.2l2.6-5.2h2.6L61,31.9h-2.8L57,24.7H59.5z"/>
				<path class="st2" d="M72.3,30.1c-0.1,0.5-0.2,1.1-0.3,1.8h-2.1l0.1-1.1c-0.6,0.8-1.4,1.3-2.5,1.3c-1.5,0-2.4-0.9-2.4-2.2
					c0-1.6,1.5-2.6,4.3-2.6c0.4,0,0.8,0,1.2,0.1c0-0.1,0-0.2,0-0.2c0-0.7-0.5-1.1-1.4-1.1c-0.8,0-1.6,0.2-2.4,0.5l0.3-1.7
					c0.8-0.3,1.6-0.4,2.4-0.4c2.2,0,3.4,0.9,3.4,2.3c0,0.3-0.1,0.8-0.2,1.3L72.3,30.1z M69.5,28.6c-1.4,0-2.1,0.4-2.1,1.1
					c0,0.5,0.4,0.8,0.9,0.8c0.9,0,1.7-0.7,1.8-1.9C70,28.6,69.7,28.6,69.5,28.6z"/>
				<path class="st2" d="M78.2,24.7h1.8l-0.4,1.7h-1.8l-0.5,2.5c-0.1,0.3-0.1,0.5-0.1,0.6c0,0.5,0.2,0.7,0.8,0.7
					c0.2,0,0.5,0,0.8-0.1l-0.4,1.7c-0.6,0.1-1,0.2-1.4,0.2c-1.5,0-2.4-0.8-2.4-2.2c0-0.3,0-0.5,0.1-0.7l0.6-2.7h-1.5l0.4-1.7h1.5
					L76,23l2.6-0.7L78.2,24.7z"/>
				<path class="st2" d="M84,24.7l-1.6,7.3H80l1.6-7.3H84z M84.5,22.2l-0.3,1.3h-2.5l0.2-1.3H84.5z"/>
				<path class="st2" d="M93.2,27.9c0,2.5-1.8,4.2-4.7,4.2c-2.3,0-3.7-1.3-3.7-3.3c0-2.6,1.7-4.3,4.6-4.3
					C91.8,24.5,93.2,25.8,93.2,27.9z M89.3,26.2c-1,0-1.9,1.1-1.9,2.6c0,1,0.6,1.6,1.4,1.6c1,0,1.9-1.1,1.9-2.6
					C90.6,26.8,90.1,26.2,89.3,26.2z"/>
				<path class="st2" d="M101.5,31.9H99l0.8-3.6c0.1-0.3,0.1-0.5,0.1-0.7c0-0.7-0.4-1.1-0.9-1.1c-1,0-1.7,0.8-2,2.4l-0.6,3.1h-2.5
					l1.5-7.3h2.3l-0.3,1.3c0.8-0.9,1.7-1.4,2.8-1.4c1.5,0,2.4,0.9,2.4,2.5c0,0.5-0.1,1.1-0.3,2L101.5,31.9z"/>
			</g>
		</g>
		<g>
			<g>
				<path class="st2" d="M176,42.7c-1.3,0.4-1.3-0.7-1.3-0.7c1.1,0.2,1.2-0.7,1.2-0.7h-2.2v-1.1h1.1c0,0-0.2-1.4-1.2-1.4
					c-1,0-1.1,1.1-0.9,1.5c-0.5,0.1-1.2-0.8-1.2-1.7c0-1.3,1-1.9,1.9-1.9c1.4,0,2.5,1.6,2.5,3.6h0.4c0,0,0.1-0.9-0.1-1.8
					c-0.3-1.3-1-2.1-1-3c0-1.6,0.9-1.8,1.7-3.2c0.8,1.4,1.7,1.6,1.7,3.2c0,0.9-0.7,1.7-1,3c-0.2,0.8-0.1,1.8-0.1,1.8h0.4
					c0-1.9,1.1-3.6,2.5-3.6c0.9,0,1.9,0.7,1.9,1.9c0,1-0.7,1.8-1.2,1.7c0.2-0.4,0-1.5-0.9-1.5c-1,0-1.2,1.4-1.2,1.4h1.1v1.1h-2.2
					c0,0,0.1,0.9,1.2,0.7c0,0,0,1.1-1.3,0.7c0,0,0,1-0.8,1.4C176,43.7,176,42.7,176,42.7z M186.8,31.9h-20.2v12.4h20.2V31.9z"/>
				<path class="st2" d="M202,42.7c-1.3,0.4-1.3-0.7-1.3-0.7c1.1,0.2,1.2-0.7,1.2-0.7h-2.2v-1.1h1.1c0,0-0.2-1.4-1.2-1.4
					c-1,0-1.1,1.1-0.9,1.5c-0.5,0.1-1.2-0.8-1.2-1.7c0-1.3,1-1.9,1.9-1.9c1.4,0,2.5,1.6,2.5,3.6h0.4c0,0,0.1-0.9-0.1-1.8
					c-0.3-1.3-1-2.1-1-3c0-1.6,0.9-1.8,1.7-3.2c0.8,1.4,1.7,1.6,1.7,3.2c0,0.9-0.7,1.7-1,3c-0.2,0.8-0.1,1.8-0.1,1.8h0.4
					c0-1.9,1.1-3.6,2.5-3.6c0.9,0,1.9,0.7,1.9,1.9c0,1-0.7,1.8-1.2,1.7c0.2-0.4,0-1.5-0.9-1.5c-1,0-1.2,1.4-1.2,1.4h1.1v1.1h-2.2
					c0,0,0.1,0.9,1.2,0.7c0,0,0,1.1-1.3,0.7c0,0-0.1,1-0.8,1.4C202,43.7,202,42.7,202,42.7z M212.9,31.9h-20.2v12.4h20.2V31.9z"/>
				<path class="st2" d="M176,60.9c-1.3,0.4-1.3-0.7-1.3-0.7c1.1,0.2,1.2-0.7,1.2-0.7h-2.2v-1.1h1.1c0,0-0.2-1.4-1.2-1.4
					c-1,0-1.1,1.1-0.9,1.5c-0.5,0.1-1.2-0.8-1.2-1.7c0-1.3,1-1.9,1.9-1.9c1.4,0,2.5,1.6,2.5,3.6h0.4c0,0,0.1-0.9-0.1-1.8
					c-0.3-1.3-1-2.1-1-3c0-1.6,0.9-1.8,1.7-3.2c0.8,1.4,1.7,1.6,1.7,3.2c0,0.9-0.7,1.7-1,3c-0.2,0.8-0.1,1.8-0.1,1.8h0.4
					c0-1.9,1.1-3.6,2.5-3.6c0.9,0,1.9,0.7,1.9,1.9c0,1-0.7,1.8-1.2,1.7c0.2-0.4,0-1.5-0.9-1.5c-1,0-1.2,1.4-1.2,1.4h1.1v1.1h-2.2
					c0,0,0.1,0.9,1.2,0.7c0,0,0,1.1-1.3,0.7c0,0,0,1-0.8,1.4C176,61.9,176,60.9,176,60.9z M186.8,50.2h-20.2v12.4h20.2V50.2z"/>
				<path class="st2" d="M202,60.9c-1.3,0.4-1.3-0.7-1.3-0.7c1.1,0.2,1.2-0.7,1.2-0.7h-2.2v-1.1h1.1c0,0-0.2-1.4-1.2-1.4
					c-1,0-1.1,1.1-0.9,1.5c-0.5,0.1-1.2-0.8-1.2-1.7c0-1.3,1-1.9,1.9-1.9c1.4,0,2.5,1.6,2.5,3.6h0.4c0,0,0.1-0.9-0.1-1.8
					c-0.3-1.3-1-2.1-1-3c0-1.6,0.9-1.8,1.7-3.2c0.8,1.4,1.7,1.6,1.7,3.2c0,0.9-0.7,1.7-1,3c-0.2,0.8-0.1,1.8-0.1,1.8h0.4
					c0-1.9,1.1-3.6,2.5-3.6c0.9,0,1.9,0.7,1.9,1.9c0,1-0.7,1.8-1.2,1.7c0.2-0.4,0-1.5-0.9-1.5c-1,0-1.2,1.4-1.2,1.4h1.1v1.1h-2.2
					c0,0,0.1,0.9,1.2,0.7c0,0,0,1.1-1.3,0.7c0,0-0.1,1-0.8,1.4C202,61.9,202,60.9,202,60.9z M212.9,50.2h-20.2v12.4h20.2V50.2z"/>
			</g>
		</g>
	</g>
</g>
</svg>
