<?xml version="1.0" encoding="utf-8"?>
<!-- Generator: Adobe Illustrator 19.0.0, SVG Export Plug-In . SVG Version: 6.00 Build 0)  -->
<svg version="1.1" id="Layer_1" xmlns="http://www.w3.org/2000/svg" xmlns:xlink="http://www.w3.org/1999/xlink" x="0px" y="0px"
	 viewBox="0 0 463.6 91" style="enable-background:new 0 0 463.6 91;" xml:space="preserve">
<style type="text/css">
	.st0{fill:#FFFFFF;}
	.st1{fill-rule:evenodd;clip-rule:evenodd;fill:#FFFFFF;}
</style>
<g>
	<g>
		<path class="st0" d="M125.2,62.9l0-38.8h-0.3c-1.4,1.3-6.5,1.4-8.6,1.4h-3.7v0.3c4.3,2.7,3.7,6.6,3.7,11.5l0,16.4
			c0,8.2-8.1,14-14.6,14c-8.6,0-12.1-6.1-12.1-15.9V24.1h-0.3c-1.4,1.3-6.5,1.4-8.7,1.4h-3.7v0.3c4.3,2.7,3.7,6.6,3.7,11.5v16.4
			c0,15,6.5,22.1,18.1,22.1c6.9,0,14-2.4,17.5-8.3v7.1H129v-0.3C124.6,71.7,125.2,67.8,125.2,62.9z"/>
		<path class="st0" d="M144.9,42.2c1.2-6.7,6.1-10.9,12.7-10.9c7.1,0,11.6,3.5,12.7,10.9H144.9z M180.6,48.3
			c0.4-13.7-8.8-24-22.2-24c-14.7,0-24.6,10.6-24.6,25.4c0,14.9,11.5,26.2,28.2,26.2c4.6,0,9.4-0.7,13.6-2.6l4.9-10h-0.3
			c-4.5,3.9-10.2,5.7-16.1,5.7c-11.1,0-19.5-7.6-19.7-20.6H180.6z"/>
		<path class="st0" d="M188.4,1.6c2.4,0,7.2-0.1,8.6-1.6h0.3v67.2c2.6,0.7,5.4,1.3,8.1,1.3c10.8,0,16.9-7.5,16.9-18
			c0-10.3-4.8-18.2-14.7-18.2c-3.1,0-5.6,0.8-8.2,2.3l5.3-9c2.2-0.9,4.6-1.2,6.9-1.2c11.2,0,20.6,9.7,20.6,24.2
			c0,16.6-11.2,27.4-29,27.4c-6.6,0-13-1.2-17.9-1.9v-0.3c3.2-1.5,3-5,3-8.5V16.3c0-4.9,0.6-11.8-3.6-14.4V1.6H188.4z"/>
		<path class="st0" d="M249.8,42.2c1.2-6.7,6.1-10.9,12.7-10.9c7.1,0,11.6,3.5,12.7,10.9H249.8z M285.6,48.3
			c0.4-13.7-8.8-24-22.1-24c-14.7,0-24.6,10.6-24.6,25.4c0,14.9,11.5,26.2,28.2,26.2c4.6,0,9.4-0.7,13.6-2.6l4.9-10h-0.3
			c-4.5,3.9-10.2,5.7-16.1,5.7c-11.1,0-19.5-7.6-19.7-20.6H285.6z"/>
		<path class="st0" d="M329.6,36.5h-0.3c-2.9-3.5-7.6-5.2-12-5.2c-9.5,0-16.4,7.2-16.4,17.4c0,12.3,9.5,20.4,20.5,20.4
			c5,0,10.5-2.1,14.4-5.2h0.3l-5.1,10.1c-4.1,1.7-8.7,2.1-13,2.1c-15.2,0-27-10.7-27-24.5c0-18.3,13.2-27.1,28.1-27.1
			c3.5,0,7.2,0.4,10.6,1.3V36.5z"/>
		<path class="st1" d="M168.3,15.5c0-5,0-10.7,0-10.7c-6.5,2.9-12.4,8.3-16.4,13.6v4.2C161.5,16.1,168.3,15.8,168.3,15.5z"/>
		<path class="st0" d="M36.4,68.6c-14.9,0-25.2-16.8-25.2-31c0-0.1,0-1.5,0-1.6c0.2-13.8,9.1-26.7,24.7-26.7
			c16.4,0,24.9,15.5,25,30.2c0,0.1,0,1.4,0,1.5C60.9,56.7,51.2,68.6,36.4,68.6z M87.4,84.9c-11,1.8-21.5-1.7-32.7-14.5
			c10.8-5.4,17.5-19,17.5-31.6c0-0.1,0-1.4,0-1.6C72,15.8,55.8,1.6,36.5,1.6C17.2,1.6,0.1,16.4,0,38c0,0.1,0,1.4,0,1.5
			c0,21.1,15.7,36.8,34.9,36.8c2.8,0,5.4-0.4,8.1-1.1C55.5,87,66.7,92,76.4,90.8c4.6-0.6,9.4-2.4,12.4-6.2L87.4,84.9z"/>
	</g>
</g>
<path class="st1" d="M353.6,1.6V31h48V1.6H353.6z M389.3,18.5c-0.6,1.8-1.6,2.4-1.9,2.4c0,0,0.5-2-1-3c-1.4-1-3.1-0.4-3.8,0.8
	c-0.7,1.1-0.9,2.6-0.9,2.6h2.5v1.9l-5,0c0,0,0.1,2.6,2.9,2.4c0,0-0.3,2.1-2.9,1c0,0,0.1,2.2-1.6,3.2c-1.8-1.1-1.6-3.2-1.6-3.2
	c-2.5,1.1-2.9-1-2.9-1c2.8,0.3,2.9-2.4,2.9-2.4l-5,0v-1.9h2.5c0,0-0.1-1.5-0.9-2.6c-0.8-1.2-2.5-1.7-3.8-0.8c-1.5,1-1,3-1,3
	c-0.3,0-1.3-0.6-1.9-2.4c-1.1-3.5,2.3-6.8,5.8-4.9c2.4,1.4,3.5,4.4,3.5,7.7h1.3c0-0.2,0.3-2.6-0.2-4.4c-0.4-1.4-0.9-2.8-1.7-4.6
	c-0.7-1.5-1-4.1,0.5-6c1.3-1.7,2.1-2.6,2.5-3.2c0.4,0.6,1.1,1.6,2.5,3.2c1.5,1.9,1.3,4.5,0.5,6c-0.8,1.7-1.3,3.2-1.7,4.6
	c-0.5,1.8-0.2,4.2-0.2,4.4h1.3c0-3.2,1-6.3,3.5-7.7C387,11.7,390.4,15.1,389.3,18.5z"/>
<path class="st1" d="M415.6,1.6V31h48V1.6H415.6z M451.3,18.5c-0.6,1.8-1.6,2.4-1.9,2.4c0,0,0.5-2-1-3c-1.4-1-3.1-0.4-3.8,0.8
	c-0.7,1.1-0.9,2.6-0.9,2.6h2.5v1.9l-5,0c0,0,0.1,2.6,2.9,2.4c0,0-0.3,2.1-2.9,1c0,0,0.1,2.2-1.6,3.2c-1.8-1.1-1.6-3.2-1.6-3.2
	c-2.5,1.1-2.9-1-2.9-1c2.8,0.3,2.9-2.4,2.9-2.4l-5,0v-1.9h2.5c0,0-0.1-1.5-0.9-2.6c-0.8-1.2-2.5-1.7-3.8-0.8c-1.5,1-1,3-1,3
	c-0.3,0-1.3-0.6-1.9-2.4c-1.1-3.5,2.3-6.8,5.8-4.9c2.5,1.4,3.5,4.4,3.5,7.7h1.3c0-0.2,0.3-2.6-0.2-4.4c-0.4-1.4-0.9-2.8-1.7-4.6
	c-0.7-1.5-1-4.1,0.5-6c1.3-1.7,2.1-2.6,2.5-3.2c0.3,0.6,1.1,1.6,2.4,3.2c1.5,1.9,1.3,4.5,0.5,6c-0.8,1.7-1.3,3.2-1.7,4.6
	c-0.5,1.8-0.2,4.2-0.2,4.4h1.3c0-3.2,1-6.3,3.5-7.7C448.9,11.7,452.4,15.1,451.3,18.5z"/>
<path class="st1" d="M353.6,45v29.4h48V45H353.6z M389.3,62c-0.6,1.8-1.6,2.4-1.9,2.4c0,0,0.5-2-1-3c-1.4-1-3.1-0.4-3.8,0.8
	c-0.7,1.1-0.9,2.6-0.9,2.6h2.5v1.8h-5c0,0,0.1,2.6,2.9,2.4c0,0-0.3,2.1-2.9,1c0,0,0.1,2.2-1.6,3.2c-1.8-1.1-1.6-3.2-1.6-3.2
	c-2.5,1.1-2.9-1-2.9-1c2.8,0.2,2.9-2.4,2.9-2.4h-5v-1.8h2.5c0,0-0.1-1.5-0.9-2.6c-0.8-1.1-2.5-1.7-3.8-0.8c-1.5,1-1,3-1,3
	c-0.3,0-1.3-0.6-1.9-2.4c-1.1-3.5,2.3-6.8,5.8-4.9c2.4,1.4,3.5,4.4,3.5,7.7h1.3c0-0.2,0.3-2.6-0.2-4.4c-0.4-1.4-0.9-2.8-1.7-4.6
	c-0.7-1.5-1-4.1,0.5-6c1.3-1.7,2.1-2.6,2.5-3.2c0.4,0.6,1.1,1.6,2.5,3.2c1.5,1.9,1.3,4.5,0.5,6c-0.8,1.7-1.3,3.2-1.7,4.6
	c-0.5,1.8-0.2,4.2-0.2,4.4h1.3c0-3.2,1-6.3,3.5-7.7C387,55.1,390.4,58.5,389.3,62z"/>
<path class="st1" d="M415.6,45v29.4h48V45H415.6z M451.3,62c-0.6,1.8-1.6,2.4-1.9,2.4c0,0,0.5-2-1-3c-1.4-1-3.1-0.4-3.8,0.8
	c-0.7,1.1-0.9,2.6-0.9,2.6h2.5v1.8h-5c0,0,0.1,2.6,2.9,2.4c0,0-0.3,2.1-2.9,1c0,0,0.1,2.2-1.6,3.2c-1.8-1.1-1.6-3.2-1.6-3.2
	c-2.5,1.1-2.9-1-2.9-1c2.8,0.2,2.9-2.4,2.9-2.4h-5v-1.8h2.5c0,0-0.1-1.5-0.9-2.6c-0.8-1.1-2.5-1.7-3.8-0.8c-1.5,1-1,3-1,3
	c-0.3,0-1.3-0.6-1.9-2.4c-1.1-3.5,2.3-6.8,5.8-4.9c2.5,1.4,3.5,4.4,3.5,7.7h1.3c0-0.2,0.3-2.6-0.2-4.4c-0.4-1.4-0.9-2.8-1.7-4.6
	c-0.7-1.5-1-4.1,0.5-6c1.3-1.7,2.1-2.6,2.5-3.2c0.3,0.6,1.1,1.6,2.4,3.2c1.5,1.9,1.3,4.5,0.5,6c-0.8,1.7-1.3,3.2-1.7,4.6
	c-0.5,1.8-0.2,4.2-0.2,4.4h1.3c0-3.2,1-6.3,3.5-7.7C448.9,55.1,452.4,58.5,451.3,62z"/>
</svg>
