<?xml version="1.0" encoding="utf-8"?>
<!-- Generator: Adobe Illustrator 18.1.1, SVG Export Plug-In . SVG Version: 6.00 Build 0)  -->
<svg version="1.1" id="Layer_1" xmlns="http://www.w3.org/2000/svg" xmlns:xlink="http://www.w3.org/1999/xlink" x="0px" y="0px"
	 viewBox="0 0 250 140" enable-background="new 0 0 250 140" xml:space="preserve">
<g>
	<path fill="#49434D" d="M134,63.1c3-3.2,7.3-5.1,11.7-5.2c3.4-0.1,6.9,0.6,9.8,2.3c2.8,1.6,5.1,4.1,6.4,7.1c1,2.3,1.5,4.8,1.6,7.3
		c0,6.5,0,12.9,0,19.4c0,0.9-0.7,1.7-1.6,1.7c-0.6,0-1.3,0-1.9,0c-0.9,0-1.7-0.8-1.6-1.7c0-5.8,0-11.5,0-17.3c0-1.5,0-3.1-0.3-4.6
		c-0.6-2.7-2-5.2-4.2-6.8c-2.6-2-6-2.7-9.3-2.3c-5.2,0.7-9.5,5-10.4,10.1c-0.3,1.3-0.2,2.7-0.2,4c0,5.5,0,11,0,16.5
		c0,0.6-0.1,1.3-0.6,1.7c-0.7,0.6-1.7,0.3-2.6,0.4c-1,0.2-2-0.7-1.9-1.7c0-11.2,0-22.4,0-33.6c0-0.9,0.8-1.8,1.7-1.7
		c0.6,0,1.3,0,1.9,0c0.9,0.1,1.5,0.9,1.5,1.7C134.1,61.3,134,62.2,134,63.1L134,63.1z"/>
	<path fill="#49434D" d="M205.4,69.1c-1.7-4-4.8-7.3-8.7-9.2c-3.2-1.6-6.9-2.2-10.5-2c-5.5,0.4-10.8,3.2-14,7.7
		c-2.5,3.4-3.7,7.7-3.6,11.9c0,4,1.2,8,3.6,11.3c2,2.8,4.8,5,8,6.3c4.2,1.7,9,1.9,13.3,0.7c3.8-1.1,7.2-3.4,9.6-6.5
		C207.4,83.6,208.2,75.6,205.4,69.1z M201.3,81.5c-0.9,3.1-2.8,5.8-5.4,7.6c-3.3,2.3-7.5,2.9-11.4,2c-3.2-0.8-6-2.7-7.9-5.3
		c-3.8-5.1-3.7-12.7,0.2-17.7c2.1-2.7,5.3-4.5,8.7-5.1c3.5-0.6,7.3,0.2,10.2,2.2c2.3,1.5,4,3.7,5.1,6.2
		C202,74.6,202.2,78.2,201.3,81.5z"/>
	<path fill="#49434D" d="M248.1,43.3c-0.9,0-1.9-0.2-2.7,0.5c-0.5,0.4-0.6,1.2-0.6,1.8c0,6.1,0,12.1,0,18.2
		c-3.8-4.1-9.6-6.2-15.2-5.8c-5.7,0.2-11.2,3-14.5,7.6c-4.4,6.1-4.9,14.8-1.2,21.5c2.5,4.6,7,7.9,12.1,9c5.1,1.2,10.7,0.4,15.2-2.4
		c1.3-0.8,2.5-1.8,3.6-3c0,1.1,0,2.3,0,3.4c0,0.8,0.7,1.6,1.5,1.6c0.8,0,1.5,0.1,2.3,0c0.7-0.1,1.1-0.8,1.3-1.4V44.8
		C249.9,43.9,249,43.2,248.1,43.3z M241.9,86.3c-1.5,2-3.6,3.5-5.9,4.3c-3.2,1.2-6.8,1.2-9.9,0.1c-2.7-1-5-2.7-6.7-5.1
		c-3.7-5.2-3.5-12.9,0.7-17.8c2.1-2.5,5.1-4.2,8.4-4.7c2.7-0.4,5.6-0.1,8.1,1c2.7,1.2,5,3.3,6.5,5.8C245.8,75,245.4,81.7,241.9,86.3
		z"/>
	<path fill="#49434D" d="M111.4,92.4c-1.3-4-3.1-7.8-5.2-11.4c-3.8-6.6-8.6-12.6-14.5-17.4c-4.5-3.6-9.9-6.6-15.8-7
		c-1.8-5.9-3.5-11.9-5.9-17.6c-1.5-3.4-3.3-6.8-6-9.4c-2.1-2-5-3.3-7.9-3.5h-2.3c-5,0.5-9.6,2.8-13.8,5.3
		c-5.2,3.1-9.9,6.9-14.1,11.2c-3.4,3.5-6.6,7.3-9.3,11.4c-0.2,0.3-0.5,0.5-0.9,0.6c-3.3,1.6-6.6,3.4-9.4,5.8c-3,2.5-5.8,5.7-6.3,9.8
		v1.6c0.2,1.6,0.9,3.2,2,4.4c1.8,2,4.5,3.1,7.1,3.8c0.5,2,1.4,3.8,2.7,5.4c2,2.4,4.9,4.1,7.8,5.1c4.4,1.5,9.1,1.8,13.7,1.8
		c4.8-0.1,9.6-0.6,14.4-1.4c11.3-1.7,22.7-2.9,34.1-2.1c1.2,4.4,2.5,8.8,4.4,13c1.5,3.3,3.4,6.6,6.3,9c2.4,2,5.4,3,8.4,3.2h3.3
		c1.8-0.2,3.6-0.8,5.1-1.9c2.2-1.6,3.3-4.3,3.7-6.9C113.5,100.8,112.7,96.5,111.4,92.4z M91.4,66.9c6.1,5.4,11,12.1,14.6,19.4
		c1.5,3,2.7,6.1,3.6,9.4c-3.7-4.1-8.9-6.3-14.1-7.7c-2.2-4-4.5-8-7.6-11.4c-2.7-2.9-5.5-5.6-8.4-8.3c-0.2-0.2-0.3-0.5-0.4-0.7
		c-0.8-2.8-1.6-5.5-2.4-8.2C82.2,60.2,87.2,63.3,91.4,66.9z M75.5,65.1c-2-1.7-4.2-3.3-6.4-4.7c1.5-0.5,3.1-0.9,4.6-1
		C74.4,61.3,75,63.2,75.5,65.1z M43.6,32.4c3.6-1.9,7.5-3.7,11.7-3.6c2.6,0,5.1,1.1,6.9,2.9c2.3,2.3,3.9,5.2,5.2,8.1
		c2.3,5.4,4,11.2,5.6,16.8c-2.3,0.2-4.5,0.8-6.5,1.9c-6.7-4.2-14.2-7.4-22.1-8.6c-7.8-1.3-16-0.4-23.4,2.4
		C27.1,44.3,34.7,37.3,43.6,32.4z M8.6,77c-2-0.6-4-1.6-5.1-3.3c-0.9-1.3-1-3-0.5-4.5c0.6-1.9,1.9-3.6,3.3-5.1
		c2.2-2.2,4.8-4,7.5-5.5C10.6,64.2,8.2,70.5,8.6,77z M11.4,77.6c-0.3-2.4-0.1-4.8,0.5-7.2c1.2-5,3.6-9.7,6.4-14
		c4.4-2,9.1-3.4,13.9-4c5.7-0.7,11.6-0.2,17.2,1.4c5.1,1.4,10,3.6,14.6,6.3c-7,4.3-14.3,8.2-21.9,11.4c-7.1,2.9-14.5,5.3-22.2,6.1
		C17,78,14.2,78,11.4,77.6z M48,88C42,89,36,89.7,30,89.5c-3.5-0.2-7-0.6-10.2-1.9c-3.4-1.3-6.4-3.7-7.7-7.2
		c7.6,0.7,15.1-0.9,22.3-3.2c11.3-3.7,21.9-9.2,32-15.5c3.7,2.4,7.2,5.1,10.5,8c1.5,5.4,2.8,10.8,4.3,16.2C70,85.3,58.9,86.4,48,88z
		 M80.6,73.1c2.7,2.6,5.5,5.2,7.7,8.3c1.3,1.8,2.5,3.8,3.6,5.7c-2.6-0.5-5.3-0.9-7.9-1.1C82.8,81.8,81.7,77.5,80.6,73.1z M107,110.3
		c-1.4,0.8-3,1-4.6,1c-2.4-0.1-4.8-0.5-6.9-1.8c-2.9-1.8-4.8-4.7-6.3-7.6c-2-4.1-3.3-8.5-4.6-12.9c3,0.3,6,0.8,8.9,1.5
		c2.1,3.8,4.3,7.7,7.1,11.1c1.7,2,3.5,4,5.8,5.2c0.9,0.5,2,0.9,3.1,0.8C109.1,108.6,108.2,109.6,107,110.3z M109.7,104.7
		c-0.7,0.1-1.4-0.2-2-0.5c-1.9-1-3.5-2.7-4.9-4.4c-2.2-2.6-3.9-5.5-5.6-8.5c3.5,1.2,6.9,2.8,9.5,5.3c1.8,1.8,3.2,4.1,3.4,6.7
		C110.2,103.8,110.2,104.5,109.7,104.7z"/>
</g>
</svg>
