<?xml version="1.0" encoding="utf-8"?>
<!-- Generator: Adobe Illustrator 18.1.1, SVG Export Plug-In . SVG Version: 6.00 Build 0)  -->
<svg version="1.1" id="Layer_1" xmlns="http://www.w3.org/2000/svg" xmlns:xlink="http://www.w3.org/1999/xlink" x="0px" y="0px"
	 viewBox="0 0 250 140" enable-background="new 0 0 250 140" xml:space="preserve">
<g>
	<path fill="#49434D" d="M133.8,2.1c5.5-2.3,12.2,0.9,14.1,6.5c2.2,5.7-1.6,12.8-7.7,14c-4.2,0.5-8.4,0.6-12.5,1.8
		c-11.5,3.7-23.7,5-35.8,4.6c-4-0.2-8.4,0.8-11.1,3.9c-3.9,4.6-3.9,11.8-0.6,16.7c2.4,3.5,6.8,5.1,11,5.2c13.4,0.1,26.7,0,40.1,0.1
		c3.9,0.1,7.4,3.6,7.4,7.6c0.3,4.1-3.2,8-7.3,8c-13.1,0.1-26.2,0-39.3,0c-8.7,0.3-17.6-3.4-23.3-10.1c-8-9.6-8.6-24.5-1.7-34.9
		c3.7-5.8,9.8-9.9,16.6-11.3c5-1.2,10.2-0.5,15.3-0.7c7.8-0.4,15.6-1.2,23.1-3.6C126.4,8.2,129.5,4.2,133.8,2.1L133.8,2.1z"/>
	<path fill="#49434D" d="M89.8,34.2c13.3-0.2,26.6,0,39.9-0.1c9.3-0.1,18.8,4.1,24.3,11.8c7.2,10.1,7,24.9-0.6,34.8
		c-5.2,7.2-14.2,10.8-23,10.5c-10-0.3-20.2,0.5-29.9,3.2c-4.3,1.3-7.6,4.5-11.2,7.1c-5.2,3.6-13.1,1.1-15.5-4.7
		C71,91,74.7,83.3,81,82c4.2-0.6,8.5-0.5,12.5-1.8c11.9-3.8,24.4-5,36.8-4.7c3.8,0.2,7.9-1.1,10.4-4.1c3.7-4.7,3.6-11.7,0.3-16.6
		c-2.6-3.6-7.2-5.1-11.4-5.1c-13.1,0-26.2,0-39.3,0c-4.2,0.1-7.9-3.8-7.6-8C82.7,37.9,85.9,34.4,89.8,34.2L89.8,34.2z"/>
	<path fill="#49434D" d="M18.2,113.8c2.9-0.7,6-0.4,8.8,0.5c1.1,0.2,1.3,2.2,0.2,2.5c-2.8,0-5.6-1.1-8.3-0.3
		c-2.5,0.7-3.4,4.3-1.7,6.1c3,2.1,6.9,2.6,9.6,5c2.7,3.1,1.5,8.9-2.5,10.4c-3.3,1.1-7.2,0.8-10.4-0.7c0.1-0.4,0.1-1.3,0.2-1.8
		c3-0.7,6.2,1.2,9.2-0.1c2.6-0.9,3.2-5.2,0.7-6.5c-2.8-1.6-6.2-2.3-8.8-4.4C12,121.3,13.7,114.8,18.2,113.8L18.2,113.8z"/>
	<path fill="#49434D" d="M137.6,113.7c3-0.5,6.4-0.4,9.2,0.9c0,0.5,0,1.4,0,1.9c-2.9,0.6-5.9-1.1-8.8-0.1c-2.7,0.5-3.7,4.5-1.8,6.3
		c2.6,1.7,5.7,2.4,8.4,3.9c4.1,2.4,3.2,9.6-1.2,11.2c-3.1,1.1-6.7,0.8-9.7-0.3c-1.3-0.3-0.5-1.6-0.3-2.4c2.8,0,5.7,1.3,8.5,0.4
		c2.6-0.6,3.6-4.4,1.8-6.2c-3-2.1-6.9-2.5-9.7-5C131,120.8,133,114.5,137.6,113.7L137.6,113.7z"/>
	<path fill="#49434D" d="M112.6,115.5c-0.2-1.6,1.1-2.6,2.5-1.6c0.3,2.6,0.2,5.3,0.1,8c2.3-1,4.8-2,7.4-1.3c2.7,0.5,4.8,3.1,4.9,5.8
		c0.3,4,0.1,8,0,12.1c-0.6-0.1-1.7-0.4-2.3-0.5c-1-4.3,0.6-9-0.9-13.1c-2.2-3.1-6.5-1.4-8.9,0.5c0,4.4,0.1,8.8-0.1,13.2
		c-0.6-0.1-1.8-0.4-2.4-0.5C112.3,130.5,112.7,123,112.6,115.5L112.6,115.5z"/>
	<path fill="#49434D" d="M34.3,120.5c0.4-1.9-0.9-5,1.4-5.9c2.3,1,1,4.1,1.4,6c1.9,0.4,5.4-1,5.6,1.9c-1.5,1.4-3.8,0.7-5.7,0.9
		c0.1,3.5-0.4,7.1,0.3,10.6c0.6,2.5,3.6,1.6,5.4,1.7c1.5-0.6,1.8,2.1,0.5,2.3c-3,1.4-7.4,0.5-8.5-3c-0.9-3.7-0.3-7.6-0.4-11.4
		c-1.3-0.3-2.6-0.3-3.7-1C30.2,120.2,32.8,120.8,34.3,120.5L34.3,120.5z"/>
	<path fill="#49434D" d="M82,120.5c0.1-2.2-0.3-4.7,1.4-6.4c1.8,1.7,1.3,4.3,1.4,6.5c1.6,0,3.3,0,4.9,0.2c0.5,0.8,0.2,1.7,0.2,2.6
		c-1.7,0-3.5,0-5.2,0c0.2,3.7-0.5,7.6,0.5,11.2c1.4,2.1,4.4,0.7,6.5,1.3c0.6,2.6-2.6,2.9-4.5,2.8c-2.3-0.1-4.4-1.8-4.9-4.1
		c-0.6-3.6-0.2-7.3-0.3-10.9c-1.2-0.3-2.6-0.3-3.7-1C78,120.3,80.5,120.8,82,120.5L82,120.5z"/>
	<path fill="#49434D" d="M47.8,120.9c3.6,0.2,7.5-1.4,10.7,0.8c-0.3,0.4-1,1.3-1.3,1.7c-2.3-0.1-4.7-0.1-6.9,0.7
		c-0.2,4.6,0.2,9.2-0.2,13.7c-0.6,0.2-1.8,0.5-2.4,0.7C47.5,132.6,47.4,126.7,47.8,120.9L47.8,120.9z"/>
	<path fill="#49434D" d="M100,120.8c2.3-0.7,5-0.7,7.2,0.3c1.3,0.5,0.6,1.6,0.2,2.4c-2.5,0-5.2-1.1-7.4,0.3c-3.9,2.3-3.9,9,0,11.3
		c2.2,1.3,4.9,0.3,7.3,0.4c0.8,0.6,1,2-0.1,2.4c-3.2,1.3-7.4,1-10-1.4C92.5,132.1,93.7,122.9,100,120.8L100,120.8z"/>
	<path fill="#49434D" d="M174.9,121.7c3-1.5,7.1-2.1,9.8,0.4c2.3,2.4,1.7,5.9,1.8,8.9c-0.2,2.4,0.4,5-0.5,7.3c-0.5,0-1.4,0-1.9-0.1
		c-1.1-4.5,0.6-9.4-1-13.8c-2.3-2.5-6.8-1.2-8.6,1.2c-0.3,3.6,0,7.3-0.1,10.9c0.4,1.6-1.4,1.9-2.6,1.9c-0.2-5.9-0.3-11.9,0-17.8
		C172.9,120.8,173.9,121.2,174.9,121.7L174.9,121.7z"/>
	<path fill="#49434D" d="M193.3,121.5c2.4-1.6,5.6-1.2,8.3-0.7c1.5,0,1.5,1.6,1.5,2.7c-2.6,0-5.4-1.1-8,0c-1.4,0.5-1.8,3-0.2,3.6
		c2.2,1,4.6,1.4,6.7,2.6c2.6,1.7,2.4,6.1-0.2,7.7c-2.5,1.6-5.7,1.2-8.5,0.7c-1.5,0-1.3-1.7-1.4-2.7c2.6,0,5.4,1.1,7.9,0
		c1.3-0.4,1.5-1.8,1.2-3c-2.3-1.9-5.8-1.7-8.1-3.6C190.6,126.9,190.9,123,193.3,121.5L193.3,121.5z"/>
	<path fill="#49434D" d="M66.6,135.7c-2.2-0.6-3-2.8-3.8-4.6c4.4-0.4,8.8-0.5,13.2-0.9c0-2.2,0-4.6-1.3-6.5
		c-2.6-4.4-9.9-4.3-12.7-0.1c-1.9,2.7-1.9,6.4-1.2,9.6c1,4,5.4,6.2,9.4,5.6c1.6-0.3,4.4-0.4,3.7-2.7C71.7,134.8,69,136.7,66.6,135.7
		z M64.9,124.1c2-1.5,5-1.7,6.9,0c0.9,1,1.3,2.4,1.8,3.6c-3.6,0.3-7.3,0.6-11,0.7C63.3,126.9,63.7,125.1,64.9,124.1z"/>
	<path fill="#49434D" d="M162.7,121c-3.9-1.7-9-0.1-10.6,4c-1.3,3.9-1.2,9.2,2.4,11.9c3.1,2.4,7.5,1.9,10.9,0.3
		c-0.8-3.3-4.1-0.6-6.4-1.2c-2.8-0.1-4.6-2.5-5.2-5.1c4.3-0.4,8.6-0.3,12.9-0.9C167.6,126.6,166.1,122.4,162.7,121z M153.7,128.4
		c0.5-1.5,0.8-3.2,2.1-4.3c1.9-1.6,5-1.8,7-0.1c1.1,1,1.3,2.4,1.8,3.7C161,128,157.4,128.3,153.7,128.4z"/>
	<path fill="#49434D" d="M221.7,123.4c-2.5-3.9-8.8-4.1-11.9-0.8c-2.7,2.9-2.7,7.2-1.7,10.8c1.6,4.9,7.9,6.4,12.3,4.3
		c1.3-0.3,0.5-1.5,0.3-2.3c-2.6,0.3-5.3,1.4-7.8,0c-1.7-0.8-2.3-2.7-2.9-4.4c4.4-0.3,8.8-0.4,13.1-0.9
		C223.2,127.8,223,125.3,221.7,123.4z M209.8,128.4c0.5-1.2,0.7-2.5,1.4-3.6c1.8-2.3,5.5-2.6,7.7-0.8c1,1,1.3,2.4,1.8,3.7
		C217.1,128,213.5,128.3,209.8,128.4z"/>
	<g>
		<path fill="#49434D" d="M226.6,118.3v-5.7h-2v-1.2h5.5v1.2h-2v5.7H226.6z"/>
		<path fill="#49434D" d="M230.9,118.3v-6.9h2.1l1.2,4.7l1.2-4.7h2.1v6.9h-1.3v-5.4l-1.4,5.4h-1.3l-1.4-5.4v5.4H230.9z"/>
	</g>
</g>
</svg>
