<?xml version="1.0" encoding="utf-8"?>
<!-- Generator: Adobe Illustrator 18.1.1, SVG Export Plug-In . SVG Version: 6.00 Build 0)  -->
<svg version="1.1" id="Layer_1" xmlns="http://www.w3.org/2000/svg" xmlns:xlink="http://www.w3.org/1999/xlink" x="0px" y="0px"
	 viewBox="0 0 200 200" enable-background="new 0 0 200 200" xml:space="preserve">
<g>
	<g>
		<path fill="#49434D" d="M141.4,134.9c-0.4,0-0.8-0.1-1.2-0.3c-1.2-0.7-1.6-2.2-0.9-3.4c4.5-7.8,7.3-16.1,8.3-24.7
			c1-8.7-0.2-17.5-3.7-26.4c-1-2.7-2.4-5.4-3.7-7.9c-0.3-0.6-0.7-1.3-1-1.9c-0.6-1.2-0.1-2.7,1.1-3.3c1.2-0.6,2.7-0.1,3.3,1.1
			c0.3,0.6,0.6,1.3,1,1.9c1.4,2.7,2.8,5.5,3.9,8.4c3.7,9.6,5.1,19.3,4,28.7c-1.1,9.2-4.1,18.2-8.9,26.6
			C143.1,134.5,142.3,134.9,141.4,134.9z"/>
		<path fill="#49434D" d="M153,145.5c-0.6,0-1.1-0.2-1.6-0.6c-1.1-0.9-1.2-2.5-0.3-3.5c5.1-6,8.7-13.4,11.2-22.4
			c1.5-5.7,2.3-11.8,2.3-19c-0.1-13.3-3.6-25.2-10.3-35.5c-0.9-1.5-2-2.8-3.3-4.4c-0.9-1.1-0.7-2.6,0.4-3.5c1.1-0.9,2.6-0.7,3.5,0.4
			c1.3,1.6,2.5,3.1,3.6,4.8c7.2,11.1,10.9,24,11.1,38.2c0,7.7-0.8,14.2-2.5,20.3c-2.6,9.7-6.6,17.7-12.2,24.3
			C154.4,145.2,153.7,145.5,153,145.5z"/>
		<path fill="#49434D" d="M141.4,134.9c-0.4,0-0.8-0.1-1.2-0.3c-1.2-0.7-1.6-2.2-0.9-3.4c4.5-7.8,7.3-16.1,8.3-24.7
			c1-8.7-0.2-17.5-3.7-26.4c-1-2.7-2.4-5.4-3.7-7.9c-0.3-0.6-0.7-1.3-1-1.9c-0.6-1.2-0.1-2.7,1.1-3.3c1.2-0.6,2.7-0.1,3.3,1.1
			c0.3,0.6,0.6,1.3,1,1.9c1.4,2.7,2.8,5.5,3.9,8.4c3.7,9.6,5.1,19.3,4,28.7c-1.1,9.2-4.1,18.2-8.9,26.6
			C143.1,134.5,142.3,134.9,141.4,134.9z"/>
		<path fill="#49434D" d="M130.3,121c-0.4,0-0.9-0.1-1.3-0.3c-1.2-0.7-1.6-2.2-0.9-3.4c2.1-3.5,3.5-7.4,4.2-11.5
			c1.3-7.1-0.1-14.1-4.1-21.5c-0.7-1.2-0.2-2.7,1-3.4c1.2-0.7,2.7-0.2,3.4,1c4.6,8.5,6.1,16.6,4.7,24.8c-0.8,4.7-2.5,9.1-4.9,13.2
			C132,120.6,131.2,121,130.3,121z"/>
	</g>
	<path fill="#49434D" d="M100,200C44.9,200,0,155.1,0,100C0,44.9,44.9,0,100,0s100,44.9,100,100C200,155.1,155.1,200,100,200z
		 M100,5C47.6,5,5,47.6,5,100c0,52.4,42.6,95,95,95s95-42.6,95-95C195,47.6,152.4,5,100,5z"/>
	<g>
		<path fill="#49434D" d="M106.2,156.3H55.6c-5.8,0-10.4-4.7-10.4-10.4V55.7c0-5.8,4.7-10.4,10.4-10.4h50.6
			c5.8,0,10.4,4.7,10.4,10.4v90.1C116.7,151.6,112,156.3,106.2,156.3z M55.6,50.2c-3,0-5.5,2.5-5.5,5.5v90.1c0,3,2.5,5.5,5.5,5.5
			h50.6c3,0,5.5-2.5,5.5-5.5V55.7c0-3-2.5-5.5-5.5-5.5H55.6z"/>
		<path fill="#49434D" d="M100.4,137.1h-39c-4.7,0-8.5-3.8-8.5-8.5V74.4c0-4.7,3.8-8.5,8.5-8.5h39c4.7,0,8.5,3.8,8.5,8.5v54.3
			C108.9,133.3,105.1,137.1,100.4,137.1z M61.4,70.9c-1.9,0-3.5,1.6-3.5,3.5v54.3c0,1.9,1.6,3.5,3.5,3.5h39c1.9,0,3.5-1.6,3.5-3.5
			V74.4c0-1.9-1.6-3.5-3.5-3.5H61.4z"/>
		<g>
			<path fill="#49434D" d="M88.7,60.7H65.8c-0.7,0-1.3-0.6-1.3-1.3v-1.7c0-0.7,0.6-1.3,1.3-1.3h22.9c0.7,0,1.3,0.6,1.3,1.3v1.7
				C90.1,60.1,89.5,60.7,88.7,60.7z"/>
			<path fill="#49434D" d="M96,60.7h-1c-0.7,0-1.3-0.6-1.3-1.3v-1.7c0-0.7,0.6-1.3,1.3-1.3h1c0.7,0,1.3,0.6,1.3,1.3v1.7
				C97.4,60.1,96.8,60.7,96,60.7z"/>
		</g>
	</g>
</g>
<g>
	<path fill="none" stroke="#49434D" stroke-width="5" stroke-linecap="round" stroke-miterlimit="10" d="M219.2,3326.3
		c1.7,3.4,3.4,6.7,4.8,10.1c3.5,8.9,5,18.1,3.8,27.7c-1.1,9.2-4,17.8-8.6,25.8"/>
	<path fill="none" stroke="#49434D" stroke-width="5" stroke-linecap="round" stroke-miterlimit="10" d="M230.8,3400.5
		c5.8-6.9,9.4-14.9,11.7-23.5c1.7-6.2,2.4-12.6,2.4-19.8c-0.1-12.9-3.3-25.6-10.7-37.1c-1-1.6-2.2-3.1-3.4-4.6"/>
	<path fill="none" stroke="#49434D" stroke-width="5" stroke-linecap="round" stroke-miterlimit="10" d="M219.2,3389.9
		c4.6-8,7.6-16.6,8.6-25.8c1.1-9.5-0.4-18.8-3.8-27.7c-1.4-3.5-3.1-6.8-4.8-10.1"/>
	<path fill="none" stroke="#49434D" stroke-width="5" stroke-linecap="round" stroke-miterlimit="10" d="M208,3375.9
		c2.3-3.8,3.8-8,4.6-12.4c1.5-8.3-0.4-16-4.4-23.3"/>
</g>
<circle fill="none" stroke="#49434D" stroke-width="5" stroke-miterlimit="10" cx="177.8" cy="3357.6" r="98"/>
<g>
	<path fill="none" stroke="#49434D" stroke-width="5" stroke-miterlimit="10" d="M183.8,3411.3h-50.9c-4.4,0-8-3.6-8-8v-90.6
		c0-4.4,3.6-8,8-8h50.9c4.4,0,8,3.6,8,8v90.6C191.8,3407.7,188.2,3411.3,183.8,3411.3z"/>
	<path fill="none" stroke="#49434D" stroke-width="5" stroke-miterlimit="10" d="M178,3392.1h-39.1c-3.3,0-6-2.7-6-6v-54.6
		c0-3.3,2.7-6,6-6H178c3.3,0,6,2.7,6,6v54.6C184,3389.4,181.3,3392.1,178,3392.1z"/>
	<g>
		<path fill="#49434D" d="M166.2,3317.8h-23.1c-0.7,0-1.3-0.6-1.3-1.3v-1.7c0-0.7,0.6-1.3,1.3-1.3h23.1c0.7,0,1.3,0.6,1.3,1.3v1.7
			C167.6,3317.2,167,3317.8,166.2,3317.8z"/>
		<path fill="#49434D" d="M173.6,3317.8h-1c-0.7,0-1.3-0.6-1.3-1.3v-1.7c0-0.7,0.6-1.3,1.3-1.3h1c0.7,0,1.3,0.6,1.3,1.3v1.7
			C174.9,3317.2,174.3,3317.8,173.6,3317.8z"/>
	</g>
</g>
</svg>
