<?xml version="1.0" encoding="utf-8"?>
<!-- Generator: Adobe Illustrator 18.1.1, SVG Export Plug-In . SVG Version: 6.00 Build 0)  -->
<svg version="1.1" id="Layer_1" xmlns="http://www.w3.org/2000/svg" xmlns:xlink="http://www.w3.org/1999/xlink" x="0px" y="0px"
	 viewBox="0 0 200 200" enable-background="new 0 0 200 200" xml:space="preserve">
<path fill="#FFFFFF" d="M100,200C44.9,200,0,155.1,0,100S44.9,0,100,0s100,44.9,100,100S155.1,200,100,200z M100,5
	C47.6,5,5,47.6,5,100s42.6,95,95,95c52.4,0,95-42.6,95-95S152.4,5,100,5z"/>
<g>
	<path fill="#FFFFFF" d="M72.5,191.6c-1.4,0-2.5-1.1-2.5-2.5v-10.9c0-1.4,1.1-2.5,2.5-2.5s2.5,1.1,2.5,2.5v10.9
		C75,190.5,73.9,191.6,72.5,191.6z M72.5,169.7c-1.4,0-2.5-1.1-2.5-2.5v-10.9c0-1.4,1.1-2.5,2.5-2.5s2.5,1.1,2.5,2.5v10.9
		C75,168.6,73.9,169.7,72.5,169.7z M72.5,147.8c-1.4,0-2.5-1.1-2.5-2.5v-10.9c0-1.4,1.1-2.5,2.5-2.5s2.5,1.1,2.5,2.5v10.9
		C75,146.7,73.9,147.8,72.5,147.8z M72.5,125.9c-1.4,0-2.5-1.1-2.5-2.5v-10.9c0-1.4,1.1-2.5,2.5-2.5s2.5,1.1,2.5,2.5v10.9
		C75,124.8,73.9,125.9,72.5,125.9z M72.5,104.1c-1.4,0-2.5-1.1-2.5-2.5V90.6c0-1.4,1.1-2.5,2.5-2.5s2.5,1.1,2.5,2.5v10.9
		C75,102.9,73.9,104.1,72.5,104.1z"/>
	<path fill="#FFFFFF" d="M72.5,78.2c-1.4,0-2.5-1.1-2.5-2.5v-6.5c0-1.3,0.7-2.5,2-2.5l5.8-0.2c1.4,0,2.4,1,2.5,2.4
		c0,1.4-0.7,2.5-2.1,2.5L75,71.7v4C75,77.1,73.9,78.2,72.5,78.2z"/>
	<path fill="#FFFFFF" d="M90.4,70.5c-1.3,0-2.4-1-2.5-2.3c-0.1-1.4,0.9-2.6,2.3-2.6l12.7-0.9c1.4-0.1,2.6,0.9,2.6,2.3
		c0.1,1.4-0.9,2.6-2.3,2.6l-12.7,0.9C90.5,70.5,90.5,70.5,90.4,70.5z M115.9,68.7c-1.3,0-2.4-1-2.5-2.3c-0.1-1.4,0.9-2.6,2.3-2.6
		l12.7-0.9c1.4-0.1,2.6,0.9,2.6,2.3c0.1,1.4-0.9,2.6-2.3,2.6l-12.7,0.9C116,68.7,116,68.7,115.9,68.7z M141.4,67
		c-1.3,0-2.4-1-2.5-2.3c-0.1-1.4,0.9-2.6,2.3-2.6l12.7-0.9c1.4-0.1,2.6,0.9,2.6,2.3c0.1,1.4-0.9,2.6-2.3,2.6L141.6,67
		C141.5,67,141.4,67,141.4,67z M166.9,65.3c-1.3,0-2.4-1-2.5-2.3c-0.1-1.4,0.9-2.6,2.3-2.6l12.7-0.9c1.4-0.1,2.6,0.9,2.6,2.3
		c0.1,1.4-0.9,2.6-2.3,2.6L167,65.3C167,65.3,166.9,65.3,166.9,65.3z"/>
	<g>
		<path fill="#FFFFFF" d="M48,179.5v-78c0-0.3-0.4-0.6-0.5-0.9c-0.1-0.2-6.6-17.3-6.6-30.9c0-9.9,4.2-16,12.5-18.1
			c2.1-0.5,6.7-2,13-4c13.4-4.3,33.9-10.7,53.7-15.8c9-2.3,23.1-4.6,38.2-6.7c-1.9-1.5-3.9-2.9-5.9-4.3c-13.3,1.9-25.5,4-33.8,6.2
			c-20,5.2-40.3,11.6-53.8,15.9c-6.2,2-10.7,3.4-12.6,3.9c-6,1.5-16,6.6-16,22.9c0,13.4,5.7,29.3,6.7,32.2V176
			C44.6,177.2,46.3,178.4,48,179.5z"/>
		<path fill="#FFFFFF" d="M194.9,96h-93.4c-0.9,0-1.7,0.3-2.1,1c-0.5,0.7-0.5,1.5-0.1,2.2c0.1,0.2,10.5,21.2,8.3,42.9
			c-1.1,10.9-6.9,33-12.5,52.7c1.6,0.1,3.2,0.1,4.9,0.1c0.1,0,0.1,0,0.2,0c5.6-19.7,11.3-41.5,12.4-52.7c1.8-18-4.2-34.3-7.2-42.3
			H195C195,98.7,195,97.3,194.9,96z"/>
	</g>
</g>
<path fill="#FFFFFF" d="M72.4,97c-1.3,0-2.4-1.4-2.5-2.7c0-1.4,1-2.7,2.4-2.7c3.6-0.1,7.1-1.2,10.1-3c1.2-0.7,2.7-0.4,3.4,0.8
	c0.7,1.2,0.3,3-0.8,3.7C81.3,95.3,76.9,97,72.4,97C72.5,97,72.5,97,72.4,97z M92,84.6c-0.4,0-0.8-0.1-1.2-0.3
	c-1.2-0.7-1.6-2.2-0.9-3.4c1.8-3.1,2.7-6.6,2.7-10.2c0-1.4,1.1-2.5,2.5-2.5c1.4,0,2.5,1.1,2.5,2.5c0,4.4-1.1,8.8-3.3,12.6
	C93.7,84.2,92.9,84.6,92,84.6z"/>
</svg>
