<?xml version="1.0" encoding="utf-8"?>
<!-- Generator: Adobe Illustrator 18.1.1, SVG Export Plug-In . SVG Version: 6.00 Build 0)  -->
<svg version="1.1" id="Layer_1" xmlns="http://www.w3.org/2000/svg" xmlns:xlink="http://www.w3.org/1999/xlink" x="0px" y="0px"
	 viewBox="0 0 200 200" enable-background="new 0 0 200 200" xml:space="preserve">
<path fill="#FFFFFF" d="M100,200C44.9,200,0,155.1,0,100C0,44.9,44.9,0,100,0c55.1,0,100,44.9,100,100C200,155.1,155.1,200,100,200z
	 M100,5C47.6,5,5,47.6,5,100c0,52.4,42.6,95,95,95c52.4,0,95-42.6,95-95C195,47.6,152.4,5,100,5z"/>
<path fill="#FFFFFF" d="M100.7,75.3c-4.9,0-8.8,3.9-8.8,8.8s3.9,8.8,8.8,8.8s8.8-3.9,8.8-8.8S105.6,75.3,100.7,75.3z M100.7,87.9
	c-2.1,0-3.8-1.7-3.8-3.8s1.7-3.8,3.8-3.8c2.1,0,3.8,1.7,3.8,3.8S102.8,87.9,100.7,87.9z"/>
<path fill="#FFFFFF" d="M146.9,108.4l0-8.9c3.7-1,6.4-4.4,6.4-8.5c0-4.1-2.7-7.5-6.5-8.5l0-4.6c0-0.1,0-0.2,0-0.2
	c-0.4-12.6-13.7-22.6-34.1-25.6c-1.3-0.2-2.6,0.7-2.8,2c-0.8,4.5-4.6,7.7-9.2,7.7c-4.8,0-8.5-2.9-9.3-7.3c-0.2-1.3-1.5-2.2-2.8-2
	c-18.9,3-32.7,13.5-33.2,25.2c0,0.1,0,0.2,0,0.3l-0.1,4.7c-3.5,1.1-6.1,4.5-6.1,8.4c0,3.8,2.5,7.1,5.9,8.3l-0.1,9.2
	c-3.4,1.2-5.8,4.5-5.8,8.3c0,3.7,2.3,6.9,5.6,8.2l-0.2,13c0,0.7,0.3,1,0.7,1.5c0.5,0.5,1.1,0.5,1.8,0.5h17v2.4
	c0,1.2,0.5,1.6,1.9,1.6h51.5c1.4,0,2.6,0.4,2.6-1v-0.5V140h14.5c0.7,0,1.3,0,1.8-0.5c0.5-0.5,0.7-1,0.7-1.6l0-12.7
	c3.7-1.1,6.3-4.4,6.3-8.4C153.3,112.8,150.6,109.4,146.9,108.4z M146.8,88c0.9,0.7,1.5,1.8,1.5,3c0,1.2-0.6,2.3-1.5,3
	c-0.7,0.5-1.5,0.8-2.4,0.8c-1,0-1.9-0.4-2.6-1.1c-0.7-0.7-1.2-1.7-1.2-2.8c0-1.1,0.5-2,1.2-2.7c0.7-0.7,1.6-1.1,2.6-1.1
	C145.4,87.2,146.2,87.5,146.8,88z M54.1,91c0-1,0.4-2,1.1-2.6c0.7-0.7,1.7-1.2,2.7-1.2c0.8,0,1.6,0.3,2.2,0.7c1,0.7,1.6,1.8,1.6,3.1
	c0,1.3-0.7,2.4-1.6,3.1c-0.6,0.4-1.4,0.7-2.2,0.7c-1.1,0-2.1-0.5-2.8-1.2C54.4,92.9,54.1,92,54.1,91z M54.8,119.1
	c-0.4-0.6-0.7-1.4-0.7-2.2c0-0.9,0.3-1.6,0.8-2.3c0.7-0.9,1.8-1.5,3.1-1.5c0.7,0,1.4,0.2,1.9,0.5c1.1,0.7,1.9,1.9,1.9,3.3
	c0,1.4-0.8,2.7-2,3.3c-0.6,0.3-1.2,0.5-1.9,0.5C56.6,120.7,55.5,120,54.8,119.1z M130,136V85.8c0-1.4-0.6-2.5-2-2.5s-2,1.1-2,2.5
	V138v2H78v-2V85.8c0-1.4-0.6-2.5-2-2.5s-2,1.1-2,2.5V136H59.6l0.1-10.9c4-0.8,7-4.2,7-8.4c0-4.2-2.9-7.5-6.8-8.5l0.1-8.7
	c3.8-0.9,6.7-4.4,6.7-8.5c0-4.1-2.8-7.4-6.5-8.5l0-4c0-0.1,0-0.1,0-0.2c0-8.9,11.4-17.5,26.9-20.6c2,5.5,7.2,9,13.5,9
	c6.3,0,11.6-3.8,13.6-9.4c16.9,3,27.7,11.1,27.7,21c0,0,0,0.1,0,0.1l-0.1,4.2c-1.1,0.3-2.1,0.9-3,1.6c-0.4,0.4-0.9,0.8-1.2,1.2
	c-0.4,0.4-0.7,0.9-1,1.4c-0.5,1-0.9,2.1-1,3.3c0,0.3,0,0.6,0,0.9c0,0.3,0,0.6,0,0.9c0.1,1.2,0.5,2.3,1,3.3c0.3,0.5,0.6,1,0.9,1.4
	c0.4,0.4,0.8,0.8,1.2,1.2c0.9,0.7,1.9,1.3,3,1.6l0,9c-1.1,0.3-2.1,0.9-3,1.6c-0.4,0.4-0.8,0.8-1.2,1.2c-0.4,0.4-0.7,0.9-0.9,1.4
	c-0.5,1-0.9,2.1-1,3.3c0,0.3,0,0.6,0,0.9s0,0.6,0,0.9c0.1,1.2,0.5,2.3,1,3.3c0.3,0.5,0.6,1,0.9,1.4c0.4,0.4,0.8,0.8,1.2,1.2
	c0.9,0.7,1.9,0.9,3.1,1.2l0,11.1H130z M147,119.7c-0.7,0.6-1.5,0.9-2.4,0.9c-1,0-1.9-0.4-2.5-1c-0.8-0.7-1.3-1.7-1.3-2.8
	c0-1.1,0.5-2.1,1.3-2.8c0.7-0.6,1.6-1,2.5-1c0.9,0,1.8,0.3,2.4,0.9c0.8,0.7,1.4,1.7,1.4,2.9C148.3,118,147.8,119,147,119.7z"/>
</svg>
