<?xml version="1.0" encoding="utf-8"?>
<!-- Generator: Adobe Illustrator 18.1.1, SVG Export Plug-In . SVG Version: 6.00 Build 0)  -->
<svg version="1.1" id="Layer_1" xmlns="http://www.w3.org/2000/svg" xmlns:xlink="http://www.w3.org/1999/xlink" x="0px" y="0px"
	 viewBox="0 0 200 200" enable-background="new 0 0 200 200" xml:space="preserve">
<g>
	<g>
		<path fill="#49434D" d="M100,200C44.9,200,0,155.1,0,100C0,44.9,44.9,0,100,0c55.1,0,100,44.9,100,100
			C200,155.1,155.1,200,100,200z M100,5C47.6,5,5,47.6,5,100c0,52.4,42.6,95,95,95c52.4,0,95-42.6,95-95C195,47.6,152.4,5,100,5z"/>
	</g>
	<g>
		<path fill="#49434D" d="M75.5,145c-1.4,0-2.5-1.1-2.5-2.5V85.8c0-1.4,1.1-2.5,2.5-2.5s2.5,1.1,2.5,2.5v56.7
			C78,143.9,76.9,145,75.5,145z"/>
	</g>
	<g>
		<path fill="#49434D" d="M57.9,87.2c2.1,0,3.8,1.7,3.8,3.8s-1.7,3.8-3.8,3.8c-2.1,0-3.8-1.7-3.8-3.8S55.8,87.2,57.9,87.2
			 M57.9,82.2c-4.9,0-8.8,3.9-8.8,8.8s3.9,8.8,8.8,8.8c4.9,0,8.8-3.9,8.8-8.8S62.7,82.2,57.9,82.2L57.9,82.2z"/>
	</g>
	<g>
		<path fill="#49434D" d="M57.9,108.1c-4.9,0-8.8,3.9-8.8,8.8c0,4.9,3.9,8.8,8.8,8.8c4.9,0,8.8-3.9,8.8-8.8
			C66.7,112,62.7,108.1,57.9,108.1z M57.9,120.7c-2.1,0-3.8-1.7-3.8-3.8c0-2.1,1.7-3.8,3.8-3.8c2.1,0,3.8,1.7,3.8,3.8
			C61.7,118.9,60,120.7,57.9,120.7z"/>
	</g>
	<g>
		<path fill="#49434D" d="M100.7,80.3c2.1,0,3.8,1.7,3.8,3.8s-1.7,3.8-3.8,3.8s-3.8-1.7-3.8-3.8S98.6,80.3,100.7,80.3 M100.7,75.3
			c-4.9,0-8.8,3.9-8.8,8.8c0,4.9,3.9,8.8,8.8,8.8s8.8-3.9,8.8-8.8C109.5,79.2,105.6,75.3,100.7,75.3L100.7,75.3z"/>
	</g>
	<g>
		<path fill="#49434D" d="M126.5,145c1.4,0,2.5-1.1,2.5-2.5V85.8c0-1.4-1.1-2.5-2.5-2.5s-2.5,1.1-2.5,2.5v56.7
			C124,143.9,125.1,145,126.5,145z"/>
	</g>
	<g>
		<path fill="#49434D" d="M144,87.2c2.1,0,3.8,1.7,3.8,3.8s-1.7,3.8-3.8,3.8c-2.1,0-3.8-1.7-3.8-3.8S141.9,87.2,144,87.2 M144,82.2
			c-4.9,0-8.8,3.9-8.8,8.8s3.9,8.8,8.8,8.8c4.9,0,8.8-3.9,8.8-8.8S148.8,82.2,144,82.2L144,82.2z"/>
	</g>
	<g>
		<path fill="#49434D" d="M135.2,116.8c0,4.9,3.9,8.8,8.8,8.8c4.9,0,8.8-3.9,8.8-8.8c0-4.9-3.9-8.8-8.8-8.8
			C139.1,108.1,135.2,112,135.2,116.8z M140.2,116.8c0-2.1,1.7-3.8,3.8-3.8c2.1,0,3.8,1.7,3.8,3.8c0,2.1-1.7,3.8-3.8,3.8
			C141.9,120.7,140.2,118.9,140.2,116.8z"/>
	</g>
	<g>
		<path fill="#49434D" d="M57.9,113c0.7,0,1.4,0.2,1.9,0.5L60,94.2c-0.6,0.4-1.4,0.7-2.2,0.7c-1.1,0-2.1-0.5-2.8-1.2l-0.2,21
			C55.5,113.6,56.6,113,57.9,113z"/>
		<path fill="#49434D" d="M60.1,88l0.1-9.7c0-0.1,0,0.1,0,0.1c0-8.9,11.4-17.5,26.9-20.6c2,5.5,7.2,9,13.5,9h0.6
			c6.4,0,11.5-3.5,13.5-9c15.5,3,26.9,11.7,26.9,20.6c0,0.1,0-0.1,0-0.1l0.1,9.7c0.6-0.5,1.4-0.7,2.2-0.7c1.1,0,2,0.5,2.7,1.2
			l-0.1-10.5c0-0.1,0-0.1,0-0.2c-0.5-11.7-14.3-22.2-33.2-25.2c-1.3-0.2-2.6,0.7-2.8,2c-0.8,4.4-4.5,7.3-9.3,7.3c0,0-0.1,0-0.1,0v0
			h-0.3v0c0,0-0.1,0-0.1,0c-4.8,0-8.5-2.9-9.3-7.3c-0.2-1.3-1.5-2.2-2.8-2c-18.9,3-32.7,13.5-33.2,25.2c0,0.1,0,0.1,0,0.2l-0.1,10.5
			c0.7-0.7,1.7-1.2,2.7-1.2C58.7,87.2,59.5,87.5,60.1,88z"/>
		<path fill="#49434D" d="M141.8,94.2l0.2,19.4c0.6-0.3,1.2-0.5,1.9-0.5c1.3,0,2.4,0.6,3.1,1.5l-0.2-21c-0.7,0.8-1.7,1.2-2.8,1.2
			C143.2,94.9,142.4,94.6,141.8,94.2z"/>
		<path fill="#49434D" d="M147.1,119c-0.7,1-1.8,1.6-3.1,1.6c-0.7,0-1.3-0.2-1.9-0.5l0.2,14.8h-15.1c-1.4,0-3.3,1.7-3.3,3v2H78v-2
			c0-1.4-2-3-3.3-3H59.6l0.2-14.8c-0.6,0.3-1.2,0.5-1.9,0.5c-1.3,0-2.4-0.6-3.1-1.6l-0.2,18.8c0,0.7,0.3,1.2,0.7,1.6
			c0.5,0.5,1.1,0.5,1.8,0.5h16v3c0,1.4,0.3,2,1.7,2h52.5c1.4,0,1.7-0.6,1.7-2v-3h16c0.7,0,1.3,0,1.8-0.5c0.5-0.5,0.7-1,0.7-1.6
			L147.1,119z"/>
	</g>
</g>
</svg>
