<?xml version="1.0" encoding="utf-8"?>
<!-- Generator: Adobe Illustrator 18.1.1, SVG Export Plug-In . SVG Version: 6.00 Build 0)  -->
<svg version="1.1" id="Layer_1" xmlns="http://www.w3.org/2000/svg" xmlns:xlink="http://www.w3.org/1999/xlink" x="0px" y="0px"
	 viewBox="0 0 200 200" enable-background="new 0 0 200 200" xml:space="preserve">
<g>
	<path fill="#49434D" d="M100,200C44.9,200,0,155.1,0,100C0,44.9,44.9,0,100,0c55.1,0,100,44.9,100,100C200,155.1,155.1,200,100,200
		z M100,5C47.6,5,5,47.6,5,100s42.6,95,95,95c52.4,0,95-42.6,95-95S152.4,5,100,5z"/>
	<path fill="#49434D" d="M109.4,28c-30.5-0.3-55,24.3-55.1,54.6c0,7.7,1.6,14.9,4.4,21.5c-1.1,0.4-2.2,0.9-3.2,1.4
		c-7.3,3.8-12.8,9.7-16.4,17.6c-0.7,1.6-1.2,3.2-1.6,4.9c-2.8,13.1,0.3,24.4,9.4,33.6c0.1,0.1,0.2,0.2,0.3,0.3
		c0.3,0.3,0.6,0.6,0.9,0.9c3.4,3.1,7.2,5.5,11.4,7c0.1,0,0.3,0.1,0.4,0.2c0.1,0,0.2,0.1,0.3,0.1c7.7,2.7,16.6,2.9,25.7-0.7
		c8.5-3.4,15.3-10.2,18.6-18.8c1.7-4.5,2.5-8.9,2.5-13.2c0.3,0,0.6,0,0.9,0c31,0.6,56.3-24.7,55.7-55.7
		C163,52.5,139.4,28.3,109.4,28 M82.5,39.3c5.5-3.6,11.5-5.8,18.1-6.7c-0.5,0.6-0.9,1.1-1.4,1.6c-4,4.7-7.9,9.4-11,14.7
		c-0.6,1.1-1.1,2.2-1.7,3.3c-0.1,0.2-0.5,0.5-0.7,0.5c-5.7,0-11.3,0-17.2,0C72.6,47.5,77.1,42.9,82.5,39.3 M58.6,79.9
		c0.1-1.4,0.2-2.8,0.4-4.1c0.8-5.9,2.7-11.5,5.5-16.7c0.3-0.6,0.6-0.8,1.3-0.8c6.2,0,12.3,0,18.5,0c0.3,0,0.6,0,1,0
		c-2.3,7.1-3.5,14.3-3.8,21.7H58.6z M78.8,87.2H64.3c-1.5,0-3.1,1.3-3.1,2.8v6.5c0,1.5,1.6,2.7,3.1,2.7h0.9c0,0,0,1.8,0,2.7
		c0,0.2-0.3,0.4-0.5,0.5c-0.6,0.1-1.2,0.3-1.8,0.4c-2.3-5.2-3.7-10.7-4.2-16.4c0-0.3,0-0.5,0-0.9h22.9c0.2,6.3,1.2,12.6,2.9,18.7
		c-1.9-0.7-3.8-1.3-5.8-1.7l-0.5-0.1c-0.2-0.1-0.4-0.3-0.4-0.5c0-0.9,0-2.6,0-2.6h0.9c1.5,0,2.7-1.2,2.7-2.7V90
		C81.4,88.5,80.2,87.2,78.8,87.2 M71.9,167.5c-17.1,0-31-13.9-31-31c0-13,8.1-24.2,19.5-28.8c1.4-0.6,2.8-1,4.3-1.4
		c2.3-0.6,4.8-0.9,7.3-0.9c3.4,0,6.6,0.5,9.6,1.5c4.1,1.4,7.9,3.5,11.1,6.4c4.3,3.9,7.5,8.9,9.1,14.6c0.8,2.7,1.2,5.5,1.2,8.5
		c0,0.1,0,0.3,0,0.4C102.7,153.9,88.9,167.5,71.9,167.5 M107.2,132.8c-0.2-0.1-0.4-0.3-0.6-0.5c-1-7.7-4.4-14.6-9.6-19.9h10.2V132.8
		z M107.3,107c-0.3,0-0.5,0-0.8,0c-2.5,0-5,0-7.4,0c0.6-0.8,0.9-1.7,0.5-2.8c-0.2-0.6-0.7-1.3-1.1-1.7c-1.1-1-2.3-1.9-3.5-2.8
		c-0.8-0.6-1.5-0.9-2.3-0.9c-1,0-1.9,0.5-2.7,1.5c-0.5,0.6-1,1.2-1.5,1.8C87,97,86.2,91.6,85.9,86.1c0-0.2,0-0.4,0-0.7h21.3V107z
		 M107.3,79.9H85.9c0.1-1.2,0.1-2.4,0.2-3.6c0.5-6,1.7-11.8,3.7-17.4c0.1-0.4,0.3-0.6,0.8-0.6c5.5,0,10.9,0,16.4,0
		c0.1,0,0.2,0,0.3,0.1V79.9z M107.3,52.8H91.1c3.9-8,9.7-14.3,16.2-20.4V52.8z M153.1,58.8c3.5,6.3,5.6,13.1,6.1,20.3
		c0,0.2,0,0.4,0,0.6c0,0.1,0,0.1-0.1,0.3h-21.8c-0.3-7.3-1.5-14.5-3.8-21.6c0.4,0,0.7,0,0.9,0c5.8,0,11.7,0,17.5,0
		C152.4,58.3,152.9,58.5,153.1,58.8 M118.5,32.6c1.7,0.4,3.4,0.9,5.1,1.3c6.1,1.8,11.8,4.3,16.8,8.4c3.5,2.8,6.2,6.2,8.5,10.1
		c0.1,0.1,0.1,0.2,0.2,0.4h-0.9c-5.4,0-10.7,0-16.1,0c-0.4,0-0.7,0.1-1-0.5c-2.9-6.4-6.9-12.2-11.3-17.7c-0.5-0.6-1-1.3-1.5-1.9
		C118.5,32.8,118.5,32.7,118.5,32.6 M111.7,85.4h21.4c-0.2,2.2-0.3,4.3-0.6,6.4c-0.6,4.9-1.7,9.6-3.2,14.2c-0.3,0.8-0.6,1-1.4,1
		c-5.4,0-10.8,0-16.2,0V85.4z M111.6,79.9V58.3h10.5c2,0,4.1,0,6.1,0c0.4,0,0.7,0,0.9,0.5c2.3,6.8,3.6,13.7,3.9,20.8
		c0,0.1,0,0.2,0,0.3H111.6z M111.6,32.4c6.2,5.8,10.4,12.8,14,20.4h-14V32.4z M111.6,132.9v-20.4h15c-1.7,3.9-3.5,7.8-5.9,11.4
		C118.3,127.4,115.3,130.4,111.6,132.9 M119.7,132.6c1.8-2.6,3.8-5.1,5.4-7.9c2.2-3.8,4.2-7.7,6.2-11.6c0.2-0.4,0.4-0.7,0.9-0.7
		c5.5,0,10.9,0,16.4,0c0.2,0,0.3,0,0.5,0C141.9,123.2,132.2,130,119.7,132.6 M153.5,105.9c-0.4,0.8-0.9,1.2-1.8,1.1
		c-5.6-0.1-11.3,0-16.9,0h-1.1c2.3-7.1,3.5-14.3,3.8-21.6h21.9c-0.2,1.6-0.3,3.1-0.5,4.5C157.9,95.6,156.1,100.9,153.5,105.9"/>
	<path fill="#49434D" d="M54.3,122.3c-0.4-0.2-0.8-0.4-1.2-0.5c-1-0.3-2,0-2.6,0.8c-0.6,0.8-0.6,1.8,0.1,2.7
		c0.3,0.3,0.6,0.7,0.9,0.9c4.5,3.7,8.9,7.4,13.4,11.1c0.2,0.2,0.3,0.4,0.4,0.7c0.7,3.5,3.8,5.5,7.4,4.9c2.9-0.4,5.1-3.2,5.1-6.2
		c0-4.1-3.7-7.1-7.9-6.2C64.7,127.8,59.5,125.1,54.3,122.3"/>
</g>
</svg>
