<?xml version="1.0" encoding="utf-8"?>
<!-- Generator: Adobe Illustrator 18.1.1, SVG Export Plug-In . SVG Version: 6.00 Build 0)  -->
<svg version="1.1" id="Layer_1" xmlns="http://www.w3.org/2000/svg" xmlns:xlink="http://www.w3.org/1999/xlink" x="0px" y="0px"
	 viewBox="0 0 200 200" enable-background="new 0 0 200 200" xml:space="preserve">
<path fill="#49434D" d="M99.8,199.8c-55.1,0-100-44.9-100-100c0-55.1,44.9-100,100-100s100,44.9,100,100
	C199.8,154.9,155,199.8,99.8,199.8z M99.8,4.7C47.4,4.7,4.8,47.4,4.8,99.8c0,52.4,42.7,95.1,95.1,95.1s95.1-42.7,95.1-95.1
	C194.9,47.4,152.3,4.7,99.8,4.7z"/>
<g>
	<path fill="#49434D" d="M139.1,162.2H60.9c-7.9,0-14.3-6.4-14.3-14.3V52c0-7.9,6.4-14.3,14.3-14.3h78.1c7.9,0,14.3,6.4,14.3,14.3
		V148C153.3,155.8,146.9,162.2,139.1,162.2z M60.9,42.7c-5.2,0-9.3,4.2-9.3,9.3V148c0,5.2,4.2,9.3,9.3,9.3h78.1
		c5.2,0,9.3-4.2,9.3-9.3V52c0-5.2-4.2-9.3-9.3-9.3H60.9z"/>
	<circle fill="#49434D" cx="118.3" cy="58" r="5.2"/>
	<circle fill="#49434D" cx="134.6" cy="58" r="5.2"/>
	<g>
		<path fill="#49434D" d="M99.5,109.5c-5.3,0-10.3-1.9-15-4c-4-1.8-7.6-1.3-11.5,1.3c-0.1,0.1-0.2,0.4-0.2,0.5c0,0,0-0.1,0-0.1
			l-4.9,0.5c-0.2-1.8,0.8-3.9,2.2-4.9c5.3-3.7,10.8-4.3,16.4-1.8c5.7,2.6,10.6,4.1,15.5,3.4c5-0.8,10.1-2.3,14.3-3.7
			c5.2-1.7,10-1,14.3,2.1c1.4,1,2.4,3.1,2.2,4.8l-4.9-0.5c0,0.1,0,0.1,0,0.1c0-0.1-0.2-0.4-0.3-0.5c-3-2.1-6.2-2.6-9.9-1.4
			c-4.5,1.4-9.8,3-15.1,3.8C101.6,109.5,100.5,109.5,99.5,109.5z"/>
		<path fill="#49434D" d="M100.2,138.7c-18.4,0-33.4-15-33.4-33.4c0-18.4,15-33.4,33.4-33.4s33.4,15,33.4,33.4
			C133.6,123.7,118.6,138.7,100.2,138.7z M100.2,76.8c-15.7,0-28.5,12.8-28.5,28.5s12.8,28.5,28.5,28.5s28.5-12.8,28.5-28.5
			S115.9,76.8,100.2,76.8z"/>
	</g>
</g>
</svg>
