<?xml version="1.0" encoding="utf-8"?>
<!-- Generator: Adobe Illustrator 18.1.1, SVG Export Plug-In . SVG Version: 6.00 Build 0)  -->
<svg version="1.1" id="Layer_1" xmlns="http://www.w3.org/2000/svg" xmlns:xlink="http://www.w3.org/1999/xlink" x="0px" y="0px"
	 viewBox="0 0 200 200" enable-background="new 0 0 200 200" xml:space="preserve">
<g>
	<path fill="#49434D" d="M100,200C44.9,200,0,155.1,0,100C0,44.9,44.9,0,100,0c55.1,0,100,44.9,100,100C200,155.1,155.1,200,100,200
		z M100,4.9C47.6,4.9,4.9,47.6,4.9,100c0,52.4,42.7,95.1,95.1,95.1c52.4,0,95.1-42.7,95.1-95.1C195.1,47.6,152.4,4.9,100,4.9z"/>
	<g>
		<path fill="#49434D" d="M89.7,155.3c-10.1,0-11.9-0.2-12.5-0.4c-10.3-2.5-18.2-13.1-25.3-34.6c-5.8-17.4-5.1-28.6,2.3-34
			c-6.4-3.9-10.4-10.9-10.4-18.7c0-12.1,9.9-22,22-22c5.5,0,11.4,2.5,15.4,6.5c2.6,2.7,4.2,5.8,4.6,9.1l22.2,8.8
			c4,1.6,6.6,5.3,6.8,9.6c0.2,4.3-2.2,8.2-6,10.1l-24.4,11.9c2.6,8.4,6.4,19.8,8.2,23.6l24.7-19.9c4.5-3.9,11.2-4,15.9-0.2
			l35.5,27.6c2.6,2.1,4.2,5.1,4.5,8.4c0.3,3.3-0.7,6.5-2.8,9c-2.1,2.5-5.1,4.1-8.3,4.4c-3.3,0.3-6.5-0.7-9-2.8l-27.5-21.1
			l-26.9,21.9c-2.2,1.9-4.4,2.8-7.2,2.8C90.8,155.3,90.3,155.3,89.7,155.3z M78.5,150.1c1.1,0.2,7.4,0.2,12.9,0.2
			c1.7,0,2.7-0.4,4.1-1.6l28.5-23.1c0.9-0.7,2.1-0.7,3,0l29.1,22.4c1.6,1.3,3.5,1.9,5.5,1.7c2-0.2,3.8-1.1,5-2.7
			c1.3-1.5,1.9-3.5,1.7-5.4c-0.2-2-1.1-3.8-2.7-5l-35.5-27.6c-2.9-2.4-6.9-2.3-9.6,0.1l-25.9,20.9c-0.1,0.1-0.3,0.2-0.5,0.3
			c-2,1-3.4,0.3-4.1-0.1c-0.6-0.5-2.6-1.8-10.6-27.9c-0.2-0.7-0.3-1.4-0.3-2.1c0.1-0.9,0.6-1.7,1.4-2.1l26.1-12.7
			c2.1-1,3.4-3.2,3.3-5.5c-0.1-2.3-1.5-4.4-3.7-5.2l-23.6-9.4c0,0-0.1,0-0.1,0l-9.9-3.9c-0.1,0-0.2-0.1-0.3-0.1c0,0-0.1,0-0.1,0
			L72,61c0,0-0.1,0-0.1,0l-0.2,0c0,0-0.1,0-0.1,0l-0.1,0c0,0-0.1,0-0.1,0l-0.1,0c0,0-0.2,0-0.2,0l-0.2,0c0,0-0.1,0-0.1,0l-0.3,0
			c0,0-0.1,0-0.1,0c-0.1,0-0.2,0-0.4,0c0,0,0,0,0,0c0,0,0,0,0,0c-0.1,0-0.2,0-0.4,0l-0.1,0c-0.1,0-0.3,0-0.4,0.1
			c-0.1,0-0.3,0.1-0.4,0.1c-0.2,0.1-0.3,0.1-0.4,0.1c-0.2,0.1-0.3,0.1-0.4,0.2c-0.2,0.1-0.3,0.1-0.4,0.2c-0.2,0.1-0.3,0.2-0.4,0.2
			c-0.2,0.1-0.3,0.2-0.4,0.3c-0.1,0.1-0.2,0.2-0.3,0.3c-0.1,0.1-0.2,0.2-0.3,0.3l-0.1,0.1c-0.1,0.1-0.1,0.2-0.2,0.2
			c0,0,0,0.1-0.1,0.1c0,0.1-0.1,0.2-0.2,0.3c-0.1,0.2-0.2,0.3-0.3,0.4l0,0c0,0,0,0.1-0.1,0.1c0,0-0.1,0.2-0.1,0.3
			c-0.1,0.2-0.2,0.3-0.2,0.5c-1.2,3,0.3,6.4,3.3,7.6l16.1,6.4c1,0.4,1.6,1.3,1.6,2.4c0,1-0.7,1.9-1.7,2.3c-0.2,0.1-0.2,0.1-0.4,0.2
			c-0.4,0.3-1,0.7-2.2,1.1c-1.3,0.4-2.7-0.3-3.1-1.6c-0.2-0.5-0.2-1,0-1.5l-12-4.8c-5.5-2.2-8.2-8.5-6-14c0.1-0.2,0.2-0.5,0.3-0.7
			c0-0.1,0.1-0.2,0.1-0.2c0.1-0.2,0.2-0.4,0.3-0.6c0,0,0,0,0-0.1c0.1-0.2,0.2-0.4,0.4-0.6c0,0,0.1-0.1,0.1-0.1
			c0.2-0.2,0.3-0.4,0.5-0.6c0,0,0-0.1,0.1-0.1c0.1-0.2,0.3-0.3,0.4-0.5l0.1-0.1c0.2-0.2,0.3-0.3,0.5-0.5c0,0,0.1-0.1,0.1-0.1
			c0.2-0.1,0.3-0.3,0.5-0.4l0.2-0.1c0.2-0.1,0.3-0.3,0.5-0.4c0,0,0.1-0.1,0.1-0.1c0.2-0.1,0.3-0.2,0.5-0.3l0.1-0.1
			c0.2-0.1,0.4-0.2,0.6-0.3c0,0,0.1,0,0.1,0c0.2-0.1,0.4-0.2,0.6-0.3c0,0,0.1,0,0.1,0c0.2-0.1,0.4-0.1,0.6-0.2c0,0,0.1,0,0.2-0.1
			c0.1,0,0.3-0.1,0.5-0.1c0,0,0.1,0,0.1,0c0.2-0.1,0.5-0.1,0.7-0.1c0,0,0.1,0,0.2,0c0.2,0,0.4-0.1,0.7-0.1c0,0,0,0,0,0v0
			c0.2,0,0.5,0,0.7,0l0.5,0c0.1,0,0.2,0,0.3,0c0,0,0.1,0,0.2,0l0.2,0c0.1,0,0.2,0,0.3,0c0,0,0.2,0,0.3,0l0.2,0c0.1,0,0.2,0,0.3,0.1
			l0.2,0c0.1,0,0.2,0.1,0.3,0.1l0.2,0.1c0.1,0,0.2,0.1,0.3,0.1l0.2,0.1c0.2,0.1,0.3,0.1,0.5,0.2l5.7,2.3c-0.7-1.4-1.6-2.5-2.4-3.3
			c-3-3-7.7-5-11.9-5c-9.4,0-17.1,7.7-17.1,17.1c0,7.4,4.8,14,11.8,16.2c1,0.3,1.7,1.3,1.7,2.3c0,1.1-0.7,2-1.7,2.3
			c-3.5,1.2-12.7,4.3-4.1,30.2C65.1,144,72.7,148.8,78.5,150.1C78.5,150.1,78.5,150.1,78.5,150.1z"/>
	</g>
	<g opacity="0.4">
		<path fill="#49434D" d="M85.5,128.3c-0.5,0-1-0.1-1.3-0.2c-0.7-0.3-3-1.2-17-24.6c-0.4-0.6-0.6-1.3-0.7-2
			c-0.2-0.9,0.2-1.8,0.8-2.3l22.3-18.6c1.8-1.5,2.5-3.9,1.9-6.1c-0.6-2.2-2.5-3.9-4.8-4.2l-35.9-4.9c-0.1,0-0.2,0-0.3,0
			c0,0-0.1,0-0.1,0l-0.2,0c0,0-0.1,0-0.1,0l-0.2,0c0,0-0.1,0-0.1,0l-0.4,0l-0.1,0l-0.2,0c0,0-0.1,0-0.2,0l-0.2,0c0,0-0.1,0-0.1,0
			l-0.1,0c-0.1,0-0.2,0.1-0.4,0.1c0,0,0,0,0,0c-0.1,0-0.2,0.1-0.3,0.1l-0.1,0c-0.1,0-0.2,0.1-0.3,0.1c-0.1,0.1-0.2,0.1-0.3,0.2
			c-0.2,0.1-0.3,0.2-0.4,0.3c-0.1,0.1-0.2,0.2-0.3,0.2c-0.2,0.1-0.2,0.2-0.3,0.3L46,67c0,0-0.1,0.1-0.2,0.2
			c-0.1,0.2-0.2,0.2-0.3,0.3c-0.1,0.1-0.2,0.2-0.2,0.3c0,0-0.1,0.1-0.1,0.1c0,0.1-0.1,0.2-0.2,0.3l-0.1,0.1
			c-0.1,0.1-0.1,0.2-0.2,0.3c0,0,0,0.1-0.1,0.1c0,0-0.1,0.2-0.1,0.3c-0.1,0.2-0.1,0.3-0.2,0.5l0,0c0,0,0,0,0,0
			c0,0.1-0.1,0.2-0.1,0.4c0,0.2-0.1,0.4-0.1,0.5c-0.2,1.5,0.2,3.1,1.1,4.3c0.9,1.2,2.3,2,3.9,2.3l17.2,2.4c1,0.1,1.9,0.9,2.1,1.9
			c0.2,1-0.2,2-1.1,2.6c-0.1,0.1-0.2,0.1-0.4,0.3c-0.3,0.4-0.8,0.9-1.9,1.6c-1.1,0.7-2.7,0.4-3.4-0.8c-0.3-0.4-0.4-1-0.4-1.4
			l-12.8-1.8c-2.8-0.4-5.4-1.9-7.1-4.2c-1.7-2.3-2.5-5.1-2.1-8c0-0.2,0.1-0.5,0.1-0.7c0-0.1,0-0.2,0.1-0.2c0-0.2,0.1-0.4,0.2-0.6
			c0,0,0-0.1,0-0.1c0.1-0.2,0.1-0.4,0.2-0.6c0,0,0-0.1,0-0.1c0.1-0.3,0.2-0.5,0.3-0.7c0,0,0-0.1,0.1-0.1c0.1-0.2,0.2-0.4,0.3-0.6
			l0.1-0.1c0.1-0.2,0.2-0.4,0.4-0.6c0,0,0.1-0.1,0.1-0.1c0.1-0.1,0.2-0.3,0.4-0.5l0.1-0.1c0.1-0.2,0.3-0.3,0.4-0.5
			c0,0,0.1-0.1,0.1-0.1c0.1-0.1,0.3-0.3,0.4-0.4l0.1-0.1c0.2-0.2,0.4-0.3,0.5-0.5c0,0,0.1-0.1,0.1-0.1c0.2-0.1,0.4-0.3,0.5-0.4
			c0,0,0.1-0.1,0.1-0.1c0.2-0.1,0.3-0.2,0.5-0.4c0,0,0.1-0.1,0.2-0.1c0.1-0.1,0.3-0.2,0.5-0.3c0,0,0.1,0,0.1,0
			c0.2-0.1,0.4-0.2,0.6-0.3c0,0,0.1-0.1,0.2-0.1c0.2-0.1,0.4-0.2,0.6-0.2c0,0,0,0,0.1,0l0,0c0.2-0.1,0.5-0.1,0.7-0.2
			c0.1,0,0.1,0,0.1,0l0.4-0.1c0.1,0,0.2,0,0.3-0.1l0.4-0.1c0.2,0,0.3,0,0.4,0c0,0,0.2,0,0.3,0l0.2,0c0.1,0,0.2,0,0.3,0l0.2,0l0.5,0
			c0.1,0,0.2,0,0.4,0c0.1,0,0.1,0,0.2,0c0.1,0,0.3,0,0.5,0.1l35.8,4.9c4.2,0.6,7.7,3.6,8.9,7.7c1.2,4.1-0.2,8.5-3.5,11.2l-20.9,17.4
			c4.7,7.8,11.4,18.4,13.8,21.3c1-0.4,2.1-0.1,2.8,0.7c0.9,1.1,0.7,2.6-0.3,3.5C87.2,128,86.2,128.3,85.5,128.3z"/>
		<path fill="#49434D" d="M77.6,155.3c-10.6,0-20.7-8.5-32.7-27.5c-9.8-15.5-11.7-26.5-5.9-33.6c-7.1-2.3-12.7-8.1-14.6-15.7
			C23.1,72.8,24,66.8,27,61.8c3-5,7.9-8.6,13.6-10c5.4-1.3,11.7-0.3,16.5,2.6c3.8,2.3,6.2,5.5,7.1,9.4c0.3,1.3-0.5,2.6-1.8,3
			c-1.3,0.3-2.6-0.5-3-1.8c-0.8-3.2-3.1-5.2-4.9-6.3c-3.7-2.2-8.6-3-12.7-2c-4.4,1.1-8.2,3.8-10.5,7.7c-2.4,3.9-3.1,8.5-2,12.9
			c1.8,7.2,8,12.4,15.4,13c1.1,0.1,2,0.8,2.2,1.9c0.3,1-0.2,2.1-1.1,2.7c-3.1,2-11.3,7.2,3.3,30.3c14.2,22.5,22.8,25.3,28.7,25.2
			c0,0,0,0,0,0c1.3,0,2.4,1.1,2.5,2.4c0,1.4-1.1,2.5-2.4,2.5C77.7,155.3,77.7,155.3,77.6,155.3z"/>
	</g>
</g>
</svg>
