<?xml version="1.0" encoding="utf-8"?>
<!-- Generator: Adobe Illustrator 18.1.1, SVG Export Plug-In . SVG Version: 6.00 Build 0)  -->
<svg version="1.1" id="Layer_1" xmlns="http://www.w3.org/2000/svg" xmlns:xlink="http://www.w3.org/1999/xlink" x="0px" y="0px"
	 viewBox="0 0 200 200" enable-background="new 0 0 200 200" xml:space="preserve">
<g>
	<path fill="#49434D" d="M100,200C44.9,200,0,155.1,0,100C0,44.9,44.9,0,100,0c55.1,0,100,44.9,100,100C200,155.1,155.1,200,100,200
		z M100,4.9C47.6,4.9,4.9,47.6,4.9,100c0,52.4,42.7,95.1,95.1,95.1c52.4,0,95.1-42.7,95.1-95.1C195.1,47.6,152.4,4.9,100,4.9z"/>
	<g>
		<path fill="none" stroke="#49434D" stroke-width="5" stroke-miterlimit="10" d="M96.3,112.5"/>
		<g>
			<path fill="#49434D" d="M153.6,156H96.5c-1.4,0-2.5-0.8-2.5-2.2v-39.9c0-0.9-0.2-2.1,0.6-2.8l16.6-16.2c0.5-0.4,1.1-0.8,1.7-0.8
				h40.7c1.4,0,2.4,1.4,2.4,2.7v57.1C156,155.2,155,156,153.6,156z M99,152h53V99h-38.1L99,113.7V152z"/>
		</g>
		<path fill="#49434D" d="M133.3,136h-16.8c-1.4,0-2.5-1.1-2.5-2.5v-16.8c0-1.4,1.1-2.5,2.5-2.5h16.8c1.4,0,2.5,1.1,2.5,2.5v16.8
			C135.8,134.9,134.7,136,133.3,136z M119,131.1h11.9v-11.9H119V131.1z"/>
		<g>
			<path fill="#49434D" d="M90.1,128.7c0,0-0.1,0-0.1,0c-19.6-1.1-34.9-17.3-34.9-36.9c0-20.4,16.6-36.9,36.9-36.9
				c19.9,0,36.4,16.2,36.9,36c0,1.4-1,2.5-2.4,2.5c-1.4,0-2.5-1-2.5-2.4c-0.4-17.2-14.8-31.2-32-31.2c-17.6,0-32,14.4-32,32
				c0,17,13.3,31,30.2,32c1.4,0.1,2.4,1.2,2.3,2.6C92.5,127.7,91.4,128.7,90.1,128.7z"/>
			<path fill="#49434D" d="M90.1,139.6c0,0-0.1,0-0.1,0c-25.7-1.1-45.8-22-45.8-47.7c0-26.4,21.4-47.8,47.8-47.8
				c25.9,0,47.3,21,47.8,46.9c0,1.4-1.1,2.5-2.4,2.5c-1.4,0-2.5-1.1-2.5-2.4C134.5,67.8,115.3,49,92,49c-23.6,0-42.9,19.2-42.9,42.9
				c0,23.1,18,41.9,41.1,42.8c1.4,0.1,2.4,1.2,2.4,2.6C92.5,138.6,91.4,139.6,90.1,139.6z"/>
			<path fill="#49434D" d="M90.1,116c-0.1,0-0.1,0-0.2,0c-12.8-0.8-22.8-11.6-22.8-24.5C67.2,78,78.2,67,91.7,67
				c13.3,0,24.1,10.5,24.5,23.9c0,1.4-1,2.5-2.4,2.5c-1.4,0-2.5-1-2.5-2.4C111,80.5,102.2,72,91.7,72c-10.8,0-19.6,8.8-19.6,19.6
				c0,10.3,8,18.9,18.2,19.6c1.4,0.1,2.4,1.3,2.3,2.6C92.5,115,91.4,116,90.1,116z"/>
			<path fill="#49434D" d="M90.1,128.7c0,0-0.1,0-0.1,0c-19.6-1.1-34.9-17.3-34.9-36.9c0-20.4,16.6-36.9,36.9-36.9
				c19.9,0,36.4,16.2,36.9,36c0,1.4-1,2.5-2.4,2.5c-1.4,0-2.5-1-2.5-2.4c-0.4-17.2-14.8-31.2-32-31.2c-17.6,0-32,14.4-32,32
				c0,17,13.3,31,30.2,32c1.4,0.1,2.4,1.2,2.3,2.6C92.5,127.7,91.4,128.7,90.1,128.7z"/>
		</g>
	</g>
</g>
</svg>
