<?xml version="1.0" encoding="utf-8"?>
<!-- Generator: Adobe Illustrator 18.1.1, SVG Export Plug-In . SVG Version: 6.00 Build 0)  -->
<svg version="1.1" id="Layer_1" xmlns="http://www.w3.org/2000/svg" xmlns:xlink="http://www.w3.org/1999/xlink" x="0px" y="0px"
	 viewBox="0 0 200 200" enable-background="new 0 0 200 200" xml:space="preserve">
<path fill="#49434D" d="M63.9,88.5h-1.7c-0.5,0-0.8-0.4-0.8-0.8V81c0-0.5,0.4-0.8,0.8-0.8h1.7c0.5,0,0.8,0.4,0.8,0.8v6.6
	C64.8,88.1,64.4,88.5,63.9,88.5z"/>
<path fill="#49434D" d="M68.9,88.5h-1c-0.7,0-1.2-0.5-1.2-1.2V74.6c0-0.7,0.5-1.2,1.2-1.2h1c0.7,0,1.2,0.5,1.2,1.2v12.7
	C70.1,88,69.5,88.5,68.9,88.5z"/>
<path fill="#49434D" d="M74.3,88.5h-1.2c-0.6,0-1.1-0.5-1.1-1.1V71.2c0-0.6,0.5-1.1,1.1-1.1h1.2c0.6,0,1.1,0.5,1.1,1.1v16.2
	C75.4,88,74.9,88.5,74.3,88.5z"/>
<path fill="#49434D" d="M100,200C44.9,200,0,155.1,0,100C0,44.9,44.9,0,100,0s100,44.9,100,100C200,155.1,155.1,200,100,200z
	 M100,4.9C47.6,4.9,4.9,47.6,4.9,100c0,52.4,42.7,95.1,95.1,95.1s95.1-42.7,95.1-95.1C195.1,47.6,152.4,4.9,100,4.9z"/>
<path fill="#49434D" d="M115,144.5c0,1.4-1.1,2.5-2.5,2.5H87.5c-1.4,0-2.5-1.1-2.5-2.5v-10.1c0-1.4,1.1-2.5,2.5-2.5h25.1
	c1.4,0,2.5,1.1,2.5,2.5V144.5z M90,142h19v-5H90V142z"/>
<path fill="#49434D" d="M125.8,158H73.6c-1.4,0-2.6-0.8-2.6-2.2v-3.5c0-5.9,5.1-10.4,11-10.4h35.9c5.7,0,10.2,4.4,10.2,10.4v3.5
	C128,157.2,127.1,158,125.8,158z M76,153h47v-0.6c0-3.2-2.2-5.4-5.2-5.4H82c-3.1,0-6,2.2-6,5.4V153z"/>
<path fill="#49434D" d="M144.1,136.6H55.7c-8.2,0-14.9-6.7-14.9-14.9V68.5c0-8.2,6.7-14.9,14.9-14.9h88.4c8.2,0,14.9,6.7,14.9,14.9
	v53.2C158.9,129.9,152.3,136.6,144.1,136.6z M55.7,58.5c-5.5,0-10,4.5-10,10v53.2c0,5.5,4.5,10,10,10h88.4c5.5,0,10-4.5,10-10V68.5
	c0-5.5-4.5-10-10-10H55.7z"/>
<g>
	<g>
		<defs>
			<path id="SVGID_1_" d="M72,123.2H61.6c-2.8,0-5-2.3-5-5v-14c0-2.8,2.3-5,5-5H72c2.8,0,5,2.3,5,5v14C77,120.9,74.8,123.2,72,123.2
				z"/>
		</defs>
		<clipPath id="SVGID_2_">
			<use xlink:href="#SVGID_1_"  overflow="visible"/>
		</clipPath>
		<path clip-path="url(#SVGID_2_)" fill="#49434D" d="M67.2,102.9c-2.2,0-4.1,2-4.1,4.4c0,1.7,0.9,3.1,2.1,3.9
			c0.3,0.2,0.7,0.3,1,0.4c0.3,0.1,0.6,0.1,0.9,0.1c0.3,0,0.6,0,0.9-0.1c0.3-0.1,0.6-0.2,0.8-0.3c1.4-0.7,2.4-2.2,2.4-4
			C71.2,104.9,69.4,102.9,67.2,102.9z"/>
		<path clip-path="url(#SVGID_2_)" fill="#49434D" d="M73,115.5L73,115.5c0-1.9-1.7-3.1-4.5-3.6c0,0,0.2-0.5,0.2-0.6
			c0,0,0.1,0,0.1,0c-0.3,0.1-0.5,0.2-0.8,0.3c-0.3,0.1-0.6,0.1-0.9,0.1c-0.3,0-0.6,0-0.9-0.1c-0.4-0.1-0.7-0.2-1-0.4
			c0,0,0,0.8,0,0.7c-0.1,0-0.3,0.1-0.4,0.1h0c0,0,0,0,0,0c-0.8,0.2-1.9,0.4-2.5,0.8c0,0-0.3,0-0.3,0v0c-1,0.7-2,1.7-2,2.8v-0.1
			l0.3,10.5h13.5L73,115.5z"/>
	</g>
	<path fill="#49434D" d="M72.1,124.7H61.5c-3.5,0-6.4-2.9-6.4-6.4v-14.1c0-3.5,2.9-6.4,6.4-6.4h10.6c3.5,0,6.4,2.9,6.4,6.4v14.1
		C78.5,121.8,75.6,124.7,72.1,124.7z M61.5,100.7c-1.9,0-3.5,1.6-3.5,3.5v14.1c0,1.9,1.6,3.5,3.5,3.5h10.6c1.9,0,3.5-1.6,3.5-3.5
		v-14.1c0-1.9-1.6-3.5-3.5-3.5H61.5z"/>
</g>
<g>
	<g>
		<defs>
			<path id="SVGID_3_" d="M104,123.2H93.5c-2.8,0-5-2.3-5-5v-14c0-2.8,2.3-5,5-5H104c2.8,0,5,2.3,5,5v14
				C109,120.9,106.7,123.2,104,123.2z"/>
		</defs>
		<clipPath id="SVGID_4_">
			<use xlink:href="#SVGID_3_"  overflow="visible"/>
		</clipPath>
		<path clip-path="url(#SVGID_4_)" fill="#49434D" d="M99.2,102.9c-2.2,0-4.1,2-4.1,4.4c0,1.7,0.9,3.1,2.1,3.9
			c0.3,0.2,0.7,0.3,1,0.4c0.3,0.1,0.6,0.1,0.9,0.1c0.3,0,0.6,0,0.9-0.1c0.3-0.1,0.6-0.2,0.8-0.3c1.4-0.7,2.4-2.2,2.4-4
			C103.2,104.9,101.4,102.9,99.2,102.9z"/>
		<path clip-path="url(#SVGID_4_)" fill="#49434D" d="M104,115.5L104,115.5c0-1.9-1.2-3.1-4-3.6c0,0,0.5-0.5,0.5-0.6
			c0,0,0.2,0,0.2,0c-0.3,0.1-0.4,0.2-0.7,0.3c-0.3,0.1-0.5,0.1-0.8,0.1c-0.3,0-0.6,0-0.9-0.1c-0.4-0.1-0.7-0.2-1-0.4
			c0,0,0,0.8,0,0.7c-0.1,0-0.3,0.1-0.4,0.1h0c0,0,0,0,0,0c-0.8,0.2-2.3,0.4-3,0.8c0,0-0.8,0-0.8,0v0c-1,0.7-1,1.7-1,2.8v-0.1
			l0.3,10.5h13.5L104,115.5z"/>
	</g>
	<path fill="#49434D" d="M104.1,124.7H93.5c-3.5,0-6.4-2.9-6.4-6.4v-14.1c0-3.5,2.9-6.4,6.4-6.4h10.6c3.5,0,6.4,2.9,6.4,6.4v14.1
		C110.5,121.8,107.6,124.7,104.1,124.7z M93.5,100.7c-1.9,0-3.5,1.6-3.5,3.5v14.1c0,1.9,1.6,3.5,3.5,3.5h10.6c1.9,0,3.5-1.6,3.5-3.5
		v-14.1c0-1.9-1.6-3.5-3.5-3.5H93.5z"/>
</g>
<g>
	<g>
		<defs>
			<path id="SVGID_5_" d="M136,123.2h-10.4c-2.8,0-5-2.3-5-5v-14c0-2.8,2.3-5,5-5H136c2.8,0,5,2.3,5,5v14
				C141,120.9,138.7,123.2,136,123.2z"/>
		</defs>
		<clipPath id="SVGID_6_">
			<use xlink:href="#SVGID_5_"  overflow="visible"/>
		</clipPath>
		<path clip-path="url(#SVGID_6_)" fill="#49434D" d="M131.1,102.9c-2.2,0-4.1,2-4.1,4.4c0,1.7,0.9,3.1,2.1,3.9
			c0.3,0.2,0.7,0.3,1,0.4c0.3,0.1,0.6,0.1,0.9,0.1c0.3,0,0.6,0,0.9-0.1c0.3-0.1,0.6-0.2,0.8-0.3c1.4-0.7,2.4-2.2,2.4-4
			C135.2,104.9,133.4,102.9,131.1,102.9z"/>
		<path clip-path="url(#SVGID_6_)" fill="#49434D" d="M137,115.5L137,115.5c0-1.9-1.7-3.1-4.6-3.6c0,0,0.2-0.5,0.2-0.6
			c0,0,0.1,0,0.1,0c-0.3,0.1-0.5,0.2-0.8,0.3c-0.3,0.1-0.6,0.1-0.9,0.1c-0.3,0-0.6,0-0.9-0.1c-0.4-0.1-0.7-0.2-1-0.4
			c0,0,0,0.8,0,0.7c-0.1,0-0.3,0.1-0.4,0.1h0c0,0,0,0,0,0c-0.8,0.2-1.8,0.4-2.5,0.8c0,0-0.3,0-0.3,0v0c-1,0.7-2,1.7-2,2.8v-0.1
			l0.3,10.5h13.5L137,115.5z"/>
	</g>
	<path fill="#49434D" d="M136,124.7h-10.6c-3.5,0-6.4-2.9-6.4-6.4v-14.1c0-3.5,2.9-6.4,6.4-6.4H136c3.5,0,6.4,2.9,6.4,6.4v14.1
		C142.5,121.8,139.6,124.7,136,124.7z M125.4,100.7c-1.9,0-3.5,1.6-3.5,3.5v14.1c0,1.9,1.6,3.5,3.5,3.5H136c1.9,0,3.5-1.6,3.5-3.5
		v-14.1c0-1.9-1.6-3.5-3.5-3.5H125.4z"/>
</g>
<g>
	<g>
		<defs>
			<path id="SVGID_7_" d="M104,91.7H93.5c-2.8,0-5-2.3-5-5v-14c0-2.8,2.3-5,5-5H104c2.8,0,5,2.3,5,5v14
				C109,89.5,106.7,91.7,104,91.7z"/>
		</defs>
		<clipPath id="SVGID_8_">
			<use xlink:href="#SVGID_7_"  overflow="visible"/>
		</clipPath>
		<path clip-path="url(#SVGID_8_)" fill="#49434D" d="M99.2,71.4c-2.2,0-4.1,2-4.1,4.4c0,1.7,0.9,3.1,2.1,3.9c0.3,0.2,0.7,0.3,1,0.4
			c0.3,0.1,0.6,0.1,0.9,0.1c0.3,0,0.6,0,0.9-0.1c0.3-0.1,0.6-0.2,0.8-0.3c1.4-0.7,2.4-2.2,2.4-4C103.2,73.4,101.4,71.4,99.2,71.4z"
			/>
		<path clip-path="url(#SVGID_8_)" fill="#49434D" d="M104,84L104,84c0-1.9-1.2-3.1-4-3.6c0,0,0.5-0.5,0.5-0.6c0,0,0.2,0,0.2,0
			c-0.3,0.1-0.4,0.2-0.7,0.3c-0.3,0.1-0.5,0.1-0.8,0.1c-0.3,0-0.6,0-0.9-0.1c-0.4-0.1-0.7-0.2-1-0.4c0,0,0,1.1,0,1
			c-0.1,0-0.3,0.3-0.4,0.3h0c0,0,0-0.2,0-0.2c-0.8,0.2-2.3,0.3-3,0.6c0,0-0.8-0.1-0.8-0.1v0c-1,0.7-1,1.7-1,2.8V84l0.3,10h13.5
			L104,84z"/>
	</g>
	<path fill="#49434D" d="M104.1,93.2H93.5c-3.5,0-6.4-2.9-6.4-6.4V72.6c0-3.5,2.9-6.4,6.4-6.4h10.6c3.5,0,6.4,2.9,6.4,6.4v14.1
		C110.5,90.3,107.6,93.2,104.1,93.2z M93.5,69.2c-1.9,0-3.5,1.6-3.5,3.5v14.1c0,1.9,1.6,3.5,3.5,3.5h10.6c1.9,0,3.5-1.6,3.5-3.5
		V72.6c0-1.9-1.6-3.5-3.5-3.5H93.5z"/>
</g>
<g>
	<g>
		<defs>
			<path id="SVGID_9_" d="M136,91.7h-10.4c-2.8,0-5-2.3-5-5v-14c0-2.8,2.3-5,5-5H136c2.8,0,5,2.3,5,5v14
				C141,89.5,138.7,91.7,136,91.7z"/>
		</defs>
		<clipPath id="SVGID_10_">
			<use xlink:href="#SVGID_9_"  overflow="visible"/>
		</clipPath>
		<path clip-path="url(#SVGID_10_)" fill="#49434D" d="M131.1,71.4c-2.2,0-4.1,2-4.1,4.4c0,1.7,0.9,3.1,2.1,3.9
			c0.3,0.2,0.7,0.3,1,0.4c0.3,0.1,0.6,0.1,0.9,0.1c0.3,0,0.6,0,0.9-0.1c0.3-0.1,0.6-0.2,0.8-0.3c1.4-0.7,2.4-2.2,2.4-4
			C135.2,73.4,133.4,71.4,131.1,71.4z"/>
		<path clip-path="url(#SVGID_10_)" fill="#49434D" d="M137,84L137,84c0-1.9-1.7-3.1-4.6-3.6c0,0,0.2-0.5,0.2-0.6c0,0,0.1,0,0.1,0
			c-0.3,0.1-0.5,0.2-0.8,0.3c-0.3,0.1-0.6,0.1-0.9,0.1c-0.3,0-0.6,0-0.9-0.1c-0.4-0.1-0.7-0.2-1-0.4c0,0,0,1.1,0,1
			c-0.1,0-0.3,0.3-0.4,0.3h0c0,0,0-0.2,0-0.2c-0.8,0.2-1.8,0.3-2.5,0.6c0,0-0.3-0.1-0.3-0.1v0c-1,0.7-2,1.7-2,2.8V84l0.3,10h13.5
			L137,84z"/>
	</g>
	<path fill="#49434D" d="M136,93.2h-10.6c-3.5,0-6.4-2.9-6.4-6.4V72.6c0-3.5,2.9-6.4,6.4-6.4H136c3.5,0,6.4,2.9,6.4,6.4v14.1
		C142.5,90.3,139.6,93.2,136,93.2z M125.4,69.2c-1.9,0-3.5,1.6-3.5,3.5v14.1c0,1.9,1.6,3.5,3.5,3.5H136c1.9,0,3.5-1.6,3.5-3.5V72.6
		c0-1.9-1.6-3.5-3.5-3.5H125.4z"/>
</g>
<polygon fill="#49434D" points="78,93 55,93 55,71 58,71 58,91 78,91 "/>
</svg>
