<?xml version="1.0" encoding="utf-8"?>
<!-- Generator: Adobe Illustrator 18.1.1, SVG Export Plug-In . SVG Version: 6.00 Build 0)  -->
<svg version="1.1" id="Layer_1" xmlns="http://www.w3.org/2000/svg" xmlns:xlink="http://www.w3.org/1999/xlink" x="0px" y="0px"
	 viewBox="0 0 200 200" enable-background="new 0 0 200 200" xml:space="preserve">
<g>
	<path fill="#FFFFFF" d="M100,200C44.9,200,0,155.1,0,100C0,44.9,44.9,0,100,0c55.1,0,100,44.9,100,100C200,155.1,155.1,200,100,200
		z M100,5C47.6,5,5,47.6,5,100c0,52.4,42.6,95,95,95c52.4,0,95-42.6,95-95C195,47.6,152.4,5,100,5z"/>
	<path fill="#FFFFFF" d="M125.6,155.5H75c-5.8,0-10.4-4.7-10.4-10.4V54.9c0-5.8,4.7-10.4,10.4-10.4h50.6c5.8,0,10.4,4.7,10.4,10.4
		v90.1C136.1,150.8,131.4,155.5,125.6,155.5z M75,49.5c-3,0-5.5,2.5-5.5,5.5v90.1c0,3,2.5,5.5,5.5,5.5h50.6c3,0,5.5-2.5,5.5-5.5
		V54.9c0-3-2.5-5.5-5.5-5.5H75z"/>
	<path fill="#FFFFFF" d="M119.8,136.4h-39c-4.7,0-8.5-3.8-8.5-8.5V73.6c0-4.7,3.8-8.5,8.5-8.5h39c4.7,0,8.5,3.8,8.5,8.5v54.3
		C128.2,132.6,124.4,136.4,119.8,136.4z M80.8,70.2c-1.9,0-3.5,1.6-3.5,3.5v54.3c0,1.9,1.6,3.5,3.5,3.5h39c1.9,0,3.5-1.6,3.5-3.5
		V73.6c0-1.9-1.6-3.5-3.5-3.5H80.8z"/>
	<g>
		<path fill="#FFFFFF" d="M108.1,60H85.2c-0.7,0-1.3-0.6-1.3-1.3V57c0-0.7,0.6-1.3,1.3-1.3h22.9c0.7,0,1.3,0.6,1.3,1.3v1.7
			C109.4,59.4,108.8,60,108.1,60z"/>
		<path fill="#FFFFFF" d="M115.4,60h-1c-0.7,0-1.3-0.6-1.3-1.3V57c0-0.7,0.6-1.3,1.3-1.3h1c0.7,0,1.3,0.6,1.3,1.3v1.7
			C116.8,59.4,116.2,60,115.4,60z"/>
	</g>
	<path fill="#FFFFFF" d="M91.6,114.5c0.2,0.1,1.6,0.1,2.8,0.1c0.5,0,2.8-1.1,3.3-1.5l7.2-5.7c0.2-0.1,0.4-0.1,0.6,0l8.4,6.4
		c0.5,0.4,1.1,0.6,1.7,0.5c0.6-0.1,1.2-0.4,1.6-0.8c0.8-1,0.7-2.5-0.3-3.3l-10.2-8c-0.9-0.7-2.2-0.7-3,0l-7.5,5
		c-0.5,0.3-0.9,0.1-1,0c-0.8-0.5-2.9-6.5-3-6.9c-0.1-0.2-0.1-0.4-0.1-0.5c0-0.2,0.1-0.3,0.3-0.4l7.5-3.7c0.7-0.3,1.1-1,1.1-1.8
		c0-0.8-0.5-1.4-1.2-1.7l-6.8-2.7c0,0,0,0,0,0L90,88.5c0,0-0.1,0-0.1,0l-0.1,0l-0.1,0l-0.1,0l-0.1,0l-0.1,0l-0.8,0.2l-0.6,0.4
		l-0.4,0.6c-0.2,0.5-0.2,1,0,1.5c0.2,0.5,0.6,0.8,1,1l4.7,1.8c0.2,0.1,0.3,0.3,0.3,0.5c0,0.2-0.1,0.4-0.3,0.5c-0.1,0-0.1,0-0.2,0.1
		c-0.1,0.1-0.3,0.2-0.6,0.3c-0.3,0.1-0.5-0.1-0.6-0.3c-0.1-0.2,0-0.3,0.1-0.5l-3.7-1.5c-0.7-0.3-1.3-0.8-1.6-1.5
		c-0.3-0.7-0.3-1.5,0-2.2c0-0.1,0.1-0.1,0.1-0.2c0.1-0.1,0.1-0.2,0.1-0.2l0.1-0.2c0.1-0.1,0.1-0.1,0.1-0.2c0.1-0.1,0.1-0.1,0.1-0.2
		c0.1-0.1,0.1-0.1,0.2-0.2c0.1-0.1,0.1-0.1,0.1-0.1c0.1-0.1,0.1-0.1,0.2-0.1l0.2-0.1c0.1,0,0.1-0.1,0.2-0.1l0.2-0.1
		c0.1,0,0.1-0.1,0.2-0.1l0.2-0.1c0.1,0,0.1,0,0.2,0c0.1,0,0.2,0,0.2,0c0.1,0,0.1,0,0.2,0c0,0,0.1,0,0.1,0c0,0,0.1,0,0.1,0l0.1,0
		c0,0,0.1,0,0.2,0c0,0,0.1,0,0.1,0c0,0,0.1,0,0.1,0c0,0,0.2,0,0.2,0l0.2,0.1l2.1,0.8c-0.2-0.6-0.6-1.1-0.9-1.5
		c-0.9-0.9-2.3-1.5-3.6-1.5c-2.8,0-5.1,2.3-5.1,5.1c0,2.2,1.4,4.2,3.6,4.9c0.2,0.1,0.3,0.3,0.3,0.5s-0.1,0.4-0.3,0.5
		c-1.1,0.4-3.9,1.3-1.3,9C87.6,112.7,89.9,114.1,91.6,114.5z"/>
</g>
</svg>
