<?xml version="1.0" encoding="utf-8"?>
<!-- Generator: Adobe Illustrator 18.1.1, SVG Export Plug-In . SVG Version: 6.00 Build 0)  -->
<svg version="1.1" id="Layer_1" xmlns="http://www.w3.org/2000/svg" xmlns:xlink="http://www.w3.org/1999/xlink" x="0px" y="0px"
	 viewBox="0 0 80 80" enable-background="new 0 0 80 80" xml:space="preserve">
<path fill="#3BD6B2" d="M40,1C18.5,1,1,18.5,1,40c0,21.5,17.5,39,39,39c21.5,0,39-17.5,39-39C79,18.5,61.5,1,40,1z"/>
<g>
	<path fill="#49434D" d="M61.2,57.6H19.8v-6.9l11.3-10L41.9,51c0.2,0.2,0.5,0.3,0.8,0.3c0.3,0,0.5-0.2,0.7-0.4L58,29l3.3,2.2
		l0.7-9.8l-8.8,4.3l3.3,2.2l-14,20.9L31.8,38.7c-0.4-0.4-1-0.4-1.3,0l-10.6,9.4V21.4c0-0.5-0.4-1-1-1c-0.5,0-1,0.4-1,1v37.2
		c0,0.5,0.4,1,1,1h42.3c0.5,0,1-0.4,1-1S61.7,57.6,61.2,57.6z"/>
</g>
<path fill="#49434D" d="M40,80C17.9,80,0,62.1,0,40C0,17.9,17.9,0,40,0c22.1,0,40,17.9,40,40C80,62.1,62.1,80,40,80z M40,2
	C19,2,2,19,2,40C2,61,19,78,40,78C61,78,78,61,78,40C78,19,61,2,40,2z"/>
</svg>
