<?xml version="1.0" encoding="utf-8"?>
<!-- Generator: Adobe Illustrator 18.1.1, SVG Export Plug-In . SVG Version: 6.00 Build 0)  -->
<svg version="1.1" id="Layer_1" xmlns="http://www.w3.org/2000/svg" xmlns:xlink="http://www.w3.org/1999/xlink" x="0px" y="0px"
	 viewBox="0 0 80 80" enable-background="new 0 0 80 80" xml:space="preserve">
<g>
	<g>
		<path fill="#FFFFFF" d="M27.8,72.8h-4c-0.1,0-0.1,0-0.2,0l-0.2,0c-0.3,0-0.6,0-0.9-0.1c-0.6,0-1.3-0.1-2-0.2
			c-1.4-0.2-3.2-0.5-5-0.8c-2.2-0.4-4.5-1.1-7-2.1c-2.7-1.1-5.2-2.4-7.6-3.8c-0.1-0.1-0.2-0.1-0.3-0.2l-0.1-0.1
			c-0.4-0.3-0.6-0.9-0.5-1.4c0.2-0.5,0.7-0.8,1.2-0.8c4.1,0.4,8.1,0.1,11.9-1c4.3-1.2,7.7-2.8,10.7-5.2c0.5-0.4,1.2-0.3,1.6,0.2
			c0.4,0.5,0.3,1.2-0.2,1.6c-3.2,2.5-6.9,4.3-11.5,5.6c-2.6,0.7-5.3,1.1-8,1.2c1.1,0.6,2.3,1.1,3.5,1.6c2.3,0.9,4.5,1.6,6.6,2
			c1.8,0.3,3.5,0.6,4.8,0.8c0.6,0.1,1.2,0.1,1.8,0.2c0.3,0,0.6,0,0.9,0.1c0.1,0,0.2,0,0.4,0.1h3.8l0.3,0c0.3,0,0.6-0.1,0.9-0.1
			c9.4-0.6,17.7-3.9,24.7-9.6c4.4-3.7,8.1-8.2,10.9-13.6c2.5-4.7,4.1-9.7,4.9-15c0.4-2.4,0.5-5,0.4-7.7c0-0.7,0.2-1.2,0.8-1.6
			c1.8-1.4,3.5-2.9,5-4.7c-1.8,0.6-3.7,0.9-5.5,1.1c-0.5,0.1-1-0.3-1.2-0.8c-0.2-0.5,0-1.1,0.5-1.4c2.2-1.4,3.9-3.1,5-5.2
			c-2.3,1-4.6,1.8-7.1,2.4c-0.7,0.1-1.2,0-1.7-0.5c-2.6-2.6-5.7-4-9.3-4.4c-0.1,0-0.2,0-0.3-0.1h-2.4l-0.2,0
			c-0.3,0.1-0.5,0.1-0.8,0.1c-1.4,0.2-2.8,0.6-4.1,1.3c-1,0.5-1.9,1.1-2.7,1.7c-1.4,1.2-2.5,2.4-3.4,3.8c-1,1.6-1.6,3.2-1.9,4.8
			c-0.1,0.8-0.2,1.6-0.3,2.3c0,0.8,0,1.7,0.1,2.5c0,0.2,0.1,0.5,0.1,0.7c0,0.2,0.1,0.3,0.1,0.5c0,0.1,0,0.1,0,0.2l0,0.2
			c0.1,0.6-0.4,1.2-1,1.3c-0.6,0.1-1.2-0.4-1.3-1l0-0.2c0-0.1,0-0.1,0-0.1c0-0.1-0.1-0.3-0.1-0.4c-0.1-0.3-0.1-0.7-0.2-1.1
			c-0.1-0.9-0.1-1.8-0.1-2.7c0-0.9,0.1-1.7,0.3-2.6c0.4-1.9,1.1-3.8,2.2-5.6c1-1.7,2.3-3.1,3.9-4.4c1-0.8,2-1.5,3.2-2
			c1.6-0.8,3.2-1.3,4.9-1.5c0.2,0,0.4-0.1,0.6-0.1l0.3-0.1c0.1,0,0.1,0,0.2,0H56c0.1,0,0.1,0,0.2,0l0.2,0c4,0.4,7.6,2,10.5,4.9
			c3.1-0.7,6-1.8,8.8-3.4c0.1-0.1,0.2-0.1,0.3-0.1l0.1,0c0.4-0.2,0.9-0.2,1.3,0.2c0.4,0.3,0.5,0.8,0.4,1.2c-0.8,2.4-2,4.6-3.7,6.4
			c0.7-0.2,1.3-0.4,2-0.6c0.6-0.2,1.1-0.4,1.6-0.6l0.8-0.3c0.4-0.1,0.8-0.1,1.1,0.1c0.3,0.2,0.5,0.6,0.5,1V16c0,0.3-0.1,0.6-0.3,0.8
			l-0.1,0.1c-2.1,3-4.6,5.7-7.5,7.9c0.1,2.7-0.1,5.4-0.4,7.9c-0.8,5.5-2.5,10.8-5.1,15.7c-3,5.6-6.8,10.4-11.5,14.3
			c-7.3,6-16.1,9.4-26,10.1c-0.3,0-0.5,0-0.8,0.1l-0.4,0C27.8,72.8,27.8,72.8,27.8,72.8z"/>
	</g>
	<path fill="#FFFFFF" d="M13.5,64.6c-0.5,0-1-0.3-1.1-0.8c-0.2-0.6,0.2-1.3,0.8-1.4c3.2-0.9,5.9-2,8.2-3.4
		c-7.4-1.5-11.6-7.5-12.7-11.6l-0.5-1.8l1.8,0.4c0.6,0.1,1.2,0.2,1.9,0.2c-2-1.1-3.7-2.5-5.1-4.3C4.3,38.6,3,35,3,30.8l0-1.9
		l1.7,0.9c0.9,0.5,1.8,0.9,2.7,1.2c-1.9-2.2-3.3-4.7-3.9-7.6c-1-4.3-0.3-8.4,1.9-12.4l0.8-1.5l1.1,1.3c8.5,10.1,19,15.4,32.1,16.3
		c0.6,0,1.1,0.6,1.1,1.2c0,0.6-0.6,1.1-1.2,1.1c-12.9-0.9-23.9-6.2-32.5-15.8c-1.3,3-1.6,6.1-0.9,9.2c0.8,3.7,2.9,6.7,6.1,9l3.1,2.2
		L11.2,34c-2-0.1-3.9-0.5-5.8-1.2c0.3,2.8,1.3,5.3,3.1,7.6c2.1,2.7,5,4.5,8.5,5.3l4.4,1l-4.4,1.2c-1.8,0.5-3.7,0.7-5.5,0.5
		c1.8,3.7,6.2,8.4,13.1,8.6l3.2,0.1l-2.6,2c-3.2,2.5-6.9,4.3-11.5,5.6C13.7,64.6,13.6,64.6,13.5,64.6z"/>
</g>
</svg>
