<?xml version="1.0" encoding="utf-8"?>
<!-- Generator: Adobe Illustrator 18.1.1, SVG Export Plug-In . SVG Version: 6.00 Build 0)  -->
<svg version="1.1" id="Layer_1" xmlns="http://www.w3.org/2000/svg" xmlns:xlink="http://www.w3.org/1999/xlink" x="0px" y="0px"
	 viewBox="0 0 200 200" enable-background="new 0 0 200 200" xml:space="preserve">
<g>
	<g>
		<defs>
			<path id="SVGID_1_" d="M100,200C44.9,200,0,155.1,0,100C0,44.9,44.9,0,100,0s100,44.9,100,100C200,155.1,155.1,200,100,200z
				 M100,5C47.6,5,5,47.6,5,100c0,52.4,42.6,95,95,95s95-42.6,95-95C195,47.6,152.4,5,100,5z"/>
		</defs>
		<use xlink:href="#SVGID_1_"  overflow="visible" fill="#49434D"/>
		<clipPath id="SVGID_2_">
			<use xlink:href="#SVGID_1_"  overflow="visible"/>
		</clipPath>
		<path clip-path="url(#SVGID_2_)" fill="#461376" d="M77.6,188.4c0.4,0.4,0.8,0.9,1.3,1.3C78.5,189.2,78,188.8,77.6,188.4z"/>
	</g>
	<g>
		<path fill="#49434D" d="M100.6,54.8c-1.2,0-2.5-0.2-3.8-0.5c-1.5-0.4-2.9-0.9-4.1-1.7C87.3,49.5,84,43.5,84,37
			c0-9.8,7.5-17.8,16.6-17.8s16.6,8,16.6,17.8c0,6.9-3.8,13.2-9.6,16.1c-1.1,0.5-2.3,1-3.3,1.2C103.1,54.6,101.9,54.8,100.6,54.8z
			 M100.6,24.2C94.2,24.2,89,29.9,89,37c0,4.7,2.4,9.1,6.2,11.3c0.9,0.5,1.8,0.9,2.9,1.2c1.8,0.5,3.5,0.4,5.1,0
			c0.7-0.2,1.6-0.5,2.3-0.9c4.1-2.1,6.8-6.6,6.8-11.6C112.3,29.9,107.1,24.2,100.6,24.2z"/>
		<path fill="#49434D" d="M91.9,180.8c-0.6,0-1.2,0-1.8-0.1c-4.3-0.6-7.3-3.3-8-7.5c-0.4-2.2-0.4-4.4-0.4-6.5c0-23.1,0-66.2,0-84
			c-1.9,2.8-3.7,5.5-5.5,8.2c-2.6,3.9-5.3,7.8-8.1,11.9c-1.9,2.7-4.4,4.3-7,4.3c-1.9,0-3.8-0.8-5.4-2.3c-3.2-3-3.5-6.7-0.8-10.9
			C61.7,83,74.3,64.9,75.8,62.8c1.4-2.5,3.8-4.8,7-6.6c3-1.9,6.4-3.1,10.5-3.7c0.1,0,0.3,0,0.4,0c1.3,0,2.3,0.9,2.6,2.1
			c0.1,0.3,0.1,0.6,0,0.8c0.5,1.4,1.9,2.3,3.6,2.3c1.9,0,3.4-1.2,3.8-3.1c0.3-1.4,1.6-2.3,3-2.1c8.1,1.2,13.5,4.6,18.2,11.2
			c0,0,0,0.1,0.1,0.1c3.4,5.2,6.5,9.8,9.6,14.1c3.4,4.8,6.8,9.8,10.6,15.7c2.7,4.3,2.4,8-0.8,10.9c-1.6,1.5-3.5,2.3-5.4,2.3l0,0
			c-2.6,0-5.1-1.5-7-4.3c-2.4-3.6-4.8-7-7.1-10.4c-2.3-3.3-4.5-6.5-6.7-9.8c-0.1,14.7,0,29.6,0,44.1c0,13.2,0.1,26.8,0,39.9
			c0,0.3,0,0.8,0,1.3c0,1.5,0,3.3-0.1,4.3c-0.5,5-4.4,8.5-9.7,8.5l-0.2,0c-2.8-0.1-5.7-1.3-7.6-3.4
			C98.6,179.5,95.5,180.8,91.9,180.8z M84.2,72.1c0.2,0,0.5,0,0.7,0.1c1,0.3,1.7,1.3,1.7,2.4c0,0,0,62.5,0,91.9c0,2.1,0,4,0.3,5.7
			c0.4,2.1,1.5,3.2,3.8,3.5c0.4,0.1,0.8,0.1,1.1,0.1c2.9,0,6-1.5,6.1-4.9c0-8.9,0-18.4,0-27.7c0-8.7,0-17.6,0-26
			c0-2.8,2.1-2.9,2.5-2.9c1.8,0,2.3,0.7,2.5,2.7h0c0,0,0,0,0,0c0.1,0.5,0.1,1,0.1,1.5c0,1,0,2.1,0,2.7c0,7.8,0,15.5,0,23.1
			c0,8.6,0,17.6,0,26.5c0,3,2.6,4.8,5.2,4.8l0.1,0c2.6,0,4.5-1.6,4.7-4c0.1-0.8,0.1-2.6,0-3.8c0-0.5,0-1,0-1.4
			c0.1-13.2,0-26.8,0-39.9c-0.1-17.2-0.1-34.9,0-52.1c0-1.1,0.7-2,1.8-2.4c1-0.3,2.2,0.1,2.8,1c3.9,5.6,7.4,10.8,11.2,16.3
			c2.3,3.4,4.7,6.9,7.1,10.4c0.5,0.8,1.6,2.1,2.9,2.1c0.8,0,1.6-0.5,2.1-1c1.1-1,1.7-1.9-0.1-4.6c-3.7-5.8-6.9-10.5-10.4-15.5
			c-3.1-4.4-6.2-9-9.6-14.2c-2.6-3.7-6-7.2-12.9-8.7c-1.4,3-4.4,4.9-7.9,4.9c-3.6,0-6.6-1.9-8-4.9c-2.5,0.6-4.6,1.4-6.5,2.6
			c0,0-0.1,0-0.1,0.1c-2.4,1.4-4.3,3.1-5.2,4.8c-0.1,0.1-0.1,0.2-0.2,0.3C79.4,66.3,66,85.5,59.2,96.3c-1.7,2.7-1.1,3.7-0.1,4.6
			c0.5,0.5,1.2,1,2.1,1c1.3,0,2.4-1.3,2.9-2.1c2.8-4.1,5.5-8,8-11.9c3.2-4.8,6.5-9.8,10.1-14.8C82.6,72.5,83.4,72.1,84.2,72.1z"/>
	</g>
	<path fill="#49434D" d="M128.9,97.8c-8.6,0-15.7-7-15.7-15.7s7-15.7,15.7-15.7s15.7,7,15.7,15.7S137.5,97.8,128.9,97.8z
		 M128.9,69.4c-7,0-12.7,5.7-12.7,12.7c0,7,5.7,12.7,12.7,12.7s12.7-5.7,12.7-12.7C141.5,75.1,135.9,69.4,128.9,69.4z"/>
</g>
</svg>
