<?xml version="1.0" encoding="utf-8"?>
<!-- Generator: Adobe Illustrator 18.1.1, SVG Export Plug-In . SVG Version: 6.00 Build 0)  -->
<svg version="1.1" id="Layer_1" xmlns="http://www.w3.org/2000/svg" xmlns:xlink="http://www.w3.org/1999/xlink" x="0px" y="0px"
	 viewBox="0 0 80 80" enable-background="new 0 0 80 80" xml:space="preserve">
<g>
	<path fill="#49434D" d="M40,80C17.9,80,0,62.1,0,40C0,17.9,17.9,0,40,0c22.1,0,40,17.9,40,40C80,62.1,62.1,80,40,80z M40,2
		C19,2,2,19,2,40C2,61,19,78,40,78C61,78,78,61,78,40C78,19,61,2,40,2z"/>
	<g>
		<path fill="#49434D" d="M35.7,61.9c-4.1,0-4.8-0.1-5-0.2c-4.1-1-7.3-5.3-10.1-13.8c-2.3-6.9-2-11.4,0.9-13.6
			c-2.6-1.6-4.2-4.4-4.2-7.5c0-4.9,3.9-8.8,8.8-8.8c2.2,0,4.6,1,6.1,2.6c1.1,1.1,1.7,2.3,1.8,3.6l8.9,3.5c1.6,0.6,2.7,2.1,2.7,3.8
			c0.1,1.7-0.9,3.3-2.4,4l-9.8,4.8c1,3.4,2.6,7.9,3.3,9.5l9.9-8c1.8-1.6,4.5-1.6,6.3-0.1l14.2,11.1c1,0.9,1.7,2,1.8,3.4
			c0.1,1.3-0.3,2.6-1.1,3.6c-0.8,1-2,1.6-3.3,1.8c-1.3,0.1-2.6-0.3-3.6-1.1l-11-8.5l-10.8,8.7c-0.9,0.8-1.7,1.1-2.9,1.1
			C36.2,61.9,36,61.9,35.7,61.9z M31.3,59.9c0.4,0.1,2.9,0.1,5.2,0.1c0.7,0,1.1-0.2,1.6-0.6l11.4-9.3c0.4-0.3,0.9-0.3,1.2,0L62.3,59
			c0.6,0.5,1.4,0.8,2.2,0.7c0.8-0.1,1.5-0.5,2-1.1c0.5-0.6,0.7-1.4,0.7-2.2c-0.1-0.8-0.5-1.5-1.1-2L51.9,43.4
			c-1.1-0.9-2.8-0.9-3.9,0l-10.3,8.3c-0.1,0-0.1,0.1-0.2,0.1c-0.8,0.4-1.4,0.1-1.6-0.1c-0.3-0.2-1-0.7-4.2-11.2
			c-0.1-0.3-0.1-0.6-0.1-0.8c0-0.4,0.2-0.7,0.6-0.8l10.4-5.1c0.8-0.4,1.3-1.3,1.3-2.2c0-0.9-0.6-1.7-1.5-2.1l-9.5-3.7c0,0,0,0,0,0
			l-4-1.6c0,0-0.1,0-0.1,0c0,0,0,0,0,0l-0.1,0c0,0,0,0,0,0l-0.1,0c0,0,0,0-0.1,0l-0.1,0c0,0,0,0,0,0l0,0c0,0-0.1,0-0.1,0l-0.1,0
			c0,0,0,0-0.1,0l-0.1,0c0,0,0,0,0,0c0,0-0.1,0-0.1,0c0,0,0,0,0,0c0,0,0,0,0,0c0,0-0.1,0-0.1,0l0,0c-0.1,0-0.1,0-0.1,0
			c-0.1,0-0.1,0-0.1,0c-0.1,0-0.1,0-0.2,0.1c-0.1,0-0.1,0-0.1,0.1c-0.1,0-0.1,0.1-0.2,0.1c-0.1,0-0.1,0.1-0.1,0.1
			c-0.1,0-0.1,0.1-0.1,0.1c-0.1,0-0.1,0.1-0.1,0.1c-0.1,0.1-0.1,0.1-0.1,0.1l-0.7-0.6l0.7,0.7c0,0-0.1,0.1-0.1,0.1c0,0,0,0,0,0
			c0,0,0,0.1-0.1,0.1c-0.1,0.1-0.1,0.1-0.1,0.2l0,0c0,0,0,0,0,0c0,0,0,0.1-0.1,0.1c0,0.1-0.1,0.1-0.1,0.2c-0.5,1.2,0.1,2.6,1.3,3
			l6.5,2.6c0.4,0.2,0.6,0.5,0.6,0.9c0,0.4-0.3,0.8-0.7,0.9c-0.1,0-0.1,0-0.2,0.1c-0.2,0.1-0.4,0.3-0.9,0.4c-0.5,0.2-1.1-0.1-1.2-0.6
			c-0.1-0.2-0.1-0.4,0-0.6l-4.8-1.9c-2.2-0.9-3.3-3.4-2.4-5.6c0-0.1,0.1-0.2,0.1-0.3c0,0,0-0.1,0-0.1c0-0.1,0.1-0.2,0.1-0.2
			c0,0,0,0,0,0c0-0.1,0.1-0.2,0.1-0.2c0,0,0,0,0,0c0.1-0.1,0.1-0.2,0.2-0.2c0,0,0,0,0,0c0.1-0.1,0.1-0.1,0.2-0.2l0,0
			c0.1-0.1,0.1-0.1,0.2-0.2c0,0,0,0,0,0c0.1-0.1,0.1-0.1,0.2-0.2l0.1,0c0.1,0,0.1-0.1,0.2-0.2c0,0,0,0,0,0c0.1,0,0.1-0.1,0.2-0.1
			l0.5,0.8l-0.5-0.9c0.1,0,0.2-0.1,0.3-0.1c0,0,0,0,0,0c0.1,0,0.2-0.1,0.2-0.1c0,0,0,0,0,0c0.1,0,0.2-0.1,0.3-0.1c0,0,0.1,0,0.1,0
			c0.1,0,0.1,0,0.2-0.1c0,0,0,0,0,0c0.1,0,0.2,0,0.3-0.1c0,0,0.1,0,0.1,0c0.1,0,0.2,0,0.3,0c0,0,0,0,0,0v0c0.1,0,0.2,0,0.3,0l0.2,0
			c0,0,0.1,0,0.1,0c0,0,0,0,0.1,0l0.1,0c0.1,0,0.1,0,0.1,0c0,0,0.1,0,0.1,0l0.1,0c0.1,0,0.1,0,0.1,0l0.1,0c0,0,0.1,0,0.1,0l0.1,0
			c0,0,0.1,0,0.1,0l0.1,0c0.1,0,0.1,0,0.2,0.1l2.3,0.9c-0.3-0.6-0.6-1-1-1.3c-1.2-1.2-3.1-2-4.7-2c-3.8,0-6.8,3.1-6.8,6.8
			c0,3,1.9,5.6,4.7,6.5c0.4,0.1,0.7,0.5,0.7,0.9c0,0.4-0.3,0.8-0.7,0.9c-1.4,0.5-5.1,1.7-1.6,12.1C25.9,57.4,28.9,59.3,31.3,59.9
			C31.2,59.9,31.3,59.9,31.3,59.9z"/>
	</g>
	<g opacity="0.4">
		<path fill="#49434D" d="M34,51.1c-0.2,0-0.4,0-0.5-0.1c-0.3-0.1-1.2-0.5-6.8-9.8c-0.1-0.2-0.2-0.5-0.3-0.8
			c-0.1-0.3,0.1-0.7,0.3-0.9l8.9-7.4c0.7-0.6,1-1.5,0.8-2.4c-0.3-0.9-1-1.5-1.9-1.7l-14.3-2c0,0-0.1,0-0.1,0c0,0,0,0,0,0l-0.1,0
			c0,0,0,0,0,0l-0.1,0c0,0,0,0,0,0l-0.2,0l-0.2-1l0.1,1l-0.2-1l0.2,1c0,0-0.1,0-0.1,0l-0.1,0c0,0,0,0,0,0l0,0c0,0-0.1,0-0.1,0
			c0,0,0,0,0,0c-0.1,0-0.1,0-0.1,0.1l0,0c0,0-0.1,0-0.1,0.1c-0.1,0-0.1,0.1-0.1,0.1c-0.1,0-0.1,0.1-0.2,0.1c-0.1,0-0.1,0.1-0.1,0.1
			c-0.1,0.1-0.1,0.1-0.1,0.1l0,0c0,0,0,0-0.1,0.1c-0.1,0.1-0.1,0.1-0.1,0.1c0,0.1-0.1,0.1-0.1,0.1c0,0,0,0,0,0c0,0,0,0.1-0.1,0.1
			L17,26.7l0.9,0.5c0,0,0,0.1-0.1,0.1c0,0,0,0,0,0c0,0,0,0.1,0,0.1c0,0.1,0,0.1-0.1,0.2l0,0c0,0,0,0,0,0c0,0,0,0.1,0,0.1
			c0,0.1,0,0.1,0,0.2c-0.1,0.6,0.1,1.2,0.5,1.7c0.4,0.5,0.9,0.8,1.5,0.9l6.9,0.9c0.4,0.1,0.7,0.4,0.8,0.8c0.1,0.4-0.1,0.8-0.4,1
			c-0.1,0-0.1,0-0.1,0.1c-0.1,0.2-0.3,0.4-0.8,0.6c-0.5,0.3-1.1,0.2-1.4-0.3c-0.1-0.2-0.2-0.4-0.2-0.6l-5.1-0.7
			c-1.1-0.2-2.1-0.7-2.8-1.7c-0.7-0.9-1-2-0.8-3.2c0-0.1,0-0.2,0.1-0.3c0,0,0-0.1,0-0.1c0-0.1,0-0.2,0.1-0.3c0,0,0,0,0,0
			c0-0.1,0.1-0.2,0.1-0.2c0,0,0,0,0,0c0-0.1,0.1-0.2,0.1-0.3c0,0,0,0,0,0c0-0.1,0.1-0.1,0.1-0.2l0-0.1c0-0.1,0.1-0.2,0.1-0.2
			c0,0,0,0,0,0c0-0.1,0.1-0.1,0.1-0.2l0-0.1c0.1-0.1,0.1-0.1,0.2-0.2c0,0,0,0,0,0c0-0.1,0.1-0.1,0.2-0.2l0.7,0.7l-0.7-0.7
			c0.1-0.1,0.1-0.1,0.2-0.2c0,0,0,0,0,0c0.1-0.1,0.1-0.1,0.2-0.2c0,0,0,0,0,0c0.1,0,0.1-0.1,0.2-0.1c0,0,0,0,0.1,0
			c0,0,0.1-0.1,0.2-0.1c0,0,0,0,0,0c0.1,0,0.2-0.1,0.3-0.1c0,0,0.1,0,0.1,0c0.1,0,0.2-0.1,0.2-0.1c0,0,0,0,0,0l0,0
			c0.1,0,0.2-0.1,0.3-0.1c0,0,0,0,0,0l0.1,0c0,0,0.1,0,0.1,0l0.2,0c0.1,0,0.1,0,0.1,0c0,0,0.1,0,0.1,0l0.1,0c0,0,0.1,0,0.1,0l0.1,0
			l0.2,0c0.1,0,0.1,0,0.1,0c0,0,0.1,0,0.1,0c0.1,0,0.1,0,0.2,0l14.3,2c1.7,0.2,3.1,1.4,3.6,3.1c0.5,1.6-0.1,3.4-1.4,4.5l-8.3,6.9
			c1.9,3.1,4.6,7.3,5.5,8.5c0.4-0.1,0.8,0,1.1,0.3c0.3,0.4,0.3,1-0.1,1.4C34.7,51,34.3,51.1,34,51.1z"/>
		<path fill="#49434D" d="M30.9,61.9c-4.2,0-8.3-3.4-13.1-11c-3.9-6.2-4.7-10.6-2.3-13.4c-2.9-0.9-5.1-3.3-5.8-6.3
			c-0.6-2.3-0.2-4.6,1-6.7c1.2-2,3.1-3.4,5.4-4c2.1-0.5,4.7-0.1,6.6,1c1.5,0.9,2.5,2.2,2.9,3.7c0.1,0.5-0.2,1.1-0.7,1.2
			c-0.5,0.1-1.1-0.2-1.2-0.7c-0.3-1.3-1.2-2.1-2-2.5c-1.5-0.9-3.5-1.2-5.1-0.8c-1.8,0.4-3.3,1.5-4.2,3.1c-0.9,1.6-1.2,3.4-0.8,5.2
			c0.7,2.9,3.2,5,6.2,5.2c0.4,0,0.8,0.3,0.9,0.7c0.1,0.4-0.1,0.8-0.4,1.1c-1.2,0.8-4.5,2.9,1.3,12.1C25.2,58.9,28.6,60,31,60
			c0.5,0,1,0.4,1,1C32,61.5,31.5,61.9,30.9,61.9C31,61.9,30.9,61.9,30.9,61.9z"/>
	</g>
</g>
</svg>
