<?xml version="1.0" encoding="utf-8"?>
<!-- Generator: Adobe Illustrator 18.1.1, SVG Export Plug-In . SVG Version: 6.00 Build 0)  -->
<svg version="1.1" id="Layer_1" xmlns="http://www.w3.org/2000/svg" xmlns:xlink="http://www.w3.org/1999/xlink" x="0px" y="0px"
	 viewBox="0 0 80 80" enable-background="new 0 0 80 80" xml:space="preserve">
<path fill="#3BD6B2" d="M40,1C18.5,1,1,18.5,1,40c0,21.5,17.5,39,39,39c21.5,0,39-17.5,39-39C79,18.5,61.5,1,40,1z M55,58.1V30.6
	c0-0.5-0.5-1-1-1s-1,0.4-1,1V59v0.6v0.5H40H27v-0.5V59V30.6c0-0.5-0.5-1-1-1s-1,0.4-1,1v27.6h-6.3L19,28.9c0,0,0-0.1,0-0.1
	c0-4.7,6-9.2,14.2-10.8c0.9,2.8,3.5,4.6,6.7,4.6c0,0,0.1,0,0.1,0c0,0,0.1,0,0.1,0c3.2,0,5.8-1.9,6.7-4.6C55,19.5,61,24.1,61,28.8
	c0,0,0,0.1,0,0.1l0.3,29.3H55z"/>
<path fill="#49434D" d="M40,80C17.9,80,0,62.1,0,40S17.9,0,40,0c22.1,0,40,17.9,40,40S62.1,80,40,80z M40,2C19,2,2,19,2,40
	S19,78,40,78C61,78,78,61,78,40S61,2,40,2z"/>
<path fill="#49434D" d="M62.9,28.6c0,0,0-0.1,0-0.1c-0.3-5.8-7.2-11.1-16.7-12.6c-0.5-0.1-1,0.3-1.1,0.8c-0.4,2.4-2.4,4-5,4
	c0,0,0,0-0.1,0c0,0,0,0-0.1,0c-2.6,0-4.6-1.6-5-4c-0.1-0.5-0.6-0.9-1.1-0.8c-9.5,1.5-16.5,6.8-16.7,12.6c0,0,0,0.1,0,0.1l-0.3,30.5
	c0,0.3,0.1,0.5,0.3,0.7c0.2,0.2,0.4,0.3,0.7,0.3h5.4H25h0v1.7c0,0.2,0.1,0.3,0.2,0.3h1.2H27h13h13h0.6h1.2c0.1,0,0.2-0.1,0.2-0.3
	v-1.7h0h1.9h5.4c0.3,0,0.5-0.2,0.7-0.3c0.2-0.2,0.3-0.5,0.3-0.7L62.9,28.6z M55,58.1V30.6c0-0.5-0.5-1-1-1s-1,0.4-1,1V59v0.6v0.5H40
	H27v-0.5V59V30.6c0-0.5-0.5-1-1-1s-1,0.4-1,1v27.6h-6.3L19,28.9c0,0,0-0.1,0-0.1c0-4.7,6-9.2,14.2-10.8c0.9,2.8,3.5,4.6,6.7,4.6
	c0,0,0.1,0,0.1,0c0,0,0.1,0,0.1,0c3.2,0,5.8-1.9,6.7-4.6C55,19.5,61,24.1,61,28.8c0,0,0,0.1,0,0.1l0.3,29.3H55z"/>
</svg>
