<?xml version="1.0" encoding="utf-8"?>
<!-- Generator: Adobe Illustrator 18.1.1, SVG Export Plug-In . SVG Version: 6.00 Build 0)  -->
<svg version="1.1" id="Layer_1" xmlns="http://www.w3.org/2000/svg" xmlns:xlink="http://www.w3.org/1999/xlink" x="0px" y="0px"
	 viewBox="0 0 200 200" enable-background="new 0 0 200 200" xml:space="preserve">
<g>
	<path fill="#FFFFFF" d="M100,200C44.9,200,0,155.1,0,100S44.9,0,100,0c55.1,0,100,44.9,100,100S155.1,200,100,200z M100,4.9
		C47.6,4.9,4.9,47.6,4.9,100s42.7,95.1,95.1,95.1c52.4,0,95.1-42.7,95.1-95.1S152.4,4.9,100,4.9z"/>
	<path fill="#FFFFFF" d="M142.9,75.8c-0.7,0-1.4-0.3-1.8-0.8c-1.7-1.9-3.3-3.8-4.9-5.6c-3.3-3.8-6.5-7.4-9.7-10.8
		c-0.9-1-0.9-2.5,0.1-3.5c1-0.9,2.5-0.9,3.5,0.1c3.3,3.5,6.5,7.1,9.9,11c1,1.1,2,2.3,3,3.4l8-9.4c10.8-12.8,21.4-25.3,32-37.8
		c0.7-0.8,1.4-1.6,2.1-2.5c2.1-2.5,4.2-5,6.5-7.4c0.9-1,2.5-1,3.5-0.1c1,0.9,1,2.5,0.1,3.5c-2.2,2.3-4.3,4.8-6.3,7.2
		c-0.7,0.8-1.4,1.7-2.1,2.5c-10.6,12.5-21.2,25-32,37.8l-9.8,11.6C144.3,75.4,143.6,75.7,142.9,75.8
		C142.9,75.8,142.9,75.8,142.9,75.8z"/>
	<path fill="#FFFFFF" d="M89.8,152.9c-3.5,0-11.6,0-12.4-0.3c-6.4-1.5-15-6.7-23.9-33.3c-8.7-26,0-31.7,4.6-33.5
		c-7.6-3-12.6-10.3-12.6-18.6c0-11,9-20,20-20c5,0,10.4,2.3,14,5.9c2.6,2.7,4.1,5.8,4.1,9.1l23.4,9.3c3.2,1.3,5.4,4.4,5.5,7.8
		c0.1,3.5-1.8,6.7-4.9,8.2L81.8,100c0,0.3,0.1,0.5,0.1,0.8c3.1,10.1,8.3,25.5,9.5,26.4c0.2,0.2,0.6,0.1,1.1-0.1l25.8-20.8
		c3.8-3.3,9.5-3.4,13.4-0.2l35.5,27.7c4.4,3.6,5.1,10.2,1.4,14.6s-10.2,5.1-14.6,1.4l-28.8-22.1L97,150.5c-1.9,1.7-3.6,2.3-6,2.3
		C90.8,152.9,90.3,152.9,89.8,152.9z M65.5,48.1c-10.5,0-19,8.5-19,19c0,8.3,5.3,15.6,13.2,18.1l1.4,0.5l-1.4,0.5
		c-13.1,4.4-9.3,20.8-5.3,32.7c8.8,26.2,17,31.2,23.3,32.7c0.8,0.2,8.6,0.3,13.4,0.3c2.2,0,3.6-0.5,5.4-2.1l28.7-23.3l0.3,0.2
		l29.1,22.4c4,3.3,9.9,2.7,13.2-1.3c3.3-4,2.7-9.9-1.3-13.2L131,106.9c-3.6-2.9-8.7-2.9-12.1,0.2l-25.9,20.9c-0.9,0.4-1.6,0.4-2.1,0
		c-2-1.4-9.6-25.9-9.9-26.9c-0.1-0.5-0.2-0.9-0.2-1.4l0-0.3l26.3-12.8c2.8-1.4,4.5-4.2,4.4-7.3c-0.1-3.1-2-5.8-4.9-7L72.9,58.9
		c-0.1,0-0.2-0.1-0.4-0.1l0.1-0.5l-0.2,0.5c-0.1,0-0.2-0.1-0.2-0.1l-0.9-0.2c-0.1,0-0.1,0-0.2,0l-0.9-0.1l-0.1-0.5v0.5
		c-0.2,0-0.4,0-0.6,0c-0.2,0-0.4,0-0.5,0.1l-0.1,0c-0.2,0-0.3,0.1-0.5,0.1c-0.2,0-0.4,0.1-0.5,0.1l-0.1,0c-0.2,0-0.3,0.1-0.5,0.2
		c-0.2,0.1-0.4,0.1-0.5,0.2l-0.1,0c-0.2,0.1-0.3,0.1-0.4,0.2c-0.2,0.1-0.3,0.2-0.5,0.3c-0.2,0.1-0.4,0.2-0.5,0.3l-0.4-0.3l0.3,0.4
		c-0.1,0.1-0.2,0.2-0.3,0.3c-0.2,0.2-0.3,0.3-0.4,0.4l-0.1,0.1c-0.1,0.1-0.2,0.2-0.3,0.3c-0.2,0.2-0.3,0.3-0.4,0.5l-0.1,0.1
		c-0.1,0.1-0.2,0.3-0.3,0.4c-0.1,0.2-0.2,0.3-0.3,0.5L63,62.8c-0.1,0.2-0.2,0.3-0.2,0.5c-1.6,4,0.4,8.6,4.4,10.1l17.4,6.9l-1.3,0.4
		c-0.4,0.1-0.6,0.3-0.9,0.5c-0.4,0.3-0.8,0.6-1.8,0.9l-0.3-0.9c0.8-0.3,1.2-0.5,1.5-0.8c0,0,0.1-0.1,0.1-0.1l-15.1-6
		c-4.5-1.8-6.7-6.9-4.9-11.4c0.1-0.2,0.2-0.4,0.2-0.6l0.1-0.1c0.1-0.2,0.2-0.4,0.3-0.5c0.1-0.2,0.2-0.4,0.3-0.5l0.1-0.1
		c0.1-0.2,0.2-0.3,0.4-0.5c0.2-0.2,0.3-0.3,0.4-0.4l0.1-0.1c0.2-0.2,0.3-0.3,0.4-0.4c0.2-0.2,0.3-0.3,0.5-0.4l0.4,0.3l-0.3-0.4
		c0.2-0.1,0.3-0.2,0.5-0.3l0.1-0.1c0.1-0.1,0.3-0.2,0.4-0.3l0.1-0.1c0.2-0.1,0.3-0.2,0.5-0.3l0.1-0.1c0.1-0.1,0.3-0.1,0.5-0.2l0.1,0
		c0.2-0.1,0.3-0.1,0.5-0.2c0,0,0.1,0,0.1,0c0.1,0,0.3-0.1,0.5-0.1c0.3-0.1,0.4-0.1,0.6-0.1l0.1,0c0.2,0,0.4,0,0.5-0.1
		c0.2,0,0.4,0,0.6,0l1.2,0.1c0.1,0,0.1,0,0.2,0l0.4,0.1l0,0.5l0.1-0.5l0.1,0c0.1,0,0.2,0,0.2,0.1l0.2,0c0.1,0,0.2,0.1,0.3,0.1l0.1,0
		c0.1,0,0.3,0.1,0.4,0.1l9.3,3.7c-0.2-2.9-1.5-5.6-3.8-8C75.4,50.3,70.2,48.1,65.5,48.1z"/>
	<path fill="#FFFFFF" d="M89.3,154.8c-10.1,0-11.9-0.2-12.4-0.4c-10.3-2.5-18.2-13.1-25.3-34.6c-5.8-17.4-5.1-28.6,2.3-34
		c-6.4-3.9-10.4-10.9-10.4-18.7c0-12.1,9.9-22,22-22c5.5,0,11.4,2.5,15.4,6.5c2.6,2.7,4.2,5.8,4.6,9.1l22.2,8.8
		c4,1.6,6.6,5.3,6.8,9.6c0.2,4.3-2.2,8.2-6,10.1L84,101.1c2.6,8.4,6.4,19.8,8.2,23.6l24.7-19.9c4.5-3.9,11.2-4,15.9-0.2l35.5,27.6
		c5.3,4.4,6.1,12.2,1.7,17.4c-4.3,5.3-12.1,6-17.4,1.7l-27.5-21.1l-26.9,21.9c-2.2,1.9-4.4,2.8-7.2,2.8
		C90.4,154.8,89.9,154.8,89.3,154.8z M78.1,149.7c1.1,0.2,7.4,0.2,12.9,0.2c1.7,0,2.7-0.4,4.1-1.6l28.5-23.1c0.9-0.7,2.1-0.7,3,0
		l29.1,22.4c3.2,2.7,7.9,2.2,10.5-1c2.6-3.2,2.1-7.9-1-10.5l-35.5-27.6c-2.9-2.4-6.9-2.3-9.6,0.1l-25.9,20.9
		c-0.1,0.1-0.3,0.2-0.5,0.3c-2,1-3.4,0.3-4.1-0.1c-0.6-0.5-2.6-1.8-10.6-27.9c-0.2-0.7-0.3-1.4-0.3-2.1c0.1-0.9,0.6-1.7,1.4-2.1
		l26.1-12.7c2.1-1,3.4-3.2,3.3-5.5c-0.1-2.3-1.5-4.4-3.7-5.2l-23.6-9.4c0,0-0.1,0-0.1,0l-9.9-3.9c-0.1,0-0.2-0.1-0.3-0.1l0.7-2.4
		l-0.8,2.3l-0.1,0l0.5-2.4l-0.6,2.4l-0.2,0c0,0-0.1,0-0.1,0l0.3-2.5l-0.4,2.4l-0.2,0c0,0-0.1,0-0.2,0c0,0-0.1,0-0.1,0l-0.4,0
		c0,0-0.2,0-0.2,0c-0.2,0-0.3,0-0.4,0c0,0-0.1,0-0.1,0c-0.1,0-0.2,0-0.3,0c-0.2,0-0.3,0.1-0.5,0.1c-0.1,0-0.3,0.1-0.4,0.1
		c0,0-0.1,0-0.1,0c-0.1,0-0.2,0.1-0.3,0.1c-0.2,0.1-0.3,0.1-0.4,0.2c-0.2,0.1-0.3,0.1-0.4,0.2c0,0-0.1,0-0.1,0.1
		c-0.1,0.1-0.2,0.1-0.3,0.2c-0.2,0.1-0.3,0.2-0.4,0.3c0,0-0.1,0.1-0.1,0.1l0,0c0,0-0.1,0.1-0.2,0.2C66,61.9,66,62,65.9,62.1
		c0,0-0.1,0.1-0.1,0.1c-0.1,0.1-0.1,0.2-0.2,0.2c-0.1,0.2-0.2,0.2-0.3,0.3l-0.1,0.1c0,0-0.1,0.1-0.2,0.2c0,0,0,0.1-0.1,0.1
		c0,0.1-0.1,0.2-0.2,0.3c-0.1,0.2-0.2,0.3-0.2,0.5c-1.2,3,0.3,6.4,3.3,7.6L84.1,78c1,0.4,1.6,1.3,1.6,2.4c0,1-0.7,1.9-1.7,2.3
		c-0.1,0-0.2,0.1-0.4,0.2c-0.4,0.3-1,0.7-2.2,1.1c-1.3,0.4-2.7-0.3-3.1-1.6c-0.2-0.5-0.2-1,0-1.5l-12-4.8c-5.5-2.2-8.2-8.5-6-14
		c0.1-0.2,0.2-0.4,0.3-0.7l0.1-0.2c0.1-0.2,0.2-0.4,0.3-0.6c0,0,0-0.1,0-0.1c0.1-0.2,0.2-0.4,0.4-0.5c0,0,0.1-0.1,0.1-0.1
		c0.1-0.2,0.3-0.4,0.5-0.6c0.2-0.2,0.3-0.4,0.5-0.5c0,0,0.1-0.1,0.1-0.1c0.2-0.2,0.3-0.3,0.5-0.5c0,0,0.1-0.1,0.1-0.1
		c0.1-0.1,0.3-0.3,0.5-0.4c0.1,0,0.1-0.1,0.1-0.1c0.2-0.1,0.4-0.3,0.6-0.4c0,0,0.1-0.1,0.1-0.1c0.1-0.1,0.3-0.2,0.5-0.3c0,0,0,0,0,0
		l0.1,0c0.2-0.1,0.4-0.2,0.6-0.3c0,0,0.1,0,0.2-0.1c0.2-0.1,0.4-0.2,0.6-0.2c0,0,0.1-0.1,0.2-0.1c0.2-0.1,0.4-0.1,0.6-0.2
		c0,0,0.1,0,0.2-0.1c0.2-0.1,0.4-0.1,0.6-0.1c0,0,0.1,0,0.1,0c0.2,0,0.4-0.1,0.7-0.1l0.2,0c0.2,0,0.4-0.1,0.6-0.1c0,0,0,0,0.1,0v0
		c0.2,0,0.5,0,0.7,0l1.3,0.1c0.1,0,0.2,0,0.2,0c0.1,0,0.2,0,0.3,0l0.4,0.1l-0.4,2.4l0.5-2.4l0.2,0c0.1,0,0.2,0.1,0.3,0.1
		c0.1,0,0.1,0,0.2,0.1c0.1,0,0.2,0.1,0.3,0.1c0.1,0,0.1,0,0.2,0.1c0.1,0,0.3,0.1,0.5,0.2l5.7,2.3c-0.7-1.4-1.6-2.5-2.4-3.3
		c-3-3-7.7-5-11.9-5c-9.4,0-17.1,7.7-17.1,17.1c0,7.4,4.8,14,11.8,16.2c1,0.3,1.7,1.3,1.7,2.3c0,1.1-0.7,2-1.7,2.3
		c-3.5,1.2-12.7,4.3-4.1,30.2C64.7,143.5,72.4,148.3,78.1,149.7C78.1,149.7,78.1,149.7,78.1,149.7z"/>
	<path opacity="0.5" fill="#FFFFFF" d="M85.1,127.9c-0.5,0-1-0.1-1.3-0.2c-0.7-0.3-2.9-1.2-17-24.6c-0.4-0.6-0.6-1.3-0.7-2
		c-0.2-0.9,0.2-1.8,0.8-2.3l22.3-18.6c1.8-1.5,2.5-3.9,1.9-6.1c-0.6-2.2-2.5-3.9-4.8-4.2L50.5,65c-0.1,0-0.2,0-0.3,0l-0.3,0
		c0,0-0.1,0-0.1,0l-0.2,0c0,0-0.1,0-0.1,0l-0.4,0c0,0-0.1,0-0.1,0l-0.2,0c0,0-0.1,0-0.1,0l-0.3,0.1c0,0,0,0-0.1,0
		c-0.1,0-0.1,0-0.1,0c0,0-0.2,0-0.3,0.1c0,0,0,0,0,0v0c-0.1,0-0.2,0.1-0.4,0.1c-0.2,0.1-0.3,0.1-0.4,0.2c-0.1,0.1-0.2,0.1-0.3,0.2
		l-1.4-2.1l1.3,2.1c-0.1,0.1-0.2,0.1-0.3,0.2c0,0,0,0,0,0c0,0,0,0,0,0c-0.1,0.1-0.2,0.1-0.3,0.2c-0.2,0.1-0.2,0.2-0.3,0.3
		c0,0-0.1,0.1-0.1,0.1c-0.1,0.1-0.2,0.2-0.2,0.2c-0.1,0.1-0.2,0.2-0.3,0.3L45,67.2c0,0-0.1,0.1-0.2,0.2c0,0-0.1,0.1-0.1,0.1
		c0,0-0.1,0.1-0.2,0.3c-0.1,0.2-0.2,0.3-0.2,0.4c0,0,0,0,0,0.1c-0.1,0.1-0.1,0.2-0.1,0.3c0,0,0,0.1,0,0.1c0,0.1-0.1,0.2-0.1,0.4l0,0
		c0,0,0,0,0,0c0,0.1-0.1,0.2-0.1,0.4c0,0,0,0.1,0,0.1c0,0.1,0,0.2-0.1,0.4c-0.4,3.2,1.8,6.1,5,6.6l17.2,2.4c1,0.1,1.9,0.9,2.1,1.9
		c0.2,1-0.2,2.1-1.1,2.6c-0.1,0.1-0.2,0.1-0.4,0.3c-0.3,0.4-0.8,0.9-1.9,1.6c-1.1,0.7-2.7,0.4-3.4-0.8c-0.3-0.4-0.4-1-0.4-1.4
		l-12.8-1.8c-5.9-0.8-10-6.2-9.2-12.1c0-0.2,0.1-0.5,0.1-0.7c0-0.1,0-0.2,0.1-0.2c0.1-0.2,0.1-0.5,0.2-0.7c0,0,0,0,0-0.1
		c0.1-0.2,0.1-0.4,0.2-0.6c0,0,0-0.1,0-0.1c0.1-0.3,0.2-0.5,0.3-0.7c0,0,0-0.1,0-0.1c0.1-0.2,0.2-0.4,0.3-0.6c0,0,0-0.1,0-0.1
		c0.1-0.2,0.3-0.4,0.4-0.6c0,0,0-0.1,0.1-0.1c0.1-0.2,0.2-0.3,0.4-0.5l0.1-0.2c0.1-0.1,0.3-0.3,0.4-0.5c0,0,0.1-0.1,0.1-0.1
		c0.2-0.2,0.3-0.3,0.4-0.5c0,0,0.1-0.1,0.1-0.1c0.2-0.2,0.3-0.3,0.5-0.5c0,0,0,0,0.1,0c0.2-0.2,0.4-0.3,0.5-0.4c0,0,0,0,0.1,0
		c0,0,0,0,0,0l0,0c0.2-0.1,0.4-0.3,0.6-0.4l0.1-0.1c0.2-0.1,0.3-0.2,0.5-0.3c0,0,0.1,0,0.1-0.1c0.2-0.1,0.4-0.2,0.6-0.3
		c0,0,0.1-0.1,0.2-0.1c0.2-0.1,0.4-0.2,0.6-0.2c0,0,0,0,0,0c0,0,0.1,0,0.1,0c0.1,0,0.3-0.1,0.6-0.2c0,0,0.1,0,0.1,0l0.6-0.1
		c0.1,0,0.1,0,0.2,0l0.5-0.1c0.1,0,0.2,0,0.3,0l0.2,0c0.1,0,0.2,0,0.4,0c0.1,0,0.2,0,0.2,0l0.5,0c0.1,0,0.2,0,0.4,0
		c0.1,0,0.1,0,0.2,0c0.1,0,0.3,0,0.5,0.1L87,65c4.2,0.6,7.7,3.6,8.9,7.7c1.2,4.1-0.2,8.5-3.5,11.2l-20.9,17.4
		c5.3,8.8,11.5,18.5,13.8,21.3c1-0.4,2.1-0.1,2.8,0.7c0.9,1.1,0.7,2.6-0.3,3.5C86.8,127.6,85.9,127.9,85.1,127.9z"/>
	<path opacity="0.5" fill="#FFFFFF" d="M77.2,154.8c-10.6,0-20.7-8.5-32.7-27.5c-9.8-15.5-11.7-26.5-5.8-33.6
		c-7.1-2.3-12.7-8.1-14.6-15.7c-1.4-5.7-0.5-11.6,2.5-16.6c3-5,7.9-8.6,13.6-10c5.4-1.3,11.7-0.3,16.5,2.6c3.8,2.3,6.2,5.5,7.1,9.4
		c0.3,1.3-0.5,2.6-1.8,3c-1.3,0.3-2.6-0.5-3-1.8c-0.8-3.2-3.1-5.2-4.9-6.3c-3.7-2.2-8.6-3-12.7-2c-4.4,1.1-8.2,3.8-10.5,7.7
		c-2.4,3.9-3.1,8.5-2,12.9c1.8,7.2,8,12.4,15.4,13c1.1,0.1,2,0.8,2.2,1.8c0.3,1-0.2,2.1-1.1,2.7c-3.1,2-11.3,7.2,3.3,30.3
		c14.1,22.3,22.6,25.2,28.5,25.2c0.1,0,0.1,0,0.2,0c1.3,0,2.4,1.1,2.5,2.4c0,1.4-1.1,2.5-2.4,2.5C77.4,154.8,77.3,154.8,77.2,154.8z
		"/>
</g>
</svg>
