<?xml version="1.0" encoding="utf-8"?>
<!-- Generator: Adobe Illustrator 18.1.1, SVG Export Plug-In . SVG Version: 6.00 Build 0)  -->
<svg version="1.1" id="Layer_1" xmlns="http://www.w3.org/2000/svg" xmlns:xlink="http://www.w3.org/1999/xlink" x="0px" y="0px"
	 viewBox="0 0 200 200" enable-background="new 0 0 200 200" xml:space="preserve">
<g>
	<path fill="#49434D" d="M100,200C44.9,200,0,155.1,0,100S44.9,0,100,0c55.1,0,100,44.9,100,100S155.1,200,100,200z M100,5
		C47.6,5,5,47.6,5,100c0,52.4,42.6,95,95,95c52.4,0,95-42.6,95-95C195,47.6,152.4,5,100,5z"/>
	<path fill="#FFFFFF" stroke="#49434D" stroke-width="5" stroke-miterlimit="10" d="M90.4,98.4"/>
	<path fill="#49434D" d="M103.5,171.9H59.7c-6.9,0-12.5-5.6-12.5-12.5V77.6c0-6.9,5.6-12.5,12.5-12.5h24.4v22.8
		c0,4.2,3.5,7.7,7.7,7.7h5.3V110l19-9.5v58.8C116.1,166.3,110.4,171.9,103.5,171.9z M59.7,70.1c-4.2,0-7.5,3.4-7.5,7.5v81.8
		c0,4.2,3.4,7.5,7.5,7.5h43.8c4.2,0,7.5-3.4,7.5-7.5v-50.8l-19,9.5v-17.5h-0.3c-7,0-12.7-5.7-12.7-12.7V70.1H59.7z"/>
	<path fill="#49434D" d="M98.5,153.5H64.7c-5.5,0-10-4.5-10-10V95c0-5.5,4.5-10,10-10h19.4v2.9c0,4.2,3.5,7.7,7.7,7.7h5.3V110
		l11.4-5.7v39.2C108.5,149,104.1,153.5,98.5,153.5z M64.7,90c-2.8,0-5,2.3-5,5v48.5c0,2.8,2.3,5,5,5h33.8c2.8,0,5-2.3,5-5v-31.2
		l-11.4,5.7v-17.5h-0.3c-6.3,0-11.5-4.6-12.5-10.6H64.7z"/>
	<path fill="#49434D" d="M67.5,76c-0.9,0-1.7,0.8-1.7,1.7v0.8c0,0.9,0.8,1.7,1.7,1.7h14.1V76H67.5z"/>
	<path fill="#49434D" d="M94.6,116.5c-0.5,0-0.9-0.1-1.3-0.4c-0.7-0.5-1.2-1.3-1.2-2.1v-13.5h-0.3c-7,0-12.7-5.7-12.7-12.7V48.1
		c0-7,5.7-12.7,12.7-12.7h62.6c7,0,12.7,5.7,12.7,12.7v39.8c0,7-5.7,12.7-12.7,12.7h-27.3l-31.4,15.7
		C95.4,116.4,95,116.5,94.6,116.5z M91.8,40.4c-4.2,0-7.7,3.5-7.7,7.7v39.8c0,4.2,3.5,7.7,7.7,7.7h2.8c1.4,0,2.5,1.1,2.5,2.5V110
		l28.3-14.1c0.3-0.2,0.7-0.3,1.1-0.3h27.8c4.2,0,7.7-3.5,7.7-7.7V48.1c0-4.2-3.5-7.7-7.7-7.7H91.8z"/>
	<g>
		<path fill="#49434D" d="M107.9,89h-2.7c-1.1,0-2-0.9-2-2V66.6c0-1.1,0.9-2,2-2h2.7c1.1,0,2,0.9,2,2V87C109.9,88.1,109,89,107.9,89
			z"/>
		<path fill="#49434D" d="M119.2,89h-3.4c-1,0-1.9-0.9-1.9-1.9V70.9c0-1,0.9-1.9,1.9-1.9h3.4c1,0,1.9,0.9,1.9,1.9v16.3
			C121.1,88.2,120.2,89,119.2,89z"/>
		<path fill="#49434D" d="M129.4,89h-1.8c-1.5,0-2.7-1.2-2.7-2.7V51.7c0-1.5,1.2-2.7,2.7-2.7h1.8c1.5,0,2.7,1.2,2.7,2.7v34.6
			C132.1,87.8,130.9,89,129.4,89z"/>
		<path fill="#49434D" d="M140.7,89h-2.3c-1.3,0-2.4-1.1-2.4-2.4V58.2c0-1.3,1.1-2.4,2.4-2.4h2.3c1.3,0,2.4,1.1,2.4,2.4v28.4
			C143.1,87.9,142,89,140.7,89z"/>
	</g>
</g>
</svg>
