<?xml version="1.0" encoding="utf-8"?>
<!-- Generator: Adobe Illustrator 18.1.1, SVG Export Plug-In . SVG Version: 6.00 Build 0)  -->
<svg version="1.1" id="Layer_1" xmlns="http://www.w3.org/2000/svg" xmlns:xlink="http://www.w3.org/1999/xlink" x="0px" y="0px"
	 viewBox="0 0 200 200" enable-background="new 0 0 200 200" xml:space="preserve">
<g>
	<path fill="#49434D" d="M99.8,199.8c-55.1,0-100-44.9-100-100c0-55.1,44.9-100,100-100s100,44.9,100,100
		C199.8,154.9,155,199.8,99.8,199.8z M99.8,4.7C47.4,4.7,4.7,47.3,4.7,99.8c0,52.4,42.7,95.1,95.1,95.1S195,152.2,195,99.8
		C195,47.3,152.3,4.7,99.8,4.7z"/>
	<g>
		<g>
			<circle fill="#49434D" cx="94.9" cy="99.8" r="7.8"/>
			<path fill="#49434D" d="M94.9,108c-1.9,0-3.8-0.7-5.3-1.9c-1.7-1.4-2.7-3.4-2.9-5.6c-0.2-2.2,0.5-4.3,1.9-6c1.6-1.9,3.9-3,6.3-3
				c1.9,0,3.8,0.7,5.3,1.9c1.7,1.4,2.7,3.4,2.9,5.6c0.2,2.2-0.5,4.3-1.9,6C99.7,106.9,97.4,108,94.9,108z M94.9,92.5
				c-2.2,0-4.2,0.9-5.6,2.6c-1.3,1.5-1.8,3.4-1.7,5.3c0.2,1.9,1.1,3.7,2.6,4.9c1.3,1.1,3,1.7,4.7,1.7c2.2,0,4.2-0.9,5.6-2.6
				c1.2-1.5,1.8-3.4,1.7-5.3s-1.1-3.7-2.6-4.9C98.3,93.1,96.6,92.5,94.9,92.5z"/>
		</g>
		<g>
			<polygon fill="#49434D" points="123.6,66 97.6,102.1 92.5,97.8 			"/>
			<path fill="#49434D" d="M97.6,104.5c-0.6,0-1.1-0.2-1.6-0.6L91,99.7c-0.5-0.4-0.8-1.1-0.9-1.7c0-0.7,0.2-1.3,0.7-1.8l31.1-31.9
				c0.9-0.9,2.3-1,3.3-0.2c1,0.8,1.2,2.3,0.4,3.3l-26,36.1c-0.4,0.6-1,0.9-1.7,1C97.8,104.5,97.7,104.5,97.6,104.5z M96.1,97.6
				l1.1,0.9l5.4-7.6L96.1,97.6z"/>
		</g>
	</g>
	<g>
		<path fill="#49434D" d="M123.9,124.6c-0.5,0-1.1-0.2-1.5-0.5c-1.1-0.8-1.2-2.4-0.4-3.4c4.9-6.2,7.5-13.7,7.5-21.7
			c0-19.3-15.7-35-35.1-35S59.4,79.6,59.4,99c0,7.9,2.6,15.4,7.5,21.7c0.8,1.1,0.7,2.6-0.4,3.4c-1.1,0.8-2.6,0.7-3.4-0.4
			c-5.6-7.1-8.5-15.6-8.5-24.7C54.5,77,72.4,59,94.4,59S134.3,77,134.3,99c0,9-3,17.6-8.5,24.7C125.3,124.3,124.6,124.6,123.9,124.6
			z"/>
	</g>
	<path fill="#49434D" d="M94.8,153.1c-29.7,0-53.9-24.2-53.9-53.9c0-29.7,24.2-53.9,53.9-53.9c29.7,0,53.9,24.2,53.9,53.9
		c0,0.1,0,0.3,0,0.4l0,0.8l-0.3,0.5c-1.3,2.4-2.8,4.8-4.2,7.2c-3.8,6.4-7.8,13-9.7,19.5c-0.8,2.8-1.2,5.5-1.1,8.1l0,1.1l-0.8,0.7
		C122.5,147.6,109,153.1,94.8,153.1z M94.8,50.1c-27,0-49,22-49,49c0,27,22,49,49,49c12.6,0,24.6-4.8,33.7-13.4
		c0-2.7,0.5-5.6,1.3-8.5c2.1-7.2,6.2-14,10.2-20.7c1.3-2.1,2.6-4.4,3.8-6.5C143.8,72.1,121.8,50.1,94.8,50.1z"/>
	<path fill="#49434D" d="M151.3,157.3L151.3,157.3c-14.5,0-22.5-10.7-22.8-21.4c-0.1-3.1,0.3-6.3,1.3-9.6c2.1-7.2,6.2-14,10.2-20.7
		c1.4-2.3,2.8-4.7,4.1-7.1c2.3-4.1,3.8-7.4,4.9-10.5c0.3-1,1.3-1.7,2.3-1.7s2,0.7,2.3,1.7c2,5.8,5.4,11.5,9,17.6
		c4,6.6,8.1,13.5,10.2,20.6c2.5,8.4,1.4,16.3-2.9,22.1C165.8,153.9,158.8,157.3,151.3,157.3z M151.3,95.3c-0.8,1.8-1.8,3.6-2.9,5.7
		c-1.3,2.4-2.8,4.8-4.2,7.2c-3.8,6.4-7.8,13-9.7,19.5c-0.8,2.8-1.2,5.5-1.1,8.1c0.4,10.9,9.3,16.6,17.9,16.6h0
		c5.9,0,11.4-2.6,14.7-6.9c3.5-4.6,4.2-10.8,2.2-17.8c-1.9-6.6-5.9-13.1-9.7-19.5C156,104,153.4,99.7,151.3,95.3z"/>
</g>
</svg>
