<?xml version="1.0" encoding="utf-8"?>
<!-- Generator: Adobe Illustrator 18.1.1, SVG Export Plug-In . SVG Version: 6.00 Build 0)  -->
<svg version="1.1" id="Layer_1" xmlns="http://www.w3.org/2000/svg" xmlns:xlink="http://www.w3.org/1999/xlink" x="0px" y="0px"
	 viewBox="0 0 200 200" enable-background="new 0 0 200 200" xml:space="preserve">
<g>
	<path fill="#49434D" d="M164.8,161.5l-5.3-95.2c-0.1-1.3-1.2-2.3-2.5-2.3h-48.4c0.2,1,0.4,2,0.4,3c0,0,0,0.2,0,0.2L109,80l0.6-11
		h45.1l5,91h-17.5l-7.5-63.6l0.1-0.8c0.1-0.7-0.1-1.4-0.6-1.9c-0.5-0.5-1.1-0.7-1.9-0.7H132c-0.7,0-1.4,0.3-1.9,0.8
		c-0.5,0.5-0.7,1.2-0.6,1.9l0.1,0.7l-7.4,63.6h-17.5l2.1-39h-5l-2.3,40.9c0,0.7,0.2,1.5,0.7,2c0.5,0.5,1.1,1.1,1.8,1.1h22.4
		c1.3,0,2.3-1.2,2.5-2.4l5.3-45.2l5.4,45.1c0.1,1.3,1.2,2.5,2.5,2.5h22.4c0,0,0,0,0,0c1.4,0,2.5-1.4,2.5-2.8
		C164.8,162.1,164.8,161.6,164.8,161.5z"/>
	<path fill="#49434D" d="M100,200C44.8,200,0,155.1,0,100C0,44.9,44.8,0,100,0c55.1,0,100,44.9,100,100C200,155.1,155.1,200,100,200
		z M100,5c-52.4,0-95,42.6-95,95c0,52.4,42.6,95,95,95c52.4,0,95-42.6,95-95C195,47.6,152.4,5,100,5z"/>
	<g>
		<g>
			<path fill="#49434D" d="M95.5,131H45.8c-1.4,0-2.8-1.5-2.8-2.9V126H29.9c-0.7,0-1.3-0.5-1.8-0.9c-0.5-0.5-0.7-1.2-0.7-1.9l1-56.6
				c0-0.1,0-0.2,0-0.3c0.5-11,13.4-20.9,31.1-23.7c1.3-0.2,2.6,0.7,2.8,2c0.7,4.1,4,6.7,8.4,6.7c4.3,0,7.7-2.9,8.5-7.1
				c0.2-1.3,1.5-2.2,2.8-2c19.1,2.8,31.6,12.2,32,24.1c0,0.1,0,0.1,0,0.2l0.2,56.6c0,0.7-0.3,1.5-0.7,2c-0.5,0.5-1.1,0.9-1.8,0.9H98
				v2.1C98,129.5,96.9,131,95.5,131z M48,126h45v-2.9c0-1.4,1.1-2.1,2.5-2.1h13.7L109,67.2c0,0,0-0.2,0-0.2c0-9.1-10-16.7-25.6-19.5
				c-1.9,5.3-6.9,8.8-12.7,8.8C64.7,56.3,60,53,58,47.9c-14.2,2.8-24.7,10.8-24.7,19c0,0.1,0,0.3,0,0.4L32.4,121h13.4
				c1.4,0,2.2,0.7,2.2,2.1V126z"/>
		</g>
		<g>
			<line fill="#FFFFFF" x1="45" y1="74" x2="45" y2="128"/>
			<path fill="#49434D" d="M45.5,130.1c-1.4,0-2.5-1.1-2.5-2.5V73.9c0-1.4,1.1-2.5,2.5-2.5s2.5,1.1,2.5,2.5v53.7
				C48,129,46.9,130.1,45.5,130.1z"/>
		</g>
		<g>
			<line fill="#FFFFFF" x1="95" y1="74" x2="95" y2="128"/>
			<path fill="#49434D" d="M95.5,130.1c-1.4,0-2.5-1.1-2.5-2.5V73.9c0-1.4,1.1-2.5,2.5-2.5s2.5,1.1,2.5,2.5v53.7
				C98,129,96.9,130.1,95.5,130.1z"/>
		</g>
	</g>
</g>
</svg>
