<?xml version="1.0" encoding="utf-8"?>
<!-- Generator: Adobe Illustrator 18.1.1, SVG Export Plug-In . SVG Version: 6.00 Build 0)  -->
<svg version="1.1" id="Layer_1" xmlns="http://www.w3.org/2000/svg" xmlns:xlink="http://www.w3.org/1999/xlink" x="0px" y="0px"
	 viewBox="0 0 200 200" enable-background="new 0 0 200 200" xml:space="preserve">
<path fill="#FFFFFF" d="M100,200C44.9,200,0,155.1,0,100C0,44.9,44.9,0,100,0s100,44.9,100,100C200,155.1,155.1,200,100,200z
	 M100,4.9C47.6,4.9,4.9,47.6,4.9,100c0,52.4,42.7,95.1,95.1,95.1s95.1-42.7,95.1-95.1C195.1,47.6,152.4,4.9,100,4.9z"/>
<path fill="#FFFFFF" d="M130.8,102.1l0-0.1H130v-1.5l-2.6-3.5h2.1c-1.3-15-14.1-26.9-29.7-26.9c0.9,0,2.3-1.1,2.3-2.1H97V51.4
	c0-1.5,1.6-2.5,2.9-2.5c28.1,0,51.1,22.8,51.1,50.9v2.5l-4.9,0l-0.1-0.1L130.8,102.1z M134.5,97h11.2C144.5,74,126,55,102,53.8v11.3
	C120,66.3,133.3,80,134.5,97z"/>
<path fill="#FFFFFF" d="M50.4,102.1l0-0.1H49v-1.1L44.4,97h4.5c1.3-26,23.5-48.1,50.7-48.2l2.4,0.1V70l-2.4,0
	C83.2,70.1,70,83.4,70,99.7v2.5l-3.4,0l-0.1-0.1L50.4,102.1z M53.8,97h11.3C66.3,80,80,66.5,97,65.2V53.9C74,55.3,55.1,74,53.8,97z"
	/>
<path fill="#FFFFFF" d="M97,158.6v-27l0.4-0.5c0.5-0.9,1.4-1.5,2.4-1.5c16.4,0,29.7-13.5,29.8-30l0-2.6h21.1l0,2.6
	c-0.1,27.6-22.2,50.2-49.5,51L97,158.6z M102,134.4v11.3c24-1.2,42.4-19.7,43.7-43.7h-11.3C133.2,120,120,133.3,102,134.4z"/>
<path fill="#FFFFFF" d="M102,150.8l-2.4,0c-28-0.1-50.8-23.2-50.8-51.2l0-2.6h21.1l0,2.6c0.1,16.5,13.4,30,29.7,30.1l2.4,0.1V150.8z
	 M53.8,102c1.3,24,20.2,42.5,43.2,43.8v-11.3C80,133.2,66.3,120,65,102H53.8z"/>
<path fill="#FFFFFF" d="M99.7,67.5c-0.1,0-0.1,0-0.2,0c-17.8,0.1-32.1,14.5-32.1,32.3c0,0,0,0.1,0,0.1c0.1,17.7,14.4,32.1,32.1,32.2
	c0.1,0,0.1,0,0.2,0c17.8,0,32.3-14.4,32.3-32.2c0,0,0-0.1,0-0.1C132.1,82,117.6,67.5,99.7,67.5z M112,102.2h-9.8v9.8
	c0,1.4-1.1,2.5-2.5,2.5c-1.4,0-2.5-1.1-2.5-2.5v-9.8h-9.9c-1.4,0-2.5-1.1-2.5-2.5s1.1-2.5,2.5-2.5h9.9v-9.8c0-1.4,1.1-2.5,2.5-2.5
	c1.4,0,2.5,1.1,2.5,2.5v9.8h9.8c1.4,0,2.5,1.1,2.5,2.5S113.3,102.2,112,102.2z"/>
<g>
	<path fill="#FFFFFF" d="M99.5,67.5c0.1,0,0.1,0,0.2,0c0.8,0,1.5,0,2.3,0.1V36.2c0-1.4-1.1-2.5-2.5-2.5S97,34.9,97,36.2v31.4
		C97.8,67.6,98.7,67.6,99.5,67.5z"/>
	<path fill="#FFFFFF" d="M99.7,132.2c-0.1,0-0.1,0-0.2,0c-0.8,0-1.7-0.1-2.5-0.1v31.1c0,1.4,1.1,2.5,2.5,2.5s2.5-1.1,2.5-2.5v-31.1
		C101.3,132.2,100.5,132.2,99.7,132.2z"/>
</g>
<g>
	<path fill="#FFFFFF" d="M67.4,100c0,0,0-0.1,0-0.1c0-1,0.1-1.9,0.1-2.9H36.2c-1.4,0-2.5,1.1-2.5,2.5c0,1.4,1.1,2.5,2.5,2.5h31.3
		C67.4,101.3,67.4,100.7,67.4,100z"/>
	<path fill="#FFFFFF" d="M163.1,97h-31.2c0.1,0.9,0.1,1.9,0.1,2.9c0,0,0,0.1,0,0.1c0,0.7,0,1.3-0.1,2h31.1c1.4,0,2.5-1.1,2.5-2.5
		C165.6,98.1,164.5,97,163.1,97z"/>
</g>
</svg>
