<?xml version="1.0" encoding="utf-8"?>
<!-- Generator: Adobe Illustrator 18.1.1, SVG Export Plug-In . SVG Version: 6.00 Build 0)  -->
<svg version="1.1" id="Layer_1" xmlns="http://www.w3.org/2000/svg" xmlns:xlink="http://www.w3.org/1999/xlink" x="0px" y="0px"
	 viewBox="0 0 200 200" enable-background="new 0 0 200 200" xml:space="preserve">
<path fill="#49434D" d="M100,200C44.9,200,0,155.1,0,100C0,44.9,44.9,0,100,0s100,44.9,100,100C200,155.1,155.1,200,100,200z
	 M100,4.9C47.6,4.9,4.9,47.6,4.9,100c0,52.4,42.7,95.1,95.1,95.1s95.1-42.7,95.1-95.1C195.1,47.6,152.4,4.9,100,4.9z"/>
<path fill="#49434D" d="M115,144.5c0,1.4-1.1,2.5-2.5,2.5H87.5c-1.4,0-2.5-1.1-2.5-2.5v-10.1c0-1.4,1.1-2.5,2.5-2.5h25.1
	c1.4,0,2.5,1.1,2.5,2.5V144.5z M90,142h19v-5H90V142z"/>
<path fill="#49434D" d="M125.8,158H73.6c-1.4,0-2.6-0.8-2.6-2.2v-3.5c0-5.9,5.1-10.4,11-10.4h35.9c5.7,0,10.2,4.4,10.2,10.4v3.5
	C128,157.2,127.1,158,125.8,158z M76,153h47v-0.6c0-3.2-2.2-5.4-5.2-5.4H82c-3.1,0-6,2.2-6,5.4V153z"/>
<path fill="#49434D" d="M107,123.4h-2.9c-1.1,0-1.9-0.9-1.9-1.9v-17.6c0-1.1,0.9-1.9,1.9-1.9h2.9c1.1,0,1.9,0.9,1.9,1.9v17.6
	C108.9,122.5,108.1,123.4,107,123.4z"/>
<path fill="#49434D" d="M118.6,123.4h-3.5c-1,0-1.8-0.8-1.8-1.8v-14c0-1,0.8-1.8,1.8-1.8h3.5c1,0,1.8,0.8,1.8,1.8v14
	C120.4,122.6,119.6,123.4,118.6,123.4z"/>
<path fill="#49434D" d="M129.2,123.4h-2.1c-1.4,0-2.5-1.1-2.5-2.5V94.8c0-1.4,1.1-2.5,2.5-2.5h2.1c1.4,0,2.5,1.1,2.5,2.5v26.1
	C131.7,122.3,130.6,123.4,129.2,123.4z"/>
<path fill="#49434D" d="M140.7,123.4h-2.5c-1.3,0-2.3-1-2.3-2.3V86.7c0-1.3,1-2.3,2.3-2.3h2.5c1.3,0,2.3,1,2.3,2.3v34.4
	C143,122.4,142,123.4,140.7,123.4z"/>
<path fill="#49434D" d="M61.8,123.4h-2.9c-1.1,0-1.9-0.9-1.9-1.9v-5.8c0-1.1,0.9-1.9,1.9-1.9h2.9c1.1,0,1.9,0.9,1.9,1.9v5.8
	C63.7,122.5,62.9,123.4,61.8,123.4z"/>
<path fill="#49434D" d="M73.4,123.4h-3.5c-1,0-1.8-0.8-1.8-1.8v-11.1c0-1,0.8-1.8,1.8-1.8h3.5c1,0,1.8,0.8,1.8,1.8v11.1
	C75.2,122.6,74.4,123.4,73.4,123.4z"/>
<path fill="#49434D" d="M84,123.4h-2.1c-1.4,0-2.5-1.1-2.5-2.5V93.8c0-1.4,1.1-2.5,2.5-2.5H84c1.4,0,2.5,1.1,2.5,2.5v27.1
	C86.5,122.3,85.4,123.4,84,123.4z"/>
<path fill="#49434D" d="M95.5,123.4H93c-1.3,0-2.3-1-2.3-2.3V96.5c0-1.3,1-2.3,2.3-2.3h2.5c1.3,0,2.3,1,2.3,2.3v24.6
	C97.8,122.4,96.8,123.4,95.5,123.4z"/>
<path fill="#49434D" d="M144.1,136.6H55.7c-8.2,0-14.9-6.7-14.9-14.9V68.5c0-8.2,6.7-14.9,14.9-14.9h88.4c8.2,0,14.9,6.7,14.9,14.9
	v53.2C158.9,129.9,152.3,136.6,144.1,136.6z M55.7,58.5c-5.5,0-10,4.5-10,10v53.2c0,5.5,4.5,10,10,10h88.4c5.5,0,10-4.5,10-10V68.5
	c0-5.5-4.5-10-10-10H55.7z"/>
<g>
	<path fill="#49434D" d="M57,109.3c-0.6,0-1.1-0.2-1.6-0.6c-1-0.9-1.1-2.4-0.2-3.5L78.9,78c0.7-0.8,1.9-1.1,2.9-0.6l31.1,14.8
		l22-19.7c1-0.9,2.6-0.8,3.5,0.2c0.9,1,0.8,2.6-0.2,3.5L115,96.9c-0.7,0.7-1.8,0.8-2.7,0.4L81.4,82.6l-22.5,25.8
		C58.3,109,57.7,109.3,57,109.3z"/>
	<g>
		<polygon fill="#49434D" points="139.8,81.2 144.4,67.2 130,70.3 		"/>
	</g>
</g>
</svg>
