<?xml version="1.0" encoding="utf-8"?>
<!-- Generator: Adobe Illustrator 18.1.1, SVG Export Plug-In . SVG Version: 6.00 Build 0)  -->
<svg version="1.1" id="Layer_1" xmlns="http://www.w3.org/2000/svg" xmlns:xlink="http://www.w3.org/1999/xlink" x="0px" y="0px"
	 viewBox="0 0 184.2 24.8" enable-background="new 0 0 184.2 24.8" xml:space="preserve">
<g>
	<path fill="#FFFFFF" d="M25.6,1.6c-0.8-1.5-2.7-2-4.2-1.2c-1.5,0.8-2,2.7-1.2,4.2c0.8,1.5,2.7,2,4.2,1.2C25.9,5,26.5,3,25.6,1.6"/>
	<path fill="#FFFFFF" d="M7.8,4.1c0.2,0.1,0.5,0,0.7-0.1C8.8,3.9,8.9,3.7,9,3.5C9,3.2,9,3,8.9,2.7C8.8,2.5,8.6,2.4,8.3,2.3
		c-0.2-0.1-0.5,0-0.7,0.1C7.4,2.5,7.2,2.7,7.2,2.9c-0.1,0.2,0,0.5,0.1,0.7C7.4,3.9,7.6,4,7.8,4.1"/>
	<path fill="#FFFFFF" d="M7.9,7.8c0.3,0.1,0.6,0,0.8-0.1C9.1,7.6,9.2,7.3,9.3,7c0.1-0.3,0-0.6-0.1-0.8C9.1,5.9,8.8,5.7,8.5,5.7
		C8.3,5.6,8,5.6,7.7,5.8C7.4,5.9,7.2,6.2,7.2,6.4C7.1,6.7,7.1,7,7.3,7.3C7.4,7.6,7.7,7.7,7.9,7.8"/>
	<path fill="#FFFFFF" d="M9.7,11.2c0.3,0.1,0.7,0.1,1-0.1c0.3-0.2,0.5-0.5,0.6-0.8c0.1-0.3,0.1-0.7-0.1-1c-0.2-0.3-0.5-0.5-0.8-0.6
		c-0.3-0.1-0.7-0.1-1,0.1C9.1,9.1,8.9,9.3,8.8,9.7c-0.1,0.3-0.1,0.7,0.1,1C9.1,10.9,9.4,11.2,9.7,11.2"/>
	<path fill="#FFFFFF" d="M13.5,13.1c0.4,0.1,0.8,0.1,1.1-0.1c0.4-0.2,0.6-0.5,0.7-0.9c0.1-0.4,0.1-0.8-0.1-1.1
		c-0.2-0.4-0.5-0.6-0.9-0.7c-0.4-0.1-0.8-0.1-1.1,0.1c-0.4,0.2-0.6,0.5-0.7,0.9c-0.1,0.4-0.1,0.8,0.1,1.1
		C12.8,12.7,13.1,13,13.5,13.1"/>
	<path fill="#FFFFFF" d="M18,13c0.4,0.1,0.9,0.1,1.2-0.1c0.4-0.2,0.7-0.6,0.8-1c0.1-0.4,0.1-0.9-0.1-1.2c-0.2-0.4-0.6-0.7-1-0.8
		C18.5,9.7,18,9.8,17.6,10c-0.4,0.2-0.7,0.6-0.8,1c-0.1,0.4-0.1,0.9,0.1,1.2C17.2,12.6,17.6,12.9,18,13"/>
	<path fill="#FFFFFF" d="M22.7,12.3c0.4,0.1,0.9,0.1,1.4-0.2c0.4-0.2,0.7-0.6,0.9-1.1c0.1-0.4,0.1-0.9-0.2-1.4
		c-0.2-0.4-0.6-0.7-1.1-0.9c-0.4-0.1-0.9-0.1-1.4,0.2c-0.4,0.2-0.7,0.6-0.9,1.1c-0.1,0.4-0.1,0.9,0.2,1.4
		C21.9,11.9,22.3,12.2,22.7,12.3"/>
	<path fill="#FFFFFF" d="M27.6,11.1c0.5,0.1,1,0.1,1.5-0.2c0.5-0.3,0.8-0.7,0.9-1.2c0.1-0.5,0.1-1-0.2-1.5c-0.3-0.5-0.7-0.8-1.2-0.9
		c-0.5-0.1-1-0.1-1.5,0.2c-0.5,0.3-0.8,0.7-0.9,1.2c-0.1,0.5-0.1,1,0.2,1.5C26.6,10.6,27.1,11,27.6,11.1"/>
	<path fill="#FFFFFF" d="M32.2,9.4c0.5,0.1,1.1,0.1,1.6-0.2c0.5-0.3,0.9-0.8,1-1.3c0.2-0.5,0.1-1.1-0.2-1.6c-0.3-0.5-0.8-0.9-1.3-1
		c-0.5-0.1-1.1-0.1-1.6,0.2c-0.5,0.3-0.9,0.8-1,1.3c-0.2,0.5-0.1,1.1,0.2,1.6C31.2,8.9,31.7,9.3,32.2,9.4"/>
	<path fill="#FFFFFF" d="M39.6,4.2c-0.6-1.1-2.1-1.5-3.2-0.9c-1.1,0.6-1.5,2.1-0.9,3.2c0.6,1.1,2.1,1.5,3.2,0.9
		C39.8,6.7,40.2,5.3,39.6,4.2"/>
	<path fill="#FFFFFF" d="M32.1,22.9c-0.2-0.1-0.5,0-0.7,0.1c-0.2,0.1-0.4,0.3-0.4,0.6c-0.1,0.2,0,0.5,0.1,0.7
		c0.1,0.2,0.3,0.4,0.6,0.4c0.2,0.1,0.5,0,0.7-0.1c0.2-0.1,0.4-0.3,0.4-0.6c0.1-0.2,0-0.5-0.1-0.7C32.5,23.1,32.3,23,32.1,22.9"/>
	<path fill="#FFFFFF" d="M32,19.2c-0.3-0.1-0.6,0-0.8,0.1c-0.3,0.2-0.4,0.4-0.5,0.7c-0.1,0.3,0,0.6,0.1,0.8c0.1,0.3,0.4,0.4,0.7,0.5
		c0.3,0.1,0.6,0.1,0.8-0.1c0.3-0.2,0.4-0.4,0.5-0.7c0.1-0.3,0.1-0.6-0.1-0.8C32.5,19.5,32.3,19.3,32,19.2"/>
	<path fill="#FFFFFF" d="M30.2,15.8c-0.3-0.1-0.7-0.1-1,0.1c-0.3,0.2-0.5,0.5-0.6,0.8c-0.1,0.3-0.1,0.7,0.1,1s0.5,0.5,0.8,0.6
		c0.3,0.1,0.7,0.1,1-0.1s0.5-0.5,0.6-0.8c0.1-0.3,0.1-0.7-0.1-1C30.9,16.1,30.6,15.9,30.2,15.8"/>
	<path fill="#FFFFFF" d="M26.4,13.9c-0.4-0.1-0.8-0.1-1.1,0.1c-0.4,0.2-0.6,0.5-0.7,0.9c-0.1,0.4-0.1,0.8,0.1,1.1
		c0.2,0.3,0.5,0.6,0.9,0.7c0.4,0.1,0.8,0.1,1.1-0.1c0.4-0.2,0.6-0.5,0.7-0.9c0.1-0.4,0.1-0.8-0.1-1.1C27.1,14.3,26.8,14,26.4,13.9"
		/>
	<path fill="#FFFFFF" d="M21.9,14c-0.4-0.1-0.9-0.1-1.2,0.1c-0.4,0.2-0.7,0.6-0.8,1c-0.1,0.4-0.1,0.9,0.1,1.2c0.2,0.4,0.6,0.7,1,0.8
		c0.4,0.1,0.9,0.1,1.2-0.1c0.4-0.2,0.7-0.6,0.8-1c0.1-0.4,0.1-0.9-0.1-1.2C22.7,14.4,22.3,14.1,21.9,14"/>
	<path fill="#FFFFFF" d="M17.2,14.7c-0.4-0.1-0.9-0.1-1.4,0.2c-0.4,0.2-0.7,0.6-0.9,1.1c-0.1,0.4-0.1,0.9,0.2,1.4
		c0.2,0.4,0.6,0.7,1.1,0.9c0.4,0.1,0.9,0.1,1.4-0.2c0.4-0.2,0.7-0.6,0.9-1.1c0.1-0.4,0.1-0.9-0.2-1.4C18.1,15.1,17.7,14.8,17.2,14.7
		"/>
	<path fill="#FFFFFF" d="M12.4,15.9c-0.5-0.1-1-0.1-1.5,0.2c-0.5,0.3-0.8,0.7-0.9,1.2c-0.1,0.5-0.1,1,0.2,1.5
		c0.3,0.5,0.7,0.8,1.2,0.9c0.5,0.1,1,0.1,1.5-0.2c0.5-0.3,0.8-0.7,0.9-1.2c0.1-0.5,0.1-1-0.2-1.5C13.3,16.4,12.8,16.1,12.4,15.9"/>
	<path fill="#FFFFFF" d="M7.7,17.6c-0.5-0.1-1.1-0.1-1.6,0.2c-0.5,0.3-0.9,0.8-1,1.3c-0.1,0.5-0.1,1.1,0.2,1.6
		c0.3,0.5,0.8,0.9,1.3,1c0.5,0.1,1.1,0.1,1.6-0.2c0.5-0.3,0.9-0.8,1-1.3c0.1-0.5,0.1-1.1-0.2-1.6C8.7,18.1,8.2,17.7,7.7,17.6"/>
	<path fill="#FFFFFF" d="M0.3,22.8c0.6,1.1,2.1,1.5,3.2,0.9c1.1-0.6,1.5-2.1,0.9-3.2c-0.6-1.1-2.1-1.5-3.2-0.9
		C0.1,20.3-0.3,21.7,0.3,22.8"/>
	<rect y="0" fill="none" width="184.2" height="24.8"/>
	<polygon fill="#FFFFFF" points="65.9,5 64.1,12.9 54,12.9 55.8,5 52.4,5 48.1,24.4 51.5,24.4 53.4,15.9 63.5,15.9 61.6,24.4 
		65,24.4 69.3,5 	"/>
	<polygon fill="#FFFFFF" points="72.9,5 68.6,24.4 81.9,24.4 82.5,21.4 72.6,21.4 73.8,16 83.5,16 84.2,13 74.5,13 75.6,8 85.5,8 
		86.2,5 	"/>
	<path fill="#FFFFFF" d="M92.6,21.4c1.3,0,2.4-0.2,3.4-0.6c1-0.4,1.9-1,2.6-1.7c0.7-0.7,1.3-1.5,1.6-2.5c0.4-0.9,0.6-2,0.6-3
		c0-0.8-0.1-1.5-0.4-2.2c-0.3-0.7-0.6-1.3-1.1-1.8c-0.5-0.5-1-0.9-1.7-1.2C97,8.1,96.3,8,95.5,8h-3.7l-3,13.4h3.6H92.6z M84.8,24.4
		L89.1,5h7.1c1.1,0,2.1,0.2,3.1,0.6c1,0.4,1.9,1,2.6,1.7c0.8,0.7,1.4,1.6,1.8,2.6c0.5,1,0.7,2.1,0.7,3.4c0,1.3-0.2,2.6-0.7,3.9
		c-0.5,1.3-1.2,2.5-2.2,3.6c-1,1.1-2.3,1.9-3.9,2.6c-1.6,0.7-3.4,1-5.7,1H84.8z"/>
	<path fill="#FFFFFF" d="M112.7,21.4c1.3,0,2.4-0.2,3.4-0.6c1-0.4,1.9-1,2.6-1.7c0.7-0.7,1.3-1.5,1.6-2.5c0.4-0.9,0.6-2,0.6-3
		c0-0.8-0.1-1.5-0.4-2.2c-0.3-0.7-0.6-1.3-1.1-1.8c-0.5-0.5-1-0.9-1.7-1.2c-0.7-0.3-1.4-0.4-2.2-0.4h-3.7l-3,13.4h3.6H112.7z
		 M104.9,24.4L109.2,5h7.1c1.1,0,2.1,0.2,3.1,0.6c1,0.4,1.9,1,2.6,1.7c0.8,0.7,1.4,1.6,1.8,2.6c0.5,1,0.7,2.1,0.7,3.4
		c0,1.3-0.2,2.6-0.7,3.9c-0.5,1.3-1.2,2.5-2.2,3.6c-1,1.1-2.3,1.9-3.9,2.6c-1.6,0.7-3.4,1-5.7,1H104.9z"/>
	<path fill="#FFFFFF" d="M135.5,21.7c1,0,2-0.2,2.9-0.6c0.9-0.4,1.7-1,2.3-1.7c0.7-0.7,1.2-1.6,1.6-2.6c0.4-1,0.6-2.1,0.6-3.3
		c0-0.9-0.2-1.7-0.5-2.4c-0.3-0.7-0.7-1.3-1.3-1.8c-0.5-0.5-1.2-0.9-1.9-1.1c-0.7-0.3-1.5-0.4-2.3-0.4c-1,0-2,0.2-2.9,0.6
		c-0.9,0.4-1.7,1-2.3,1.7c-0.7,0.7-1.2,1.6-1.6,2.6s-0.6,2.1-0.6,3.3c0,0.9,0.1,1.7,0.4,2.4c0.3,0.7,0.7,1.3,1.3,1.8
		c0.5,0.5,1.2,0.9,1.9,1.1C133.9,21.6,134.7,21.7,135.5,21.7 M135.3,24.8c-1.3,0-2.5-0.2-3.7-0.6c-1.1-0.4-2.1-1-3-1.7
		c-0.8-0.7-1.5-1.6-2-2.7c-0.5-1.1-0.7-2.3-0.7-3.6c0-1.6,0.3-3.1,0.9-4.5c0.6-1.4,1.4-2.6,2.4-3.7c1-1,2.2-1.9,3.5-2.4
		c1.3-0.6,2.8-0.9,4.4-0.9c1.3,0,2.5,0.2,3.7,0.6c1.1,0.4,2.1,1,3,1.7c0.8,0.7,1.5,1.6,2,2.7c0.5,1.1,0.7,2.3,0.7,3.6
		c0,1.6-0.3,3.1-0.9,4.5c-0.6,1.4-1.4,2.6-2.4,3.7c-1,1-2.2,1.9-3.5,2.4C138.3,24.5,136.9,24.8,135.3,24.8"/>
	<rect y="0" fill="none" width="184.2" height="24.8"/>
	<polygon fill="#FFFFFF" points="161.8,5 152.4,14 154.4,5 151,5 146.7,24.4 150.1,24.4 151.5,18.2 153.7,16.1 158.5,24.4 
		162.5,24.4 156.3,14.2 166.2,5 	"/>
	<path fill="#FFFFFF" d="M173.3,21.7c1,0,2-0.2,2.9-0.6c0.9-0.4,1.7-1,2.3-1.7c0.7-0.7,1.2-1.6,1.6-2.6c0.4-1,0.6-2.1,0.6-3.3
		c0-0.9-0.2-1.7-0.5-2.4c-0.3-0.7-0.7-1.3-1.3-1.8c-0.5-0.5-1.2-0.9-1.9-1.1c-0.7-0.3-1.5-0.4-2.3-0.4c-1,0-2,0.2-2.9,0.6
		c-0.9,0.4-1.7,1-2.3,1.7c-0.7,0.7-1.2,1.6-1.6,2.6s-0.6,2.1-0.6,3.3c0,0.9,0.1,1.7,0.5,2.4c0.3,0.7,0.7,1.3,1.3,1.8
		c0.5,0.5,1.2,0.9,1.9,1.1C171.6,21.6,172.4,21.7,173.3,21.7 M173,24.8c-1.3,0-2.5-0.2-3.7-0.6c-1.1-0.4-2.1-1-3-1.7
		c-0.8-0.7-1.5-1.6-2-2.7c-0.5-1.1-0.7-2.3-0.7-3.6c0-1.6,0.3-3.1,0.9-4.5C165.2,10.3,166,9,167,8c1-1,2.2-1.9,3.5-2.4
		c1.3-0.6,2.8-0.9,4.4-0.9c1.3,0,2.5,0.2,3.7,0.6c1.1,0.4,2.1,1,3,1.7c0.8,0.7,1.5,1.6,2,2.7c0.5,1.1,0.7,2.3,0.7,3.6
		c0,1.6-0.3,3.1-0.9,4.5c-0.6,1.4-1.4,2.6-2.4,3.7c-1,1-2.2,1.9-3.5,2.4C176.1,24.5,174.6,24.8,173,24.8"/>
</g>
</svg>
