<?xml version="1.0" encoding="utf-8"?>
<!-- Generator: Adobe Illustrator 18.1.1, SVG Export Plug-In . SVG Version: 6.00 Build 0)  -->
<svg version="1.1" id="Layer_1" xmlns="http://www.w3.org/2000/svg" xmlns:xlink="http://www.w3.org/1999/xlink" x="0px" y="0px"
	 viewBox="0 0 300 204" enable-background="new 0 0 300 204" xml:space="preserve">
<rect fill="#FFFFFF" width="300" height="204"/>
<g>
	<path fill="#49434D" d="M149.9,152c-0.7,0-1.3-0.3-1.7-0.8L99.7,92.6c0,0,0-0.1-0.1-0.1c-0.3-0.4-7.5-10.1-5.6-20.9
		c1.1-6.2,5-11.5,11.6-15.7c4.1-2.6,8.3-3.9,12.5-3.9c14.1,0,24.8,14.9,31.9,24.8c0.5,0.7,0.9,1.3,1.4,1.9c1.7-2.3,4.6-6,8.3-10.1
		c6-6.6,15.2-14.4,25.2-14.4c4.7,0,9,1.8,12.9,5.2c0.3,0.3,7.8,7.1,8.3,17.7c0.3,7.2-2.7,14.4-9,21.1c-19.1,20.6-45.3,52.7-45.6,53
		C151.2,151.7,150.6,152,149.9,152C149.9,152,149.9,152,149.9,152z M103.2,89.8l46.7,56.5c6.2-7.5,27.7-33.5,44.1-51.1
		c5.5-5.9,8.1-11.9,7.8-17.9c-0.4-8.7-6.8-14.5-6.8-14.6c-3.1-2.7-6.3-4.1-9.9-4.1c-8.8,0-17.5,8.1-21.9,12.9
		c-5.9,6.5-9.7,12.1-9.8,12.1c-0.4,0.6-1.1,1-1.8,1c-0.7,0-1.4-0.3-1.8-0.9c-1-1.3-2.1-2.8-3.2-4.4c-7-9.7-16.5-22.9-28.3-22.9
		c-3.3,0-6.7,1.1-10.2,3.2c-5.5,3.5-8.7,7.7-9.6,12.7C96.9,81.1,102.8,89.3,103.2,89.8z"/>
	<g>
		<path fill="#49434D" d="M154.8,120.7c-1,0-1.8-0.6-2.1-1.5l-6-17.9l-2.2,4.9c-0.4,0.8-1.2,1.3-2,1.3l-29,0c0,0,0,0,0,0
			c-1.2,0-2.2-1-2.2-2.2c0-1.2,1-2.2,2.2-2.2l27.5,0l3.9-8.8c0.4-0.8,1.3-1.4,2.1-1.3c0.9,0,1.7,0.6,2,1.5l5.2,15.5l4-19.4
			c0.2-1,1.1-1.8,2.1-1.8c0,0,0,0,0,0c1,0,1.9,0.7,2.2,1.7l3.9,16.7l5.1-22.8c0.2-1,1.1-1.7,2.1-1.7c0,0,0,0,0,0
			c1,0,1.9,0.7,2.1,1.7l4.7,17.9l7.1,0.2c1.2,0,2.2,1,2.2,2.3c0,1.2-1,2.2-2.2,2.2c0,0,0,0-0.1,0l-8.7-0.2c-1,0-1.8-0.7-2.1-1.7
			L174,94.3l-4.9,22c-0.2,1-1,1.7-2,1.7c-1,0.1-1.9-0.5-2.2-1.4l-1.5-3.9c0-0.1-0.1-0.2-0.1-0.3l-2.6-11.1l-3.7,17.7
			c-0.2,1-1,1.7-2,1.8C154.8,120.7,154.8,120.7,154.8,120.7z"/>
	</g>
</g>
</svg>
