<?xml version="1.0" encoding="utf-8"?>
<!-- Generator: Adobe Illustrator 18.1.1, SVG Export Plug-In . SVG Version: 6.00 Build 0)  -->
<svg version="1.1" id="Layer_1" xmlns="http://www.w3.org/2000/svg" xmlns:xlink="http://www.w3.org/1999/xlink" x="0px" y="0px"
	 viewBox="0 0 300 204" enable-background="new 0 0 300 204" xml:space="preserve">
<g id="Layer_2">
	<rect fill="#FFFFFF" width="300" height="204"/>
</g>
<g id="Layer_1_1_">
	<g>
		<g>
			<path fill="#49434D" d="M204.5,152L204.5,152h-18.4c-1,0-1.9-0.6-2-1.6l-4.4-36.9l-4.3,36.8c-0.1,1-1,1.7-2,1.7H155
				c-0.6,0-1.1,0-1.5-0.5c-0.4-0.4-0.6-0.9-0.6-1.4l4.3-78.9c0.1-1.1,1-2.2,2-2.2h40.9c1.1,0,2,1.2,2,2.3l4.3,78.5
				c0,0.1,0,0.1,0,0.3C206.5,151.2,205.6,152,204.5,152z M187.9,147h14.4l-4.1-73h-37.1l-4.1,73h14.4l6.1-51.5l-0.1-0.1
				c-0.1-0.6,0.1-1.2,0.5-1.7c0.4-0.4,0.9-0.7,1.5-0.7h0.2c0.6,0,1.1,0.5,1.5,0.9s0.6,1.1,0.5,1.7l-0.1-0.1L187.9,147z"/>
		</g>
		<g>
			<g>
				<path fill="#49434D" d="M149,123c-1.1,0-2-0.9-2-2V76.7c0-1.1,0.9-2,2-2s2,0.9,2,2v44.2C151,122.1,150.1,123,149,123z"/>
			</g>
			<path fill="#49434D" d="M158.8,115.6h-9.3c-1.1,0-1.8,1.7-1.8,2.8v0.8h-37.3v-0.8c0-1.1-0.7-2.8-1.8-2.8h-11L98.4,72
				c0-0.1,0,0.2,0,0.2c0-6.8,8.6-13.4,20.3-15.7c1.6,4.2,5.5,6.9,10.4,6.9c4.8,0,8.9-2.9,10.5-7.3c12.9,2.3,21.1,8.4,21.1,15.9v-0.1
				v10.8l0.5-8.9h3.6v-1.9c0-0.1,0-0.1,0-0.2c-0.3-9.8-10.6-17.5-26.3-19.8c-1.1-0.2-2.1,0.6-2.3,1.7c-0.6,3.4-3.5,5.8-7,5.8
				c-3.6,0-6.3-2.2-6.9-5.5c-0.2-1.1-1.2-1.8-2.3-1.7c-14.5,2.3-25.1,10.4-25.6,19.5c0,0.1,0,0.1,0,0.2l-0.8,46.5
				c0,0.5,0.2,1,0.6,1.4s0.9,0.5,1.5,0.5H107v2.4c0,1.1,0.4,1,1.6,1h40.9c1.1,0,1.6,0.1,1.6-1v-2.4h7.4L158.8,115.6z"/>
			<g>
				<path fill="#49434D" d="M109,123.7c-1.1,0-2-0.9-2-2V77.4c0-1.1,0.9-2,2-2s2,0.9,2,2v44.2C111,122.8,110.1,123.7,109,123.7z"/>
			</g>
		</g>
	</g>
</g>
</svg>
