<?xml version="1.0" encoding="utf-8"?>
<!-- Generator: Adobe Illustrator 18.1.1, SVG Export Plug-In . SVG Version: 6.00 Build 0)  -->
<svg version="1.1" id="Layer_1" xmlns="http://www.w3.org/2000/svg" xmlns:xlink="http://www.w3.org/1999/xlink" x="0px" y="0px"
	 viewBox="0 0 300 204" enable-background="new 0 0 300 204" xml:space="preserve">
<rect fill="#FFFFFF" width="300" height="204"/>
<g>
	<g>
		<path fill="#49434D" d="M109,138l-0.2,0c-0.1,0-3.3-0.7-6.7-3.2c-2.9-1.8-11.9-7.9-11.9-13V92c-0.2-1.9,0.3-5.4,3.4-7.8
			c3.2-2.4,9.5-7.7,9.6-7.7l0.3-0.2c0.1-0.1,0.8-0.6,0.7-1.9l0-0.2l0-7.7c-0.1-0.9-0.1-3.4,2.7-5.7c2.1-1.8,6.6-6.7,6.6-6.8l0.3-0.4
			l0.5-0.2c0.1-0.1,3.6-1.4,7-1.4c1,0,3.7,0,6.9,0c6,0,13.7,0,14.6,0c0.1,0,0.3,0,0.5,0c1.2,0,4.2,0.3,6.2,2.7
			c1.8,2.1,5.8,6.1,5.8,6.1l0.1,0.1c0.2,0.1,1.6,1.2,5.5,1.2c5.4,0,26.3-0.3,27.6-0.3c0.1,0,0.2,0,0.4,0c1.4,0,5,0.3,7.3,3.3
			c1.6,2.1,7.2,6.5,9.4,8.2c1.2,0.7,3.8,3.2,4.1,11.7c0.3,8.2,0,21.9,0,23.3c0.1,0.9,0.2,4.6-1.9,7.1c-1.1,1.3-2.7,2.1-4.5,2.3
			l-9.5,0.9l-9.8,9.8c-0.7,1-2.8,3.3-7.8,3.6c-1.5,0.1-6.2,0.1-14.2,0.1c-12.7,0-29.7-0.1-31.5-0.1c-0.4,0.1-1.8,0.4-2.2,1.9
			c-0.8,2.6-2.8,4.1-5.4,4.1c-0.3,0-0.6,0-0.8,0L109,138z M122.7,133.6c0,0,0.1,0,0.2,0c0.6,0,1-0.3,1.2-1c1.1-3.6,4.3-4.8,6.1-5
			l0.1,0l0.1,0c0.2,0,18.3,0.1,31.6,0.1c9.7,0,13-0.1,13.9-0.1c3.2-0.2,4.6-2,4.6-2l0.2-0.1l11.1-11.1l11.1-1
			c0.7-0.1,1.1-0.3,1.5-0.7c1-1.2,0.9-3.5,0.9-4l0-0.1l0-0.1c0-0.1,0.3-14.7,0-23.2c-0.2-6.1-1.7-7.8-2-8.1l-0.1,0l-0.2-0.2
			c-0.8-0.6-8.1-6.2-10.4-9.1c-1.4-1.8-3.8-1.7-4-1.6l-0.1,0c-0.2,0-22.2,0.3-27.7,0.3c-5.9,0-8.2-1.9-8.7-2.5
			c-0.4-0.4-4.2-4.2-6-6.3c-1-1.2-2.9-1.1-3.1-1.1l-0.2,0c0,0-18.7,0-21.5,0c-2,0-4,0.6-4.9,0.9c-1.2,1.3-4.7,5.1-6.7,6.8
			c-1,0.9-1.1,1.6-1.1,1.8l0.1,0.3l0,0.1l0,7.7c0.2,3.1-1.6,5.1-2.8,5.9c-0.9,0.8-6.5,5.4-9.6,7.7c-1.9,1.5-1.6,3.8-1.6,3.8l0,0.3
			v29.9c0,1.8,5.2,6.4,9.9,9.3l0.1,0.1c2.2,1.6,4.3,2.3,4.9,2.4l13-0.1L122.7,133.6C122.7,133.6,122.7,133.6,122.7,133.6z"/>
	</g>
	<path fill="none" stroke="#989898" stroke-width="5" stroke-miterlimit="10" d="M101.7,108.7"/>
	<g>
		<g>
			<path fill="#49434D" d="M118.5,102c1.3,0,2.4,1.1,2.4,2.4c0,1.3-1.1,2.4-2.4,2.4s-2.4-1.1-2.4-2.4C116.1,103,117.2,102,118.5,102
				 M118.5,100.2c-2.3,0-4.2,1.9-4.2,4.2c0,2.3,1.9,4.2,4.2,4.2c2.3,0,4.2-1.9,4.2-4.2C122.7,102.1,120.8,100.2,118.5,100.2
				L118.5,100.2z"/>
		</g>
		<g>
			<path fill="#49434D" d="M109,120.2c1.3,0,2.4,1.1,2.4,2.4s-1.1,2.4-2.4,2.4c-1.3,0-2.4-1.1-2.4-2.4S107.6,120.2,109,120.2
				 M109,118.5c-2.3,0-4.2,1.9-4.2,4.2c0,2.3,1.9,4.2,4.2,4.2c2.3,0,4.2-1.9,4.2-4.2C113.1,120.3,111.3,118.5,109,118.5L109,118.5z"
				/>
		</g>
		<g>
			<path fill="#49434D" d="M176.7,114.4c1.3,0,2.4,1.1,2.4,2.4c0,1.3-1.1,2.4-2.4,2.4c-1.3,0-2.4-1.1-2.4-2.4
				C174.3,115.5,175.4,114.4,176.7,114.4 M176.7,112.7c-2.3,0-4.2,1.9-4.2,4.2s1.9,4.2,4.2,4.2s4.2-1.9,4.2-4.2
				S179,112.7,176.7,112.7L176.7,112.7z"/>
		</g>
		<g>
			<path fill="#49434D" d="M133.9,83.9c1.3,0,2.4,1.1,2.4,2.4c0,1.3-1.1,2.4-2.4,2.4s-2.4-1.1-2.4-2.4
				C131.4,85,132.5,83.9,133.9,83.9 M133.9,82.2c-2.3,0-4.2,1.9-4.2,4.2c0,2.3,1.9,4.2,4.2,4.2s4.2-1.9,4.2-4.2
				C138,84,136.2,82.2,133.9,82.2L133.9,82.2z"/>
		</g>
		<g>
			<path fill="#49434D" d="M168.4,87.2c1.3,0,2.4,1.1,2.4,2.4c0,1.3-1.1,2.4-2.4,2.4c-1.3,0-2.4-1.1-2.4-2.4
				C166,88.3,167.1,87.2,168.4,87.2 M168.4,85.4c-2.3,0-4.2,1.9-4.2,4.2c0,2.3,1.9,4.2,4.2,4.2c2.3,0,4.2-1.9,4.2-4.2
				C172.6,87.3,170.7,85.4,168.4,85.4L168.4,85.4z"/>
		</g>
		<g>
			<path fill="#49434D" d="M196,99.5c1.3,0,2.4,1.1,2.4,2.4c0,1.3-1.1,2.4-2.4,2.4c-1.3,0-2.4-1.1-2.4-2.4
				C193.6,100.6,194.7,99.5,196,99.5 M196,97.8c-2.3,0-4.2,1.9-4.2,4.2c0,2.3,1.9,4.2,4.2,4.2s4.2-1.9,4.2-4.2
				C200.2,99.7,198.3,97.8,196,97.8L196,97.8z"/>
		</g>
		<g>
			<path fill="#49434D" d="M150,77.1c1.3,0,2.4,1.1,2.4,2.4c0,1.3-1.1,2.4-2.4,2.4s-2.4-1.1-2.4-2.4C147.6,78.2,148.7,77.1,150,77.1
				 M150,75.3c-2.3,0-4.2,1.9-4.2,4.2c0,2.3,1.9,4.2,4.2,4.2s4.2-1.9,4.2-4.2C154.2,77.2,152.3,75.3,150,75.3L150,75.3z"/>
		</g>
		<g>
			<path fill="#49434D" d="M120.9,67.6c1.3,0,2.4,1.1,2.4,2.4c0,1.3-1.1,2.4-2.4,2.4s-2.4-1.1-2.4-2.4
				C118.5,68.7,119.6,67.6,120.9,67.6 M120.9,65.8c-2.3,0-4.2,1.9-4.2,4.2c0,2.3,1.9,4.2,4.2,4.2s4.2-1.9,4.2-4.2
				C125.1,67.7,123.2,65.8,120.9,65.8L120.9,65.8z"/>
		</g>
		<g>
			<path fill="#49434D" d="M101.7,108.7c1.3,0,2.4,1.1,2.4,2.4s-1.1,2.4-2.4,2.4c-1.3,0-2.4-1.1-2.4-2.4S100.4,108.7,101.7,108.7
				 M101.7,107c-2.3,0-4.2,1.9-4.2,4.2c0,2.3,1.9,4.2,4.2,4.2c2.3,0,4.2-1.9,4.2-4.2C105.9,108.8,104,107,101.7,107L101.7,107z"/>
		</g>
		<g>
			<path fill="#49434D" d="M110.4,89.8c1.3,0,2.4,1.1,2.4,2.4c0,1.3-1.1,2.4-2.4,2.4c-1.3,0-2.4-1.1-2.4-2.4
				C108,90.9,109,89.8,110.4,89.8 M110.4,88c-2.3,0-4.2,1.9-4.2,4.2c0,2.3,1.9,4.2,4.2,4.2c2.3,0,4.2-1.9,4.2-4.2
				C114.5,89.9,112.7,88,110.4,88L110.4,88z"/>
		</g>
		<g>
			<path fill="#49434D" d="M134.2,100.5c1.3,0,2.4,1.1,2.4,2.4c0,1.3-1.1,2.4-2.4,2.4c-1.3,0-2.4-1.1-2.4-2.4
				C131.8,101.6,132.8,100.5,134.2,100.5 M134.2,98.8c-2.3,0-4.2,1.9-4.2,4.2s1.9,4.2,4.2,4.2c2.3,0,4.2-1.9,4.2-4.2
				S136.5,98.8,134.2,98.8L134.2,98.8z"/>
		</g>
		<g>
			<path fill="#49434D" d="M177.7,74.1c1.3,0,2.4,1.1,2.4,2.4c0,1.3-1.1,2.4-2.4,2.4c-1.3,0-2.4-1.1-2.4-2.4
				C175.3,75.2,176.4,74.1,177.7,74.1 M177.7,72.4c-2.3,0-4.2,1.9-4.2,4.2c0,2.3,1.9,4.2,4.2,4.2c2.3,0,4.2-1.9,4.2-4.2
				C181.9,74.3,180,72.4,177.7,72.4L177.7,72.4z"/>
		</g>
		<g>
			<path fill="#49434D" d="M189.1,74.7c1.3,0,2.4,1.1,2.4,2.4c0,1.3-1.1,2.4-2.4,2.4s-2.4-1.1-2.4-2.4
				C186.7,75.8,187.7,74.7,189.1,74.7 M189.1,72.9c-2.3,0-4.2,1.9-4.2,4.2c0,2.3,1.9,4.2,4.2,4.2s4.2-1.9,4.2-4.2
				C193.2,74.8,191.4,72.9,189.1,72.9L189.1,72.9z"/>
		</g>
	</g>
	<path fill="#49434D" d="M163.1,130.3c-4.4,4.8-10.1,11-12.5,13.7c-2.3,2.6-3.5,3.4-3.9,3.6h-18c-3.4,0-4.9-1.1-5.1-1.3
		c-0.3-0.3-1.3-1.7-4.6-6.4c-1.2-1.7-1.9-3.6-2.3-5h-4.5c0.4,1.8,1.2,4.8,3.2,7.6c4,5.6,4.8,6.6,4.9,6.7l0.1,0.1
		c0.3,0.3,2.7,2.7,8.4,2.7h18.4c1.5,0,3.7-1.7,6.8-5c3-3.3,10.8-11.8,15.2-16.6H163.1z"/>
	<path fill="#49434D" d="M125.1,123.7c-0.4-0.7-1.7-2.7-5.3-2.4c-3.1,0.3-8.6,0-8.7,0l0,0.3c0.2,0.3,0.2,0.7,0.2,1
		c0,0.5-0.1,0.9-0.4,1.3l0,0c0.2,0,5.7,0.3,9.1,0c2.1-0.2,2.6,0.8,2.7,0.9l0.1,0.2l4.9,5.9l2-1.7L125.1,123.7z"/>
	<path fill="#49434D" d="M108,92.2c0-0.4,0.1-0.8,0.3-1.1c-1.3,0.2-3.1,0.6-4.9,1.3c-3.5,1.5-3.1,6.1-3,6.9v9.8
		c0.4-0.2,0.8-0.4,1.3-0.4c0.5,0,0.9,0.1,1.3,0.4v-9.9l0-0.2c0,0-0.5-3.4,1.4-4.2c1.5-0.6,2.9-1,4-1.1C108.2,93.3,108,92.8,108,92.2
		z"/>
	<path fill="#49434D" d="M182.6,104.6c-1.3-1.4-4.2-1.8-4.8-1.8l-16-0.1c-0.2-0.1-1.5-0.6-3.6-4.1c-1.9-3.3-5.3-3.3-5.5-3.3
		c0,0,0,0,0,0c-0.3,0-7.8-0.1-10.3,0c-2.4,0.1-3.4,0.8-3.7,1.4l-4.1,3.9c0.9,0.2,1.7,0.9,1.9,1.8l4.4-4.2c0.2-0.1,0.7-0.2,1.6-0.2
		c2.4-0.1,10.1,0,10.2,0c0,0,2,0.1,3.2,2c3,5,5.1,5.5,6,5.4l15.6,0.1c1,0.1,2.6,0.5,3.1,1c2.1,2.3,11,10.7,11.3,11l1.8-1.9
		C193.7,115.4,184.6,106.8,182.6,104.6z"/>
	<path fill="#49434D" d="M131.4,86.3c0-0.5,0.1-0.9,0.4-1.3h-13.2c-2.8,0-4.2-1.5-4.3-1.6l-7.8-7.4l-1.8,1.9l7.7,7.3
		c0.4,0.4,2.5,2.4,6.2,2.4h13.2C131.6,87.3,131.4,86.8,131.4,86.3z"/>
	<path fill="#49434D" d="M141.5,70.3c-0.4-0.5-1.6-1.6-4.3-1.6H123c0.2,0.4,0.4,0.8,0.4,1.3s-0.1,0.9-0.4,1.3h14.2
		c1.4,0,2,0.4,2.1,0.5l0,0.1l8.3,7.4c0.1-1,0.7-1.8,1.6-2.1L141.5,70.3z"/>
	<path fill="#49434D" d="M175.3,76.6c0-0.5,0.1-0.9,0.4-1.3h-14.4c-0.5,0-2-0.2-2-2.9v-1.2V64h-2.6v8.4c0,1.8,0.5,3.2,1.5,4.2
		c1.3,1.2,2.8,1.3,3.1,1.3c0,0,0,0,0,0h14.4C175.5,77.5,175.3,77.1,175.3,76.6z"/>
	<path fill="#49434D" d="M193.7,101.6c0-0.3,0.1-0.5,0.2-0.8l-0.4,0.5c-0.2-0.4-0.2-1.1,0.3-1.6c0.3-0.2,0.6-0.3,0.9-0.3
		c0.2,0,0.4,0,0.5,0.1l-0.3,0.3c0.2-0.1,0.4-0.2,0.6-0.3c-0.2-0.3-0.5-0.6-0.8-1c-0.6-0.7-5.4-6.3-5.6-6.7c-2.4-3.9-4.8-3.8-5.6-3.7
		l-13,0.1v0c0.2,0.4,0.4,0.8,0.4,1.3c0,0.5-0.1,0.9-0.4,1.3l0,0c0,0,12.5,0,13.1-0.1s1.9,0.3,3.2,2.5c0.3,0.4,6.3,7.5,6.7,8
		l-0.1,0.1C193.5,101.5,193.6,101.6,193.7,101.6z"/>
	<path fill="#49434D" d="M206.2,87.5c0-0.8,0.6-1.2,1-1.3c-0.1,0-0.7,0.1-4,0.1c-3.2,0-4.8-2.2-4.8-2.3l-7-6.3c-0.3,0.9-1,1.6-2,1.7
		l7,6.2c0.5,0.7,2.8,3.3,6.9,3.3c4.7,0,4.9-0.1,5.3-0.6l0.4-1L206.2,87.5z"/>
	<path fill="#49434D" d="M131,114.9l-0.1-0.2l-10-10.1c-0.1,1-0.8,1.8-1.7,2l9.4,9.5c0.4,0.7,1.6,2,4.9,2h40.8v-2.6h-40.8
		C131.9,115.5,131.2,115.1,131,114.9z"/>
</g>
</svg>
