<svg id="Scroll_Mouse" data-name="Scroll Mouse" xmlns="http://www.w3.org/2000/svg" viewBox="0 0 28 70"><defs><style>.cls-1,.cls-2{fill:#fff;}.cls-1{fill-rule:evenodd;}.cls-2{opacity:0.1;}.cls-3{fill:#36bf9f;}</style></defs><title>btn-scroll-mouse</title><polygon class="cls-1" points="20.39 60.41 13.99 66.8 7.59 60.41 6.01 61.99 12.41 68.39 12.39 68.4 13.99 70 21.99 62.01 20.39 60.41"/><path class="cls-2" d="M14,41A13,13,0,0,1,1,28V14a13,13,0,1,1,26,0V28A13,13,0,0,1,14,41Z"/><path class="cls-3" d="M14,2A12,12,0,0,1,26,14V28A12,12,0,0,1,2,28V14A12,12,0,0,1,14,2m0-2A14,14,0,0,0,0,14V28a14,14,0,0,0,28,0V14A14,14,0,0,0,14,0h0Z"/><rect class="cls-3" x="13" y="8.35" width="2" height="8" rx="1" ry="1"/></svg>