<?xml version="1.0" encoding="utf-8"?>
<!-- Generator: Adobe Illustrator 18.1.1, SVG Export Plug-In . SVG Version: 6.00 Build 0)  -->
<svg version="1.1" id="Layer_1" xmlns="http://www.w3.org/2000/svg" xmlns:xlink="http://www.w3.org/1999/xlink" x="0px" y="0px"
	 viewBox="0 0 250 140" enable-background="new 0 0 250 140" xml:space="preserve">
<g>
	<g>
		<path fill="#49434D" d="M0,91.1V46.8h9.5v1.8c-5.2,0.5-5.4,0.8-5.4,4.8v31.1c0,3.9,0.1,4.2,5.4,4.7v1.8H0"/>
		<path fill="#49434D" d="M240.5,91.1v-1.8c5.3-0.5,5.4-0.8,5.4-4.7V53.5c0-4-0.2-4.3-5.4-4.8v-1.8h9.5v44.2H240.5"/>
		<path fill="#49434D" d="M50.6,59.7c3.5,0,6.1,2.3,6.1,6.5V79c0,2.8,0.6,3.2,3.1,3.4V84H49.2v-1.6c2.8-0.1,3.1-0.7,3.1-3V67
			c0-2.9-0.8-4-3-4c-2.3,0-4,0.9-5.7,2.4v13.9c0,2.4,0.6,2.9,2.9,3V84H36.1v-1.6c2.8-0.1,3.1-0.7,3.1-3V67c0-2.9-0.8-4-3-4
			c-2.6,0-4.3,1.2-6.2,2.8v13.5c0,2.4,0.3,2.9,3.1,3V84H22.3v-1.6c2.8-0.2,3.4-0.6,3.4-3.4V67.1c0-3.5-0.7-4-3.5-4.1v-1.5l6.2-1.9
			h0.7c0.4,1,0.8,2.5,0.8,4c2.2-2,4.4-3.9,7.6-3.9c2.6,0,4.7,1.3,5.5,3.8C45.3,61.4,47.5,59.7,50.6,59.7"/>
		<path fill="#49434D" d="M74,84.6c-6.5,0-11.1-4.6-11.1-12.5c0-7.8,4.6-12.5,11-12.5c7.2,0,11.2,5.5,11.2,12.8
			C85.1,80,80.5,84.6,74,84.6 M73.9,61.9c-4.8,0-6.3,3.7-6.3,9.7c0,7.3,1.7,10.6,6.5,10.6c4.2,0,6.3-3.5,6.3-9.7
			C80.4,65.1,78.1,61.9,73.9,61.9z"/>
		<path fill="#49434D" d="M93,84h-2.8c0.4-1.2,0.6-2.5,0.6-5.7V55.8c0-3.5-0.8-4-3.7-4.1v-1.5l6.8-1.4h0.7c0.3,0.9,0.6,2.6,0.6,4.8
			v9.8c1.6-1.7,4-3.6,7.5-3.6c5.5,0,9.1,4,9.1,12.1c0,8-3.5,12.8-9.5,12.8c-3.7,0-6-1.9-7.6-3.7C94.3,81.6,93.7,83.3,93,84
			 M101.5,62.8c-2.7,0-5.2,1.6-6.2,3v13c1.6,1.5,3.1,2.8,6.1,2.8c3.8,0,5.7-2.3,5.7-10C107,65,105.3,62.8,101.5,62.8z"/>
		<path fill="#49434D" d="M114.9,84v-1.6c2.8-0.2,3.4-0.6,3.4-3.4V67.1c0-3.5-0.7-4-3.5-4.1v-1.5l7.2-1.9h0.7V79
			c0,2.8,0.3,3.2,3.4,3.4V84H114.9 M120.2,55.9c-1.7,0-3-1.4-3-3c0-1.7,1.3-3,3-3c1.7,0,3,1.4,3,3C123.2,54.5,121.9,55.9,120.2,55.9
			z"/>
		<path fill="#49434D" d="M136.7,78.8c0,2.9,0.4,3.4,3.6,3.5V84h-11.6v-1.6c3-0.2,3.6-0.6,3.6-3.4V55.8c0-3.5-0.8-4-3.9-4.1v-1.5
			l7-1.4h0.7c0.3,1,0.6,2.9,0.6,4.8V78.8"/>
	</g>
	<g>
		<g>
			<path fill="#49434D" d="M154.5,84.6c-6.5,0-11.1-4.6-11.1-12.5c0-7.8,4.6-12.5,11-12.5c7.2,0,11.2,5.5,11.2,12.8
				C165.6,80,160.9,84.6,154.5,84.6 M154.4,61.9c-4.8,0-6.3,3.7-6.3,9.7c0,7.3,1.7,10.6,6.5,10.6c4.2,0,6.3-3.5,6.3-9.7
				C160.8,65.1,158.6,61.9,154.4,61.9z"/>
			<path fill="#49434D" d="M169,87.6c0-1.7,1.3-2.7,2.5-3.4l2-0.1c-0.2,0.4-0.5,1.5-0.5,2.5c0,2.7,1.5,4.2,6.1,4.2
				c5.1,0,6.8-1.9,6.8-4.5c0-3-1.2-3.6-7.5-3.7c-1.7,0-3.4-0.2-4.3-0.3c-2.1-0.2-3.1-2-3.1-3.8c0-1.9,1.9-3.3,4.5-4.2
				c-3.5-0.8-5.8-3.7-5.8-6.9c0-4.7,3.5-7.9,9.1-7.9c1.3,0,2.3,0.1,3.8,0.5c1.3,0.4,2.6,0.8,3.6,0.8c1.5,0,2.6-0.6,3.9-1.5l1.6,3.1
				c-1.1,0.5-2.1,0.9-3.4,0.9c-1,0-2-0.3-3.4-0.9c1.6,1.2,2.9,3,2.9,5.1c0,3.2-2.1,7-9,7.4c-0.3,0-0.7,0-1.1,0c-1.7,0.5-3,1.5-3,2.5
				c0,0.7,0.6,1.2,1.7,1.2h4.5c5.7,0,8.9,1.5,8.9,6.7c0,4.7-4.6,7.7-10.6,7.7C172.5,93.2,169,90.5,169,87.6 M183,67.5
				c0-3.9-1.4-5.6-4.5-5.6c-2.9,0-4.4,1.6-4.4,5.5c0,3.7,1.6,5.5,4.5,5.5C181.5,72.8,183,71.1,183,67.5z"/>
		</g>
	</g>
	<g>
		<path fill="#49434D" d="M193.6,84v-1.6c2.8-0.2,3.4-0.6,3.4-3.4V67.1c0-3.5-0.7-4-3.5-4.1v-1.5l7.2-1.9h0.7V79
			c0,2.8,0.3,3.2,3.4,3.4V84H193.6 M198.8,55.9c-1.7,0-3-1.4-3-3c0-1.7,1.3-3,3-3c1.7,0,3,1.4,3,3C201.8,54.5,200.5,55.9,198.8,55.9
			z"/>
		<path fill="#49434D" d="M226.4,79.6l1,1.6c-2.3,1.8-5.2,3.3-8.6,3.3c-6.9,0-11.1-4.6-11.1-12.6c0-7.9,4.5-12.5,10.4-12.5
			c6.1,0,9.7,4.2,9.7,11.6v1.3h-15.4c0.1,7,2.5,9.3,7.6,9.3C222.1,81.6,224.7,80.7,226.4,79.6 M212.4,70h10.8c0-5.9-1.5-8.2-5.2-8.2
			C214.8,61.8,212.8,63.8,212.4,70z"/>
	</g>
</g>
</svg>
