<?xml version="1.0" encoding="utf-8"?>
<!-- Generator: Adobe Illustrator 18.1.1, SVG Export Plug-In . SVG Version: 6.00 Build 0)  -->
<svg version="1.1" id="Layer_1" xmlns="http://www.w3.org/2000/svg" xmlns:xlink="http://www.w3.org/1999/xlink" x="0px" y="0px"
	 viewBox="0 0 250 140" enable-background="new 0 0 250 140" xml:space="preserve">
<g>
	<path fill="#49434D" d="M0.2,88.1V48.4h14.6c5.9,0,10.5,0.8,14,2.4c3.4,1.6,6.2,4,8.2,7.2c2,3.2,3,6.6,3,10.3
		c0,2.7-0.6,5.2-1.7,7.6c-1.1,2.4-2.7,4.6-4.8,6.4c-2.1,1.9-4.6,3.3-7.3,4.3c-1.6,0.6-3.1,1-4.5,1.2c-1.4,0.2-4,0.3-7.8,0.3H0.2z
		 M14.1,53.5H6.4v29.6h7.9c3.1,0,5.5-0.2,7.2-0.6c1.7-0.4,3.1-0.9,4.3-1.5c1.1-0.6,2.2-1.3,3.1-2.2c3.1-2.8,4.6-6.4,4.6-10.8
		c0-4.3-1.6-7.8-4.7-10.5c-1.2-1-2.5-1.8-4-2.5c-1.5-0.6-2.9-1.1-4.3-1.3C19.3,53.6,17.1,53.5,14.1,53.5z"/>
	<path fill="#49434D" d="M43.7,48.4h24.5v5.1H49.9v12.1h17.7v5.1H49.9v12.4h18.9v5.1H43.7V48.4z"/>
	<path fill="#49434D" d="M86.1,71.5l-4.7-2.6c-3-1.7-5.1-3.3-6.3-4.9c-1.2-1.6-1.9-3.5-1.9-5.5c0-3.1,1.2-5.7,3.5-7.6
		c2.4-2,5.4-2.9,9.2-2.9c3.6,0,6.9,0.9,9.9,2.8v6.5c-3.1-2.8-6.5-4.1-10.1-4.1c-2,0-3.7,0.4-5,1.3s-2,2-2,3.3c0,1.2,0.5,2.3,1.4,3.3
		c1,1,2.5,2.1,4.6,3.3l4.7,2.6c5.3,2.9,7.9,6.6,7.9,11.1c0,3.2-1.2,5.8-3.5,7.8c-2.3,2-5.3,3-9.1,3c-4.3,0-8.2-1.2-11.7-3.6v-7.2
		c3.3,3.9,7.2,5.8,11.6,5.8c1.9,0,3.6-0.5,4.8-1.5c1.3-1,1.9-2.2,1.9-3.7C91.8,76,89.9,73.7,86.1,71.5z"/>
	<path fill="#49434D" d="M160.7,88.2V48.4h10.8c4.4,0,7.9,1,10.4,3c2.6,2,3.9,4.7,3.9,8.1c0,2.3-0.6,4.3-1.9,6
		c-1.3,1.7-3.1,3-5.4,3.8c1.4,0.8,2.7,2,4.1,3.4c1.3,1.4,3.2,4,5.6,7.6c1.5,2.3,2.7,4,3.6,5.1l2.3,2.8h-7.4l-1.9-2.6
		c-0.1-0.1-0.2-0.3-0.4-0.5l-1.2-1.6l-1.9-2.9l-2.1-3.1c-1.3-1.6-2.5-2.9-3.5-3.9c-1.1-1-2-1.7-2.9-2.1c-0.9-0.4-2.3-0.6-4.3-0.6
		h-1.6v17.3H160.7z M168.8,53.2h-1.9v12.6h2.4c3.1,0,5.3-0.2,6.5-0.7c1.2-0.5,2.1-1.2,2.7-2.2c0.7-1,1-2.1,1-3.4
		c0-1.3-0.4-2.4-1.1-3.4c-0.7-1-1.7-1.7-3.1-2.2S171.8,53.2,168.8,53.2z"/>
	<path fill="#49434D" d="M187.8,48.3h36.2v5.1h-15.1v34.8h-6.2V53.4h-14.8V48.3z"/>
	<path fill="#49434D" d="M238.5,71.5l-4.7-2.6c-3-1.7-5.1-3.3-6.3-4.9c-1.2-1.6-1.9-3.5-1.9-5.5c0-3.1,1.2-5.7,3.5-7.6
		c2.4-2,5.4-2.9,9.2-2.9c3.6,0,6.9,0.9,9.9,2.8v6.5c-3.1-2.8-6.5-4.1-10.1-4.1c-2,0-3.7,0.4-5,1.3s-2,2-2,3.3c0,1.2,0.5,2.3,1.4,3.3
		c1,1,2.5,2.1,4.6,3.3l4.7,2.6c5.3,2.9,7.9,6.6,7.9,11.1c0,3.2-1.2,5.8-3.5,7.8c-2.3,2-5.3,3-9.1,3c-4.3,0-8.2-1.2-11.7-3.6v-7.2
		c3.3,3.9,7.2,5.8,11.6,5.8c1.9,0,3.6-0.5,4.8-1.5c1.3-1,1.9-2.2,1.9-3.7C244.2,76,242.3,73.7,238.5,71.5z"/>
	<g>
		<path fill="#49434D" d="M5.8,107.4v1.4c-0.7,0.3-1.4,0.4-2.1,0.4c-1.1,0-2-0.3-2.7-1c-0.7-0.7-1-1.6-1-2.7c0-1.1,0.3-2.1,1-2.8
			c0.7-0.7,1.5-1,2.6-1c0.4,0,0.7,0,1,0.1c0.3,0.1,0.7,0.2,1.1,0.4v1.5c-0.7-0.5-1.4-0.7-2-0.7c-0.6,0-1.2,0.2-1.6,0.7
			c-0.4,0.5-0.6,1-0.6,1.7c0,0.7,0.2,1.3,0.7,1.8c0.4,0.4,1.1,0.7,1.8,0.7C4.5,107.9,5.1,107.7,5.8,107.4z"/>
		<path fill="#49434D" d="M23.4,101.9c1.1,0,2,0.4,2.7,1.1c0.7,0.7,1.1,1.6,1.1,2.7c0,1-0.4,1.9-1.1,2.6c-0.7,0.7-1.7,1-2.8,1
			c-1.1,0-2-0.3-2.7-1c-0.7-0.7-1.1-1.6-1.1-2.6c0-1.1,0.4-1.9,1.1-2.6C21.4,102.2,22.3,101.9,23.4,101.9z M23.3,103.1
			c-0.7,0-1.3,0.2-1.7,0.7c-0.4,0.5-0.7,1-0.7,1.7c0,0.7,0.2,1.3,0.7,1.7c0.5,0.4,1,0.7,1.7,0.7c0.7,0,1.3-0.2,1.7-0.7
			s0.7-1,0.7-1.7c0-0.7-0.2-1.3-0.7-1.7C24.6,103.4,24,103.1,23.3,103.1z"/>
		<path fill="#49434D" d="M47.3,103.9v5.3h-1.4v-4c0-0.8-0.1-1.4-0.3-1.7c-0.2-0.3-0.6-0.5-1.1-0.5c-0.3,0-0.6,0.1-0.8,0.2
			c-0.2,0.1-0.5,0.4-0.9,0.7v5.3h-1.4v-7.2h1.4v1c0.7-0.7,1.4-1.1,2.1-1.1c0.9,0,1.6,0.4,2.1,1.3c0.8-0.9,1.6-1.3,2.4-1.3
			c0.7,0,1.3,0.3,1.7,0.8c0.5,0.5,0.7,1.3,0.7,2.4v4.3h-1.4v-4.3c0-0.6-0.1-1.1-0.4-1.4c-0.2-0.3-0.6-0.5-1.1-0.5
			C48.3,103,47.8,103.3,47.3,103.9z"/>
		<path fill="#49434D" d="M72.2,103.9v5.3h-1.4v-4c0-0.8-0.1-1.4-0.3-1.7c-0.2-0.3-0.6-0.5-1.1-0.5c-0.3,0-0.6,0.1-0.8,0.2
			c-0.2,0.1-0.5,0.4-0.9,0.7v5.3h-1.4v-7.2h1.4v1c0.7-0.7,1.4-1.1,2.1-1.1c0.9,0,1.6,0.4,2.1,1.3c0.8-0.9,1.6-1.3,2.4-1.3
			c0.7,0,1.3,0.3,1.7,0.8c0.5,0.5,0.7,1.3,0.7,2.4v4.3h-1.4v-4.3c0-0.6-0.1-1.1-0.4-1.4c-0.2-0.3-0.6-0.5-1.1-0.5
			C73.2,103,72.7,103.3,72.2,103.9z"/>
		<path fill="#49434D" d="M95.6,109.1v-0.9c-0.3,0.3-0.7,0.6-1,0.8c-0.4,0.2-0.8,0.3-1.2,0.3c-0.5,0-0.9-0.1-1.3-0.3
			c-0.4-0.2-0.7-0.5-0.9-0.9s-0.3-1-0.3-1.9v-4.1h1.4v4.1c0,0.8,0.1,1.3,0.3,1.6c0.2,0.3,0.6,0.5,1.1,0.5c0.7,0,1.3-0.3,1.7-1v-5.2
			H97v7.2H95.6z"/>
		<path fill="#49434D" d="M113,101.9v0.9c0.6-0.7,1.4-1.1,2.2-1.1c0.5,0,0.9,0.1,1.3,0.3c0.4,0.2,0.7,0.6,0.9,1
			c0.2,0.4,0.3,1,0.3,1.9v4.1h-1.4V105c0-0.7-0.1-1.3-0.3-1.6s-0.6-0.5-1.1-0.5c-0.7,0-1.3,0.3-1.7,1v5.2h-1.5v-7.2H113z"/>
		<path fill="#49434D" d="M132.8,98.8c0.2,0,0.4,0.1,0.6,0.2s0.3,0.4,0.3,0.6c0,0.2-0.1,0.4-0.3,0.6s-0.4,0.3-0.6,0.3
			c-0.2,0-0.4-0.1-0.6-0.3c-0.2-0.2-0.3-0.4-0.3-0.6c0-0.2,0.1-0.4,0.3-0.6C132.4,98.9,132.6,98.8,132.8,98.8z M132.1,101.9h1.4v7.2
			h-1.4V101.9z"/>
		<path fill="#49434D" d="M153.5,107.4v1.4c-0.7,0.3-1.4,0.4-2.1,0.4c-1.1,0-2-0.3-2.7-1s-1-1.6-1-2.7c0-1.1,0.3-2.1,1-2.8
			s1.5-1,2.6-1c0.4,0,0.7,0,1,0.1c0.3,0.1,0.7,0.2,1.1,0.4v1.5c-0.7-0.5-1.4-0.7-2-0.7c-0.6,0-1.2,0.2-1.6,0.7
			c-0.4,0.5-0.6,1-0.6,1.7c0,0.7,0.2,1.3,0.7,1.8c0.4,0.4,1.1,0.7,1.8,0.7C152.2,107.9,152.8,107.7,153.5,107.4z"/>
		<path fill="#49434D" d="M172.2,104.8v3.1c0,0.2,0.1,0.4,0.3,0.4c0.2,0,0.4-0.1,0.8-0.4v0.9c-0.3,0.2-0.6,0.4-0.8,0.4
			c-0.2,0.1-0.4,0.1-0.6,0.1c-0.6,0-1-0.2-1.1-0.7c-0.6,0.5-1.3,0.7-1.9,0.7c-0.5,0-0.9-0.2-1.3-0.5c-0.3-0.3-0.5-0.8-0.5-1.3
			c0-0.5,0.2-0.9,0.5-1.2c0.3-0.4,0.8-0.6,1.4-0.9l1.8-0.6v-0.4c0-0.9-0.4-1.3-1.3-1.3c-0.8,0-1.5,0.4-2.3,1.2v-1.6
			c0.6-0.7,1.4-1,2.4-1c0.8,0,1.4,0.2,1.9,0.6c0.2,0.1,0.3,0.3,0.4,0.5c0.1,0.2,0.2,0.4,0.2,0.7
			C172.2,103.7,172.2,104.1,172.2,104.8z M170.8,107.7v-2.1l-1,0.4c-0.5,0.2-0.8,0.4-1,0.6c-0.2,0.2-0.3,0.4-0.3,0.7
			c0,0.3,0.1,0.5,0.3,0.7s0.4,0.3,0.7,0.3C170,108.2,170.4,108,170.8,107.7z"/>
		<path fill="#49434D" d="M186,103l2.7-2.6v1.5h2.3v1.3h-2.3v3.5c0,0.8,0.3,1.2,1,1.2c0.5,0,1.1-0.2,1.6-0.5v1.3
			c-0.6,0.3-1.2,0.5-1.8,0.5c-0.7,0-1.2-0.2-1.6-0.6c-0.1-0.1-0.2-0.2-0.3-0.4c-0.1-0.1-0.2-0.3-0.2-0.6c-0.1-0.2-0.1-0.7-0.1-1.3
			v-3.2H186V103z"/>
		<path fill="#49434D" d="M205.6,98.8c0.2,0,0.4,0.1,0.6,0.2c0.2,0.2,0.3,0.4,0.3,0.6c0,0.2-0.1,0.4-0.3,0.6
			c-0.2,0.2-0.4,0.3-0.6,0.3c-0.2,0-0.4-0.1-0.6-0.3c-0.2-0.2-0.3-0.4-0.3-0.6c0-0.2,0.1-0.4,0.3-0.6
			C205.2,98.9,205.4,98.8,205.6,98.8z M204.9,101.9h1.4v7.2h-1.4V101.9z"/>
		<path fill="#49434D" d="M224.4,101.9c1.1,0,2,0.4,2.7,1.1c0.7,0.7,1.1,1.6,1.1,2.7c0,1-0.4,1.9-1.1,2.6c-0.7,0.7-1.7,1-2.8,1
			c-1.1,0-2-0.3-2.7-1c-0.7-0.7-1.1-1.6-1.1-2.6c0-1.1,0.4-1.9,1.1-2.6C222.4,102.2,223.3,101.9,224.4,101.9z M224.3,103.1
			c-0.7,0-1.3,0.2-1.7,0.7c-0.4,0.5-0.7,1-0.7,1.7c0,0.7,0.2,1.3,0.7,1.7c0.5,0.4,1,0.7,1.7,0.7c0.7,0,1.3-0.2,1.7-0.7
			s0.7-1,0.7-1.7c0-0.7-0.2-1.3-0.7-1.7C225.6,103.4,225,103.1,224.3,103.1z"/>
		<path fill="#49434D" d="M243.7,101.9v0.9c0.6-0.7,1.4-1.1,2.2-1.1c0.5,0,0.9,0.1,1.3,0.3s0.7,0.6,0.9,1c0.2,0.4,0.3,1,0.3,1.9v4.1
			h-1.4V105c0-0.7-0.1-1.3-0.3-1.6s-0.6-0.5-1.1-0.5c-0.7,0-1.3,0.3-1.7,1v5.2h-1.5v-7.2H243.7z"/>
	</g>
	<path fill="#49434D" d="M151.1,88h7l-28.6-57.3h-2.6L98.4,88h7l9.2-18.7h27.2L151.1,88z M128.2,41l10.9,22.9h-21.7L128.2,41z"/>
</g>
</svg>
