<?xml version="1.0" encoding="utf-8"?>
<!-- Generator: Adobe Illustrator 18.1.1, SVG Export Plug-In . SVG Version: 6.00 Build 0)  -->
<svg version="1.1" id="Layer_1" xmlns="http://www.w3.org/2000/svg" xmlns:xlink="http://www.w3.org/1999/xlink" x="0px" y="0px"
	 viewBox="0 0 250 140" enable-background="new 0 0 250 140" xml:space="preserve">
<path fill-rule="evenodd" clip-rule="evenodd" fill="#49434D" d="M58.6,110.8h5.5v18.4h-3.4h-2.1h-12h-0.3H46
	c-2.4,0-4.8-3.1-4.8-5.4v-13h5.5v12.9c0,0.9,0.9,1.3,1.8,1.2c2.7,0,5.3,0,8,0c1.3,0,2.1-0.4,2.2-1.2L58.6,110.8L58.6,110.8z
	 M122.1,10.8c26.8,0,48.5,21.7,48.5,48.5c0,26.8-21.7,48.5-48.5,48.5c-26.8,0-48.5-21.7-48.5-48.5C73.6,32.5,95.3,10.8,122.1,10.8
	L122.1,10.8z M131.7,68.1c0.6,1.5,1,3.1,1,4.8c0,6.3-4.7,11.6-10.7,12.5c0.2,0,0.3,0,0.5,0c8.9,0,16.1-7.2,16.1-16.1
	c0-8.9-7.2-16.1-16.1-16.1s-16.1,7.2-16.1,16.1c0,2.1,0.4,4.2,1.2,6c-0.2-0.8-0.2-1.6-0.2-2.5c0-4.6,2.5-8.7,6.2-10.9
	c1.9-1.4,4.3-2.2,6.8-2.2C125.6,59.9,130.1,63.3,131.7,68.1L131.7,68.1z M110.5,71.3c0.5-3.1,2.5-5.7,5.3-7c-1.8,1.3-3,3.4-3,5.9
	c0,4,3.2,7.2,7.2,7.2c4,0,7.2-3.2,7.2-7.2c0-1.9-0.7-3.6-2-4.9c2,1.7,3.3,4.2,3.3,7c0,0.9-0.1,1.7-0.3,2.5v0
	c-0.3,0.9-0.7,1.8-1.2,2.6l0,0c-0.1,0.1-0.2,0.3-0.3,0.4l0,0l-0.1,0.1c-0.3,0.4-0.6,0.7-1,1h0l-0.1,0.1l0,0
	c-0.1,0.1-0.2,0.2-0.3,0.2l-0.1,0l0,0l-0.1,0.1l0,0l-0.1,0.1l0,0l0,0l0,0c-0.1,0.1-0.2,0.1-0.3,0.2l-0.1,0l0,0l-0.1,0.1l0,0L124,80
	l0,0c-0.1,0.1-0.2,0.1-0.3,0.2l0,0l-0.2,0.1l0,0l-0.2,0.1c-0.3,0.1-0.6,0.3-0.9,0.4l-0.1,0l0,0l-0.1,0l-0.2,0.1l0,0
	c-0.3,0.1-0.7,0.2-1,0.2l-0.1,0l-0.1,0l-0.2,0l0,0c-0.1,0-0.2,0-0.3,0l-0.1,0l0,0l-0.1,0l0,0l-0.1,0c-0.1,0-0.3,0-0.4,0l-0.2,0l0,0
	l-0.1,0l-0.1,0l-0.1,0l0,0l-0.2,0l-0.1,0l-0.1,0l-0.1,0l0,0l-0.1,0l-0.1,0l0,0l-0.1,0l-0.1,0c-0.2,0-0.4-0.1-0.7-0.1h0
	c-0.1,0-0.2-0.1-0.3-0.1l0,0c-0.1,0-0.2-0.1-0.3-0.1l-0.1,0l0,0l-0.1,0l-0.1,0c-0.3-0.1-0.7-0.3-1-0.4l0,0l-0.1,0l0,0l0,0l-0.1,0
	c-0.2-0.1-0.4-0.2-0.5-0.3l-0.1,0c-0.1-0.1-0.3-0.2-0.4-0.3l-0.1-0.1l-0.1-0.1c-2.2-1.6-3.6-4.3-3.6-7.2
	C110.4,71.9,110.4,71.6,110.5,71.3L110.5,71.3z M122.4,49.9c4,0,7.8,1.2,10.9,3.3c-4.4-5.1-10.4-8.5-17.2-8.5
	c-14.1,0-25.6,12.4-25.6,27.6c0,7.3,1.4,14.7,7,19c6.8,5.2,15.3,8.3,24.5,8.3c22.3,0,40.3-18.1,40.3-40.3
	c0-22.3-18.1-40.3-40.3-40.3c-22.3,0-40.3,18.1-40.3,40.3c0,4.8,0.8,9.4,2.4,13.7c-0.2-1.3-0.3-2.7-0.3-4c0-17.1,12.5-30.7,30.4-31
	c17.9-0.3,34.2,14.7,28.4,34.7c-2.9,7.9-8.8,16.2-20.2,16.2c-10.7,0-19.5-8.7-19.5-19.5C103,58.6,111.7,49.9,122.4,49.9L122.4,49.9z
	 M206.1,110.8c1.5,0,2.7,1.2,2.7,2.7c0,1.5-1.2,2.7-2.7,2.7c-1.5,0-2.7-1.2-2.7-2.7C203.4,112,204.6,110.8,206.1,110.8L206.1,110.8z
	 M204.8,115.2v-3.4h1.5c0.3,0,0.5,0,0.7,0.1c0.2,0.1,0.3,0.2,0.4,0.3c0.1,0.2,0.1,0.3,0.1,0.5c0,0.2-0.1,0.4-0.2,0.6
	c-0.2,0.2-0.4,0.3-0.7,0.3c0.1,0.1,0.2,0.1,0.3,0.2c0.1,0.1,0.3,0.3,0.4,0.5l0.5,0.8c0.4-0.4,0.7-0.7,0.7-1.6c0-0.9-1-2.3-2.3-2.3
	c-1.3,0-2.3,1-2.3,2.3c0,1.3,1.4,2.3,2.3,2.3c0.9,0,1.1-0.2,1.5-0.6h-0.4l-0.5-0.7c-0.1-0.2-0.2-0.4-0.3-0.5
	c-0.1-0.1-0.2-0.2-0.2-0.2c-0.1,0-0.1-0.1-0.2-0.1c-0.1,0-0.1,0-0.3,0h-0.5v1.5H204.8L204.8,115.2z M205.2,113.3h1
	c0.2,0,0.4,0,0.5-0.1c0.1,0,0.2-0.1,0.3-0.2c0.1-0.1,0.1-0.2,0.1-0.3c0-0.2-0.1-0.3-0.2-0.4c-0.1-0.1-0.3-0.2-0.6-0.2h-1.1V113.3
	L205.2,113.3z M73.6,125.1h11.6c0.9-1,0.5-2.3-0.3-3.6H73.6V125.1L73.6,125.1z M73.6,118h11.2c0.6,0,0.5-3,0-3H73.6V118L73.6,118z
	 M73.5,110.8h0.2h14.2c0.8,0,2.9,2,3.1,4.4c0.2,1.9-0.4,4-2.6,4.6c3.6,1.8,3.4,3.2,3.4,4.7c0.1,2-0.7,4.9-3.9,4.8H73.6h-0.2h-5.3
	v-18.4H73.5L73.5,110.8z M201.2,110.8v5.5h-7.8v12.9h-5.5v-12.9h-7.8v-5.5C187.1,110.8,194.2,110.8,201.2,110.8L201.2,110.8z
	 M159.1,110.8h0.4h18.4v5.5h-13.4v2h12.3v5.5h-12.3v5.5h-5.5V110.8L159.1,110.8z M127.6,120.5c0,1.9,0,3.6,0,5.4
	c0,1.8-2.2,3.3-4.4,3.3h-14.6c-2.1,0-3.4-2.1-3.4-3.1l0-2.4l4.8,0c0,0.5,0.1,0.9,0.4,1.1h11.5c0.2-0.1,0.3-0.3,0.3-0.5v-1.8
	c-0.1-0.3-0.2-0.5-0.6-0.6h-12.5c-2,0-4-2-4-3.1l0-2.4h0v-1.8v-0.7v-3h17.9c2,0,4,1.6,4,2.7l0,2.6l-4.8,0c0-1-0.3-1.6-1.7-1.6h-10v3
	c0.1,0,0.2,0.1,0.3,0.1h12.1C125.1,117.7,127.7,119.2,127.6,120.5L127.6,120.5z M136.5,110.8l18.4,0c0,4.8,0,9.1,0,13.9
	c0,3.6-3.5,4.7-5.2,4.6h-13.3c-2.9,0-5.5-2-5.5-3.9v-0.2v-10.2v-0.2C131,112.9,133.7,111,136.5,110.8L136.5,110.8z M136.8,116.3v7.5
	h12.6v-7.5H136.8L136.8,116.3z M95.2,110.8h5.5v18.4h-5.5V110.8L95.2,110.8z"/>
</svg>
