<?xml version="1.0" encoding="utf-8"?>
<!-- Generator: Adobe Illustrator 18.1.1, SVG Export Plug-In . SVG Version: 6.00 Build 0)  -->
<svg version="1.1" xmlns="http://www.w3.org/2000/svg" xmlns:xlink="http://www.w3.org/1999/xlink" x="0px" y="0px"
	 viewBox="0 0 250 250" enable-background="new 0 0 250 250" xml:space="preserve">
<g id="Layer_1" display="none">
	<g display="inline">
		<g>
			<path fill="#49434D" d="M0,146.1v-44.2h9.5v1.8c-5.2,0.5-5.4,0.8-5.4,4.8v31.1c0,3.9,0.1,4.2,5.4,4.7v1.8H0"/>
			<path fill="#49434D" d="M240.5,146.1v-1.8c5.3-0.5,5.4-0.8,5.4-4.7v-31.1c0-4-0.2-4.3-5.4-4.8v-1.8h9.5v44.2H240.5"/>
			<path fill="#49434D" d="M50.6,114.7c3.5,0,6.1,2.3,6.1,6.5V134c0,2.8,0.6,3.2,3.1,3.4v1.6H49.2v-1.6c2.8-0.1,3.1-0.7,3.1-3V122
				c0-2.9-0.8-4-3-4c-2.3,0-4,0.9-5.7,2.4v13.9c0,2.4,0.6,2.9,2.9,3v1.6H36.1v-1.6c2.8-0.1,3.1-0.7,3.1-3V122c0-2.9-0.8-4-3-4
				c-2.6,0-4.3,1.2-6.2,2.8v13.5c0,2.4,0.3,2.9,3.1,3v1.6H22.3v-1.6c2.8-0.2,3.4-0.6,3.4-3.4v-11.9c0-3.5-0.7-4-3.5-4.1v-1.5
				l6.2-1.9h0.7c0.4,1,0.8,2.5,0.8,4c2.2-2,4.4-3.9,7.6-3.9c2.6,0,4.7,1.3,5.5,3.8C45.3,116.4,47.5,114.7,50.6,114.7"/>
			<path fill="#49434D" d="M74,139.6c-6.5,0-11.1-4.6-11.1-12.5c0-7.8,4.6-12.5,11-12.5c7.2,0,11.2,5.5,11.2,12.8
				C85.1,135,80.5,139.6,74,139.6 M73.9,116.9c-4.8,0-6.3,3.7-6.3,9.7c0,7.3,1.7,10.6,6.5,10.6c4.2,0,6.3-3.5,6.3-9.7
				C80.4,120.1,78.1,116.9,73.9,116.9z"/>
			<path fill="#49434D" d="M93,139h-2.8c0.4-1.2,0.6-2.5,0.6-5.7v-22.6c0-3.5-0.8-4-3.7-4.1v-1.5l6.8-1.4h0.7
				c0.3,0.9,0.6,2.6,0.6,4.8v9.8c1.6-1.7,4-3.6,7.5-3.6c5.5,0,9.1,4,9.1,12.1c0,8-3.5,12.8-9.5,12.8c-3.7,0-6-1.9-7.6-3.7
				C94.3,136.6,93.7,138.3,93,139 M101.5,117.8c-2.7,0-5.2,1.6-6.2,3v13c1.6,1.5,3.1,2.8,6.1,2.8c3.8,0,5.7-2.3,5.7-10
				C107,120,105.3,117.8,101.5,117.8z"/>
			<path fill="#49434D" d="M114.9,139v-1.6c2.8-0.2,3.4-0.6,3.4-3.4v-11.9c0-3.5-0.7-4-3.5-4.1v-1.5l7.2-1.9h0.7V134
				c0,2.8,0.3,3.2,3.4,3.4v1.6H114.9 M120.2,110.9c-1.7,0-3-1.4-3-3c0-1.7,1.3-3,3-3c1.7,0,3,1.4,3,3
				C123.2,109.5,121.9,110.9,120.2,110.9z"/>
			<path fill="#49434D" d="M136.7,133.8c0,2.9,0.4,3.4,3.6,3.5v1.6h-11.6v-1.6c3-0.2,3.6-0.6,3.6-3.4v-23.2c0-3.5-0.8-4-3.9-4.1
				v-1.5l7-1.4h0.7c0.3,1,0.6,2.9,0.6,4.8V133.8"/>
		</g>
		<g>
			<g>
				<path fill="#49434D" d="M154.5,139.6c-6.5,0-11.1-4.6-11.1-12.5c0-7.8,4.6-12.5,11-12.5c7.2,0,11.2,5.5,11.2,12.8
					C165.6,135,160.9,139.6,154.5,139.6 M154.4,116.9c-4.8,0-6.3,3.7-6.3,9.7c0,7.3,1.7,10.6,6.5,10.6c4.2,0,6.3-3.5,6.3-9.7
					C160.8,120.1,158.6,116.9,154.4,116.9z"/>
				<path fill="#49434D" d="M169,142.6c0-1.7,1.3-2.7,2.5-3.4l2-0.1c-0.2,0.4-0.5,1.5-0.5,2.5c0,2.7,1.5,4.2,6.1,4.2
					c5.1,0,6.8-1.9,6.8-4.5c0-3-1.2-3.6-7.5-3.7c-1.7,0-3.4-0.2-4.3-0.3c-2.1-0.2-3.1-2-3.1-3.8c0-1.9,1.9-3.3,4.5-4.2
					c-3.5-0.8-5.8-3.7-5.8-6.9c0-4.7,3.5-7.9,9.1-7.9c1.3,0,2.3,0.1,3.8,0.5c1.3,0.4,2.6,0.8,3.6,0.8c1.5,0,2.6-0.6,3.9-1.5l1.6,3.1
					c-1.1,0.5-2.1,0.9-3.4,0.9c-1,0-2-0.3-3.4-0.9c1.6,1.2,2.9,3,2.9,5.1c0,3.2-2.1,7-9,7.4c-0.3,0-0.7,0-1.1,0
					c-1.7,0.5-3,1.5-3,2.5c0,0.7,0.6,1.2,1.7,1.2h4.5c5.7,0,8.9,1.5,8.9,6.7c0,4.7-4.6,7.7-10.6,7.7
					C172.5,148.2,169,145.5,169,142.6 M183,122.5c0-3.9-1.4-5.6-4.5-5.6c-2.9,0-4.4,1.6-4.4,5.5c0,3.7,1.6,5.5,4.5,5.5
					C181.5,127.8,183,126.1,183,122.5z"/>
			</g>
		</g>
		<g>
			<path fill="#49434D" d="M193.6,139v-1.6c2.8-0.2,3.4-0.6,3.4-3.4v-11.9c0-3.5-0.7-4-3.5-4.1v-1.5l7.2-1.9h0.7V134
				c0,2.8,0.3,3.2,3.4,3.4v1.6H193.6 M198.8,110.9c-1.7,0-3-1.4-3-3c0-1.7,1.3-3,3-3c1.7,0,3,1.4,3,3
				C201.8,109.5,200.5,110.9,198.8,110.9z"/>
			<path fill="#49434D" d="M226.4,134.6l1,1.6c-2.3,1.8-5.2,3.3-8.6,3.3c-6.9,0-11.1-4.6-11.1-12.6c0-7.9,4.5-12.5,10.4-12.5
				c6.1,0,9.7,4.2,9.7,11.6v1.3h-15.4c0.1,7,2.5,9.3,7.6,9.3C222.1,136.6,224.7,135.7,226.4,134.6 M212.4,125h10.8
				c0-5.9-1.5-8.2-5.2-8.2C214.8,116.8,212.8,118.8,212.4,125z"/>
		</g>
	</g>
</g>
<g id="Layer_2" display="none">
	<path display="inline" fill-rule="evenodd" clip-rule="evenodd" fill="#49434D" d="M58.6,165h5.5v18.4h-3.4h-2.1h-12h-0.3H46
		c-2.4,0-4.8-3.1-4.8-5.4v-13h5.5v12.9c0,0.9,0.9,1.3,1.8,1.2c2.7,0,5.3,0,8,0c1.3,0,2.1-0.4,2.2-1.2L58.6,165L58.6,165z M122.1,65
		c26.8,0,48.5,21.7,48.5,48.5c0,26.8-21.7,48.5-48.5,48.5c-26.8,0-48.5-21.7-48.5-48.5C73.6,86.7,95.3,65,122.1,65L122.1,65z
		 M131.7,122.3c0.6,1.5,1,3.1,1,4.8c0,6.3-4.7,11.6-10.7,12.5c0.2,0,0.3,0,0.5,0c8.9,0,16.1-7.2,16.1-16.1c0-8.9-7.2-16.1-16.1-16.1
		s-16.1,7.2-16.1,16.1c0,2.1,0.4,4.2,1.2,6c-0.2-0.8-0.2-1.6-0.2-2.5c0-4.6,2.5-8.7,6.2-10.9c1.9-1.4,4.3-2.2,6.8-2.2
		C125.6,114.1,130.1,117.5,131.7,122.3L131.7,122.3z M110.5,125.5c0.5-3.1,2.5-5.7,5.3-7c-1.8,1.3-3,3.4-3,5.9c0,4,3.2,7.2,7.2,7.2
		c4,0,7.2-3.2,7.2-7.2c0-1.9-0.7-3.6-2-4.9c2,1.7,3.3,4.2,3.3,7c0,0.9-0.1,1.7-0.3,2.5v0c-0.3,0.9-0.7,1.8-1.2,2.6l0,0
		c-0.1,0.1-0.2,0.3-0.3,0.4l0,0l-0.1,0.1c-0.3,0.4-0.6,0.7-1,1h0l-0.1,0.1l0,0c-0.1,0.1-0.2,0.2-0.3,0.2l-0.1,0l0,0l-0.1,0.1l0,0
		l-0.1,0.1l0,0l0,0l0,0c-0.1,0.1-0.2,0.1-0.3,0.2l-0.1,0l0,0l-0.1,0.1l0,0l-0.1,0.1l0,0c-0.1,0.1-0.2,0.1-0.3,0.2l0,0l-0.2,0.1l0,0
		l-0.2,0.1c-0.3,0.1-0.6,0.3-0.9,0.4l-0.1,0l0,0l-0.1,0L122,135l0,0c-0.3,0.1-0.7,0.2-1,0.2l-0.1,0l-0.1,0l-0.2,0l0,0
		c-0.1,0-0.2,0-0.3,0l-0.1,0l0,0l-0.1,0l0,0l-0.1,0c-0.1,0-0.3,0-0.4,0l-0.2,0l0,0l-0.1,0l-0.1,0l-0.1,0l0,0l-0.2,0l-0.1,0l-0.1,0
		l-0.1,0l0,0l-0.1,0l-0.1,0l0,0l-0.1,0l-0.1,0c-0.2,0-0.4-0.1-0.7-0.1h0c-0.1,0-0.2-0.1-0.3-0.1l0,0c-0.1,0-0.2-0.1-0.3-0.1l-0.1,0
		l0,0l-0.1,0l-0.1,0c-0.3-0.1-0.7-0.3-1-0.4l0,0l-0.1,0l0,0l0,0l-0.1,0c-0.2-0.1-0.4-0.2-0.5-0.3l-0.1,0c-0.1-0.1-0.3-0.2-0.4-0.3
		l-0.1-0.1l-0.1-0.1c-2.2-1.6-3.6-4.3-3.6-7.2C110.4,126.1,110.4,125.8,110.5,125.5L110.5,125.5z M122.4,104.1c4,0,7.8,1.2,10.9,3.3
		c-4.4-5.1-10.4-8.5-17.2-8.5c-14.1,0-25.6,12.4-25.6,27.6c0,7.3,1.4,14.7,7,19c6.8,5.2,15.3,8.3,24.5,8.3
		c22.3,0,40.3-18.1,40.3-40.3c0-22.3-18.1-40.3-40.3-40.3c-22.3,0-40.3,18.1-40.3,40.3c0,4.8,0.8,9.4,2.4,13.7
		c-0.2-1.3-0.3-2.7-0.3-4c0-17.1,12.5-30.7,30.4-31c17.9-0.3,34.2,14.7,28.4,34.7c-2.9,7.9-8.8,16.2-20.2,16.2
		c-10.7,0-19.5-8.7-19.5-19.5C103,112.8,111.7,104.1,122.4,104.1L122.4,104.1z M206.1,165c1.5,0,2.7,1.2,2.7,2.7
		c0,1.5-1.2,2.7-2.7,2.7c-1.5,0-2.7-1.2-2.7-2.7C203.4,166.2,204.6,165,206.1,165L206.1,165z M204.8,169.4V166h1.5
		c0.3,0,0.5,0,0.7,0.1c0.2,0.1,0.3,0.2,0.4,0.3c0.1,0.2,0.1,0.3,0.1,0.5c0,0.2-0.1,0.4-0.2,0.6c-0.2,0.2-0.4,0.3-0.7,0.3
		c0.1,0.1,0.2,0.1,0.3,0.2c0.1,0.1,0.3,0.3,0.4,0.5l0.5,0.8c0.4-0.4,0.7-0.7,0.7-1.6c0-0.9-1-2.3-2.3-2.3c-1.3,0-2.3,1-2.3,2.3
		c0,1.3,1.4,2.3,2.3,2.3c0.9,0,1.1-0.2,1.5-0.6h-0.4l-0.5-0.7c-0.1-0.2-0.2-0.4-0.3-0.5c-0.1-0.1-0.2-0.2-0.2-0.2
		c-0.1,0-0.1-0.1-0.2-0.1c-0.1,0-0.1,0-0.3,0h-0.5v1.5H204.8L204.8,169.4z M205.2,167.5h1c0.2,0,0.4,0,0.5-0.1
		c0.1,0,0.2-0.1,0.3-0.2c0.1-0.1,0.1-0.2,0.1-0.3c0-0.2-0.1-0.3-0.2-0.4c-0.1-0.1-0.3-0.2-0.6-0.2h-1.1V167.5L205.2,167.5z
		 M73.6,179.3h11.6c0.9-1,0.5-2.3-0.3-3.6H73.6V179.3L73.6,179.3z M73.6,172.2h11.2c0.6,0,0.5-3,0-3H73.6V172.2L73.6,172.2z
		 M73.5,165h0.2h14.2c0.8,0,2.9,2,3.1,4.4c0.2,1.9-0.4,4-2.6,4.6c3.6,1.8,3.4,3.2,3.4,4.7c0.1,2-0.7,4.9-3.9,4.8H73.6h-0.2h-5.3V165
		H73.5L73.5,165z M201.2,165v5.5h-7.8v12.9h-5.5v-12.9h-7.8V165C187.1,165,194.2,165,201.2,165L201.2,165z M159.1,165h0.4h18.4v5.5
		h-13.4v2h12.3v5.5h-12.3v5.5h-5.5V165L159.1,165z M127.6,174.7c0,1.9,0,3.6,0,5.4c0,1.8-2.2,3.3-4.4,3.3h-14.6
		c-2.1,0-3.4-2.1-3.4-3.1l0-2.4l4.8,0c0,0.5,0.1,0.9,0.4,1.1h11.5c0.2-0.1,0.3-0.3,0.3-0.5v-1.8c-0.1-0.3-0.2-0.5-0.6-0.6h-12.5
		c-2,0-4-2-4-3.1l0-2.4h0v-1.8v-0.7v-3h17.9c2,0,4,1.6,4,2.7l0,2.6l-4.8,0c0-1-0.3-1.6-1.7-1.6h-10v3c0.1,0,0.2,0.1,0.3,0.1h12.1
		C125.1,171.9,127.7,173.4,127.6,174.7L127.6,174.7z M136.5,165l18.4,0c0,4.8,0,9.1,0,13.9c0,3.6-3.5,4.7-5.2,4.6h-13.3
		c-2.9,0-5.5-2-5.5-3.9v-0.2v-10.2v-0.2C131,167.1,133.7,165.1,136.5,165L136.5,165z M136.8,170.5v7.5h12.6v-7.5H136.8L136.8,170.5z
		 M95.2,165h5.5v18.4h-5.5V165L95.2,165z"/>
</g>
<g id="Layer_3" display="none">
	<g display="inline">
		<path fill="#49434D" d="M137.8,57.1c5.5-2.3,12.2,0.9,14.1,6.5c2.2,5.7-1.6,12.8-7.7,14c-4.2,0.5-8.4,0.6-12.5,1.8
			c-11.5,3.7-23.7,5-35.8,4.6c-4-0.2-8.4,0.8-11.1,3.9c-3.9,4.6-3.9,11.8-0.6,16.7c2.4,3.5,6.8,5.1,11,5.2c13.4,0.1,26.7,0,40.1,0.1
			c3.9,0.1,7.4,3.6,7.4,7.6c0.3,4.1-3.2,8-7.3,8c-13.1,0.1-26.2,0-39.3,0c-8.7,0.3-17.6-3.4-23.3-10.1c-8-9.6-8.6-24.5-1.7-34.9
			c3.7-5.8,9.8-9.9,16.6-11.3c5-1.2,10.2-0.5,15.3-0.7c7.8-0.4,15.6-1.2,23.1-3.6C130.4,63.2,133.5,59.2,137.8,57.1L137.8,57.1z"/>
		<path fill="#49434D" d="M93.8,89.2c13.3-0.2,26.6,0,39.9-0.1c9.3-0.1,18.8,4.1,24.3,11.8c7.2,10.1,7,24.9-0.6,34.8
			c-5.2,7.2-14.2,10.8-23,10.5c-10-0.3-20.2,0.5-29.9,3.2c-4.3,1.3-7.6,4.5-11.2,7.1c-5.2,3.6-13.1,1.1-15.5-4.7
			C75,146,78.7,138.3,85,137c4.2-0.6,8.5-0.5,12.5-1.8c11.9-3.8,24.4-5,36.8-4.7c3.8,0.2,7.9-1.1,10.4-4.1
			c3.7-4.7,3.6-11.7,0.3-16.6c-2.6-3.6-7.2-5.1-11.4-5.1c-13.1,0-26.2,0-39.3,0c-4.2,0.1-7.9-3.8-7.6-8
			C86.7,92.9,89.9,89.4,93.8,89.2L93.8,89.2z"/>
		<path fill="#49434D" d="M22.2,168.8c2.9-0.7,6-0.4,8.8,0.5c1.1,0.2,1.3,2.2,0.2,2.5c-2.8,0-5.6-1.1-8.3-0.3
			c-2.5,0.7-3.4,4.3-1.7,6.1c3,2.1,6.9,2.6,9.6,5c2.7,3.1,1.5,8.9-2.5,10.4c-3.3,1.1-7.2,0.8-10.4-0.7c0.1-0.4,0.1-1.3,0.2-1.8
			c3-0.7,6.2,1.2,9.2-0.1c2.6-0.9,3.2-5.2,0.7-6.5c-2.8-1.6-6.2-2.3-8.8-4.4C16,176.3,17.7,169.8,22.2,168.8L22.2,168.8z"/>
		<path fill="#49434D" d="M141.6,168.7c3-0.5,6.4-0.4,9.2,0.9c0,0.5,0,1.4,0,1.9c-2.9,0.6-5.9-1.1-8.8-0.1c-2.7,0.5-3.7,4.5-1.8,6.3
			c2.6,1.7,5.7,2.4,8.4,3.9c4.1,2.4,3.2,9.6-1.2,11.2c-3.1,1.1-6.7,0.8-9.7-0.3c-1.3-0.3-0.5-1.6-0.3-2.4c2.8,0,5.7,1.3,8.5,0.4
			c2.6-0.6,3.6-4.4,1.8-6.2c-3-2.1-6.9-2.5-9.7-5C135,175.8,137,169.5,141.6,168.7L141.6,168.7z"/>
		<path fill="#49434D" d="M116.6,170.5c-0.2-1.6,1.1-2.6,2.5-1.6c0.3,2.6,0.2,5.3,0.1,8c2.3-1,4.8-2,7.4-1.3
			c2.7,0.5,4.8,3.1,4.9,5.8c0.3,4,0.1,8,0,12.1c-0.6-0.1-1.7-0.4-2.3-0.5c-1-4.3,0.6-9-0.9-13.1c-2.2-3.1-6.5-1.4-8.9,0.5
			c0,4.4,0.1,8.8-0.1,13.2c-0.6-0.1-1.8-0.4-2.4-0.5C116.3,185.5,116.7,178,116.6,170.5L116.6,170.5z"/>
		<path fill="#49434D" d="M38.3,175.5c0.4-1.9-0.9-5,1.4-5.9c2.3,1,1,4.1,1.4,6c1.9,0.4,5.4-1,5.6,1.9c-1.5,1.4-3.8,0.7-5.7,0.9
			c0.1,3.5-0.4,7.1,0.3,10.6c0.6,2.5,3.6,1.6,5.4,1.7c1.5-0.6,1.8,2.1,0.5,2.3c-3,1.4-7.4,0.5-8.5-3c-0.9-3.7-0.3-7.6-0.4-11.4
			c-1.3-0.3-2.6-0.3-3.7-1C34.2,175.2,36.8,175.8,38.3,175.5L38.3,175.5z"/>
		<path fill="#49434D" d="M86,175.5c0.1-2.2-0.3-4.7,1.4-6.4c1.8,1.7,1.3,4.3,1.4,6.5c1.6,0,3.3,0,4.9,0.2c0.5,0.8,0.2,1.7,0.2,2.6
			c-1.7,0-3.5,0-5.2,0c0.2,3.7-0.5,7.6,0.5,11.2c1.4,2.1,4.4,0.7,6.5,1.3c0.6,2.6-2.6,2.9-4.5,2.8c-2.3-0.1-4.4-1.8-4.9-4.1
			c-0.6-3.6-0.2-7.3-0.3-10.9c-1.2-0.3-2.6-0.3-3.7-1C82,175.3,84.5,175.8,86,175.5L86,175.5z"/>
		<path fill="#49434D" d="M51.8,175.9c3.6,0.2,7.5-1.4,10.7,0.8c-0.3,0.4-1,1.3-1.3,1.7c-2.3-0.1-4.7-0.1-6.9,0.7
			c-0.2,4.6,0.2,9.2-0.2,13.7c-0.6,0.2-1.8,0.5-2.4,0.7C51.5,187.6,51.4,181.7,51.8,175.9L51.8,175.9z"/>
		<path fill="#49434D" d="M104,175.8c2.3-0.7,5-0.7,7.2,0.3c1.3,0.5,0.6,1.6,0.2,2.4c-2.5,0-5.2-1.1-7.4,0.3c-3.9,2.3-3.9,9,0,11.3
			c2.2,1.3,4.9,0.3,7.3,0.4c0.8,0.6,1,2-0.1,2.4c-3.2,1.3-7.4,1-10-1.4C96.5,187.1,97.7,177.9,104,175.8L104,175.8z"/>
		<path fill="#49434D" d="M178.9,176.7c3-1.5,7.1-2.1,9.8,0.4c2.3,2.4,1.7,5.9,1.8,8.9c-0.2,2.4,0.4,5-0.5,7.3c-0.5,0-1.4,0-1.9-0.1
			c-1.1-4.5,0.6-9.4-1-13.8c-2.3-2.5-6.8-1.2-8.6,1.2c-0.3,3.6,0,7.3-0.1,10.9c0.4,1.6-1.4,1.9-2.6,1.9c-0.2-5.9-0.3-11.9,0-17.8
			C176.9,175.8,177.9,176.2,178.9,176.7L178.9,176.7z"/>
		<path fill="#49434D" d="M197.3,176.5c2.4-1.6,5.6-1.2,8.3-0.7c1.5,0,1.5,1.6,1.5,2.7c-2.6,0-5.4-1.1-8,0c-1.4,0.5-1.8,3-0.2,3.6
			c2.2,1,4.6,1.4,6.7,2.6c2.6,1.7,2.4,6.1-0.2,7.7c-2.5,1.6-5.7,1.2-8.5,0.7c-1.5,0-1.3-1.7-1.4-2.7c2.6,0,5.4,1.1,7.9,0
			c1.3-0.4,1.5-1.8,1.2-3c-2.3-1.9-5.8-1.7-8.1-3.6C194.6,181.9,194.9,178,197.3,176.5L197.3,176.5z"/>
		<path fill="#49434D" d="M70.6,190.7c-2.2-0.6-3-2.8-3.8-4.6c4.4-0.4,8.8-0.5,13.2-0.9c0-2.2,0-4.6-1.3-6.5
			c-2.6-4.4-9.9-4.3-12.7-0.1c-1.9,2.7-1.9,6.4-1.2,9.6c1,4,5.4,6.2,9.4,5.6c1.6-0.3,4.4-0.4,3.7-2.7
			C75.7,189.8,73,191.7,70.6,190.7z M68.9,179.1c2-1.5,5-1.7,6.9,0c0.9,1,1.3,2.4,1.8,3.6c-3.6,0.3-7.3,0.6-11,0.7
			C67.3,181.9,67.7,180.1,68.9,179.1z"/>
		<path fill="#49434D" d="M166.7,176c-3.9-1.7-9-0.1-10.6,4c-1.3,3.9-1.2,9.2,2.4,11.9c3.1,2.4,7.5,1.9,10.9,0.3
			c-0.8-3.3-4.1-0.6-6.4-1.2c-2.8-0.1-4.6-2.5-5.2-5.1c4.3-0.4,8.6-0.3,12.9-0.9C171.6,181.6,170.1,177.4,166.7,176z M157.7,183.4
			c0.5-1.5,0.8-3.2,2.1-4.3c1.9-1.6,5-1.8,7-0.1c1.1,1,1.3,2.4,1.8,3.7C165,183,161.4,183.3,157.7,183.4z"/>
		<path fill="#49434D" d="M225.7,178.4c-2.5-3.9-8.8-4.1-11.9-0.8c-2.7,2.9-2.7,7.2-1.7,10.8c1.6,4.9,7.9,6.4,12.3,4.3
			c1.3-0.3,0.5-1.5,0.3-2.3c-2.6,0.3-5.3,1.4-7.8,0c-1.7-0.8-2.3-2.7-2.9-4.4c4.4-0.3,8.8-0.4,13.1-0.9
			C227.2,182.8,227,180.3,225.7,178.4z M213.8,183.4c0.5-1.2,0.7-2.5,1.4-3.6c1.8-2.3,5.5-2.6,7.7-0.8c1,1,1.3,2.4,1.8,3.7
			C221.1,183,217.5,183.3,213.8,183.4z"/>
		<g>
			<path fill="#49434D" d="M230.6,173.3v-5.7h-2v-1.2h5.5v1.2h-2v5.7H230.6z"/>
			<path fill="#49434D" d="M234.9,173.3v-6.9h2.1l1.2,4.7l1.2-4.7h2.1v6.9h-1.3v-5.4l-1.4,5.4h-1.3l-1.4-5.4v5.4H234.9z"/>
		</g>
	</g>
</g>
<g id="Layer_4" display="none">
	<g display="inline">
		<path fill="#49434D" d="M0.2,143.1v-39.7h14.6c5.9,0,10.5,0.8,14,2.4c3.4,1.6,6.2,4,8.2,7.2c2,3.2,3,6.6,3,10.3
			c0,2.7-0.6,5.2-1.7,7.6c-1.1,2.4-2.7,4.6-4.8,6.4c-2.1,1.9-4.6,3.3-7.3,4.3c-1.6,0.6-3.1,1-4.5,1.2s-4,0.3-7.8,0.3H0.2z
			 M14.1,108.5H6.4v29.6h7.9c3.1,0,5.5-0.2,7.2-0.6c1.7-0.4,3.1-0.9,4.3-1.5c1.1-0.6,2.2-1.3,3.1-2.2c3.1-2.8,4.6-6.4,4.6-10.8
			c0-4.3-1.6-7.8-4.7-10.5c-1.2-1-2.5-1.8-4-2.5c-1.5-0.6-2.9-1.1-4.3-1.3C19.3,108.6,17.1,108.5,14.1,108.5z"/>
		<path fill="#49434D" d="M43.7,103.4h24.5v5.1H49.9v12.1h17.7v5.1H49.9v12.4h18.9v5.1H43.7V103.4z"/>
		<path fill="#49434D" d="M86.1,126.5l-4.7-2.6c-3-1.7-5.1-3.3-6.3-4.9c-1.2-1.6-1.9-3.5-1.9-5.5c0-3.1,1.2-5.7,3.5-7.6
			c2.4-2,5.4-2.9,9.2-2.9c3.6,0,6.9,0.9,9.9,2.8v6.5c-3.1-2.8-6.5-4.1-10.1-4.1c-2,0-3.7,0.4-5,1.3c-1.3,0.9-2,2-2,3.3
			c0,1.2,0.5,2.3,1.4,3.3c1,1,2.5,2.1,4.6,3.3l4.7,2.6c5.3,2.9,7.9,6.6,7.9,11.1c0,3.2-1.2,5.8-3.5,7.8c-2.3,2-5.3,3-9.1,3
			c-4.3,0-8.2-1.2-11.7-3.6v-7.2c3.3,3.9,7.2,5.8,11.6,5.8c1.9,0,3.6-0.5,4.8-1.5c1.3-1,1.9-2.2,1.9-3.7
			C91.8,131,89.9,128.7,86.1,126.5z"/>
		<path fill="#49434D" d="M160.7,143.2v-39.8h10.8c4.4,0,7.9,1,10.4,3c2.6,2,3.9,4.7,3.9,8.1c0,2.3-0.6,4.3-1.9,6
			c-1.3,1.7-3.1,3-5.4,3.8c1.4,0.8,2.7,2,4.1,3.4c1.3,1.4,3.2,4,5.6,7.6c1.5,2.3,2.7,4,3.6,5.1l2.3,2.8h-7.4l-1.9-2.6
			c-0.1-0.1-0.2-0.3-0.4-0.5l-1.2-1.6l-1.9-2.9l-2.1-3.1c-1.3-1.6-2.5-2.9-3.5-3.9c-1.1-1-2-1.7-2.9-2.1c-0.9-0.4-2.3-0.6-4.3-0.6
			h-1.6v17.3H160.7z M168.8,108.2h-1.9v12.6h2.4c3.1,0,5.3-0.2,6.5-0.7c1.2-0.5,2.1-1.2,2.7-2.2c0.7-1,1-2.1,1-3.4
			c0-1.3-0.4-2.4-1.1-3.4c-0.7-1-1.7-1.7-3.1-2.2C174,108.4,171.8,108.2,168.8,108.2z"/>
		<path fill="#49434D" d="M187.8,103.3h36.2v5.1h-15.1v34.8h-6.2v-34.8h-14.8V103.3z"/>
		<path fill="#49434D" d="M238.5,126.5l-4.7-2.6c-3-1.7-5.1-3.3-6.3-4.9c-1.2-1.6-1.9-3.5-1.9-5.5c0-3.1,1.2-5.7,3.5-7.6
			c2.4-2,5.4-2.9,9.2-2.9c3.6,0,6.9,0.9,9.9,2.8v6.5c-3.1-2.8-6.5-4.1-10.1-4.1c-2,0-3.7,0.4-5,1.3c-1.3,0.9-2,2-2,3.3
			c0,1.2,0.5,2.3,1.4,3.3c1,1,2.5,2.1,4.6,3.3l4.7,2.6c5.3,2.9,7.9,6.6,7.9,11.1c0,3.2-1.2,5.8-3.5,7.8c-2.3,2-5.3,3-9.1,3
			c-4.3,0-8.2-1.2-11.7-3.6v-7.2c3.3,3.9,7.2,5.8,11.6,5.8c1.9,0,3.6-0.5,4.8-1.5c1.3-1,1.9-2.2,1.9-3.7
			C244.2,131,242.3,128.7,238.5,126.5z"/>
		<g>
			<path fill="#49434D" d="M5.8,162.4v1.4c-0.7,0.3-1.4,0.4-2.1,0.4c-1.1,0-2-0.3-2.7-1c-0.7-0.7-1-1.6-1-2.7c0-1.1,0.3-2.1,1-2.8
				c0.7-0.7,1.5-1,2.6-1c0.4,0,0.7,0,1,0.1c0.3,0.1,0.7,0.2,1.1,0.4v1.5c-0.7-0.5-1.4-0.7-2-0.7c-0.6,0-1.2,0.2-1.6,0.7
				c-0.4,0.5-0.6,1-0.6,1.7c0,0.7,0.2,1.3,0.7,1.8c0.4,0.4,1.1,0.7,1.8,0.7C4.5,162.9,5.1,162.7,5.8,162.4z"/>
			<path fill="#49434D" d="M23.4,156.9c1.1,0,2,0.4,2.7,1.1c0.7,0.7,1.1,1.6,1.1,2.7c0,1-0.4,1.9-1.1,2.6c-0.7,0.7-1.7,1-2.8,1
				c-1.1,0-2-0.3-2.7-1c-0.7-0.7-1.1-1.6-1.1-2.6c0-1.1,0.4-1.9,1.1-2.6C21.4,157.2,22.3,156.9,23.4,156.9z M23.3,158.1
				c-0.7,0-1.3,0.2-1.7,0.7c-0.4,0.5-0.7,1-0.7,1.7c0,0.7,0.2,1.3,0.7,1.7c0.5,0.4,1,0.7,1.7,0.7c0.7,0,1.3-0.2,1.7-0.7
				s0.7-1,0.7-1.7c0-0.7-0.2-1.3-0.7-1.7C24.6,158.4,24,158.1,23.3,158.1z"/>
			<path fill="#49434D" d="M47.3,158.9v5.3h-1.4v-4c0-0.8-0.1-1.4-0.3-1.7c-0.2-0.3-0.6-0.5-1.1-0.5c-0.3,0-0.6,0.1-0.8,0.2
				c-0.2,0.1-0.5,0.4-0.9,0.7v5.3h-1.4v-7.2h1.4v1c0.7-0.7,1.4-1.1,2.1-1.1c0.9,0,1.6,0.4,2.1,1.3c0.8-0.9,1.6-1.3,2.4-1.3
				c0.7,0,1.3,0.3,1.7,0.8c0.5,0.5,0.7,1.3,0.7,2.4v4.3h-1.4v-4.3c0-0.6-0.1-1.1-0.4-1.4c-0.2-0.3-0.6-0.5-1.1-0.5
				C48.3,158,47.8,158.3,47.3,158.9z"/>
			<path fill="#49434D" d="M72.2,158.9v5.3h-1.4v-4c0-0.8-0.1-1.4-0.3-1.7c-0.2-0.3-0.6-0.5-1.1-0.5c-0.3,0-0.6,0.1-0.8,0.2
				c-0.2,0.1-0.5,0.4-0.9,0.7v5.3h-1.4v-7.2h1.4v1c0.7-0.7,1.4-1.1,2.1-1.1c0.9,0,1.6,0.4,2.1,1.3c0.8-0.9,1.6-1.3,2.4-1.3
				c0.7,0,1.3,0.3,1.7,0.8c0.5,0.5,0.7,1.3,0.7,2.4v4.3h-1.4v-4.3c0-0.6-0.1-1.1-0.4-1.4c-0.2-0.3-0.6-0.5-1.1-0.5
				C73.2,158,72.7,158.3,72.2,158.9z"/>
			<path fill="#49434D" d="M95.6,164.1v-0.9c-0.3,0.3-0.7,0.6-1,0.8c-0.4,0.2-0.8,0.3-1.2,0.3c-0.5,0-0.9-0.1-1.3-0.3
				c-0.4-0.2-0.7-0.5-0.9-0.9s-0.3-1-0.3-1.9v-4.1h1.4v4.1c0,0.8,0.1,1.3,0.3,1.6c0.2,0.3,0.6,0.5,1.1,0.5c0.7,0,1.3-0.3,1.7-1v-5.2
				H97v7.2H95.6z"/>
			<path fill="#49434D" d="M113,156.9v0.9c0.6-0.7,1.4-1.1,2.2-1.1c0.5,0,0.9,0.1,1.3,0.3c0.4,0.2,0.7,0.6,0.9,1s0.3,1,0.3,1.9v4.1
				h-1.4V160c0-0.7-0.1-1.3-0.3-1.6s-0.6-0.5-1.1-0.5c-0.7,0-1.3,0.3-1.7,1v5.2h-1.5v-7.2H113z"/>
			<path fill="#49434D" d="M132.8,153.8c0.2,0,0.4,0.1,0.6,0.2c0.2,0.2,0.3,0.4,0.3,0.6c0,0.2-0.1,0.4-0.3,0.6s-0.4,0.3-0.6,0.3
				c-0.2,0-0.4-0.1-0.6-0.3s-0.3-0.4-0.3-0.6c0-0.2,0.1-0.4,0.3-0.6C132.4,153.9,132.6,153.8,132.8,153.8z M132.1,156.9h1.4v7.2
				h-1.4V156.9z"/>
			<path fill="#49434D" d="M153.5,162.4v1.4c-0.7,0.3-1.4,0.4-2.1,0.4c-1.1,0-2-0.3-2.7-1s-1-1.6-1-2.7c0-1.1,0.3-2.1,1-2.8
				s1.5-1,2.6-1c0.4,0,0.7,0,1,0.1c0.3,0.1,0.7,0.2,1.1,0.4v1.5c-0.7-0.5-1.4-0.7-2-0.7c-0.6,0-1.2,0.2-1.6,0.7
				c-0.4,0.5-0.6,1-0.6,1.7c0,0.7,0.2,1.3,0.7,1.8c0.4,0.4,1.1,0.7,1.8,0.7C152.2,162.9,152.8,162.7,153.5,162.4z"/>
			<path fill="#49434D" d="M172.2,159.8v3.1c0,0.2,0.1,0.4,0.3,0.4c0.2,0,0.4-0.1,0.8-0.4v0.9c-0.3,0.2-0.6,0.4-0.8,0.4
				c-0.2,0.1-0.4,0.1-0.6,0.1c-0.6,0-1-0.2-1.1-0.7c-0.6,0.5-1.3,0.7-1.9,0.7c-0.5,0-0.9-0.2-1.3-0.5c-0.3-0.3-0.5-0.8-0.5-1.3
				c0-0.5,0.2-0.9,0.5-1.2c0.3-0.4,0.8-0.6,1.4-0.9l1.8-0.6v-0.4c0-0.9-0.4-1.3-1.3-1.3c-0.8,0-1.5,0.4-2.3,1.2v-1.6
				c0.6-0.7,1.4-1,2.4-1c0.8,0,1.4,0.2,1.9,0.6c0.2,0.1,0.3,0.3,0.4,0.5c0.1,0.2,0.2,0.4,0.2,0.7
				C172.2,158.7,172.2,159.1,172.2,159.8z M170.8,162.7v-2.1l-1,0.4c-0.5,0.2-0.8,0.4-1,0.6s-0.3,0.4-0.3,0.7c0,0.3,0.1,0.5,0.3,0.7
				s0.4,0.3,0.7,0.3C170,163.2,170.4,163,170.8,162.7z"/>
			<path fill="#49434D" d="M186,158l2.7-2.6v1.5h2.3v1.3h-2.3v3.5c0,0.8,0.3,1.2,1,1.2c0.5,0,1.1-0.2,1.6-0.5v1.3
				c-0.6,0.3-1.2,0.5-1.8,0.5c-0.7,0-1.2-0.2-1.6-0.6c-0.1-0.1-0.2-0.2-0.3-0.4c-0.1-0.1-0.2-0.3-0.2-0.6c-0.1-0.2-0.1-0.7-0.1-1.3
				v-3.2H186V158z"/>
			<path fill="#49434D" d="M205.6,153.8c0.2,0,0.4,0.1,0.6,0.2c0.2,0.2,0.3,0.4,0.3,0.6c0,0.2-0.1,0.4-0.3,0.6
				c-0.2,0.2-0.4,0.3-0.6,0.3c-0.2,0-0.4-0.1-0.6-0.3s-0.3-0.4-0.3-0.6c0-0.2,0.1-0.4,0.3-0.6C205.2,153.9,205.4,153.8,205.6,153.8z
				 M204.9,156.9h1.4v7.2h-1.4V156.9z"/>
			<path fill="#49434D" d="M224.4,156.9c1.1,0,2,0.4,2.7,1.1c0.7,0.7,1.1,1.6,1.1,2.7c0,1-0.4,1.9-1.1,2.6c-0.7,0.7-1.7,1-2.8,1
				c-1.1,0-2-0.3-2.7-1s-1.1-1.6-1.1-2.6c0-1.1,0.4-1.9,1.1-2.6C222.4,157.2,223.3,156.9,224.4,156.9z M224.3,158.1
				c-0.7,0-1.3,0.2-1.7,0.7c-0.4,0.5-0.7,1-0.7,1.7c0,0.7,0.2,1.3,0.7,1.7c0.5,0.4,1,0.7,1.7,0.7c0.7,0,1.3-0.2,1.7-0.7
				s0.7-1,0.7-1.7c0-0.7-0.2-1.3-0.7-1.7C225.6,158.4,225,158.1,224.3,158.1z"/>
			<path fill="#49434D" d="M243.7,156.9v0.9c0.6-0.7,1.4-1.1,2.2-1.1c0.5,0,0.9,0.1,1.3,0.3c0.4,0.2,0.7,0.6,0.9,1s0.3,1,0.3,1.9
				v4.1h-1.4V160c0-0.7-0.1-1.3-0.3-1.6s-0.6-0.5-1.1-0.5c-0.7,0-1.3,0.3-1.7,1v5.2h-1.5v-7.2H243.7z"/>
		</g>
		<path fill="#49434D" d="M151.1,143h7l-28.6-57.3h-2.6L98.4,143h7l9.2-18.7h27.2L151.1,143z M128.2,96l10.9,22.9h-21.7L128.2,96z"
			/>
	</g>
</g>
<g id="Layer_5">
	<g>
		<path fill="#FFFFFF" d="M213.9,158.7c-3.1-1.1-6-2.9-8.3-5.3c-2.6-2.7-4.5-6-5.3-9.6c-0.2-0.8-0.6-1.6-0.6-2.5
			c0-0.8-0.4-1.6-0.3-2.4c0-0.7,0-1.5,0.3-2.2c0.5-0.8,1.6-1.1,2.5-1.1c2-0.1,4,0,6-0.1c1.2,0.2,2.5,0,3.5,0.7
			c0.5,0.4,0.9,1,0.9,1.6c0.2,1.4,0.8,2.7,1.2,4c1.1,3.7,4.5,6.5,8.3,6.9c1,0.2,2,0.3,3.1,0.2c1.1,0,2.2-0.4,3.3-0.7
			c1.6-0.5,3-1.4,4.2-2.5c1.3-1.3,2.2-3.1,2.5-4.9c0.2-0.8,0.4-1.6,0.4-2.4c0-0.9-0.2-1.8-0.3-2.7c-0.3-2.4-1.9-4.6-4-5.8
			c-1.2-0.6-2.4-1.2-3.7-1.4c-0.8,0-1.6-0.1-2.4-0.3c-1.3-0.2-2.7,0.2-3.9-0.5c-0.8-0.3-1.2-1.1-1.3-1.8c-0.1-1.4-0.1-2.8-0.1-4.2
			c0-0.9,0.1-2,0.7-2.8c1.4-0.8,3-0.7,4.5-0.8c1.4,0,2.6-0.5,3.9-1c1.2-0.5,2.5-1.1,3.4-2.1c1.4-1.7,2.1-3.9,2-6
			c-0.1-0.9-0.3-1.7-0.6-2.5c-1.2-3-4.1-5-7.3-5.4c-1.5-0.4-3.1-0.2-4.6,0.2c-3,0.7-5.7,3-6.7,5.9c-0.5,1.4-0.8,2.8-1.1,4.2
			c-0.2,0.8-0.9,1.4-1.8,1.6c-2,0.3-4,0-6,0.1c-1.4,0-2.9,0.3-4.1-0.5c-0.8-0.5-1.1-1.5-1-2.4c0.2-1.3,0.4-2.6,0.8-3.9
			c0.5-2.3,1.6-4.5,2.8-6.5c1.5-2.5,3.6-4.8,6.1-6.4c2-1.3,4.2-2.4,6.5-3.1c3.9-0.9,7.9-1.2,11.9-0.6c1.9,0.3,3.7,0.9,5.5,1.6
			c1.4,0.6,2.8,1.3,4.1,2c1.1,0.6,2,1.5,3,2.3c1.1,0.8,2,1.9,2.7,3c0.7,1,1.2,2.2,1.7,3.4c0.7,1.4,1.1,2.9,1.2,4.5
			c0.2,1.6,0.2,3.3,0,5c-0.2,1.3-0.6,2.6-1.1,3.8c-0.5,1.1-1,2.1-1.8,2.9c-0.5,0.5-0.9,1.2-1.5,1.6c-0.9,0.7-1.8,1.4-2.6,2.3
			c-0.1,1.2,1.3,1.7,2.1,2.3c2.1,1.1,3.9,2.9,5.2,4.9c0.6,1,1.1,2.1,1.5,3.1c0.4,1.2,0.5,2.4,0.8,3.7c0.2,0.7-0.2,1.3,0,2
			c0.2,1,0,2-0.1,2.9c0,0.7-0.3,1.3-0.4,2c-0.4,2.4-1.4,4.6-2.6,6.7c-1.6,2.7-3.9,4.8-6.5,6.4c-2,1.2-4.1,2.3-6.3,3
			c-2.2,0.5-4.3,1.2-6.6,1.2c-1,0-2,0.3-3.1,0.2c-0.8-0.1-1.7-0.1-2.5-0.1c-1.7-0.1-3.5-0.4-5.1-0.9
			C215.7,159.3,214.8,159,213.9,158.7z"/>
		<path fill="#FFFFFF" d="M126.5,130.9c-0.2-0.7-0.6-1.3-0.6-2.1c-0.7-2.4-0.4-4.9-0.8-7.4c-0.3-1.3-0.5-2.8-1.4-3.8
			c-0.5-0.8-1.4-1.3-2.1-1.8c-0.3-0.1-0.2-0.5-0.2-0.7c0.7-0.6,1.5-1,2.2-1.7c0.8-0.8,1.4-1.7,1.8-2.7c0.8-2,0.9-4.3,0.4-6.4
			c-0.5-1.7-1.4-3.4-2.9-4.5c-2.3-1.8-5.4-2.2-8.2-2c-4.5,0-9.1,0-13.6,0c-0.7-0.1-1.5,0.5-1.4,1.2c0,6.1,0,12.2,0,18.3
			c0,2.7,0,5.4,0,8.2c-0.1,1.7,0,3.5,0,5.2c0,0.5,0.3,1,0.9,1.1c1.1,0.1,2.3,0.3,3.3-0.2c0.5-1.1,0.3-2.3,0.3-3.5c0-2.1,0-4.1,0-6.2
			c0.1-1.1,0-2.1,0-3.2c0.1-0.4,0.1-0.9,0.5-1.2c0.5-0.3,1-0.3,1.5-0.3c3.1,0,6.3,0,9.4,0c0.8,0,1.7,0.2,2.4,0.6
			c1.5,0.7,2.5,2.3,2.7,4l0,0c0.1,0.9,0.4,1.8,0.5,2.7c0.2,1.6,0.2,3.2,0.3,4.8c0.1,0.7,0.1,1.4,0.5,2c0.7,0.9,1.9,0.5,2.8,0.6
			c0.5,0,0.9,0,1.4-0.1C126.5,131.7,126.7,131.3,126.5,130.9z M120,112c-1.6,1.3-3.8,1.5-5.7,1.6c-2.1,0-4.2,0-6.3,0
			c-1,0-2,0.1-2.9-0.2c-0.5-0.3-0.7-0.9-0.7-1.4c0-2.6,0-5.1,0-7.7c0-0.7-0.1-1.5,0.2-2.2c0.2-0.3,0.5-0.5,0.9-0.5
			c0.8-0.1,1.6,0,2.3-0.1c2.9,0,5.8-0.1,8.7,0.1c1.3,0,2.7,0.5,3.6,1.4c1.1,1,1.6,2.5,1.7,4C121.8,108.8,121.4,110.8,120,112z"/>
		<path fill="#FFFFFF" d="M132.5,98.1c0.9-0.2,1.9-0.2,2.9,0c0.7,0.1,0.9,0.9,0.9,1.6c0,4.3,0,8.6,0,12.8c0,6.1,0,12.2,0,18.3
			c0,0.5-0.2,1.1-0.8,1.2c-1,0.2-2,0.1-3.1,0c-0.5-0.2-0.7-0.7-0.7-1.2c0-10.3,0-20.6,0-30.9C131.7,99.2,131.7,98.3,132.5,98.1
			L132.5,98.1z"/>
		<path fill="#FFFFFF" d="M146.8,100.7c2.4-2.1,5.5-3.3,8.6-3.6c3.2-0.2,6.6,0.1,9.4,1.6c2.8,1.4,5,4,5.9,7c0.2,0.6,0.5,1.3,0.3,1.9
			c-0.3,0.5-0.9,0.4-1.4,0.5c-0.9,0-2,0.2-2.8-0.5c0-0.1-0.1-0.2-0.1-0.3c-0.4-0.8-0.6-1.7-1.1-2.4c-0.8-1.2-1.9-2.2-3.2-3
			c-0.7-0.5-1.6-0.6-2.4-0.8c-2.2-0.6-4.6-0.3-6.8,0.3c-2.4,0.9-4.4,2.6-5.6,4.8c-1.9,3.5-2.3,7.7-1.7,11.7c0.4,2.8,1.4,5.6,3.3,7.8
			c2.8,3,7.5,3.9,11.4,2.8c2.1-0.8,4-2.2,5.1-4.2c0.7-1.2,1.1-2.5,1.3-3.8c0.1-0.5,0.3-1.1,0.8-1.2c0.7-0.1,1.4-0.2,2.1-0.1
			c0.5,0.1,1.3,0.1,1.5,0.7c0.2,1.1-0.4,2.1-0.5,3.2c-0.2,1.2-0.9,2.3-1.5,3.3c-1.2,2.2-3.2,4-5.4,5c-3.8,1.7-8.2,1.8-12.2,0.7
			c-2.6-0.9-5.2-2.3-6.8-4.6c-1.3-1.7-2.2-3.6-2.9-5.7c-0.4-1.4-0.6-2.9-0.8-4.4c-0.3-2.8-0.1-5.6,0.6-8.3c0.5-2.4,1.7-4.5,3.1-6.5
			C145.6,102,146.1,101.3,146.8,100.7L146.8,100.7z"/>
		<path fill="#FFFFFF" d="M172.7,98.4c0.2-0.5,0.8-0.6,1.3-0.6c6.3,0,12.6,0,18.8,0c1.9,0,3.8,0,5.7,0c0.5,0,1.1,0.3,1.2,0.8
			c0.1,0.8,0.2,1.7-0.2,2.5c-0.4,0.4-0.9,0.5-1.4,0.5c-2.7,0-5.3,0-8,0c-0.6,0-1.3,0.1-1.6,0.7c-0.4,0.9-0.1,1.9-0.2,2.8
			c-0.1,8.2,0,16.5,0,24.7c0,0.6,0,1.2-0.2,1.7c-0.3,0.5-1,0.5-1.6,0.5c-0.7,0-1.4,0.1-2.1-0.1c-0.6-0.3-0.6-1.2-0.6-1.8
			c0-2,0-4,0-6c0-5,0-10,0-15c0-1.9-0.1-3.8,0.1-5.7c0-0.6-0.1-1.4-0.8-1.7c-0.8-0.2-1.6-0.1-2.3-0.1c-2.2,0-4.4,0-6.7,0
			c-0.6,0-1.3-0.1-1.6-0.8C172.4,100.1,172.4,99.2,172.7,98.4L172.7,98.4z"/>
		<g>
			<path fill="#FFFFFF" d="M76.1,140.2c0.2,0,0.4,0,0.6,0c0,0.3,0,0.6,0,0.9c-0.2,0-0.4,0-0.6,0C76.1,140.9,76.1,140.5,76.1,140.2
				L76.1,140.2z"/>
			<path fill="#FFFFFF" d="M172.7,140.2c0.2,0,0.4,0,0.7,0c0,0.3,0,0.6,0,0.9c-0.2,0-0.4,0-0.7,0
				C172.7,140.9,172.7,140.5,172.7,140.2L172.7,140.2z"/>
			<path fill="#FFFFFF" d="M2.5,140.9c0.9-0.3,2-0.3,2.9,0.3c0.5,0.4,0.8,0.9,0.9,1.5c0,0.1,0,0.3,0.1,0.4c-0.1,0-0.4,0-0.6,0
				c-0.2-0.5-0.3-1.2-0.8-1.5C4.1,141,2.7,141.1,2,142c-0.6,0.8-0.6,1.8-0.6,2.7c0,0.9,0.1,1.8,0.7,2.4c0.7,0.8,2.1,0.9,2.9,0.2
				c0.4-0.4,0.6-0.9,0.7-1.5c0.2,0,0.4,0,0.6,0c-0.1,0.5-0.2,1-0.5,1.4c-1,1.4-3.4,1.4-4.4-0.1c-0.8-1-0.6-2.4-0.6-3.6
				C0.9,142.5,1.5,141.4,2.5,140.9L2.5,140.9z"/>
			<path fill="#FFFFFF" d="M102,140.8c0.2,0,0.4,0,0.7,0c0,1.7,0,3.4,0,5.1c0,0.6,0.3,1.2,0.8,1.6c0.8,0.5,2,0.5,2.7-0.2
				c0.4-0.4,0.6-1,0.6-1.6c0-1.6,0-3.3,0-4.9c0.2,0,0.4,0,0.6,0c0,1.8,0,3.5,0,5.3c0,1-0.7,1.9-1.6,2.1c-1.3,0.5-3.2,0-3.6-1.5
				C101.8,144.8,102,142.8,102,140.8L102,140.8z"/>
			<path fill="#FFFFFF" d="M180.5,141.2c0.2,0,0.5,0,0.7,0c0,0.5,0,0.9,0,1.4c0.4,0,0.8,0.1,1.2,0.1c0,0.1,0,0.4,0,0.5
				c-0.4,0-0.8,0-1.2,0c0,1.3,0,2.7,0,4c0.1,0.5,0.7,0.6,1.2,0.4c0.1,0.1,0.2,0.4,0.2,0.6c-0.5,0-1.1,0.2-1.6-0.1
				c-0.4-0.3-0.5-0.8-0.5-1.2c0-1.2,0-2.5,0-3.7c-0.3,0-0.7,0-1,0c0-0.1,0-0.4,0-0.5c0.3-0.2,0.7-0.1,1-0.1
				C180.5,142.2,180.5,141.7,180.5,141.2L180.5,141.2z"/>
			<path fill="#FFFFFF" d="M23.8,142.7c0.1,0,0.4,0,0.6,0c0,0.3,0,0.6,0,0.9c0.6-0.9,1.8-1.3,2.8-0.7c0.7,0.4,0.8,1.3,0.9,2
				c0,1.1,0,2.2,0,3.4c-0.2,0-0.4,0-0.6,0c0-1.2,0-2.5,0-3.7c0-0.6-0.3-1.2-0.9-1.3c-0.9-0.3-2,0.4-2.1,1.3c0,1.2,0,2.5,0,3.7
				c-0.2,0-0.4,0-0.6,0C23.8,146.4,23.8,144.6,23.8,142.7L23.8,142.7z"/>
			<path fill="#FFFFFF" d="M35,143.5c0.8-1.2,2.7-1.2,3.6-0.1c0.3,0.3,0.3,0.8,0.4,1.2c-0.2,0-0.4,0-0.6,0c0-1.3-1.7-1.9-2.6-1.1
				c-0.7,0.6-0.8,1.7-0.7,2.6c0.1,0.7,0.4,1.4,1.1,1.7c0.9,0.3,2.1-0.2,2.2-1.2c0.1,0.1,0.4,0.2,0.6,0.2c-0.2,1.3-1.8,1.9-2.9,1.5
				c-0.9-0.3-1.4-1.1-1.5-2C34.4,145.3,34.5,144.3,35,143.5L35,143.5z"/>
			<path fill="#FFFFFF" d="M56.4,142.7c0.2,0,0.4,0,0.6,0c0,0.3,0,0.6,0.1,0.9c0.2-0.2,0.4-0.5,0.6-0.7c0.4-0.2,0.9-0.3,1.4-0.3
				c0,0.2,0,0.4,0,0.7c-0.1,0-0.2,0-0.2,0c-0.9-0.2-1.7,0.6-1.8,1.4c0,1.2,0,2.4,0,3.6c-0.2,0-0.4,0-0.6,0
				C56.4,146.4,56.4,144.6,56.4,142.7L56.4,142.7z"/>
			<path fill="#FFFFFF" d="M76.1,142.7c0.2,0,0.4,0,0.6,0c0,1.8,0,3.7,0,5.5c-0.2,0-0.5,0-0.6,0C76.1,146.4,76,144.6,76.1,142.7
				L76.1,142.7z"/>
			<path fill="#FFFFFF" d="M114.2,142.7c0.2,0,0.4,0,0.6,0c0,0.3,0,0.6,0,0.9c0.7-1.3,3-1.4,3.5,0.1c0.4,1.5,0.1,3.1,0.2,4.6
				c-0.2,0-0.5,0-0.7,0c0-1.2,0-2.5,0-3.7c0-0.5-0.3-1.1-0.8-1.3c-0.9-0.4-2,0.2-2.1,1.1c0,1.3,0,2.6,0,3.9c-0.2,0-0.4,0-0.6,0
				C114.2,146.4,114.2,144.6,114.2,142.7L114.2,142.7z"/>
			<path fill="#FFFFFF" d="M125.2,142.7c0.2,0,0.4,0,0.6,0c0,1.9,0,3.7,0,5.6c-0.2,0-0.4,0-0.6,0
				C125.2,146.4,125.2,144.6,125.2,142.7L125.2,142.7z"/>
			<path fill="#FFFFFF" d="M132.1,142.7c0.2,0,0.4,0,0.7,0c0.5,1.6,1.3,3.2,1.7,4.8c0.6-1.6,1.2-3.2,1.7-4.8c0.2,0,0.4,0,0.7,0
				c-0.7,1.8-1.4,3.7-2.1,5.5c-0.2,0-0.4,0-0.6,0C133.5,146.4,132.8,144.6,132.1,142.7L132.1,142.7z"/>
			<path fill="#FFFFFF" d="M154,143.6c0.4-0.7,1.2-1.1,2-1c0,0.2,0,0.5,0,0.7c-0.6,0-1.2,0-1.6,0.5c-0.2,0.3-0.4,0.6-0.3,1
				c0,1.2,0,2.4,0,3.5c-0.2,0-0.5,0-0.6,0c0-1.9,0-3.7,0-5.6c0.1,0,0.4,0,0.6,0.1C154,143,154,143.3,154,143.6L154,143.6z"/>
			<path fill="#FFFFFF" d="M162.3,143.3c1-1.3,3.7-0.9,3.8,1c-0.2,0-0.5,0-0.6,0c-0.2-1.1-1.7-1.5-2.5-0.8c-0.4,0.3-0.4,1.1,0.1,1.3
				c0.9,0.5,2.1,0.4,2.8,1.3c0.5,0.7,0.1,1.7-0.6,2.1c-0.9,0.4-2.2,0.4-3-0.4c-0.3-0.3-0.4-0.7-0.5-1.1c0.1,0,0.4,0,0.6,0
				c0.2,0.3,0.2,0.8,0.6,0.9c0.7,0.3,1.7,0.4,2.2-0.2c0.4-0.4,0.1-1.1-0.3-1.3c-0.8-0.4-1.8-0.4-2.5-0.9
				C161.9,144.7,161.9,143.8,162.3,143.3L162.3,143.3z"/>
			<path fill="#FFFFFF" d="M172.7,142.7c0.2,0,0.4,0,0.7,0c0,1.9,0,3.7,0,5.6c-0.2,0-0.4,0-0.7,0
				C172.7,146.4,172.7,144.6,172.7,142.7L172.7,142.7z"/>
			<path fill="#FFFFFF" d="M188.1,142.7c0.2,0,0.5,0,0.7,0c0.6,1.6,1.2,3.1,1.7,4.7c0.5-1.6,1.1-3.1,1.6-4.6c0.2,0,0.5-0.1,0.7-0.1
				c-0.6,1.8-1.3,3.6-2,5.4c-0.3,0.7-0.5,1.5-1,2.1c-0.4,0.5-1.1,0.5-1.6,0.3c0-0.8,0.9-0.3,1.2-0.8c0.3-0.6,0.8-1.2,0.5-1.9
				C189.4,146.1,188.8,144.4,188.1,142.7L188.1,142.7z"/>
			<path fill="#FFFFFF" d="M17.1,143.9c-0.5-1-1.6-1.5-2.7-1.3c-0.8,0.2-1.5,0.9-1.8,1.8c-0.3,1.2-0.2,2.6,0.8,3.4
				c0.7,0.7,1.8,0.7,2.7,0.3C17.5,147.3,17.7,145.3,17.1,143.9z M16.2,147.3c-0.6,0.7-1.7,0.7-2.4,0.1c-0.7-0.7-0.8-1.8-0.6-2.7
				c0.2-0.7,0.6-1.4,1.3-1.5c0.9-0.3,1.9,0.4,2.1,1.3C16.9,145.5,16.9,146.6,16.2,147.3z"/>
			<path fill="#FFFFFF" d="M49.7,144c-0.5-1.2-2-1.7-3.2-1.2c-1.6,0.7-1.8,2.9-1.1,4.4c0.7,1.4,2.7,1.7,3.8,0.6
				C50.1,146.8,50.2,145.2,49.7,144z M49.3,146.2c-0.1,0.8-0.7,1.5-1.5,1.6c-0.9,0.1-1.7-0.5-1.9-1.4c-0.4-1.2,0-3,1.5-3.3
				c0.6-0.1,1.2,0.1,1.5,0.6C49.4,144.4,49.4,145.4,49.3,146.2z"/>
			<path fill="#FFFFFF" d="M69.2,140.2c-0.2,0-0.5,0-0.6,0c0,1.1,0,2.1,0,3.2c-0.6-0.9-1.9-1.2-2.8-0.6c-1,0.7-1.1,2-1,3.2
				c0.1,0.9,0.5,1.8,1.3,2.2c0.8,0.3,1.9,0.1,2.4-0.7c0,0.2,0.1,0.5,0.2,0.7c0.2,0,0.4,0,0.5,0C69.2,145.6,69.2,142.9,69.2,140.2z
				 M68.6,146.8c-0.3,1.1-1.9,1.4-2.6,0.6c-0.6-0.7-0.6-1.7-0.5-2.6c0.1-0.7,0.5-1.5,1.2-1.7c0.8-0.2,1.6,0.3,1.9,1
				C68.6,145.1,68.6,145.9,68.6,146.8z"/>
			<path fill="#FFFFFF" d="M87.5,144.2c0-0.5-0.3-0.9-0.6-1.2c-1.2-0.8-3.3-0.3-3.5,1.3c0.2,0,0.5,0,0.6,0c0.2-1.3,2.1-1.5,2.8-0.5
				c0.2,0.4,0.1,0.9,0.2,1.3c-1.1,0-2.3-0.2-3.2,0.6c-0.8,0.6-0.6,2.1,0.3,2.5c1,0.5,2.2,0.1,2.9-0.7c0,0.3,0.1,0.5,0.1,0.8
				c0.2,0,0.4,0,0.7,0C87.4,146.9,87.5,145.5,87.5,144.2z M86.6,147.2c-0.6,0.6-1.6,0.9-2.3,0.5c-0.6-0.3-0.6-1.2-0.1-1.6
				c0.7-0.6,1.8-0.5,2.7-0.5C86.8,146.1,87,146.7,86.6,147.2z"/>
			<path fill="#FFFFFF" d="M146.8,143.6c-0.6-1.2-2.4-1.3-3.3-0.4c-1.1,1-1.2,2.9-0.4,4.2c0.8,1.3,2.9,1.3,4,0.3
				c-0.1-0.2-0.3-0.5-0.5-0.2c-0.7,0.5-1.9,0.7-2.6,0c-0.5-0.5-0.6-1.2-0.7-1.8c1.3,0,2.6,0,3.9,0
				C147.1,144.9,147.1,144.2,146.8,143.6z M143.2,145c0.1-0.5,0.2-1,0.6-1.4c0.6-0.7,1.9-0.6,2.3,0.2c0.2,0.3,0.2,0.7,0.3,1.1
				C145.4,145,144.3,145,143.2,145z"/>
		</g>
		<path fill="#FFFFFF" d="M47.8,98.9c2-1.1,4.4-1.7,6.7-1.7c3-0.2,6.2,0.3,8.8,1.9c1.4,0.8,2.6,2.1,3.3,3.5c0.6,1,0.9,2.2,1.1,3.4
			c0.1,0.6,0.2,1.6-0.6,1.8c-0.9,0.1-1.8,0.1-2.8,0c-0.6-0.1-0.9-0.7-1-1.2c-0.4-1.8-1.5-3.5-3.1-4.4c-2.2-1.3-5-1.4-7.5-1
			c-1.5,0.3-3.1,0.9-4.1,2.1c-0.8,0.9-1.1,2.2-1.2,3.4c0,1.1,0.4,2.2,1.2,3c1.2,1,2.6,1.7,4.2,2.1c2.4,0.7,4.8,1,7.1,1.7
			c2.7,0.6,5.4,1.6,7.3,3.7c0.6,0.6,1.1,1.4,1.4,2.1c1.1,3,0.8,6.5-1.1,9.1c-1.1,1.6-2.8,2.5-4.5,3.4c-3,1.2-6.3,1.5-9.5,1.2
			c-2.3-0.2-4.6-0.9-6.5-2.1c-2.6-1.6-4.5-4.4-5-7.4c-0.1-0.7-0.4-1.8,0.5-2.2c1-0.2,2-0.2,3,0c0.7,0.3,0.6,1.1,0.8,1.6
			c0.4,1.8,1.5,3.5,3,4.6c0.9,0.7,2,1,3.1,1.4c1.3,0.4,2.7,0.4,4.1,0.5c1.7-0.2,3.5-0.2,5-1.1c0.9-0.5,1.8-1,2.4-1.9
			c0.5-0.7,0.7-1.6,0.9-2.4c0.3-1.5-0.2-3.2-1.3-4.2c-1.2-1.2-2.9-1.8-4.5-2.3c-2.5-0.7-5-1-7.5-1.8c-2.6-0.6-5.1-1.7-6.9-3.6
			c-1.2-1.4-1.6-3.4-1.6-5.2c0.2-1.9,0.7-4,2-5.5C45.8,100.3,46.7,99.6,47.8,98.9L47.8,98.9z"/>
		<path fill="#FFFFFF" d="M33.8,98c0.7-0.1,1.4-0.1,2.2-0.1c0.4,0.1,1,0.1,1.2,0.6c0.3,0.5,0.2,1,0.2,1.6c0,10.1,0,20.2,0,30.3
			c0,0.5,0,1-0.4,1.4c-0.7,0.4-1.6,0.2-2.4,0.3c-0.5,0-1.1,0.1-1.5-0.4c-0.4-0.5-0.3-1.1-0.3-1.6c0-9.8,0-19.5,0-29.3
			c0-0.7-0.2-1.5,0.1-2.1C33,98.3,33.4,98.1,33.8,98L33.8,98z"/>
		<path fill="#FFFFFF" d="M70.6,98c0.3-0.2,0.7-0.2,1.1-0.2c8.1,0,16.2,0,24.4,0c0.5,0,1.1,0.3,1.2,0.8c0.1,0.8,0.2,1.7-0.1,2.4
			c-0.2,0.5-0.8,0.5-1.3,0.5c-2.4,0-4.8,0-7.2,0c-0.7,0-1.4-0.1-2.1,0.2c-0.6,0.3-0.8,1-0.8,1.6c0.1,1.4,0.1,2.7,0.1,4.1
			c0,7.5,0,15.1,0,22.6c0,0.5,0,1.1-0.3,1.5c-0.3,0.4-0.8,0.3-1.2,0.3c-0.7,0-1.5,0-2.2,0c-0.6,0-0.8-0.8-0.8-1.3
			c0-9.2,0-18.4,0-27.6c0-0.5-0.3-1.2-0.9-1.3c-1-0.2-2-0.1-2.9-0.1c-2.1,0-4.2,0-6.3,0c-0.7,0.1-1.4-0.6-1.3-1.3
			C70,99.5,69.9,98.5,70.6,98L70.6,98z"/>
		<path fill="#FFFFFF" d="M27.8,109.9c-0.3-2.2-1.1-4.3-2.3-6.1c-1.3-1.9-3.2-3.5-5.3-4.4c-2.1-0.8-4.2-1.4-6.4-1.4
			c-1,0-1.9-0.1-2.9-0.1c-3.1,0-6.1,0-9.2,0c-0.5,0-1,0-1.3,0.4c-0.4,0.5-0.3,1.2-0.3,1.9c0,7.5,0,15.1,0,22.6c0,0.4,0,0.8,0,1.2
			c0,0.5,0,1.1,0,1.6c0,1.6,0,3.3,0,4.9c0,0.5,0.1,1.2,0.6,1.4c0.7,0.2,1.5,0.2,2.2,0.2c2.8,0,5.6,0,8.4,0c1.4,0,2.7,0,4.1-0.2
			c0.6-0.1,1.2-0.2,1.8-0.3c1.8-0.6,3.6-1.2,5.1-2.3c3-2.1,4.7-5.7,5.4-9.2c0.2-1.6,0.4-3.2,0.5-4.8
			C28.1,113.4,28.2,111.6,27.8,109.9z M23.4,117.7c-0.1,1.4-0.5,2.7-0.9,4c-0.9,2.3-2.6,4.4-4.9,5.4c-0.9,0.4-1.8,0.7-2.7,0.9
			c-2.8,0.4-5.6,0.2-8.5,0.3c-0.6,0-1.4,0-1.7-0.6c-0.2-0.5-0.2-1.1-0.2-1.7c0-0.9,0-1.9,0-2.8c0-6.2,0-12.5,0-18.7
			c0-0.8,0-1.6,0.2-2.3c0.3-0.6,1.1-0.5,1.7-0.6c2.4,0,4.8,0,7.2,0.1c2.7,0.1,5.5,1.1,7.3,3.2c1.7,2,2.4,4.7,2.6,7.3
			C23.8,114,23.6,115.8,23.4,117.7z"/>
	</g>
</g>
<g id="Layer_6" display="none">
	<g display="inline">
		<path fill="#FFFFFF" d="M134,118.1c3-3.2,7.3-5.1,11.7-5.2c3.4-0.1,6.9,0.6,9.8,2.3c2.8,1.6,5.1,4.1,6.4,7.1
			c1,2.3,1.5,4.8,1.6,7.3c0,6.5,0,12.9,0,19.4c0,0.9-0.7,1.7-1.6,1.7c-0.6,0-1.3,0-1.9,0c-0.9,0-1.7-0.8-1.6-1.7
			c0-5.8,0-11.5,0-17.3c0-1.5,0-3.1-0.3-4.6c-0.6-2.7-2-5.2-4.2-6.8c-2.6-2-6-2.7-9.3-2.3c-5.2,0.7-9.5,5-10.4,10.1
			c-0.3,1.3-0.2,2.7-0.2,4c0,5.5,0,11,0,16.5c0,0.6-0.1,1.3-0.6,1.7c-0.7,0.6-1.7,0.3-2.6,0.4c-1,0.2-2-0.7-1.9-1.7
			c0-11.2,0-22.4,0-33.6c0-0.9,0.8-1.8,1.7-1.7c0.6,0,1.3,0,1.9,0c0.9,0.1,1.5,0.9,1.5,1.7C134.1,116.3,134,117.2,134,118.1
			L134,118.1z"/>
		<path fill="#FFFFFF" d="M205.4,124.1c-1.7-4-4.8-7.3-8.7-9.2c-3.2-1.6-6.9-2.2-10.5-2c-5.5,0.4-10.8,3.2-14,7.7
			c-2.5,3.4-3.7,7.7-3.6,11.9c0,4,1.2,8,3.6,11.3c2,2.8,4.8,5,8,6.3c4.2,1.7,9,1.9,13.3,0.7c3.8-1.1,7.2-3.4,9.6-6.5
			C207.4,138.6,208.2,130.6,205.4,124.1z M201.3,136.5c-0.9,3.1-2.8,5.8-5.4,7.6c-3.3,2.3-7.5,2.9-11.4,2c-3.2-0.8-6-2.7-7.9-5.3
			c-3.8-5.1-3.7-12.7,0.2-17.7c2.1-2.7,5.3-4.5,8.7-5.1c3.5-0.6,7.3,0.2,10.2,2.2c2.3,1.5,4,3.7,5.1,6.2
			C202,129.6,202.2,133.2,201.3,136.5z"/>
		<path fill="#FFFFFF" d="M248.1,98.3c-0.9,0-1.9-0.2-2.7,0.5c-0.5,0.4-0.6,1.2-0.6,1.8c0,6.1,0,12.1,0,18.2
			c-3.8-4.1-9.6-6.2-15.2-5.8c-5.7,0.2-11.2,3-14.5,7.6c-4.4,6.1-4.9,14.8-1.2,21.5c2.5,4.6,7,7.9,12.1,9c5.1,1.2,10.7,0.4,15.2-2.4
			c1.3-0.8,2.5-1.8,3.6-3c0,1.1,0,2.3,0,3.4c0,0.8,0.7,1.6,1.5,1.6c0.8,0,1.5,0.1,2.3,0c0.7-0.1,1.1-0.8,1.3-1.4V99.8
			C249.9,98.9,249,98.2,248.1,98.3z M241.9,141.3c-1.5,2-3.6,3.5-5.9,4.3c-3.2,1.2-6.8,1.2-9.9,0.1c-2.7-1-5-2.7-6.7-5.1
			c-3.7-5.2-3.5-12.9,0.7-17.8c2.1-2.5,5.1-4.2,8.4-4.7c2.7-0.4,5.6-0.1,8.1,1c2.7,1.2,5,3.3,6.5,5.8
			C245.8,130,245.4,136.7,241.9,141.3z"/>
		<path fill="#FFFFFF" d="M111.4,147.4c-1.3-4-3.1-7.8-5.2-11.4c-3.8-6.6-8.6-12.6-14.5-17.4c-4.5-3.6-9.9-6.6-15.8-7
			c-1.8-5.9-3.5-11.9-5.9-17.6c-1.5-3.4-3.3-6.8-6-9.4c-2.1-2-5-3.3-7.9-3.5h-2.3c-5,0.5-9.6,2.8-13.8,5.3
			c-5.2,3.1-9.9,6.9-14.1,11.2c-3.4,3.5-6.6,7.3-9.3,11.4c-0.2,0.3-0.5,0.5-0.9,0.6c-3.3,1.6-6.6,3.4-9.4,5.8
			c-3,2.5-5.8,5.7-6.3,9.8v1.6c0.2,1.6,0.9,3.2,2,4.4c1.8,2,4.5,3.1,7.1,3.7c0.5,2,1.4,3.8,2.7,5.4c2,2.4,4.9,4.1,7.8,5.1
			c4.4,1.5,9.1,1.8,13.7,1.8c4.8-0.1,9.6-0.6,14.4-1.4c11.3-1.7,22.7-2.9,34.1-2.1c1.2,4.4,2.5,8.8,4.4,13c1.5,3.3,3.4,6.6,6.3,9
			c2.4,2,5.4,3,8.4,3.2h3.3c1.8-0.2,3.6-0.8,5.1-1.9c2.2-1.6,3.3-4.3,3.7-6.9C113.5,155.8,112.7,151.5,111.4,147.4z M91.4,121.9
			c6.1,5.4,11,12.1,14.6,19.4c1.5,3,2.7,6.1,3.6,9.4c-3.7-4.1-8.9-6.3-14.1-7.7c-2.2-4-4.5-8-7.6-11.4c-2.7-2.9-5.5-5.6-8.4-8.3
			c-0.2-0.2-0.3-0.5-0.4-0.7c-0.8-2.8-1.6-5.5-2.4-8.2C82.2,115.2,87.2,118.3,91.4,121.9z M75.5,120.1c-2-1.7-4.2-3.3-6.4-4.7
			c1.5-0.5,3.1-0.9,4.6-1C74.4,116.3,75,118.2,75.5,120.1z M43.6,87.4c3.6-1.9,7.5-3.7,11.7-3.6c2.6,0,5.1,1.1,6.9,2.9
			c2.3,2.3,3.9,5.2,5.2,8.1c2.3,5.4,4,11.2,5.6,16.8c-2.3,0.2-4.5,0.8-6.5,1.9c-6.7-4.2-14.2-7.4-22.1-8.6c-7.8-1.3-16-0.4-23.4,2.4
			C27.1,99.3,34.7,92.3,43.6,87.4z M8.6,132c-2-0.6-4-1.6-5.1-3.3c-0.9-1.3-1-3-0.5-4.5c0.6-1.9,1.9-3.6,3.3-5.1
			c2.2-2.2,4.8-4,7.5-5.5C10.6,119.2,8.2,125.5,8.6,132z M11.4,132.6c-0.3-2.4-0.1-4.8,0.5-7.2c1.2-5,3.6-9.7,6.4-14
			c4.4-2,9.1-3.4,13.9-4c5.7-0.7,11.6-0.2,17.2,1.4c5.1,1.4,10,3.6,14.6,6.3c-7,4.3-14.3,8.2-21.9,11.4c-7.1,2.9-14.5,5.3-22.2,6.1
			C17,133,14.2,133,11.4,132.6z M48,143c-5.9,1-11.9,1.7-17.9,1.5c-3.5-0.2-7-0.6-10.2-1.9c-3.4-1.3-6.4-3.7-7.7-7.2
			c7.6,0.7,15.1-0.9,22.3-3.2c11.3-3.7,21.9-9.2,32-15.5c3.7,2.4,7.2,5.1,10.5,8c1.5,5.4,2.8,10.8,4.3,16.2
			C70,140.3,58.9,141.4,48,143z M80.6,128.1c2.7,2.6,5.5,5.2,7.7,8.3c1.3,1.8,2.5,3.8,3.6,5.7c-2.6-0.5-5.3-0.9-7.9-1.1
			C82.8,136.8,81.7,132.5,80.6,128.1z M107,165.3c-1.4,0.8-3,1-4.6,1c-2.4-0.1-4.8-0.5-6.9-1.8c-2.9-1.8-4.8-4.7-6.3-7.6
			c-2-4.1-3.3-8.5-4.6-12.9c3,0.3,6,0.8,8.9,1.5c2.1,3.8,4.3,7.7,7.1,11.1c1.7,2,3.5,4,5.8,5.2c0.9,0.5,2,0.9,3.1,0.8
			C109.1,163.6,108.2,164.6,107,165.3z M109.7,159.7c-0.7,0.1-1.4-0.2-2-0.5c-1.9-1-3.5-2.7-4.9-4.4c-2.2-2.6-3.9-5.5-5.6-8.5
			c3.5,1.2,6.9,2.8,9.5,5.3c1.8,1.8,3.2,4.1,3.4,6.7C110.2,158.8,110.2,159.5,109.7,159.7z"/>
	</g>
</g>
</svg>
