<?xml version="1.0" encoding="utf-8"?>
<!-- Generator: Adobe Illustrator 18.1.1, SVG Export Plug-In . SVG Version: 6.00 Build 0)  -->
<svg version="1.1" id="Layer_1" xmlns="http://www.w3.org/2000/svg" xmlns:xlink="http://www.w3.org/1999/xlink" x="0px" y="0px"
	 viewBox="0 0 250 140" enable-background="new 0 0 250 140" xml:space="preserve">
<g>
	<path fill="#49434D" d="M213.9,103.7c-3.1-1.1-6-2.9-8.3-5.3c-2.6-2.7-4.5-6-5.3-9.6c-0.2-0.8-0.6-1.6-0.6-2.5
		c0-0.8-0.4-1.6-0.3-2.4c0-0.7,0-1.5,0.3-2.2c0.5-0.8,1.6-1.1,2.5-1.1c2-0.1,4,0,6-0.1c1.2,0.2,2.5,0,3.5,0.7c0.5,0.4,0.9,1,0.9,1.6
		c0.2,1.4,0.8,2.7,1.2,4c1.1,3.7,4.5,6.5,8.3,6.9c1,0.2,2,0.3,3.1,0.2c1.1,0,2.2-0.4,3.3-0.7c1.6-0.5,3-1.4,4.2-2.5
		c1.3-1.3,2.2-3.1,2.5-4.9c0.2-0.8,0.4-1.6,0.4-2.4c0-0.9-0.2-1.8-0.3-2.7c-0.3-2.4-1.9-4.6-4-5.8c-1.2-0.6-2.4-1.2-3.7-1.4
		c-0.8,0-1.6-0.1-2.4-0.3c-1.3-0.2-2.7,0.2-3.9-0.5c-0.8-0.3-1.2-1.1-1.3-1.8c-0.1-1.4-0.1-2.8-0.1-4.2c0-0.9,0.1-2,0.7-2.8
		c1.4-0.8,3-0.7,4.5-0.8c1.4,0,2.6-0.5,3.9-1c1.2-0.5,2.5-1.1,3.4-2.1c1.4-1.7,2.1-3.9,2-6c-0.1-0.9-0.3-1.7-0.6-2.5
		c-1.2-3-4.1-5-7.3-5.4c-1.5-0.4-3.1-0.2-4.6,0.2c-3,0.7-5.7,3-6.7,5.9c-0.5,1.4-0.8,2.8-1.1,4.2c-0.2,0.8-0.9,1.4-1.8,1.6
		c-2,0.3-4,0-6,0.1c-1.4,0-2.9,0.3-4.1-0.5c-0.8-0.5-1.1-1.5-1-2.4c0.2-1.3,0.4-2.6,0.8-3.9c0.5-2.3,1.6-4.5,2.8-6.5
		c1.5-2.5,3.6-4.8,6.1-6.4c2-1.3,4.2-2.4,6.5-3.1c3.9-0.9,7.9-1.2,11.9-0.6c1.9,0.3,3.7,0.9,5.5,1.6c1.4,0.6,2.8,1.3,4.1,2
		c1.1,0.6,2,1.5,3,2.3c1.1,0.8,2,1.9,2.7,3c0.7,1,1.2,2.2,1.7,3.4c0.7,1.4,1.1,2.9,1.2,4.5c0.2,1.6,0.2,3.3,0,5
		c-0.2,1.3-0.6,2.6-1.1,3.8c-0.5,1.1-1,2.1-1.8,2.9c-0.5,0.5-0.9,1.2-1.5,1.6c-0.9,0.7-1.8,1.4-2.6,2.3c-0.1,1.2,1.3,1.7,2.1,2.3
		c2.1,1.1,3.9,2.9,5.2,4.9c0.6,1,1.1,2.1,1.5,3.1c0.4,1.2,0.5,2.4,0.8,3.7c0.2,0.7-0.2,1.3,0,2c0.2,1,0,2-0.1,2.9
		c0,0.7-0.3,1.3-0.4,2c-0.4,2.4-1.4,4.6-2.6,6.7c-1.6,2.7-3.9,4.8-6.5,6.4c-2,1.2-4.1,2.3-6.3,3c-2.2,0.5-4.3,1.2-6.6,1.2
		c-1,0-2,0.3-3.1,0.2c-0.8-0.1-1.7-0.1-2.5-0.1c-1.7-0.1-3.5-0.4-5.1-0.9C215.7,104.3,214.8,104,213.9,103.7z"/>
	<path fill="#49434D" d="M126.5,75.9c-0.2-0.7-0.6-1.3-0.6-2.1c-0.7-2.4-0.4-4.9-0.8-7.4c-0.3-1.3-0.5-2.8-1.4-3.8
		c-0.5-0.8-1.4-1.3-2.1-1.8c-0.3-0.1-0.2-0.5-0.2-0.7c0.7-0.6,1.5-1,2.2-1.7c0.8-0.8,1.4-1.7,1.8-2.7c0.8-2,0.9-4.3,0.4-6.4
		c-0.5-1.7-1.4-3.4-2.9-4.5c-2.3-1.8-5.4-2.2-8.2-2c-4.5,0-9.1,0-13.6,0c-0.7-0.1-1.5,0.5-1.4,1.2c0,6.1,0,12.2,0,18.3
		c0,2.7,0,5.4,0,8.2c-0.1,1.7,0,3.5,0,5.2c0,0.5,0.3,1,0.9,1.1c1.1,0.1,2.3,0.3,3.3-0.2c0.5-1.1,0.3-2.3,0.3-3.5c0-2.1,0-4.1,0-6.2
		c0.1-1.1,0-2.1,0-3.2c0.1-0.4,0.1-0.9,0.5-1.2c0.5-0.3,1-0.3,1.5-0.3c3.1,0,6.3,0,9.4,0c0.8,0,1.7,0.2,2.4,0.6
		c1.5,0.7,2.5,2.3,2.7,4l0,0c0.1,0.9,0.4,1.8,0.5,2.7c0.2,1.6,0.2,3.2,0.3,4.8c0.1,0.7,0.1,1.4,0.5,2c0.7,0.9,1.9,0.5,2.8,0.6
		c0.5,0,0.9,0,1.4-0.1C126.5,76.7,126.7,76.3,126.5,75.9z M120,57c-1.6,1.3-3.8,1.5-5.7,1.6c-2.1,0-4.2,0-6.3,0c-1,0-2,0.1-2.9-0.2
		c-0.5-0.3-0.7-0.9-0.7-1.4c0-2.6,0-5.1,0-7.7c0-0.7-0.1-1.5,0.2-2.2c0.2-0.3,0.5-0.5,0.9-0.5c0.8-0.1,1.6,0,2.3-0.1
		c2.9,0,5.8-0.1,8.7,0.1c1.3,0,2.7,0.5,3.6,1.4c1.1,1,1.6,2.5,1.7,4C121.8,53.8,121.4,55.8,120,57z"/>
	<path fill="#49434D" d="M132.5,43.1c0.9-0.2,1.9-0.2,2.9,0c0.7,0.1,0.9,0.9,0.9,1.6c0,4.3,0,8.6,0,12.8c0,6.1,0,12.2,0,18.3
		c0,0.5-0.2,1.1-0.8,1.2c-1,0.2-2,0.1-3.1,0c-0.5-0.2-0.7-0.7-0.7-1.2c0-10.3,0-20.6,0-30.9C131.7,44.2,131.7,43.3,132.5,43.1
		L132.5,43.1z"/>
	<path fill="#49434D" d="M146.8,45.7c2.4-2.1,5.5-3.3,8.6-3.6c3.2-0.2,6.6,0.1,9.4,1.6c2.8,1.4,5,4,5.9,7c0.2,0.6,0.5,1.3,0.3,1.9
		c-0.3,0.5-0.9,0.4-1.4,0.5c-0.9,0-2,0.2-2.8-0.5c0-0.1-0.1-0.2-0.1-0.3c-0.4-0.8-0.6-1.7-1.1-2.4c-0.8-1.2-1.9-2.2-3.2-3
		c-0.7-0.5-1.6-0.6-2.4-0.8c-2.2-0.6-4.6-0.3-6.8,0.3c-2.4,0.9-4.4,2.6-5.6,4.8c-1.9,3.5-2.3,7.7-1.7,11.7c0.4,2.8,1.4,5.6,3.3,7.8
		c2.8,3,7.5,3.9,11.4,2.8c2.1-0.8,4-2.2,5.1-4.2c0.7-1.2,1.1-2.5,1.3-3.8c0.1-0.5,0.3-1.1,0.8-1.2c0.7-0.1,1.4-0.2,2.1-0.1
		c0.5,0.1,1.3,0.1,1.5,0.7c0.2,1.1-0.4,2.1-0.5,3.2c-0.2,1.2-0.9,2.3-1.5,3.3c-1.2,2.2-3.2,4-5.4,5c-3.8,1.7-8.2,1.8-12.2,0.7
		c-2.6-0.9-5.2-2.3-6.8-4.6c-1.3-1.7-2.2-3.6-2.9-5.7c-0.4-1.4-0.6-2.9-0.8-4.4c-0.3-2.8-0.1-5.6,0.6-8.3c0.5-2.4,1.7-4.5,3.1-6.5
		C145.6,47,146.1,46.3,146.8,45.7L146.8,45.7z"/>
	<path fill="#49434D" d="M172.7,43.4c0.2-0.5,0.8-0.6,1.3-0.6c6.3,0,12.6,0,18.8,0c1.9,0,3.8,0,5.7,0c0.5,0,1.1,0.3,1.2,0.8
		c0.1,0.8,0.2,1.7-0.2,2.5c-0.4,0.4-0.9,0.5-1.4,0.5c-2.7,0-5.3,0-8,0c-0.6,0-1.3,0.1-1.6,0.7c-0.4,0.9-0.1,1.9-0.2,2.8
		c-0.1,8.2,0,16.5,0,24.7c0,0.6,0,1.2-0.2,1.7c-0.3,0.5-1,0.5-1.6,0.5c-0.7,0-1.4,0.1-2.1-0.1c-0.6-0.3-0.6-1.2-0.6-1.8c0-2,0-4,0-6
		c0-5,0-10,0-15c0-1.9-0.1-3.8,0.1-5.7c0-0.6-0.1-1.4-0.8-1.7c-0.8-0.2-1.6-0.1-2.3-0.1c-2.2,0-4.4,0-6.7,0c-0.6,0-1.3-0.1-1.6-0.8
		C172.4,45.1,172.4,44.2,172.7,43.4L172.7,43.4z"/>
	<g>
		<path fill="#49434D" d="M76.1,85.2c0.2,0,0.4,0,0.6,0c0,0.3,0,0.6,0,0.9c-0.2,0-0.4,0-0.6,0C76.1,85.9,76.1,85.5,76.1,85.2
			L76.1,85.2z"/>
		<path fill="#49434D" d="M172.7,85.2c0.2,0,0.4,0,0.7,0c0,0.3,0,0.6,0,0.9c-0.2,0-0.4,0-0.7,0C172.7,85.9,172.7,85.5,172.7,85.2
			L172.7,85.2z"/>
		<path fill="#49434D" d="M2.5,85.9c0.9-0.3,2-0.3,2.9,0.3c0.5,0.4,0.8,0.9,0.9,1.5c0,0.1,0,0.3,0.1,0.4c-0.1,0-0.4,0-0.6,0
			c-0.2-0.5-0.3-1.2-0.8-1.5C4.1,86,2.7,86.1,2,87c-0.6,0.8-0.6,1.8-0.6,2.7c0,0.9,0.1,1.8,0.7,2.4C2.8,93,4.2,93.1,5,92.4
			c0.4-0.4,0.6-0.9,0.7-1.5c0.2,0,0.4,0,0.6,0c-0.1,0.5-0.2,1-0.5,1.4c-1,1.4-3.4,1.4-4.4-0.1c-0.8-1-0.6-2.4-0.6-3.6
			C0.9,87.5,1.5,86.4,2.5,85.9L2.5,85.9z"/>
		<path fill="#49434D" d="M102,85.8c0.2,0,0.4,0,0.7,0c0,1.7,0,3.4,0,5.1c0,0.6,0.3,1.2,0.8,1.6c0.8,0.5,2,0.5,2.7-0.2
			c0.4-0.4,0.6-1,0.6-1.6c0-1.6,0-3.3,0-4.9c0.2,0,0.4,0,0.6,0c0,1.8,0,3.5,0,5.3c0,1-0.7,1.9-1.6,2.1c-1.3,0.5-3.2,0-3.6-1.5
			C101.8,89.8,102,87.8,102,85.8L102,85.8z"/>
		<path fill="#49434D" d="M180.5,86.2c0.2,0,0.5,0,0.7,0c0,0.5,0,0.9,0,1.4c0.4,0,0.8,0.1,1.2,0.1c0,0.1,0,0.4,0,0.5
			c-0.4,0-0.8,0-1.2,0c0,1.3,0,2.7,0,4c0.1,0.5,0.7,0.6,1.2,0.4c0.1,0.1,0.2,0.4,0.2,0.6c-0.5,0-1.1,0.2-1.6-0.1
			c-0.4-0.3-0.5-0.8-0.5-1.2c0-1.2,0-2.5,0-3.7c-0.3,0-0.7,0-1,0c0-0.1,0-0.4,0-0.5c0.3-0.2,0.7-0.1,1-0.1
			C180.5,87.2,180.5,86.7,180.5,86.2L180.5,86.2z"/>
		<path fill="#49434D" d="M23.8,87.7c0.1,0,0.4,0,0.6,0c0,0.3,0,0.6,0,0.9c0.6-0.9,1.8-1.3,2.8-0.7c0.7,0.4,0.8,1.3,0.9,2
			c0,1.1,0,2.2,0,3.4c-0.2,0-0.4,0-0.6,0c0-1.2,0-2.5,0-3.7c0-0.6-0.3-1.2-0.9-1.3c-0.9-0.3-2,0.4-2.1,1.3c0,1.2,0,2.5,0,3.7
			c-0.2,0-0.4,0-0.6,0C23.8,91.4,23.8,89.6,23.8,87.7L23.8,87.7z"/>
		<path fill="#49434D" d="M35,88.5c0.8-1.2,2.7-1.2,3.6-0.1c0.3,0.3,0.3,0.8,0.4,1.2c-0.2,0-0.4,0-0.6,0c0-1.3-1.7-1.9-2.6-1.1
			c-0.7,0.6-0.8,1.7-0.7,2.6c0.1,0.7,0.4,1.4,1.1,1.7c0.9,0.3,2.1-0.2,2.2-1.2c0.1,0.1,0.4,0.2,0.6,0.2c-0.2,1.3-1.8,1.9-2.9,1.5
			c-0.9-0.3-1.4-1.1-1.5-2C34.4,90.3,34.5,89.3,35,88.5L35,88.5z"/>
		<path fill="#49434D" d="M56.4,87.7c0.2,0,0.4,0,0.6,0c0,0.3,0,0.6,0.1,0.9c0.2-0.2,0.4-0.5,0.6-0.7c0.4-0.2,0.9-0.3,1.4-0.3
			c0,0.2,0,0.4,0,0.7c-0.1,0-0.2,0-0.2,0c-0.9-0.2-1.7,0.6-1.8,1.4c0,1.2,0,2.4,0,3.6c-0.2,0-0.4,0-0.6,0
			C56.4,91.4,56.4,89.6,56.4,87.7L56.4,87.7z"/>
		<path fill="#49434D" d="M76.1,87.7c0.2,0,0.4,0,0.6,0c0,1.8,0,3.7,0,5.5c-0.2,0-0.5,0-0.6,0C76.1,91.4,76,89.6,76.1,87.7
			L76.1,87.7z"/>
		<path fill="#49434D" d="M114.2,87.7c0.2,0,0.4,0,0.6,0c0,0.3,0,0.6,0,0.9c0.7-1.3,3-1.4,3.5,0.1c0.4,1.5,0.1,3.1,0.2,4.6
			c-0.2,0-0.5,0-0.7,0c0-1.2,0-2.5,0-3.7c0-0.5-0.3-1.1-0.8-1.3c-0.9-0.4-2,0.2-2.1,1.1c0,1.3,0,2.6,0,3.9c-0.2,0-0.4,0-0.6,0
			C114.2,91.4,114.2,89.6,114.2,87.7L114.2,87.7z"/>
		<path fill="#49434D" d="M125.2,87.7c0.2,0,0.4,0,0.6,0c0,1.9,0,3.7,0,5.6c-0.2,0-0.4,0-0.6,0C125.2,91.4,125.2,89.6,125.2,87.7
			L125.2,87.7z"/>
		<path fill="#49434D" d="M132.1,87.7c0.2,0,0.4,0,0.7,0c0.5,1.6,1.3,3.2,1.7,4.8c0.6-1.6,1.2-3.2,1.7-4.8c0.2,0,0.4,0,0.7,0
			c-0.7,1.8-1.4,3.7-2.1,5.5c-0.2,0-0.4,0-0.6,0C133.5,91.4,132.8,89.6,132.1,87.7L132.1,87.7z"/>
		<path fill="#49434D" d="M154,88.6c0.4-0.7,1.2-1.1,2-1c0,0.2,0,0.5,0,0.7c-0.6,0-1.2,0-1.6,0.5c-0.2,0.3-0.4,0.6-0.3,1
			c0,1.2,0,2.4,0,3.5c-0.2,0-0.5,0-0.6,0c0-1.9,0-3.7,0-5.6c0.1,0,0.4,0,0.6,0.1C154,88,154,88.3,154,88.6L154,88.6z"/>
		<path fill="#49434D" d="M162.3,88.3c1-1.3,3.7-0.9,3.8,1c-0.2,0-0.5,0-0.6,0c-0.2-1.1-1.7-1.5-2.5-0.8c-0.4,0.3-0.4,1.1,0.1,1.3
			c0.9,0.5,2.1,0.4,2.8,1.3c0.5,0.7,0.1,1.7-0.6,2.1c-0.9,0.4-2.2,0.4-3-0.4c-0.3-0.3-0.4-0.7-0.5-1.1c0.1,0,0.4,0,0.6,0
			c0.2,0.3,0.2,0.8,0.6,0.9c0.7,0.3,1.7,0.4,2.2-0.2c0.4-0.4,0.1-1.1-0.3-1.3c-0.8-0.4-1.8-0.4-2.5-0.9
			C161.9,89.7,161.9,88.8,162.3,88.3L162.3,88.3z"/>
		<path fill="#49434D" d="M172.7,87.7c0.2,0,0.4,0,0.7,0c0,1.9,0,3.7,0,5.6c-0.2,0-0.4,0-0.7,0C172.7,91.4,172.7,89.6,172.7,87.7
			L172.7,87.7z"/>
		<path fill="#49434D" d="M188.1,87.7c0.2,0,0.5,0,0.7,0c0.6,1.6,1.2,3.1,1.7,4.7c0.5-1.6,1.1-3.1,1.6-4.6c0.2,0,0.5-0.1,0.7-0.1
			c-0.6,1.8-1.3,3.6-2,5.4c-0.3,0.7-0.5,1.5-1,2.1c-0.4,0.5-1.1,0.5-1.6,0.3c0-0.8,0.9-0.3,1.2-0.8c0.3-0.6,0.8-1.2,0.5-1.9
			C189.4,91.1,188.8,89.4,188.1,87.7L188.1,87.7z"/>
		<path fill="#49434D" d="M17.1,88.9c-0.5-1-1.6-1.5-2.7-1.3c-0.8,0.2-1.5,0.9-1.8,1.8c-0.3,1.2-0.2,2.6,0.8,3.4
			c0.7,0.7,1.8,0.7,2.7,0.3C17.5,92.3,17.7,90.3,17.1,88.9z M16.2,92.3c-0.6,0.7-1.7,0.7-2.4,0.1c-0.7-0.7-0.8-1.8-0.6-2.7
			c0.2-0.7,0.6-1.4,1.3-1.5c0.9-0.3,1.9,0.4,2.1,1.3C16.9,90.5,16.9,91.6,16.2,92.3z"/>
		<path fill="#49434D" d="M49.7,89c-0.5-1.2-2-1.7-3.2-1.2c-1.6,0.7-1.8,2.9-1.1,4.4c0.7,1.4,2.7,1.7,3.8,0.6
			C50.1,91.8,50.2,90.2,49.7,89z M49.3,91.2c-0.1,0.8-0.7,1.5-1.5,1.6c-0.9,0.1-1.7-0.5-1.9-1.4c-0.4-1.2,0-3,1.5-3.3
			c0.6-0.1,1.2,0.1,1.5,0.6C49.4,89.4,49.4,90.4,49.3,91.2z"/>
		<path fill="#49434D" d="M69.2,85.2c-0.2,0-0.5,0-0.6,0c0,1.1,0,2.1,0,3.2c-0.6-0.9-1.9-1.2-2.8-0.6c-1,0.7-1.1,2-1,3.2
			c0.1,0.9,0.5,1.8,1.3,2.2c0.8,0.3,1.9,0.1,2.4-0.7c0,0.2,0.1,0.5,0.2,0.7c0.2,0,0.4,0,0.5,0C69.2,90.6,69.2,87.9,69.2,85.2z
			 M68.6,91.8c-0.3,1.1-1.9,1.4-2.6,0.6c-0.6-0.7-0.6-1.7-0.5-2.6c0.1-0.7,0.5-1.5,1.2-1.7c0.8-0.2,1.6,0.3,1.9,1
			C68.6,90.1,68.6,90.9,68.6,91.8z"/>
		<path fill="#49434D" d="M87.5,89.2c0-0.5-0.3-0.9-0.6-1.2c-1.2-0.8-3.3-0.3-3.5,1.3c0.2,0,0.5,0,0.6,0c0.2-1.3,2.1-1.5,2.8-0.5
			c0.2,0.4,0.1,0.9,0.2,1.3c-1.1,0-2.3-0.2-3.2,0.6c-0.8,0.6-0.6,2.1,0.3,2.5c1,0.5,2.2,0.1,2.9-0.7c0,0.3,0.1,0.5,0.1,0.8
			c0.2,0,0.4,0,0.7,0C87.4,91.9,87.5,90.5,87.5,89.2z M86.6,92.2c-0.6,0.6-1.6,0.9-2.3,0.5c-0.6-0.3-0.6-1.2-0.1-1.6
			c0.7-0.6,1.8-0.5,2.7-0.5C86.8,91.1,87,91.7,86.6,92.2z"/>
		<path fill="#49434D" d="M146.8,88.6c-0.6-1.2-2.4-1.3-3.3-0.4c-1.1,1-1.2,2.9-0.4,4.2c0.8,1.3,2.9,1.3,4,0.3
			c-0.1-0.2-0.3-0.5-0.5-0.2c-0.7,0.5-1.9,0.7-2.6,0c-0.5-0.5-0.6-1.2-0.7-1.8c1.3,0,2.6,0,3.9,0C147.1,89.9,147.1,89.2,146.8,88.6z
			 M143.2,90c0.1-0.5,0.2-1,0.6-1.4c0.6-0.7,1.9-0.6,2.3,0.2c0.2,0.3,0.2,0.7,0.3,1.1C145.4,90,144.3,90,143.2,90z"/>
	</g>
	<path fill="#49434D" d="M47.8,43.9c2-1.1,4.4-1.7,6.7-1.7c3-0.2,6.2,0.3,8.8,1.9c1.4,0.8,2.6,2.1,3.3,3.5c0.6,1,0.9,2.2,1.1,3.4
		c0.1,0.6,0.2,1.6-0.6,1.8c-0.9,0.1-1.8,0.1-2.8,0c-0.6-0.1-0.9-0.7-1-1.2c-0.4-1.8-1.5-3.5-3.1-4.4c-2.2-1.3-5-1.4-7.5-1
		c-1.5,0.3-3.1,0.9-4.1,2.1c-0.8,0.9-1.1,2.2-1.2,3.4c0,1.1,0.4,2.2,1.2,3c1.2,1,2.6,1.7,4.2,2.1c2.4,0.7,4.8,1,7.1,1.7
		c2.7,0.6,5.4,1.6,7.3,3.7c0.6,0.6,1.1,1.4,1.4,2.1c1.1,3,0.8,6.5-1.1,9.1c-1.1,1.6-2.8,2.5-4.5,3.4c-3,1.2-6.3,1.5-9.5,1.2
		c-2.3-0.2-4.6-0.9-6.5-2.1c-2.6-1.6-4.5-4.4-5-7.4c-0.1-0.7-0.4-1.8,0.5-2.2c1-0.2,2-0.2,3,0c0.7,0.3,0.6,1.1,0.8,1.6
		c0.4,1.8,1.5,3.5,3,4.6c0.9,0.7,2,1,3.1,1.4c1.3,0.4,2.7,0.4,4.1,0.5c1.7-0.2,3.5-0.2,5-1.1c0.9-0.5,1.8-1,2.4-1.9
		c0.5-0.7,0.7-1.6,0.9-2.4c0.3-1.5-0.2-3.2-1.3-4.2c-1.2-1.2-2.9-1.8-4.5-2.3c-2.5-0.7-5-1-7.5-1.8c-2.6-0.6-5.1-1.7-6.9-3.6
		c-1.2-1.4-1.6-3.4-1.6-5.2c0.2-1.9,0.7-4,2-5.5C45.8,45.3,46.7,44.6,47.8,43.9L47.8,43.9z"/>
	<path fill="#49434D" d="M33.8,43c0.7-0.1,1.4-0.1,2.2-0.1c0.4,0.1,1,0.1,1.2,0.6c0.3,0.5,0.2,1,0.2,1.6c0,10.1,0,20.2,0,30.3
		c0,0.5,0,1-0.4,1.4c-0.7,0.4-1.6,0.2-2.4,0.3c-0.5,0-1.1,0.1-1.5-0.4c-0.4-0.5-0.3-1.1-0.3-1.6c0-9.8,0-19.5,0-29.3
		c0-0.7-0.2-1.5,0.1-2.1C33,43.3,33.4,43.1,33.8,43L33.8,43z"/>
	<path fill="#49434D" d="M70.6,43c0.3-0.2,0.7-0.2,1.1-0.2c8.1,0,16.2,0,24.4,0c0.5,0,1.1,0.3,1.2,0.8c0.1,0.8,0.2,1.7-0.1,2.4
		c-0.2,0.5-0.8,0.5-1.3,0.5c-2.4,0-4.8,0-7.2,0c-0.7,0-1.4-0.1-2.1,0.2c-0.6,0.3-0.8,1-0.8,1.6c0.1,1.4,0.1,2.7,0.1,4.1
		c0,7.5,0,15.1,0,22.6c0,0.5,0,1.1-0.3,1.5c-0.3,0.4-0.8,0.3-1.2,0.3c-0.7,0-1.5,0-2.2,0c-0.6,0-0.8-0.8-0.8-1.3
		c0-9.2,0-18.4,0-27.6c0-0.5-0.3-1.2-0.9-1.3c-1-0.2-2-0.1-2.9-0.1c-2.1,0-4.2,0-6.3,0c-0.7,0.1-1.4-0.6-1.3-1.3
		C70,44.5,69.9,43.5,70.6,43L70.6,43z"/>
	<path fill="#49434D" d="M27.8,54.9c-0.3-2.2-1.1-4.3-2.3-6.1c-1.3-1.9-3.2-3.5-5.3-4.4c-2.1-0.8-4.2-1.4-6.4-1.4
		c-1,0-1.9-0.1-2.9-0.1c-3.1,0-6.1,0-9.2,0c-0.5,0-1,0-1.3,0.4C-0.1,43.7,0,44.5,0,45.1c0,7.5,0,15.1,0,22.6c0,0.4,0,0.8,0,1.2
		c0,0.5,0,1.1,0,1.6c0,1.6,0,3.3,0,4.9c0,0.5,0.1,1.2,0.6,1.4C1.3,77.1,2.1,77,2.8,77c2.8,0,5.6,0,8.4,0c1.4,0,2.7,0,4.1-0.2
		c0.6-0.1,1.2-0.2,1.8-0.3c1.8-0.6,3.6-1.2,5.1-2.3c3-2.1,4.7-5.7,5.4-9.2c0.2-1.6,0.4-3.2,0.5-4.8C28.1,58.4,28.2,56.6,27.8,54.9z
		 M23.4,62.7c-0.1,1.4-0.5,2.7-0.9,4c-0.9,2.3-2.6,4.4-4.9,5.4c-0.9,0.4-1.8,0.7-2.7,0.9c-2.8,0.4-5.6,0.2-8.5,0.3
		c-0.6,0-1.4,0-1.7-0.6c-0.2-0.5-0.2-1.1-0.2-1.7c0-0.9,0-1.9,0-2.8c0-6.2,0-12.5,0-18.7c0-0.8,0-1.6,0.2-2.3
		c0.3-0.6,1.1-0.5,1.7-0.6c2.4,0,4.8,0,7.2,0.1c2.7,0.1,5.5,1.1,7.3,3.2c1.7,2,2.4,4.7,2.6,7.3C23.8,59,23.6,60.8,23.4,62.7z"/>
</g>
</svg>
