<?xml version="1.0" encoding="utf-8"?>
<!-- Generator: Adobe Illustrator 18.1.1, SVG Export Plug-In . SVG Version: 6.00 Build 0)  -->
<svg version="1.1" id="Layer_1" xmlns="http://www.w3.org/2000/svg" xmlns:xlink="http://www.w3.org/1999/xlink" x="0px" y="0px"
	 viewBox="0 0 300 204" enable-background="new 0 0 300 204" xml:space="preserve">
<rect fill="#FFFFFF" width="300" height="204"/>
<g>
	<path fill="#49434D" d="M173.4,152h-46.9c-4.8,0-8.7-3.9-8.7-8.7V60.7c0-4.8,3.9-8.7,8.7-8.7h46.9c4.8,0,8.7,3.9,8.7,8.7v82.6
		C182.2,148.1,178.2,152,173.4,152z M126.6,56.2c-2.5,0-4.6,2-4.6,4.6v82.6c0,2.5,2,4.6,4.6,4.6h46.9c2.5,0,4.6-2,4.6-4.6V60.7
		c0-2.5-2-4.6-4.6-4.6H126.6z"/>
	<path fill="#49434D" d="M168,134.7h-36c-3.9,0-7.1-3.2-7.1-7.1V77.8c0-3.9,3.2-7.1,7.1-7.1h36c3.9,0,7.1,3.2,7.1,7.1v49.9
		C175.1,131.5,171.9,134.7,168,134.7z M132,74.9c-1.6,0-2.9,1.3-2.9,2.9v49.9c0,1.6,1.3,2.9,2.9,2.9h36c1.6,0,2.9-1.3,2.9-2.9V77.8
		c0-1.6-1.3-2.9-2.9-2.9H132z"/>
	<path fill="#49434D" d="M153.7,142.5h-7.5c-0.7,0-1.3-0.6-1.3-1.3V140c0-0.7,0.6-1.3,1.3-1.3h7.5c0.7,0,1.3,0.6,1.3,1.3v1.2
		C155.1,141.9,154.5,142.5,153.7,142.5z"/>
	<g>
		<path fill="#49434D" d="M156.9,65.9h-20.5c-0.7,0-1.3-0.6-1.3-1.3v-1.2c0-0.7,0.6-1.3,1.3-1.3h20.5c0.7,0,1.3,0.6,1.3,1.3v1.2
			C158.3,65.3,157.7,65.9,156.9,65.9z"/>
		<path fill="#49434D" d="M163.5,65.9h-0.6c-0.7,0-1.3-0.6-1.3-1.3v-1.2c0-0.7,0.6-1.3,1.3-1.3h0.6c0.7,0,1.3,0.6,1.3,1.3v1.2
			C164.9,65.3,164.3,65.9,163.5,65.9z"/>
	</g>
</g>
</svg>
