<?xml version="1.0" encoding="utf-8"?>
<!-- Generator: Adobe Illustrator 18.1.1, SVG Export Plug-In . SVG Version: 6.00 Build 0)  -->
<svg version="1.1" id="Layer_1" xmlns="http://www.w3.org/2000/svg" xmlns:xlink="http://www.w3.org/1999/xlink" x="0px" y="0px"
	 viewBox="0 0 300 204" enable-background="new 0 0 300 204" xml:space="preserve">
<rect fill="#FFFFFF" width="300" height="204"/>
<g>
	<g>
		<path fill="#49434D" d="M95.9,130.4c-0.7,0-1.4-0.3-1.9-0.8c-0.9-1-0.8-2.6,0.2-3.5l31.5-28c1-0.9,2.5-0.8,3.4,0.1l27.1,25.9
			L194,67.6c0.8-1.2,2.3-1.5,3.5-0.7c1.2,0.8,1.5,2.3,0.7,3.5l-39.5,58.9c-0.4,0.6-1.1,1-1.8,1.1c-0.7,0.1-1.5-0.2-2-0.7l-27.6-26.4
			l-29.8,26.4C97.1,130.2,96.5,130.4,95.9,130.4z"/>
		<g>
			<polygon fill="#49434D" points="204.5,79 206.1,54 183.6,65.1 			"/>
		</g>
	</g>
	<path fill="#49434D" d="M204.1,152h-108c-1.4,0-2.1-1.6-2.1-3V54c0-1.4,1.1-2.5,2.5-2.5S99,52.6,99,54v92h105.1
		c1.4,0,2.5,1.6,2.5,3S205.5,152,204.1,152z"/>
</g>
</svg>
