<?xml version="1.0" encoding="utf-8"?>
<!-- Generator: Adobe Illustrator 18.1.1, SVG Export Plug-In . SVG Version: 6.00 Build 0)  -->
<svg version="1.1" id="Layer_1" xmlns="http://www.w3.org/2000/svg" xmlns:xlink="http://www.w3.org/1999/xlink" x="0px" y="0px"
	 viewBox="0 0 300 204" enable-background="new 0 0 300 204" xml:space="preserve">
<rect fill="#FFFFFF" width="300" height="204"/>
<g>
	<path fill="#49434D" d="M158.6,136.6l-8.6,0l-8.4,0c-1.9,0-3.8,0-5.8,0c-4.4,0-5.3-2.4-5.4-4.4c0-1.3,0.4-2.4,1.2-3.2
		c0.9-0.9,2.2-1.4,4.1-1.4c9.6,0,19.2,0,28.8,0c1.2,0,4.3,0,5.1,3.3c0.5,2-0.1,3.3-0.7,4c-0.6,0.8-1.8,1.7-4.1,1.7
		C162.7,136.6,160.6,136.6,158.6,136.6z M149.9,132.3l8.6,0c2,0,4.1,0,6.1,0c0.4,0,0.6-0.1,0.7-0.1c0-0.1,0-0.2-0.1-0.4c0,0,0,0,0,0
		c-0.3-0.1-0.8-0.1-1-0.1c-9.6,0-19.2,0-28.8,0c-0.6,0-0.9,0.1-1,0.1c0,0,0,0.1,0,0.2c0,0,0,0.1,0,0.1c0.2,0,0.5,0.1,1.1,0.1
		c1.9,0,3.8,0,5.8,0L149.9,132.3z"/>
	<path fill="#49434D" d="M158.5,141.9c-1.5,0-3,0-4.4,0l-7.9,0l-3.6,0l-7.3,0c-4.5,0-4.9-3.4-4.9-4.5c0-2.7,1.8-4.5,4.7-4.5
		c1.8,0,3.7,0,5.5,0l4.3,0l9.8,0c3.3,0,6.5,0,9.8,0c1.2,0,4.1,0,5,3c0.5,1.6,0.3,3-0.5,4.1c-0.8,1.2-2.3,1.8-4.1,1.8
		C162.7,141.9,160.6,141.9,158.5,141.9z M149.8,137.7l4.2,0c3.6,0,7.1,0,10.7,0c0.3,0,0.5-0.1,0.7-0.1c0-0.1,0-0.2-0.1-0.4
		c-0.2,0-0.7,0-0.9,0c-3.3,0-6.5,0-9.8,0l-10.1,0l-4,0c-1.8,0-3.6,0-5.5,0c-0.3,0-0.4,0-0.5,0.1c0,0,0,0.1,0,0.2c0,0.1,0,0.2,0,0.2
		c0.1,0,0.3,0.1,0.7,0.1l7.3,0L149.8,137.7z"/>
	<path fill="#49434D" d="M149.9,152c-1.9,0-3.7-0.9-5.4-2.6c-1.7-1.7-3.5-3.3-5.4-5c-0.9-0.8-1.8-1.6-2.7-2.4l-4.1-3.7h35.6
		l-5.8,5.1c-1.1,1-2.2,1.9-3.2,2.8c-1.2,1.1-2.5,2.2-3.7,3.4C153.5,151.2,151.8,152,149.9,152z M143.4,142.5
		c1.4,1.3,2.8,2.5,4.1,3.9c0.9,0.9,1.7,1.4,2.4,1.4c0.7,0,1.4-0.4,2.2-1.2c1.3-1.3,2.7-2.5,3.9-3.6c0.2-0.1,0.3-0.3,0.5-0.4H143.4z"
		/>
	<path fill="#49434D" d="M136.1,131.2c-2.6,0-4.3-1.4-4.6-3.9c-0.1-1-0.3-1.9-0.4-2.9c-0.2-1.5-0.3-2.9-0.6-4.2l-0.1-0.5
		c-0.5-2.4-1-4.8-1.9-6.9c-1.7-3.8-3.7-7.7-6.1-11.7c-5.6-9.4-6.2-20.5-1.7-30.3c4.5-9.8,13.2-16.5,23.9-18.3
		c1.8-0.3,3.6-0.5,5.3-0.5c16.5,0,30.6,12.9,32.1,29.3c0.7,7.2-1.1,14.1-5.8,22.2c-2.4,4.2-4.2,7.8-5.5,11.2
		c-0.6,1.7-0.9,3.6-1.2,5.5c-0.1,0.9-0.2,1.8-0.4,2.7c-0.1,0.3-0.1,0.7-0.1,1c0,0.4-0.1,0.8-0.1,1.2c-0.7,4.7-2.2,5.9-6.8,5.9
		l-12.1,0c-1.3,0-2.6,0-3.9,0c-1.3,0-2.6,0-3.9,0c-2.3,0-4.2,0-6,0.1L136.1,131.2z M135.7,126.9c0.1,0,0.2,0,0.4,0l0.1,0
		c1.8,0,3.7-0.1,6.1-0.1c1.3,0,2.6,0,3.9,0c1.3,0,2.6,0,3.9,0l12.1,0c1.6,0,2-0.1,2.1-0.2c0.1-0.1,0.3-0.5,0.5-2.2
		c0-0.3,0.1-0.6,0.1-0.9c0-0.4,0.1-0.9,0.2-1.4c0.1-0.8,0.3-1.7,0.4-2.5c0.3-2.1,0.6-4.4,1.4-6.5c1.4-3.6,3.2-7.4,5.8-11.8
		c4.2-7.3,5.8-13.4,5.3-19.7c-1.3-14.3-13.5-25.5-27.8-25.5c-1.5,0-3.1,0.1-4.6,0.4c-9.3,1.6-16.9,7.4-20.8,15.9
		c-3.9,8.6-3.4,18.2,1.5,26.4c2.4,4.1,4.5,8.1,6.3,12.1c1.1,2.5,1.7,5.2,2.2,7.8l0.1,0.5c0.3,1.5,0.5,3.1,0.7,4.6
		c0.1,0.9,0.2,1.8,0.3,2.7C135.7,126.8,135.7,126.9,135.7,126.9z"/>
	<path fill="#49434D" d="M159.1,126.7h-4.2V98.6c0-2.7-2.2-4.9-4.9-4.9s-4.9,2.2-4.9,4.9v28.1h-4.2V98.6c0-5,4.1-9.1,9.1-9.1
		s9.1,4.1,9.1,9.1V126.7z"/>
</g>
</svg>
